<?xml version="1.0" encoding="utf-8"?>
<svg xmlns="http://www.w3.org/2000/svg" xmlns:xlink="http://www.w3.org/1999/xlink" width="600" height="400" viewBox="0 0 600 400">
<defs>
  <clipPath id="clip9700">
    <rect x="0" y="0" width="600" height="400"/>
  </clipPath>
</defs>
<polygon clip-path="url(#clip9700)" points="
0,400 600,400 600,0 0,0 
  " fill="#ffffff" fill-opacity="1"/>
<defs>
  <clipPath id="clip9701">
    <rect x="120" y="0" width="421" height="400"/>
  </clipPath>
</defs>
<polygon clip-path="url(#clip9700)" points="
56.0965,360.121 580.315,360.121 580.315,11.811 56.0965,11.811 
  " fill="#ffffff" fill-opacity="1"/>
<defs>
  <clipPath id="clip9702">
    <rect x="56" y="11" width="525" height="349"/>
  </clipPath>
</defs>
<polyline clip-path="url(#clip9702)" style="stroke:#000000; stroke-width:0.5; stroke-opacity:0.1; fill:none" points="
  56.0965,360.121 56.0965,11.811 
  "/>
<polyline clip-path="url(#clip9702)" style="stroke:#000000; stroke-width:0.5; stroke-opacity:0.1; fill:none" points="
  230.836,360.121 230.836,11.811 
  "/>
<polyline clip-path="url(#clip9702)" style="stroke:#000000; stroke-width:0.5; stroke-opacity:0.1; fill:none" points="
  405.575,360.121 405.575,11.811 
  "/>
<polyline clip-path="url(#clip9702)" style="stroke:#000000; stroke-width:0.5; stroke-opacity:0.1; fill:none" points="
  580.315,360.121 580.315,11.811 
  "/>
<polyline clip-path="url(#clip9702)" style="stroke:#000000; stroke-width:0.5; stroke-opacity:0.1; fill:none" points="
  56.0965,350.267 580.315,350.267 
  "/>
<polyline clip-path="url(#clip9702)" style="stroke:#000000; stroke-width:0.5; stroke-opacity:0.1; fill:none" points="
  56.0965,268.062 580.315,268.062 
  "/>
<polyline clip-path="url(#clip9702)" style="stroke:#000000; stroke-width:0.5; stroke-opacity:0.1; fill:none" points="
  56.0965,185.857 580.315,185.857 
  "/>
<polyline clip-path="url(#clip9702)" style="stroke:#000000; stroke-width:0.5; stroke-opacity:0.1; fill:none" points="
  56.0965,103.652 580.315,103.652 
  "/>
<polyline clip-path="url(#clip9702)" style="stroke:#000000; stroke-width:0.5; stroke-opacity:0.1; fill:none" points="
  56.0965,21.4464 580.315,21.4464 
  "/>
<polyline clip-path="url(#clip9700)" style="stroke:#000000; stroke-width:1; stroke-opacity:1; fill:none" points="
  56.0965,360.121 580.315,360.121 
  "/>
<polyline clip-path="url(#clip9700)" style="stroke:#000000; stroke-width:1; stroke-opacity:1; fill:none" points="
  56.0965,360.121 56.0965,11.811 
  "/>
<polyline clip-path="url(#clip9700)" style="stroke:#000000; stroke-width:1; stroke-opacity:1; fill:none" points="
  56.0965,360.121 56.0965,354.896 
  "/>
<polyline clip-path="url(#clip9700)" style="stroke:#000000; stroke-width:1; stroke-opacity:1; fill:none" points="
  230.836,360.121 230.836,354.896 
  "/>
<polyline clip-path="url(#clip9700)" style="stroke:#000000; stroke-width:1; stroke-opacity:1; fill:none" points="
  405.575,360.121 405.575,354.896 
  "/>
<polyline clip-path="url(#clip9700)" style="stroke:#000000; stroke-width:1; stroke-opacity:1; fill:none" points="
  580.315,360.121 580.315,354.896 
  "/>
<polyline clip-path="url(#clip9700)" style="stroke:#000000; stroke-width:1; stroke-opacity:1; fill:none" points="
  56.0965,350.267 63.9598,350.267 
  "/>
<polyline clip-path="url(#clip9700)" style="stroke:#000000; stroke-width:1; stroke-opacity:1; fill:none" points="
  56.0965,268.062 63.9598,268.062 
  "/>
<polyline clip-path="url(#clip9700)" style="stroke:#000000; stroke-width:1; stroke-opacity:1; fill:none" points="
  56.0965,185.857 63.9598,185.857 
  "/>
<polyline clip-path="url(#clip9700)" style="stroke:#000000; stroke-width:1; stroke-opacity:1; fill:none" points="
  56.0965,103.652 63.9598,103.652 
  "/>
<polyline clip-path="url(#clip9700)" style="stroke:#000000; stroke-width:1; stroke-opacity:1; fill:none" points="
  56.0965,21.4464 63.9598,21.4464 
  "/>
<g clip-path="url(#clip9700)">
<text style="fill:#000000; fill-opacity:1; font-family:Arial,Helvetica Neue,Helvetica,sans-serif; font-size:12; text-anchor:middle;" transform="rotate(0, 56.0965, 373.921)" x="56.0965" y="373.921">0</text>
</g>
<g clip-path="url(#clip9700)">
<text style="fill:#000000; fill-opacity:1; font-family:Arial,Helvetica Neue,Helvetica,sans-serif; font-size:12; text-anchor:middle;" transform="rotate(0, 230.836, 373.921)" x="230.836" y="373.921">5</text>
</g>
<g clip-path="url(#clip9700)">
<text style="fill:#000000; fill-opacity:1; font-family:Arial,Helvetica Neue,Helvetica,sans-serif; font-size:12; text-anchor:middle;" transform="rotate(0, 405.575, 373.921)" x="405.575" y="373.921">10</text>
</g>
<g clip-path="url(#clip9700)">
<text style="fill:#000000; fill-opacity:1; font-family:Arial,Helvetica Neue,Helvetica,sans-serif; font-size:12; text-anchor:middle;" transform="rotate(0, 580.315, 373.921)" x="580.315" y="373.921">15</text>
</g>
<g clip-path="url(#clip9700)">
<text style="fill:#000000; fill-opacity:1; font-family:Arial,Helvetica Neue,Helvetica,sans-serif; font-size:12; text-anchor:end;" transform="rotate(0, 50.0965, 354.767)" x="50.0965" y="354.767">0.0</text>
</g>
<g clip-path="url(#clip9700)">
<text style="fill:#000000; fill-opacity:1; font-family:Arial,Helvetica Neue,Helvetica,sans-serif; font-size:12; text-anchor:end;" transform="rotate(0, 50.0965, 272.562)" x="50.0965" y="272.562">0.2</text>
</g>
<g clip-path="url(#clip9700)">
<text style="fill:#000000; fill-opacity:1; font-family:Arial,Helvetica Neue,Helvetica,sans-serif; font-size:12; text-anchor:end;" transform="rotate(0, 50.0965, 190.357)" x="50.0965" y="190.357">0.4</text>
</g>
<g clip-path="url(#clip9700)">
<text style="fill:#000000; fill-opacity:1; font-family:Arial,Helvetica Neue,Helvetica,sans-serif; font-size:12; text-anchor:end;" transform="rotate(0, 50.0965, 108.152)" x="50.0965" y="108.152">0.6</text>
</g>
<g clip-path="url(#clip9700)">
<text style="fill:#000000; fill-opacity:1; font-family:Arial,Helvetica Neue,Helvetica,sans-serif; font-size:12; text-anchor:end;" transform="rotate(0, 50.0965, 25.9464)" x="50.0965" y="25.9464">0.8</text>
</g>
<g clip-path="url(#clip9700)">
<text style="fill:#000000; fill-opacity:1; font-family:Arial,Helvetica Neue,Helvetica,sans-serif; font-size:16; text-anchor:middle;" transform="rotate(0, 318.206, 397.6)" x="318.206" y="397.6">Time (Years)</text>
</g>
<g clip-path="url(#clip9700)">
<text style="fill:#000000; fill-opacity:1; font-family:Arial,Helvetica Neue,Helvetica,sans-serif; font-size:16; text-anchor:middle;" transform="rotate(-90, 14.4, 185.966)" x="14.4" y="185.966">Proportion of Population</text>
</g>
<polyline clip-path="url(#clip9702)" style="stroke:#009af9; stroke-width:3; stroke-opacity:1; fill:none" points="
  56.0965,268.066 59.5913,268.067 63.0861,268.069 66.5809,268.07 70.0757,268.072 73.5705,268.074 77.0653,268.076 80.5601,268.078 84.0549,268.08 87.5496,268.083 
  91.0444,268.086 94.5392,268.089 98.034,268.093 101.529,268.097 105.024,268.101 108.518,268.106 112.013,268.111 115.508,268.117 119.003,268.123 122.498,268.13 
  125.992,268.138 129.487,268.147 132.982,268.156 136.477,268.167 139.971,268.178 143.466,268.191 146.961,268.205 150.456,268.221 153.951,268.238 157.445,268.257 
  160.94,268.278 164.435,268.301 167.93,268.326 171.425,268.354 174.919,268.385 178.414,268.419 181.909,268.457 185.404,268.499 188.899,268.544 192.393,268.595 
  195.888,268.651 199.383,268.712 202.878,268.78 206.372,268.854 209.867,268.937 213.362,269.027 216.857,269.126 220.352,269.235 223.846,269.355 227.341,269.487 
  230.836,269.632 234.331,269.791 237.826,269.965 241.32,270.155 244.815,270.363 248.31,270.591 251.805,270.84 255.3,271.111 258.794,271.406 262.289,271.728 
  265.784,272.076 269.279,272.454 272.773,272.863 276.268,273.305 279.763,273.78 283.258,274.291 286.753,274.839 290.247,275.426 293.742,276.051 297.237,276.716 
  300.732,277.421 304.227,278.165 307.721,278.948 311.216,279.769 314.711,280.625 318.206,281.516 321.701,282.439 325.195,283.39 328.69,284.365 332.185,285.361 
  335.68,286.372 339.174,287.393 342.669,288.421 346.164,289.451 349.659,290.477 353.154,291.494 356.648,292.497 360.143,293.482 363.638,294.442 367.133,295.375 
  370.628,296.277 374.122,297.147 377.617,297.982 381.112,298.781 384.607,299.542 388.102,300.265 391.596,300.949 395.091,301.593 398.586,302.198 402.081,302.764 
  405.575,303.293 409.07,303.784 412.565,304.24 416.06,304.663 419.555,305.054 423.049,305.417 426.544,305.753 430.039,306.063 433.534,306.347 437.029,306.607 
  440.523,306.844 444.018,307.06 447.513,307.257 451.008,307.435 454.503,307.598 457.997,307.745 461.492,307.881 464.987,308.006 468.482,308.121 471.976,308.227 
  475.471,308.323 478.966,308.41 482.461,308.49 485.956,308.562 489.45,308.627 492.945,308.685 496.44,308.738 499.935,308.786 503.43,308.829 506.924,308.868 
  510.419,308.904 513.914,308.938 517.409,308.969 520.904,308.997 524.398,309.023 527.893,309.046 531.388,309.067 534.883,309.086 538.377,309.103 541.872,309.119 
  545.367,309.132 548.862,309.145 552.357,309.156 555.851,309.166 559.346,309.175 562.841,309.184 566.336,309.192 569.831,309.2 573.325,309.207 576.82,309.213 
  580.315,309.219 
  "/>
<polyline clip-path="url(#clip9702)" style="stroke:#e26f46; stroke-width:3; stroke-opacity:1; fill:none" points="
  56.0965,350.263 59.5913,350.262 63.0861,350.26 66.5809,350.259 70.0757,350.257 73.5705,350.255 77.0653,350.253 80.5601,350.251 84.0549,350.248 87.5496,350.246 
  91.0444,350.243 94.5392,350.24 98.034,350.236 101.529,350.232 105.024,350.228 108.518,350.223 112.013,350.218 115.508,350.212 119.003,350.205 122.498,350.198 
  125.992,350.191 129.487,350.182 132.982,350.173 136.477,350.162 139.971,350.15 143.466,350.138 146.961,350.124 150.456,350.108 153.951,350.091 157.445,350.072 
  160.94,350.051 164.435,350.028 167.93,350.003 171.425,349.975 174.919,349.944 178.414,349.909 181.909,349.872 185.404,349.83 188.899,349.784 192.393,349.734 
  195.888,349.678 199.383,349.616 202.878,349.549 206.372,349.474 209.867,349.392 213.362,349.302 216.857,349.203 220.352,349.093 223.846,348.973 227.341,348.842 
  230.836,348.697 234.331,348.538 237.826,348.364 241.32,348.174 244.815,347.965 248.31,347.738 251.805,347.489 255.3,347.218 258.794,346.923 262.289,346.601 
  265.784,346.252 269.279,345.874 272.773,345.465 276.268,345.024 279.763,344.548 283.258,344.037 286.753,343.489 290.247,342.903 293.742,342.277 297.237,341.612 
  300.732,340.907 304.227,340.163 307.721,339.38 311.216,338.56 314.711,337.704 318.206,336.813 321.701,335.89 325.195,334.939 328.69,333.963 332.185,332.968 
  335.68,331.957 339.174,330.935 342.669,329.907 346.164,328.878 349.659,327.852 353.154,326.835 356.648,325.831 360.143,324.847 363.638,323.887 367.133,322.954 
  370.628,322.052 374.122,321.182 377.617,320.347 381.112,319.548 384.607,318.786 388.102,318.064 391.596,317.38 395.091,316.736 398.586,316.131 402.081,315.564 
  405.575,315.036 409.07,314.545 412.565,314.089 416.06,313.666 419.555,313.275 423.049,312.911 426.544,312.576 430.039,312.266 433.534,311.982 437.029,311.722 
  440.523,311.484 444.018,311.268 447.513,311.072 451.008,310.893 454.503,310.731 457.997,310.583 461.492,310.448 464.987,310.323 468.482,310.208 471.976,310.102 
  475.471,310.006 478.966,309.918 482.461,309.839 485.956,309.767 489.45,309.702 492.945,309.644 496.44,309.591 499.935,309.543 503.43,309.5 506.924,309.461 
  510.419,309.424 513.914,309.391 517.409,309.36 520.904,309.332 524.398,309.306 527.893,309.283 531.388,309.261 534.883,309.242 538.377,309.225 541.872,309.21 
  545.367,309.196 548.862,309.184 552.357,309.173 555.851,309.163 559.346,309.154 562.841,309.145 566.336,309.137 569.831,309.129 573.325,309.122 576.82,309.116 
  580.315,309.11 
  "/>
<polyline clip-path="url(#clip9702)" style="stroke:#3da44d; stroke-width:3; stroke-opacity:1; fill:none" points="
  56.0965,21.8574 59.5913,21.8493 63.0861,21.8413 66.5809,21.8335 70.0757,21.8259 73.5705,21.8184 77.0653,21.8111 80.5601,21.804 84.0549,21.797 87.5496,21.7902 
  91.0444,21.7835 94.5392,21.777 98.034,21.7707 101.529,21.7645 105.024,21.7585 108.518,21.7526 112.013,21.7469 115.508,21.7413 119.003,21.7359 122.498,21.7307 
  125.992,21.7256 129.487,21.7207 132.982,21.716 136.477,21.7114 139.971,21.707 143.466,21.7028 146.961,21.6988 150.456,21.695 153.951,21.6913 157.445,21.6879 
  160.94,21.6848 164.435,21.6818 167.93,21.6791 171.425,21.6767 174.919,21.6746 178.414,21.6728 181.909,21.6712 185.404,21.6701 188.899,21.6693 192.393,21.6688 
  195.888,21.6689 199.383,21.6694 202.878,21.6703 206.372,21.6719 209.867,21.674 213.362,21.6767 216.857,21.6802 220.352,21.6844 223.846,21.6894 227.341,21.6953 
  230.836,21.7022 234.331,21.7102 237.826,21.7193 241.32,21.7297 244.815,21.7415 248.31,21.7547 251.805,21.7695 255.3,21.7861 258.794,21.8047 262.289,21.8253 
  265.784,21.8481 269.279,21.8733 272.773,21.9012 276.268,21.9319 279.763,21.9655 283.258,22.0023 286.753,22.0426 290.247,22.0865 293.742,22.1344 297.237,22.1864 
  300.732,22.2428 304.227,22.3038 307.721,22.3696 311.216,22.4403 314.711,22.5161 318.206,22.5973 321.701,22.684 325.195,22.7763 328.69,22.8743 332.185,22.978 
  335.68,23.0874 339.174,23.2025 342.669,23.3233 346.164,23.4495 349.659,23.5812 353.154,23.7182 356.648,23.8601 360.143,24.0068 363.638,24.1581 367.133,24.3136 
  370.628,24.473 374.122,24.6358 377.617,24.8017 381.112,24.9702 384.607,25.1409 388.102,25.3136 391.596,25.4879 395.091,25.6633 398.586,25.8396 402.081,26.0165 
  405.575,26.1937 409.07,26.3708 412.565,26.5476 416.06,26.7237 419.555,26.899 423.049,27.0729 426.544,27.2454 430.039,27.4164 433.534,27.5856 437.029,27.7531 
  440.523,27.9186 444.018,28.082 447.513,28.2432 451.008,28.4021 454.503,28.5586 457.997,28.7125 461.492,28.8637 464.987,29.0121 468.482,29.1577 471.976,29.3005 
  475.471,29.4406 478.966,29.5779 482.461,29.7126 485.956,29.8445 489.45,29.9737 492.945,30.1003 496.44,30.2241 499.935,30.3453 503.43,30.4638 506.924,30.5796 
  510.419,30.6928 513.914,30.8033 517.409,30.9113 520.904,31.0167 524.398,31.1197 527.893,31.2203 531.388,31.3184 534.883,31.4143 538.377,31.5078 541.872,31.5991 
  545.367,31.6882 548.862,31.7752 552.357,31.86 555.851,31.9427 559.346,32.0234 562.841,32.102 566.336,32.1786 569.831,32.2533 573.325,32.3261 576.82,32.397 
  580.315,32.4662 
  "/>
<polyline clip-path="url(#clip9702)" style="stroke:#c271d2; stroke-width:3; stroke-opacity:1; fill:none" points="
  56.0965,349.856 59.5913,349.864 63.0861,349.872 66.5809,349.88 70.0757,349.887 73.5705,349.895 77.0653,349.902 80.5601,349.909 84.0549,349.916 87.5496,349.923 
  91.0444,349.93 94.5392,349.936 98.034,349.943 101.529,349.949 105.024,349.955 108.518,349.961 112.013,349.966 115.508,349.972 119.003,349.977 122.498,349.983 
  125.992,349.988 129.487,349.993 132.982,349.997 136.477,350.002 139.971,350.006 143.466,350.011 146.961,350.015 150.456,350.018 153.951,350.022 157.445,350.025 
  160.94,350.029 164.435,350.031 167.93,350.034 171.425,350.037 174.919,350.039 178.414,350.041 181.909,350.042 185.404,350.043 188.899,350.044 192.393,350.044 
  195.888,350.044 199.383,350.044 202.878,350.043 206.372,350.041 209.867,350.039 213.362,350.037 216.857,350.033 220.352,350.029 223.846,350.024 227.341,350.018 
  230.836,350.011 234.331,350.003 237.826,349.994 241.32,349.984 244.815,349.972 248.31,349.959 251.805,349.944 255.3,349.927 258.794,349.909 262.289,349.888 
  265.784,349.865 269.279,349.84 272.773,349.812 276.268,349.781 279.763,349.748 283.258,349.711 286.753,349.671 290.247,349.627 293.742,349.579 297.237,349.527 
  300.732,349.47 304.227,349.41 307.721,349.344 311.216,349.273 314.711,349.197 318.206,349.116 321.701,349.029 325.195,348.937 328.69,348.839 332.185,348.735 
  335.68,348.626 339.174,348.511 342.669,348.39 346.164,348.264 349.659,348.132 353.154,347.995 356.648,347.853 360.143,347.707 363.638,347.555 367.133,347.4 
  370.628,347.24 374.122,347.077 377.617,346.912 381.112,346.743 384.607,346.572 388.102,346.4 391.596,346.225 395.091,346.05 398.586,345.874 402.081,345.697 
  405.575,345.52 409.07,345.343 412.565,345.166 416.06,344.99 419.555,344.814 423.049,344.64 426.544,344.468 430.039,344.297 433.534,344.128 437.029,343.96 
  440.523,343.795 444.018,343.631 447.513,343.47 451.008,343.311 454.503,343.155 457.997,343.001 461.492,342.85 464.987,342.701 468.482,342.556 471.976,342.413 
  475.471,342.273 478.966,342.135 482.461,342.001 485.956,341.869 489.45,341.74 492.945,341.613 496.44,341.489 499.935,341.368 503.43,341.25 506.924,341.134 
  510.419,341.02 513.914,340.91 517.409,340.802 520.904,340.697 524.398,340.594 527.893,340.493 531.388,340.395 534.883,340.299 538.377,340.205 541.872,340.114 
  545.367,340.025 548.862,339.938 552.357,339.853 555.851,339.771 559.346,339.69 562.841,339.611 566.336,339.535 569.831,339.46 573.325,339.387 576.82,339.316 
  580.315,339.247 
  "/>
<polygon clip-path="url(#clip9700)" points="
477.574,108.291 562.315,108.291 562.315,32.691 477.574,32.691 
  " fill="#ffffff" fill-opacity="1"/>
<polyline clip-path="url(#clip9700)" style="stroke:#000000; stroke-width:1; stroke-opacity:1; fill:none" points="
  477.574,108.291 562.315,108.291 562.315,32.691 477.574,32.691 477.574,108.291 
  "/>
<polyline clip-path="url(#clip9700)" style="stroke:#009af9; stroke-width:3; stroke-opacity:1; fill:none" points="
  483.574,47.811 519.574,47.811 
  "/>
<g clip-path="url(#clip9700)">
<text style="fill:#000000; fill-opacity:1; font-family:Arial,Helvetica Neue,Helvetica,sans-serif; font-size:12; text-anchor:start;" transform="rotate(0, 525.574, 52.311)" x="525.574" y="52.311">u1(t)</text>
</g>
<polyline clip-path="url(#clip9700)" style="stroke:#e26f46; stroke-width:3; stroke-opacity:1; fill:none" points="
  483.574,62.931 519.574,62.931 
  "/>
<g clip-path="url(#clip9700)">
<text style="fill:#000000; fill-opacity:1; font-family:Arial,Helvetica Neue,Helvetica,sans-serif; font-size:12; text-anchor:start;" transform="rotate(0, 525.574, 67.431)" x="525.574" y="67.431">u2(t)</text>
</g>
<polyline clip-path="url(#clip9700)" style="stroke:#3da44d; stroke-width:3; stroke-opacity:1; fill:none" points="
  483.574,78.051 519.574,78.051 
  "/>
<g clip-path="url(#clip9700)">
<text style="fill:#000000; fill-opacity:1; font-family:Arial,Helvetica Neue,Helvetica,sans-serif; font-size:12; text-anchor:start;" transform="rotate(0, 525.574, 82.551)" x="525.574" y="82.551">u3(t)</text>
</g>
<polyline clip-path="url(#clip9700)" style="stroke:#c271d2; stroke-width:3; stroke-opacity:1; fill:none" points="
  483.574,93.171 519.574,93.171 
  "/>
<g clip-path="url(#clip9700)">
<text style="fill:#000000; fill-opacity:1; font-family:Arial,Helvetica Neue,Helvetica,sans-serif; font-size:12; text-anchor:start;" transform="rotate(0, 525.574, 97.671)" x="525.574" y="97.671">u4(t)</text>
</g>
</svg>
