<?xml version="1.0" encoding="utf-8"?>
<svg xmlns="http://www.w3.org/2000/svg" xmlns:xlink="http://www.w3.org/1999/xlink" width="600" height="400" viewBox="0 0 600 400">
<defs>
  <clipPath id="clip0600">
    <rect x="0" y="0" width="600" height="400"/>
  </clipPath>
</defs>
<polygon clip-path="url(#clip0600)" points="
0,400 600,400 600,0 0,0 
  " fill="#ffffff" fill-opacity="1"/>
<defs>
  <clipPath id="clip0601">
    <rect x="120" y="0" width="421" height="400"/>
  </clipPath>
</defs>
<polygon clip-path="url(#clip0600)" points="
40.3485,375.869 580.315,375.869 580.315,11.811 40.3485,11.811 
  " fill="#ffffff" fill-opacity="1"/>
<defs>
  <clipPath id="clip0602">
    <rect x="40" y="11" width="541" height="365"/>
  </clipPath>
</defs>
<polyline clip-path="url(#clip0602)" style="stroke:#000000; stroke-width:0.5; stroke-opacity:0.1; fill:none" points="
  79.2893,375.869 79.2893,11.811 
  "/>
<polyline clip-path="url(#clip0602)" style="stroke:#000000; stroke-width:0.5; stroke-opacity:0.1; fill:none" points="
  194.811,375.869 194.811,11.811 
  "/>
<polyline clip-path="url(#clip0602)" style="stroke:#000000; stroke-width:0.5; stroke-opacity:0.1; fill:none" points="
  310.332,375.869 310.332,11.811 
  "/>
<polyline clip-path="url(#clip0602)" style="stroke:#000000; stroke-width:0.5; stroke-opacity:0.1; fill:none" points="
  425.853,375.869 425.853,11.811 
  "/>
<polyline clip-path="url(#clip0602)" style="stroke:#000000; stroke-width:0.5; stroke-opacity:0.1; fill:none" points="
  541.374,375.869 541.374,11.811 
  "/>
<polyline clip-path="url(#clip0602)" style="stroke:#000000; stroke-width:0.5; stroke-opacity:0.1; fill:none" points="
  40.3485,365.565 580.315,365.565 
  "/>
<polyline clip-path="url(#clip0602)" style="stroke:#000000; stroke-width:0.5; stroke-opacity:0.1; fill:none" points="
  40.3485,262.53 580.315,262.53 
  "/>
<polyline clip-path="url(#clip0602)" style="stroke:#000000; stroke-width:0.5; stroke-opacity:0.1; fill:none" points="
  40.3485,159.495 580.315,159.495 
  "/>
<polyline clip-path="url(#clip0602)" style="stroke:#000000; stroke-width:0.5; stroke-opacity:0.1; fill:none" points="
  40.3485,56.4596 580.315,56.4596 
  "/>
<polyline clip-path="url(#clip0600)" style="stroke:#000000; stroke-width:1; stroke-opacity:1; fill:none" points="
  40.3485,375.869 580.315,375.869 
  "/>
<polyline clip-path="url(#clip0600)" style="stroke:#000000; stroke-width:1; stroke-opacity:1; fill:none" points="
  40.3485,375.869 40.3485,11.811 
  "/>
<polyline clip-path="url(#clip0600)" style="stroke:#000000; stroke-width:1; stroke-opacity:1; fill:none" points="
  79.2893,375.869 79.2893,370.408 
  "/>
<polyline clip-path="url(#clip0600)" style="stroke:#000000; stroke-width:1; stroke-opacity:1; fill:none" points="
  194.811,375.869 194.811,370.408 
  "/>
<polyline clip-path="url(#clip0600)" style="stroke:#000000; stroke-width:1; stroke-opacity:1; fill:none" points="
  310.332,375.869 310.332,370.408 
  "/>
<polyline clip-path="url(#clip0600)" style="stroke:#000000; stroke-width:1; stroke-opacity:1; fill:none" points="
  425.853,375.869 425.853,370.408 
  "/>
<polyline clip-path="url(#clip0600)" style="stroke:#000000; stroke-width:1; stroke-opacity:1; fill:none" points="
  541.374,375.869 541.374,370.408 
  "/>
<polyline clip-path="url(#clip0600)" style="stroke:#000000; stroke-width:1; stroke-opacity:1; fill:none" points="
  40.3485,365.565 48.448,365.565 
  "/>
<polyline clip-path="url(#clip0600)" style="stroke:#000000; stroke-width:1; stroke-opacity:1; fill:none" points="
  40.3485,262.53 48.448,262.53 
  "/>
<polyline clip-path="url(#clip0600)" style="stroke:#000000; stroke-width:1; stroke-opacity:1; fill:none" points="
  40.3485,159.495 48.448,159.495 
  "/>
<polyline clip-path="url(#clip0600)" style="stroke:#000000; stroke-width:1; stroke-opacity:1; fill:none" points="
  40.3485,56.4596 48.448,56.4596 
  "/>
<g clip-path="url(#clip0600)">
<text style="fill:#000000; fill-opacity:1; font-family:Arial,Helvetica Neue,Helvetica,sans-serif; font-size:12; text-anchor:middle;" transform="rotate(0, 79.2893, 389.669)" x="79.2893" y="389.669">0</text>
</g>
<g clip-path="url(#clip0600)">
<text style="fill:#000000; fill-opacity:1; font-family:Arial,Helvetica Neue,Helvetica,sans-serif; font-size:12; text-anchor:middle;" transform="rotate(0, 194.811, 389.669)" x="194.811" y="389.669">5</text>
</g>
<g clip-path="url(#clip0600)">
<text style="fill:#000000; fill-opacity:1; font-family:Arial,Helvetica Neue,Helvetica,sans-serif; font-size:12; text-anchor:middle;" transform="rotate(0, 310.332, 389.669)" x="310.332" y="389.669">10</text>
</g>
<g clip-path="url(#clip0600)">
<text style="fill:#000000; fill-opacity:1; font-family:Arial,Helvetica Neue,Helvetica,sans-serif; font-size:12; text-anchor:middle;" transform="rotate(0, 425.853, 389.669)" x="425.853" y="389.669">15</text>
</g>
<g clip-path="url(#clip0600)">
<text style="fill:#000000; fill-opacity:1; font-family:Arial,Helvetica Neue,Helvetica,sans-serif; font-size:12; text-anchor:middle;" transform="rotate(0, 541.374, 389.669)" x="541.374" y="389.669">20</text>
</g>
<g clip-path="url(#clip0600)">
<text style="fill:#000000; fill-opacity:1; font-family:Arial,Helvetica Neue,Helvetica,sans-serif; font-size:12; text-anchor:end;" transform="rotate(0, 34.3485, 370.065)" x="34.3485" y="370.065">0.0</text>
</g>
<g clip-path="url(#clip0600)">
<text style="fill:#000000; fill-opacity:1; font-family:Arial,Helvetica Neue,Helvetica,sans-serif; font-size:12; text-anchor:end;" transform="rotate(0, 34.3485, 267.03)" x="34.3485" y="267.03">0.1</text>
</g>
<g clip-path="url(#clip0600)">
<text style="fill:#000000; fill-opacity:1; font-family:Arial,Helvetica Neue,Helvetica,sans-serif; font-size:12; text-anchor:end;" transform="rotate(0, 34.3485, 163.995)" x="34.3485" y="163.995">0.2</text>
</g>
<g clip-path="url(#clip0600)">
<text style="fill:#000000; fill-opacity:1; font-family:Arial,Helvetica Neue,Helvetica,sans-serif; font-size:12; text-anchor:end;" transform="rotate(0, 34.3485, 60.9596)" x="34.3485" y="60.9596">0.3</text>
</g>
<polygon clip-path="url(#clip0602)" points="
70.0476,365.565 70.0476,365.565 88.531,365.565 88.531,365.565 70.0476,365.565 70.0476,365.565 
  " fill="#009af9" fill-opacity="1"/>
<polyline clip-path="url(#clip0602)" style="stroke:#000000; stroke-width:1; stroke-opacity:1; fill:none" points="
  70.0476,365.565 70.0476,365.565 88.531,365.565 70.0476,365.565 
  "/>
<polygon clip-path="url(#clip0602)" points="
93.1519,22.1145 93.1519,365.565 111.635,365.565 111.635,22.1145 93.1519,22.1145 93.1519,22.1145 
  " fill="#009af9" fill-opacity="1"/>
<polyline clip-path="url(#clip0602)" style="stroke:#000000; stroke-width:1; stroke-opacity:1; fill:none" points="
  93.1519,22.1145 93.1519,365.565 111.635,365.565 111.635,22.1145 93.1519,22.1145 
  "/>
<polygon clip-path="url(#clip0602)" points="
116.256,283.591 116.256,365.565 134.74,365.565 134.74,283.591 116.256,283.591 116.256,283.591 
  " fill="#009af9" fill-opacity="1"/>
<polyline clip-path="url(#clip0602)" style="stroke:#000000; stroke-width:1; stroke-opacity:1; fill:none" points="
  116.256,283.591 116.256,365.565 134.74,365.565 134.74,283.591 116.256,283.591 
  "/>
<polygon clip-path="url(#clip0602)" points="
139.36,324.89 139.36,365.565 157.844,365.565 157.844,324.89 139.36,324.89 139.36,324.89 
  " fill="#009af9" fill-opacity="1"/>
<polyline clip-path="url(#clip0602)" style="stroke:#000000; stroke-width:1; stroke-opacity:1; fill:none" points="
  139.36,324.89 139.36,365.565 157.844,365.565 157.844,324.89 139.36,324.89 
  "/>
<polygon clip-path="url(#clip0602)" points="
162.465,339.408 162.465,365.565 180.948,365.565 180.948,339.408 162.465,339.408 162.465,339.408 
  " fill="#009af9" fill-opacity="1"/>
<polyline clip-path="url(#clip0602)" style="stroke:#000000; stroke-width:1; stroke-opacity:1; fill:none" points="
  162.465,339.408 162.465,365.565 180.948,365.565 180.948,339.408 162.465,339.408 
  "/>
<polygon clip-path="url(#clip0602)" points="
185.569,346.057 185.569,365.565 204.052,365.565 204.052,346.057 185.569,346.057 185.569,346.057 
  " fill="#009af9" fill-opacity="1"/>
<polyline clip-path="url(#clip0602)" style="stroke:#000000; stroke-width:1; stroke-opacity:1; fill:none" points="
  185.569,346.057 185.569,365.565 204.052,365.565 204.052,346.057 185.569,346.057 
  "/>
<polygon clip-path="url(#clip0602)" points="
208.673,349.435 208.673,365.565 227.156,365.565 227.156,349.435 208.673,349.435 208.673,349.435 
  " fill="#009af9" fill-opacity="1"/>
<polyline clip-path="url(#clip0602)" style="stroke:#000000; stroke-width:1; stroke-opacity:1; fill:none" points="
  208.673,349.435 208.673,365.565 227.156,365.565 227.156,349.435 208.673,349.435 
  "/>
<polygon clip-path="url(#clip0602)" points="
231.777,351.114 231.777,365.565 250.261,365.565 250.261,351.114 231.777,351.114 231.777,351.114 
  " fill="#009af9" fill-opacity="1"/>
<polyline clip-path="url(#clip0602)" style="stroke:#000000; stroke-width:1; stroke-opacity:1; fill:none" points="
  231.777,351.114 231.777,365.565 250.261,365.565 250.261,351.114 231.777,351.114 
  "/>
<polygon clip-path="url(#clip0602)" points="
254.882,351.724 254.882,365.565 273.365,365.565 273.365,351.724 254.882,351.724 254.882,351.724 
  " fill="#009af9" fill-opacity="1"/>
<polyline clip-path="url(#clip0602)" style="stroke:#000000; stroke-width:1; stroke-opacity:1; fill:none" points="
  254.882,351.724 254.882,365.565 273.365,365.565 273.365,351.724 254.882,351.724 
  "/>
<polygon clip-path="url(#clip0602)" points="
277.986,351.518 277.986,365.565 296.469,365.565 296.469,351.518 277.986,351.518 277.986,351.518 
  " fill="#009af9" fill-opacity="1"/>
<polyline clip-path="url(#clip0602)" style="stroke:#000000; stroke-width:1; stroke-opacity:1; fill:none" points="
  277.986,351.518 277.986,365.565 296.469,365.565 296.469,351.518 277.986,351.518 
  "/>
<polygon clip-path="url(#clip0602)" points="
301.09,350.552 301.09,365.565 319.573,365.565 319.573,350.552 301.09,350.552 301.09,350.552 
  " fill="#009af9" fill-opacity="1"/>
<polyline clip-path="url(#clip0602)" style="stroke:#000000; stroke-width:1; stroke-opacity:1; fill:none" points="
  301.09,350.552 301.09,365.565 319.573,365.565 319.573,350.552 301.09,350.552 
  "/>
<polygon clip-path="url(#clip0602)" points="
324.194,348.755 324.194,365.565 342.678,365.565 342.678,348.755 324.194,348.755 324.194,348.755 
  " fill="#009af9" fill-opacity="1"/>
<polyline clip-path="url(#clip0602)" style="stroke:#000000; stroke-width:1; stroke-opacity:1; fill:none" points="
  324.194,348.755 324.194,365.565 342.678,365.565 342.678,348.755 324.194,348.755 
  "/>
<polygon clip-path="url(#clip0602)" points="
347.299,345.936 347.299,365.565 365.782,365.565 365.782,345.936 347.299,345.936 347.299,345.936 
  " fill="#009af9" fill-opacity="1"/>
<polyline clip-path="url(#clip0602)" style="stroke:#000000; stroke-width:1; stroke-opacity:1; fill:none" points="
  347.299,345.936 347.299,365.565 365.782,365.565 365.782,345.936 347.299,345.936 
  "/>
<polygon clip-path="url(#clip0602)" points="
370.403,341.784 370.403,365.565 388.886,365.565 388.886,341.784 370.403,341.784 370.403,341.784 
  " fill="#009af9" fill-opacity="1"/>
<polyline clip-path="url(#clip0602)" style="stroke:#000000; stroke-width:1; stroke-opacity:1; fill:none" points="
  370.403,341.784 370.403,365.565 388.886,365.565 388.886,341.784 370.403,341.784 
  "/>
<polygon clip-path="url(#clip0602)" points="
393.507,335.859 393.507,365.565 411.99,365.565 411.99,335.859 393.507,335.859 393.507,335.859 
  " fill="#009af9" fill-opacity="1"/>
<polyline clip-path="url(#clip0602)" style="stroke:#000000; stroke-width:1; stroke-opacity:1; fill:none" points="
  393.507,335.859 393.507,365.565 411.99,365.565 411.99,335.859 393.507,335.859 
  "/>
<polygon clip-path="url(#clip0602)" points="
416.611,327.64 416.611,365.565 435.095,365.565 435.095,327.64 416.611,327.64 416.611,327.64 
  " fill="#009af9" fill-opacity="1"/>
<polyline clip-path="url(#clip0602)" style="stroke:#000000; stroke-width:1; stroke-opacity:1; fill:none" points="
  416.611,327.64 416.611,365.565 435.095,365.565 435.095,327.64 416.611,327.64 
  "/>
<polygon clip-path="url(#clip0602)" points="
439.715,316.738 439.715,365.565 458.199,365.565 458.199,316.738 439.715,316.738 439.715,316.738 
  " fill="#009af9" fill-opacity="1"/>
<polyline clip-path="url(#clip0602)" style="stroke:#000000; stroke-width:1; stroke-opacity:1; fill:none" points="
  439.715,316.738 439.715,365.565 458.199,365.565 458.199,316.738 439.715,316.738 
  "/>
<polygon clip-path="url(#clip0602)" points="
462.82,303.578 462.82,365.565 481.303,365.565 481.303,303.578 462.82,303.578 462.82,303.578 
  " fill="#009af9" fill-opacity="1"/>
<polyline clip-path="url(#clip0602)" style="stroke:#000000; stroke-width:1; stroke-opacity:1; fill:none" points="
  462.82,303.578 462.82,365.565 481.303,365.565 481.303,303.578 462.82,303.578 
  "/>
<polygon clip-path="url(#clip0602)" points="
485.924,291.11 485.924,365.565 504.407,365.565 504.407,291.11 485.924,291.11 485.924,291.11 
  " fill="#009af9" fill-opacity="1"/>
<polyline clip-path="url(#clip0602)" style="stroke:#000000; stroke-width:1; stroke-opacity:1; fill:none" points="
  485.924,291.11 485.924,365.565 504.407,365.565 504.407,291.11 485.924,291.11 
  "/>
<polygon clip-path="url(#clip0602)" points="
509.028,288.079 509.028,365.565 527.512,365.565 527.512,288.079 509.028,288.079 509.028,288.079 
  " fill="#009af9" fill-opacity="1"/>
<polyline clip-path="url(#clip0602)" style="stroke:#000000; stroke-width:1; stroke-opacity:1; fill:none" points="
  509.028,288.079 509.028,365.565 527.512,365.565 527.512,288.079 509.028,288.079 
  "/>
<polygon clip-path="url(#clip0602)" points="
532.132,311.068 532.132,365.565 550.616,365.565 550.616,311.068 532.132,311.068 532.132,311.068 
  " fill="#009af9" fill-opacity="1"/>
<polyline clip-path="url(#clip0602)" style="stroke:#000000; stroke-width:1; stroke-opacity:1; fill:none" points="
  532.132,311.068 532.132,365.565 550.616,365.565 550.616,311.068 532.132,311.068 
  "/>
<polygon clip-path="url(#clip0600)" points="
489.608,62.931 562.315,62.931 562.315,32.691 489.608,32.691 
  " fill="#ffffff" fill-opacity="1"/>
<polyline clip-path="url(#clip0600)" style="stroke:#000000; stroke-width:1; stroke-opacity:1; fill:none" points="
  489.608,62.931 562.315,62.931 562.315,32.691 489.608,32.691 489.608,62.931 
  "/>
<polygon clip-path="url(#clip0600)" points="
495.608,53.859 531.608,53.859 531.608,41.763 495.608,41.763 495.608,53.859 
  " fill="#009af9" fill-opacity="1"/>
<polyline clip-path="url(#clip0600)" style="stroke:#000000; stroke-width:1; stroke-opacity:1; fill:none" points="
  495.608,53.859 531.608,53.859 531.608,41.763 495.608,41.763 495.608,53.859 
  "/>
<g clip-path="url(#clip0600)">
<text style="fill:#000000; fill-opacity:1; font-family:Arial,Helvetica Neue,Helvetica,sans-serif; font-size:12; text-anchor:start;" transform="rotate(0, 537.608, 52.311)" x="537.608" y="52.311">y1</text>
</g>
</svg>
