<?xml version="1.0" encoding="utf-8"?>
<svg xmlns="http://www.w3.org/2000/svg" xmlns:xlink="http://www.w3.org/1999/xlink" width="600" height="400" viewBox="0 0 600 400">
<defs>
  <clipPath id="clip1200">
    <rect x="0" y="0" width="600" height="400"/>
  </clipPath>
</defs>
<polygon clip-path="url(#clip1200)" points="
0,400 600,400 600,0 0,0 
  " fill="#ffffff" fill-opacity="1"/>
<defs>
  <clipPath id="clip1201">
    <rect x="120" y="0" width="421" height="400"/>
  </clipPath>
</defs>
<polygon clip-path="url(#clip1200)" points="
30.3126,360.121 580.315,360.121 580.315,11.811 30.3126,11.811 
  " fill="#ffffff" fill-opacity="1"/>
<defs>
  <clipPath id="clip1202">
    <rect x="30" y="11" width="551" height="349"/>
  </clipPath>
</defs>
<polyline clip-path="url(#clip1202)" style="stroke:#000000; stroke-width:0.5; stroke-opacity:0.1; fill:none" points="
  30.3126,360.121 30.3126,11.811 
  "/>
<polyline clip-path="url(#clip1202)" style="stroke:#000000; stroke-width:0.5; stroke-opacity:0.1; fill:none" points="
  140.313,360.121 140.313,11.811 
  "/>
<polyline clip-path="url(#clip1202)" style="stroke:#000000; stroke-width:0.5; stroke-opacity:0.1; fill:none" points="
  250.314,360.121 250.314,11.811 
  "/>
<polyline clip-path="url(#clip1202)" style="stroke:#000000; stroke-width:0.5; stroke-opacity:0.1; fill:none" points="
  360.314,360.121 360.314,11.811 
  "/>
<polyline clip-path="url(#clip1202)" style="stroke:#000000; stroke-width:0.5; stroke-opacity:0.1; fill:none" points="
  470.314,360.121 470.314,11.811 
  "/>
<polyline clip-path="url(#clip1202)" style="stroke:#000000; stroke-width:0.5; stroke-opacity:0.1; fill:none" points="
  580.315,360.121 580.315,11.811 
  "/>
<polyline clip-path="url(#clip1202)" style="stroke:#000000; stroke-width:0.5; stroke-opacity:0.1; fill:none" points="
  30.3126,338.227 580.315,338.227 
  "/>
<polyline clip-path="url(#clip1202)" style="stroke:#000000; stroke-width:0.5; stroke-opacity:0.1; fill:none" points="
  30.3126,257.511 580.315,257.511 
  "/>
<polyline clip-path="url(#clip1202)" style="stroke:#000000; stroke-width:0.5; stroke-opacity:0.1; fill:none" points="
  30.3126,176.795 580.315,176.795 
  "/>
<polyline clip-path="url(#clip1202)" style="stroke:#000000; stroke-width:0.5; stroke-opacity:0.1; fill:none" points="
  30.3126,96.0789 580.315,96.0789 
  "/>
<polyline clip-path="url(#clip1202)" style="stroke:#000000; stroke-width:0.5; stroke-opacity:0.1; fill:none" points="
  30.3126,15.363 580.315,15.363 
  "/>
<polyline clip-path="url(#clip1200)" style="stroke:#000000; stroke-width:1; stroke-opacity:1; fill:none" points="
  30.3126,360.121 580.315,360.121 
  "/>
<polyline clip-path="url(#clip1200)" style="stroke:#000000; stroke-width:1; stroke-opacity:1; fill:none" points="
  30.3126,360.121 30.3126,11.811 
  "/>
<polyline clip-path="url(#clip1200)" style="stroke:#000000; stroke-width:1; stroke-opacity:1; fill:none" points="
  30.3126,360.121 30.3126,354.896 
  "/>
<polyline clip-path="url(#clip1200)" style="stroke:#000000; stroke-width:1; stroke-opacity:1; fill:none" points="
  140.313,360.121 140.313,354.896 
  "/>
<polyline clip-path="url(#clip1200)" style="stroke:#000000; stroke-width:1; stroke-opacity:1; fill:none" points="
  250.314,360.121 250.314,354.896 
  "/>
<polyline clip-path="url(#clip1200)" style="stroke:#000000; stroke-width:1; stroke-opacity:1; fill:none" points="
  360.314,360.121 360.314,354.896 
  "/>
<polyline clip-path="url(#clip1200)" style="stroke:#000000; stroke-width:1; stroke-opacity:1; fill:none" points="
  470.314,360.121 470.314,354.896 
  "/>
<polyline clip-path="url(#clip1200)" style="stroke:#000000; stroke-width:1; stroke-opacity:1; fill:none" points="
  580.315,360.121 580.315,354.896 
  "/>
<polyline clip-path="url(#clip1200)" style="stroke:#000000; stroke-width:1; stroke-opacity:1; fill:none" points="
  30.3126,338.227 38.5627,338.227 
  "/>
<polyline clip-path="url(#clip1200)" style="stroke:#000000; stroke-width:1; stroke-opacity:1; fill:none" points="
  30.3126,257.511 38.5627,257.511 
  "/>
<polyline clip-path="url(#clip1200)" style="stroke:#000000; stroke-width:1; stroke-opacity:1; fill:none" points="
  30.3126,176.795 38.5627,176.795 
  "/>
<polyline clip-path="url(#clip1200)" style="stroke:#000000; stroke-width:1; stroke-opacity:1; fill:none" points="
  30.3126,96.0789 38.5627,96.0789 
  "/>
<polyline clip-path="url(#clip1200)" style="stroke:#000000; stroke-width:1; stroke-opacity:1; fill:none" points="
  30.3126,15.363 38.5627,15.363 
  "/>
<g clip-path="url(#clip1200)">
<text style="fill:#000000; fill-opacity:1; font-family:Arial,Helvetica Neue,Helvetica,sans-serif; font-size:12; text-anchor:middle;" transform="rotate(0, 30.3126, 373.921)" x="30.3126" y="373.921">0</text>
</g>
<g clip-path="url(#clip1200)">
<text style="fill:#000000; fill-opacity:1; font-family:Arial,Helvetica Neue,Helvetica,sans-serif; font-size:12; text-anchor:middle;" transform="rotate(0, 140.313, 373.921)" x="140.313" y="373.921">2</text>
</g>
<g clip-path="url(#clip1200)">
<text style="fill:#000000; fill-opacity:1; font-family:Arial,Helvetica Neue,Helvetica,sans-serif; font-size:12; text-anchor:middle;" transform="rotate(0, 250.314, 373.921)" x="250.314" y="373.921">4</text>
</g>
<g clip-path="url(#clip1200)">
<text style="fill:#000000; fill-opacity:1; font-family:Arial,Helvetica Neue,Helvetica,sans-serif; font-size:12; text-anchor:middle;" transform="rotate(0, 360.314, 373.921)" x="360.314" y="373.921">6</text>
</g>
<g clip-path="url(#clip1200)">
<text style="fill:#000000; fill-opacity:1; font-family:Arial,Helvetica Neue,Helvetica,sans-serif; font-size:12; text-anchor:middle;" transform="rotate(0, 470.314, 373.921)" x="470.314" y="373.921">8</text>
</g>
<g clip-path="url(#clip1200)">
<text style="fill:#000000; fill-opacity:1; font-family:Arial,Helvetica Neue,Helvetica,sans-serif; font-size:12; text-anchor:middle;" transform="rotate(0, 580.315, 373.921)" x="580.315" y="373.921">10</text>
</g>
<g clip-path="url(#clip1200)">
<text style="fill:#000000; fill-opacity:1; font-family:Arial,Helvetica Neue,Helvetica,sans-serif; font-size:12; text-anchor:end;" transform="rotate(0, 24.3126, 342.727)" x="24.3126" y="342.727">2</text>
</g>
<g clip-path="url(#clip1200)">
<text style="fill:#000000; fill-opacity:1; font-family:Arial,Helvetica Neue,Helvetica,sans-serif; font-size:12; text-anchor:end;" transform="rotate(0, 24.3126, 262.011)" x="24.3126" y="262.011">3</text>
</g>
<g clip-path="url(#clip1200)">
<text style="fill:#000000; fill-opacity:1; font-family:Arial,Helvetica Neue,Helvetica,sans-serif; font-size:12; text-anchor:end;" transform="rotate(0, 24.3126, 181.295)" x="24.3126" y="181.295">4</text>
</g>
<g clip-path="url(#clip1200)">
<text style="fill:#000000; fill-opacity:1; font-family:Arial,Helvetica Neue,Helvetica,sans-serif; font-size:12; text-anchor:end;" transform="rotate(0, 24.3126, 100.579)" x="24.3126" y="100.579">5</text>
</g>
<g clip-path="url(#clip1200)">
<text style="fill:#000000; fill-opacity:1; font-family:Arial,Helvetica Neue,Helvetica,sans-serif; font-size:12; text-anchor:end;" transform="rotate(0, 24.3126, 19.863)" x="24.3126" y="19.863">6</text>
</g>
<g clip-path="url(#clip1200)">
<text style="fill:#000000; fill-opacity:1; font-family:Arial,Helvetica Neue,Helvetica,sans-serif; font-size:16; text-anchor:middle;" transform="rotate(0, 305.314, 397.6)" x="305.314" y="397.6">t</text>
</g>
<polyline clip-path="url(#clip1202)" style="stroke:#009af9; stroke-width:3; stroke-opacity:1; fill:none" points="
  30.3126,338.227 30.3637,338.236 30.3827,336.846 30.404,337.094 30.4281,336.164 30.4551,337.199 30.4856,337.81 30.5198,335.931 30.5583,338.334 30.6017,342.354 
  30.6504,341.666 30.7053,340.373 30.767,343.684 30.8364,342.65 30.9145,348.105 31.0023,350.263 31.1012,348.451 31.2123,346.831 31.3374,343.61 31.4781,344.716 
  31.6364,346.19 31.8145,346.835 32.0149,345.211 32.2403,341.647 32.4939,339.487 32.7792,340.765 33.1001,339.65 33.4611,336.228 33.8673,342.166 34.3243,343.115 
  34.8314,344.489 35.3844,341.401 35.9783,340.803 36.6093,337.455 37.2719,336.739 37.9601,349.724 38.677,340.515 39.4245,327.034 40.1823,320.543 40.9444,335.472 
  41.721,315.905 42.512,309.789 43.2884,315.332 44.0678,309.593 44.8497,303.265 45.6254,322.098 46.4059,324.072 47.1995,323.974 47.9902,312.94 48.7824,298.233 
  49.5593,313.96 50.33,310.695 51.1124,325.491 51.8878,322.727 52.6741,317.372 53.4563,322.871 54.2376,307.243 55.0145,293.862 55.7703,297.515 56.5154,295.036 
  57.2514,282.513 57.981,281.249 58.6879,286.042 59.3919,282.871 60.0901,297.508 60.7828,277.705 61.4767,277.021 62.1468,266.105 62.8106,265.267 63.4583,259.817 
  64.0975,260.275 64.7218,254.368 65.34,241.265 65.9391,234.922 66.5227,222.747 67.0925,205.603 67.6393,211.655 68.1701,201.386 68.6914,194.583 69.195,204.05 
  69.6881,209.522 70.1787,205.3 70.6631,204.33 71.139,198.489 71.6093,199.837 72.0711,196.957 72.529,194.354 72.9809,199.765 73.4272,205.93 73.8745,210.128 
  74.3204,205.805 74.7651,213.293 75.2063,219.405 75.6516,225.842 76.0985,220.429 76.5464,221.327 76.9921,217.061 77.4361,213.764 77.878,210.472 78.3169,213.926 
  78.7529,202.525 79.1869,212.432 79.6158,203.149 80.0457,191.385 80.4675,189.211 80.883,185.468 81.2942,194.776 81.702,192.43 82.1098,202.789 82.5158,229.356 
  82.9275,222.939 83.349,223.144 83.7669,226.422 84.1881,214.664 84.6092,215.297 85.0263,218.243 85.4447,215.999 85.8624,211.691 86.28,224.329 86.6973,220.792 
  87.1177,219.408 87.5365,229.334 87.9564,222.225 88.3808,229.661 88.8024,233.584 89.2292,233.051 89.6581,228.406 90.087,224.679 90.5135,233.478 90.9423,223.039 
  91.3731,229.787 91.7997,229.28 92.2303,217.22 92.6585,216.272 93.0837,225.111 93.5072,232.345 93.9355,229.047 94.3665,217.744 94.7945,203.868 95.2167,226.426 
  95.6374,231.01 96.0664,236.901 96.4969,246.665 96.9329,233.958 97.3727,240.714 97.8086,239.159 98.2516,237.674 98.6927,237.576 99.1366,229.27 99.5791,228.722 
  100.02,231.387 100.461,236.764 100.905,243.726 101.352,251.948 101.805,253.145 102.263,243.709 102.722,244.003 103.18,233.773 103.638,239.849 104.096,237.065 
  104.556,220.17 105.013,222.922 105.465,223.44 105.92,225.125 106.372,214.408 106.825,209.195 107.272,213.932 107.719,218.936 108.167,211.814 108.615,213.895 
  109.062,211.143 109.509,212.941 109.954,210.656 110.401,204.505 110.847,208.134 111.29,195.417 111.735,195.296 112.174,187.417 112.612,176.657 113.046,178.365 
  113.476,178.945 113.905,194.552 114.336,186.804 114.768,199.002 115.2,203.1 115.639,197.762 116.079,192.512 116.519,207.139 116.961,215.785 117.411,214.564 
  117.863,215.949 118.32,210.336 118.778,214.313 119.239,226.416 119.705,222.902 120.178,214.443 120.65,212.151 121.124,220.328 121.599,221.1 122.079,213.111 
  122.561,202.363 123.042,194.128 123.52,198.501 123.997,198.424 124.476,202.258 124.956,198.182 125.438,205.508 125.919,206.738 126.407,219.382 126.898,219.197 
  127.396,210.926 127.895,200.712 128.394,193.986 128.891,200.151 129.387,212.223 129.888,212.174 130.395,202.497 130.901,187.595 131.406,194.293 131.908,196.612 
  132.414,193.192 132.92,192.08 133.427,184.369 133.935,176.547 134.44,155.647 134.94,157.799 135.432,145.128 135.923,139.024 136.407,138.775 136.887,143.653 
  137.365,141.312 137.844,144.661 138.32,139.952 138.797,131.708 139.27,140.959 139.742,131.526 140.215,130.654 140.684,141.357 141.155,143.759 141.63,154.445 
  142.107,144.574 142.587,154.631 143.068,145.154 143.553,143.351 144.035,137.689 144.518,138.538 145,132.338 145.483,135.013 145.965,123.671 146.446,123.766 
  146.924,136.151 147.403,134.728 147.888,123.758 148.368,137.146 148.849,147.252 149.337,155.116 149.83,150.109 150.327,158.652 150.826,166.786 151.332,163.1 
  151.842,169.475 152.355,171.559 152.874,161.217 153.398,165.221 153.921,168.657 154.449,150.732 154.979,152.414 155.505,163.313 156.036,156.006 156.57,154.587 
  157.105,152.643 157.641,164.094 158.179,157.666 158.721,145.014 159.262,137.958 159.8,128.646 160.337,130.568 160.871,150.277 161.408,151.682 161.953,148.4 
  162.5,130.81 163.045,123.835 163.586,125.785 164.126,135.155 164.668,128.456 165.213,130.646 165.758,119.858 166.304,126.795 166.848,130.189 167.397,132.681 
  167.949,136.718 168.502,135.213 169.06,134.908 169.62,147.921 170.185,152.811 170.76,149.439 171.338,153.833 171.92,151.281 172.508,141.02 173.097,148.393 
  173.688,146.422 174.285,145.735 174.883,157.137 175.489,140.83 176.099,143.469 176.708,142.686 177.322,128.266 177.937,128.697 178.549,125.534 179.166,114.129 
  179.78,114.336 180.393,114.461 181.009,129.761 181.628,132.953 182.255,127.626 182.885,140.368 183.52,140.133 184.165,142.694 184.813,145.242 185.469,121.414 
  186.128,98.6562 186.781,99.8869 187.43,91.3936 188.081,98.8056 188.731,112.447 189.388,102.372 190.049,108.925 190.713,104.306 191.383,99.2358 192.054,90.9147 
  192.726,103.5 193.402,103.629 194.085,98.0553 194.773,80.4044 195.461,60.4035 196.144,57.922 196.826,44.5958 197.508,36.5998 198.186,42.0434 198.865,46.9873 
  199.549,61.9711 200.237,64.9034 200.934,65.2215 201.636,64.4386 202.345,58.9644 203.058,58.1847 203.774,68.4928 204.498,64.215 205.23,58.5571 205.966,82.595 
  206.71,79.5545 207.467,84.407 208.23,92.1875 209.004,104.539 209.789,101.092 210.586,101.318 211.39,87.1822 212.203,84.006 213.019,80.5869 213.841,85.2668 
  214.671,98.4085 215.511,105.678 216.361,107.071 217.223,113.832 218.092,111.601 218.974,103.03 219.861,101.958 220.756,85.3164 221.656,88.1854 222.562,82.6813 
  223.474,81.5856 224.393,103.093 225.32,97.3791 226.258,88.8938 227.202,66.5521 228.15,73.323 229.102,71.0694 230.062,72.0686 231.029,81.341 232.003,83.4947 
  232.986,74.6473 233.975,93.6171 234.971,102.724 235.979,99.8608 236.995,115.332 238.019,99.9155 239.053,98.8661 240.093,101.525 241.14,90.1962 242.194,97.8681 
  243.255,82.7239 244.323,58.0803 245.396,67.575 246.472,80.0432 247.557,82.2157 248.649,82.0682 249.748,75.4836 250.853,85.8955 251.965,78.6759 253.083,64.7232 
  254.208,67.807 255.338,71.7975 256.474,51.5662 257.617,69.4462 258.765,50.2873 259.921,42.8421 261.081,46.8665 262.247,30.2193 263.419,30.719 264.597,30.384 
  265.781,32.7959 266.971,45.9352 268.167,49.6605 269.37,58.4125 270.579,75.2459 271.795,65.3388 273.017,72.9484 274.245,59.0609 275.48,68.7865 276.72,71.7235 
  277.967,43.7021 279.221,42.2402 280.481,58.5319 281.747,35.1132 283.02,50.6588 284.3,54.6958 285.585,26.7053 286.878,22.4131 288.178,21.6688 289.485,29.7472 
  290.799,39.6912 292.12,70.5391 293.447,80.694 294.781,93.495 296.121,71.2395 297.467,63.8106 298.822,53.9735 300.185,41.3549 301.556,37.1043 302.935,46.4881 
  304.323,45.8309 305.719,59.9203 307.123,55.6809 308.535,78.2106 309.956,93.6014 311.384,88.5256 312.821,115.779 314.267,114.051 315.72,111.666 317.183,113.77 
  318.656,108.935 320.139,105.763 321.632,122.828 323.137,120.825 324.651,130.534 326.177,120.878 327.714,127.135 329.265,134.405 330.827,134.544 332.402,147.722 
  333.991,142.661 335.592,135.635 337.209,147.583 338.841,151.171 340.488,139.669 342.151,132.378 343.832,126.372 345.53,125.257 347.248,149.385 348.986,135.57 
  350.741,143.882 352.518,154.868 354.316,149.199 356.135,136.292 357.978,141.35 359.846,159.697 361.738,164.106 363.656,166.501 365.601,179.312 367.573,192.476 
  369.574,204.744 371.605,213.996 373.666,227.677 375.761,221.218 377.89,235.271 380.057,232.374 382.262,240.175 384.509,216.034 386.8,173.67 389.142,189.314 
  391.538,200.661 393.987,201.915 396.492,200.478 399.059,206.385 401.689,166.741 404.389,198.446 407.167,181.503 410.02,176.724 412.962,178.998 415.996,187.542 
  419.127,182.109 422.366,153.568 425.721,175.394 429.207,172.222 432.824,161.083 436.594,124.015 440.531,148.255 444.656,149.87 448.978,172.954 453.524,206.805 
  458.312,174.58 463.374,174.782 468.763,167.374 474.51,175.961 480.677,190.27 487.325,175.731 494.536,178.436 502.423,184.874 511.12,249.99 520.797,252.117 
  531.683,254.094 543.931,234.401 557.709,206.771 573.21,265.177 580.315,257.764 
  "/>
<polygon clip-path="url(#clip1200)" points="
477.574,62.931 562.315,62.931 562.315,32.691 477.574,32.691 
  " fill="#ffffff" fill-opacity="1"/>
<polyline clip-path="url(#clip1200)" style="stroke:#000000; stroke-width:1; stroke-opacity:1; fill:none" points="
  477.574,62.931 562.315,62.931 562.315,32.691 477.574,32.691 477.574,62.931 
  "/>
<polyline clip-path="url(#clip1200)" style="stroke:#009af9; stroke-width:3; stroke-opacity:1; fill:none" points="
  483.574,47.811 519.574,47.811 
  "/>
<g clip-path="url(#clip1200)">
<text style="fill:#000000; fill-opacity:1; font-family:Arial,Helvetica Neue,Helvetica,sans-serif; font-size:12; text-anchor:start;" transform="rotate(0, 525.574, 52.311)" x="525.574" y="52.311">u4(t)</text>
</g>
</svg>
