<?xml version="1.0" encoding="utf-8"?>
<svg xmlns="http://www.w3.org/2000/svg" xmlns:xlink="http://www.w3.org/1999/xlink" width="600" height="400" viewBox="0 0 600 400">
<defs>
  <clipPath id="clip1000">
    <rect x="0" y="0" width="600" height="400"/>
  </clipPath>
</defs>
<polygon clip-path="url(#clip1000)" points="
0,400 600,400 600,0 0,0 
  " fill="#ffffff" fill-opacity="1"/>
<defs>
  <clipPath id="clip1001">
    <rect x="120" y="0" width="421" height="400"/>
  </clipPath>
</defs>
<polygon clip-path="url(#clip1000)" points="
37.0032,360.121 580.315,360.121 580.315,11.811 37.0032,11.811 
  " fill="#ffffff" fill-opacity="1"/>
<defs>
  <clipPath id="clip1002">
    <rect x="37" y="11" width="544" height="349"/>
  </clipPath>
</defs>
<polyline clip-path="url(#clip1002)" style="stroke:#000000; stroke-width:0.5; stroke-opacity:0.1; fill:none" points="
  37.0032,360.121 37.0032,11.811 
  "/>
<polyline clip-path="url(#clip1002)" style="stroke:#000000; stroke-width:0.5; stroke-opacity:0.1; fill:none" points="
  145.666,360.121 145.666,11.811 
  "/>
<polyline clip-path="url(#clip1002)" style="stroke:#000000; stroke-width:0.5; stroke-opacity:0.1; fill:none" points="
  254.328,360.121 254.328,11.811 
  "/>
<polyline clip-path="url(#clip1002)" style="stroke:#000000; stroke-width:0.5; stroke-opacity:0.1; fill:none" points="
  362.99,360.121 362.99,11.811 
  "/>
<polyline clip-path="url(#clip1002)" style="stroke:#000000; stroke-width:0.5; stroke-opacity:0.1; fill:none" points="
  471.653,360.121 471.653,11.811 
  "/>
<polyline clip-path="url(#clip1002)" style="stroke:#000000; stroke-width:0.5; stroke-opacity:0.1; fill:none" points="
  580.315,360.121 580.315,11.811 
  "/>
<polyline clip-path="url(#clip1002)" style="stroke:#000000; stroke-width:0.5; stroke-opacity:0.1; fill:none" points="
  37.0032,350.661 580.315,350.661 
  "/>
<polyline clip-path="url(#clip1002)" style="stroke:#000000; stroke-width:0.5; stroke-opacity:0.1; fill:none" points="
  37.0032,268.36 580.315,268.36 
  "/>
<polyline clip-path="url(#clip1002)" style="stroke:#000000; stroke-width:0.5; stroke-opacity:0.1; fill:none" points="
  37.0032,186.058 580.315,186.058 
  "/>
<polyline clip-path="url(#clip1002)" style="stroke:#000000; stroke-width:0.5; stroke-opacity:0.1; fill:none" points="
  37.0032,103.756 580.315,103.756 
  "/>
<polyline clip-path="url(#clip1002)" style="stroke:#000000; stroke-width:0.5; stroke-opacity:0.1; fill:none" points="
  37.0032,21.4548 580.315,21.4548 
  "/>
<polyline clip-path="url(#clip1000)" style="stroke:#000000; stroke-width:1; stroke-opacity:1; fill:none" points="
  37.0032,360.121 580.315,360.121 
  "/>
<polyline clip-path="url(#clip1000)" style="stroke:#000000; stroke-width:1; stroke-opacity:1; fill:none" points="
  37.0032,360.121 37.0032,11.811 
  "/>
<polyline clip-path="url(#clip1000)" style="stroke:#000000; stroke-width:1; stroke-opacity:1; fill:none" points="
  37.0032,360.121 37.0032,354.896 
  "/>
<polyline clip-path="url(#clip1000)" style="stroke:#000000; stroke-width:1; stroke-opacity:1; fill:none" points="
  145.666,360.121 145.666,354.896 
  "/>
<polyline clip-path="url(#clip1000)" style="stroke:#000000; stroke-width:1; stroke-opacity:1; fill:none" points="
  254.328,360.121 254.328,354.896 
  "/>
<polyline clip-path="url(#clip1000)" style="stroke:#000000; stroke-width:1; stroke-opacity:1; fill:none" points="
  362.99,360.121 362.99,354.896 
  "/>
<polyline clip-path="url(#clip1000)" style="stroke:#000000; stroke-width:1; stroke-opacity:1; fill:none" points="
  471.653,360.121 471.653,354.896 
  "/>
<polyline clip-path="url(#clip1000)" style="stroke:#000000; stroke-width:1; stroke-opacity:1; fill:none" points="
  580.315,360.121 580.315,354.896 
  "/>
<polyline clip-path="url(#clip1000)" style="stroke:#000000; stroke-width:1; stroke-opacity:1; fill:none" points="
  37.0032,350.661 45.1529,350.661 
  "/>
<polyline clip-path="url(#clip1000)" style="stroke:#000000; stroke-width:1; stroke-opacity:1; fill:none" points="
  37.0032,268.36 45.1529,268.36 
  "/>
<polyline clip-path="url(#clip1000)" style="stroke:#000000; stroke-width:1; stroke-opacity:1; fill:none" points="
  37.0032,186.058 45.1529,186.058 
  "/>
<polyline clip-path="url(#clip1000)" style="stroke:#000000; stroke-width:1; stroke-opacity:1; fill:none" points="
  37.0032,103.756 45.1529,103.756 
  "/>
<polyline clip-path="url(#clip1000)" style="stroke:#000000; stroke-width:1; stroke-opacity:1; fill:none" points="
  37.0032,21.4548 45.1529,21.4548 
  "/>
<g clip-path="url(#clip1000)">
<text style="fill:#000000; fill-opacity:1; font-family:Arial,Helvetica Neue,Helvetica,sans-serif; font-size:12; text-anchor:middle;" transform="rotate(0, 37.0032, 373.921)" x="37.0032" y="373.921">0</text>
</g>
<g clip-path="url(#clip1000)">
<text style="fill:#000000; fill-opacity:1; font-family:Arial,Helvetica Neue,Helvetica,sans-serif; font-size:12; text-anchor:middle;" transform="rotate(0, 145.666, 373.921)" x="145.666" y="373.921">2</text>
</g>
<g clip-path="url(#clip1000)">
<text style="fill:#000000; fill-opacity:1; font-family:Arial,Helvetica Neue,Helvetica,sans-serif; font-size:12; text-anchor:middle;" transform="rotate(0, 254.328, 373.921)" x="254.328" y="373.921">4</text>
</g>
<g clip-path="url(#clip1000)">
<text style="fill:#000000; fill-opacity:1; font-family:Arial,Helvetica Neue,Helvetica,sans-serif; font-size:12; text-anchor:middle;" transform="rotate(0, 362.99, 373.921)" x="362.99" y="373.921">6</text>
</g>
<g clip-path="url(#clip1000)">
<text style="fill:#000000; fill-opacity:1; font-family:Arial,Helvetica Neue,Helvetica,sans-serif; font-size:12; text-anchor:middle;" transform="rotate(0, 471.653, 373.921)" x="471.653" y="373.921">8</text>
</g>
<g clip-path="url(#clip1000)">
<text style="fill:#000000; fill-opacity:1; font-family:Arial,Helvetica Neue,Helvetica,sans-serif; font-size:12; text-anchor:middle;" transform="rotate(0, 580.315, 373.921)" x="580.315" y="373.921">10</text>
</g>
<g clip-path="url(#clip1000)">
<text style="fill:#000000; fill-opacity:1; font-family:Arial,Helvetica Neue,Helvetica,sans-serif; font-size:12; text-anchor:end;" transform="rotate(0, 31.0032, 355.161)" x="31.0032" y="355.161">0</text>
</g>
<g clip-path="url(#clip1000)">
<text style="fill:#000000; fill-opacity:1; font-family:Arial,Helvetica Neue,Helvetica,sans-serif; font-size:12; text-anchor:end;" transform="rotate(0, 31.0032, 272.86)" x="31.0032" y="272.86">5</text>
</g>
<g clip-path="url(#clip1000)">
<text style="fill:#000000; fill-opacity:1; font-family:Arial,Helvetica Neue,Helvetica,sans-serif; font-size:12; text-anchor:end;" transform="rotate(0, 31.0032, 190.558)" x="31.0032" y="190.558">10</text>
</g>
<g clip-path="url(#clip1000)">
<text style="fill:#000000; fill-opacity:1; font-family:Arial,Helvetica Neue,Helvetica,sans-serif; font-size:12; text-anchor:end;" transform="rotate(0, 31.0032, 108.256)" x="31.0032" y="108.256">15</text>
</g>
<g clip-path="url(#clip1000)">
<text style="fill:#000000; fill-opacity:1; font-family:Arial,Helvetica Neue,Helvetica,sans-serif; font-size:12; text-anchor:end;" transform="rotate(0, 31.0032, 25.9548)" x="31.0032" y="25.9548">20</text>
</g>
<g clip-path="url(#clip1000)">
<text style="fill:#000000; fill-opacity:1; font-family:Arial,Helvetica Neue,Helvetica,sans-serif; font-size:16; text-anchor:middle;" transform="rotate(0, 308.659, 397.6)" x="308.659" y="397.6">t</text>
</g>
<polyline clip-path="url(#clip1002)" style="stroke:#009af9; stroke-width:3; stroke-opacity:1; fill:none" points="
  37.0032,334.201 37.0536,334.186 37.0724,334.181 37.0935,334.174 37.1173,334.167 37.144,334.159 37.1741,334.15 37.2079,334.14 37.2459,334.129 37.2887,334.117 
  37.3369,334.104 37.3911,334.088 37.452,334.071 37.5206,334.053 37.5977,334.032 37.6845,334.01 37.7821,333.985 37.892,333.956 38.0155,333.922 38.1545,333.884 
  38.3109,333.843 38.4869,333.795 38.6848,333.743 38.9074,333.68 39.1579,333.605 39.4397,333.524 39.7568,333.428 40.1134,333.319 40.5147,333.193 40.9661,333.058 
  41.467,332.918 42.0133,332.757 42.6,332.586 43.2233,332.392 43.8779,332.171 44.5577,331.959 45.2659,331.757 46.0042,331.51 46.7528,331.21 47.5057,330.931 
  48.2729,330.635 49.0541,330.264 49.8211,329.889 50.5911,329.505 51.3635,329.099 52.1297,328.737 52.9007,328.395 53.6846,328.022 54.4658,327.638 55.2483,327.191 
  56.0157,326.76 56.7771,326.368 57.55,325.962 58.316,325.567 59.0927,325.161 59.8654,324.755 60.6371,324.299 61.4045,323.768 62.1512,323.237 62.8873,322.675 
  63.6143,322.127 64.3351,321.513 65.0333,320.931 65.7288,320.35 66.4185,319.786 67.1027,319.207 67.7882,318.558 68.4501,317.895 69.1059,317.208 69.7457,316.51 
  70.3771,315.776 70.9938,315.05 71.6045,314.245 72.1963,313.42 72.7728,312.576 73.3357,311.644 73.8759,310.719 74.4001,309.79 74.9152,308.815 75.4126,307.853 
  75.8997,306.932 76.3843,306.001 76.8628,305.048 77.3329,304.09 77.7975,303.108 78.2537,302.129 78.706,301.14 79.1524,300.138 79.5934,299.177 80.0352,298.21 
  80.4756,297.231 80.9149,296.235 81.3507,295.285 81.7906,294.341 82.2321,293.373 82.6746,292.384 83.1149,291.354 83.5535,290.311 83.9899,289.244 84.4235,288.159 
  84.8542,287.04 85.2829,285.914 85.7067,284.78 86.1313,283.571 86.548,282.331 86.9585,281.069 87.3646,279.82 87.7675,278.574 88.1703,277.345 88.5714,276.201 
  88.978,275.119 89.3944,273.957 89.8073,272.801 90.2233,271.595 90.6393,270.332 91.0513,269.08 91.4646,267.796 91.8772,266.516 92.2897,265.251 92.702,263.974 
  93.1173,262.664 93.531,261.368 93.9458,260.105 94.365,258.792 94.7815,257.521 95.2031,256.255 95.6268,254.941 96.0504,253.549 96.4718,252.219 96.8954,250.864 
  97.3209,249.438 97.7423,248.049 98.1677,246.588 98.5907,245.106 99.0107,243.576 99.4291,242.134 99.8522,240.717 100.278,239.19 100.701,237.535 101.118,235.945 
  101.533,234.468 101.957,233.003 102.382,231.598 102.813,230.165 103.247,228.618 103.678,227.167 104.116,225.62 104.551,224.096 104.99,222.476 105.427,220.809 
  105.862,219.157 106.298,217.564 106.737,215.982 107.179,214.491 107.626,213.018 108.078,211.46 108.531,209.851 108.984,208.171 109.437,206.496 109.889,204.798 
  110.343,202.986 110.795,201.127 111.242,199.312 111.691,197.427 112.137,195.547 112.585,193.537 113.027,191.563 113.468,189.637 113.91,187.665 114.353,185.701 
  114.794,183.688 115.236,181.64 115.676,179.636 116.118,177.592 116.558,175.465 116.996,173.327 117.435,171.103 117.868,168.87 118.302,166.544 118.731,164.145 
  119.155,161.8 119.579,159.591 120.004,157.329 120.432,155.096 120.858,153.014 121.292,150.88 121.726,148.709 122.161,146.599 122.598,144.626 123.042,142.599 
  123.489,140.616 123.94,138.578 124.393,136.591 124.848,134.675 125.309,132.797 125.775,130.801 126.242,128.796 126.71,126.761 127.179,124.819 127.654,122.834 
  128.13,120.735 128.604,118.572 129.077,116.362 129.548,114.244 130.021,112.128 130.495,110.03 130.971,107.952 131.447,106.01 131.929,104.172 132.414,102.39 
  132.905,100.569 133.399,98.659 133.892,96.6506 134.383,94.604 134.873,92.6972 135.367,90.9198 135.868,89.0494 136.368,87.06 136.866,85.0897 137.363,83.1933 
  137.862,81.3209 138.363,79.4697 138.864,77.634 139.365,75.7058 139.864,73.5908 140.357,71.4166 140.844,69.2556 141.329,67.0147 141.807,64.806 142.281,62.6708 
  142.754,60.6291 143.226,58.6194 143.697,56.6613 144.168,54.6521 144.635,52.7203 145.101,50.8465 145.569,48.9599 146.032,47.2222 146.498,45.5874 146.966,44.0806 
  147.437,42.6163 147.912,41.2295 148.387,39.8707 148.866,38.4789 149.342,37.1046 149.819,35.7524 150.296,34.4504 150.773,33.1618 151.248,31.8602 151.724,30.5992 
  152.196,29.4053 152.669,28.405 153.148,27.2702 153.622,26.2793 154.098,25.4914 154.58,24.8276 155.067,24.2226 155.558,23.6649 156.051,23.238 156.55,22.8391 
  157.054,22.5114 157.561,22.3096 158.074,22.148 158.591,21.9945 159.108,21.9197 159.63,21.8079 160.153,21.6886 160.673,21.6688 161.197,21.6999 161.725,21.7972 
  162.253,21.9144 162.783,22.0817 163.314,22.275 163.849,22.5055 164.384,22.6896 164.916,22.8726 165.446,23.0635 165.973,23.4125 166.504,23.8833 167.043,24.4052 
  167.582,24.8625 168.121,25.2777 168.655,25.7174 169.188,26.2588 169.724,26.8475 170.263,27.4762 170.801,28.121 171.34,28.782 171.877,29.5313 172.42,30.3643 
  172.965,31.2033 173.512,32.1138 174.063,33.0608 174.616,34.0983 175.174,35.2665 175.742,36.4688 176.313,37.6819 176.888,38.9569 177.469,40.2393 178.051,41.5247 
  178.634,42.8658 179.224,44.2324 179.815,45.6899 180.413,47.1564 181.016,48.6395 181.617,50.1414 182.224,51.652 182.832,53.1361 183.437,54.6459 184.045,56.1261 
  184.652,57.6228 185.258,59.1572 185.867,60.7294 186.478,62.3668 187.097,64.0484 187.72,65.7791 188.347,67.5773 188.984,69.4074 189.624,71.272 190.272,73.1351 
  190.923,74.9288 191.568,76.6826 192.21,78.4217 192.852,80.1807 193.495,81.9873 194.143,83.8245 194.797,85.7064 195.452,87.6011 196.114,89.5044 196.777,91.3962 
  197.441,93.3146 198.109,95.2583 198.783,97.2368 199.463,99.1946 200.142,101.099 200.818,102.981 201.491,104.838 202.164,106.685 202.835,108.531 203.506,110.4 
  204.18,112.315 204.861,114.267 205.549,116.246 206.243,118.247 206.943,120.255 207.647,122.27 208.355,124.306 209.069,126.372 209.793,128.444 210.519,130.55 
  211.255,132.694 212.002,134.869 212.756,137.066 213.521,139.302 214.296,141.57 215.083,143.854 215.878,146.143 216.681,148.417 217.487,150.68 218.299,152.955 
  219.119,155.254 219.949,157.576 220.789,159.923 221.639,162.279 222.499,164.653 223.369,167.019 224.246,169.381 225.13,171.724 226.019,174.058 226.914,176.377 
  227.815,178.694 228.722,181.015 229.638,183.349 230.565,185.677 231.497,187.97 232.434,190.248 233.375,192.51 234.323,194.774 235.278,197.027 236.24,199.282 
  237.211,201.522 238.188,203.755 239.172,205.996 240.168,208.231 241.171,210.465 242.183,212.689 243.204,214.896 244.231,217.079 245.266,219.249 246.307,221.402 
  247.355,223.536 248.41,225.639 249.47,227.711 250.533,229.773 251.605,231.824 252.684,233.856 253.769,235.868 254.861,237.868 255.959,239.846 257.064,241.797 
  258.175,243.727 259.291,245.637 260.414,247.525 261.543,249.385 262.677,251.23 263.818,253.047 264.964,254.84 266.116,256.607 267.274,258.352 268.438,260.074 
  269.607,261.777 270.783,263.466 271.965,265.135 273.153,266.786 274.347,268.419 275.548,270.037 276.755,271.627 277.968,273.199 279.188,274.745 280.413,276.276 
  281.645,277.779 282.883,279.256 284.128,280.714 285.379,282.152 286.636,283.567 287.901,284.965 289.171,286.338 290.448,287.685 291.732,289.012 293.023,290.321 
  294.321,291.613 295.626,292.892 296.937,294.152 298.254,295.397 299.578,296.621 300.908,297.819 302.246,298.995 303.592,300.152 304.947,301.289 306.309,302.409 
  307.68,303.511 309.059,304.596 310.446,305.665 311.841,306.716 313.245,307.755 314.656,308.776 316.075,309.781 317.503,310.77 318.939,311.739 320.384,312.694 
  321.839,313.63 323.304,314.549 324.779,315.453 326.265,316.343 327.761,317.217 329.269,318.076 330.787,318.917 332.319,319.745 333.862,320.559 335.418,321.358 
  336.987,322.145 338.569,322.915 340.166,323.672 341.779,324.416 343.405,325.146 345.048,325.862 346.708,326.565 348.386,327.254 350.084,327.932 351.8,328.599 
  353.534,329.252 355.289,329.895 357.065,330.527 358.862,331.146 360.683,331.753 362.528,332.351 364.397,332.938 366.291,333.514 368.213,334.08 370.161,334.636 
  372.138,335.183 374.144,335.719 376.18,336.245 378.249,336.762 380.352,337.268 382.493,337.764 384.671,338.251 386.891,338.728 389.154,339.193 391.467,339.649 
  393.835,340.097 396.253,340.537 398.728,340.967 401.264,341.39 403.862,341.803 406.53,342.208 409.273,342.606 412.092,342.995 414.998,343.375 417.995,343.748 
  421.088,344.113 424.287,344.469 427.602,344.818 431.045,345.16 434.618,345.493 438.342,345.819 442.231,346.136 446.306,346.447 450.576,346.75 455.066,347.046 
  459.796,347.335 464.796,347.614 470.12,347.886 475.797,348.149 481.889,348.403 488.456,348.649 495.579,348.885 503.37,349.112 511.962,349.33 521.521,349.537 
  532.275,349.732 544.373,349.911 557.984,350.071 573.296,350.21 580.315,350.263 
  "/>
<polygon clip-path="url(#clip1000)" points="
477.574,62.931 562.315,62.931 562.315,32.691 477.574,32.691 
  " fill="#ffffff" fill-opacity="1"/>
<polyline clip-path="url(#clip1000)" style="stroke:#000000; stroke-width:1; stroke-opacity:1; fill:none" points="
  477.574,62.931 562.315,62.931 562.315,32.691 477.574,32.691 477.574,62.931 
  "/>
<polyline clip-path="url(#clip1000)" style="stroke:#009af9; stroke-width:3; stroke-opacity:1; fill:none" points="
  483.574,47.811 519.574,47.811 
  "/>
<g clip-path="url(#clip1000)">
<text style="fill:#000000; fill-opacity:1; font-family:Arial,Helvetica Neue,Helvetica,sans-serif; font-size:12; text-anchor:start;" transform="rotate(0, 525.574, 52.311)" x="525.574" y="52.311">u2(t)</text>
</g>
</svg>
