<?xml version="1.0" encoding="utf-8"?>
<svg xmlns="http://www.w3.org/2000/svg" xmlns:xlink="http://www.w3.org/1999/xlink" width="600" height="400" viewBox="0 0 600 400">
<defs>
  <clipPath id="clip1600">
    <rect x="0" y="0" width="600" height="400"/>
  </clipPath>
</defs>
<polygon clip-path="url(#clip1600)" points="
0,400 600,400 600,0 0,0 
  " fill="#ffffff" fill-opacity="1"/>
<defs>
  <clipPath id="clip1601">
    <rect x="120" y="0" width="421" height="400"/>
  </clipPath>
</defs>
<polygon clip-path="url(#clip1600)" points="
37.3402,360.121 580.315,360.121 580.315,11.811 37.3402,11.811 
  " fill="#ffffff" fill-opacity="1"/>
<defs>
  <clipPath id="clip1602">
    <rect x="37" y="11" width="544" height="349"/>
  </clipPath>
</defs>
<polyline clip-path="url(#clip1602)" style="stroke:#000000; stroke-width:0.5; stroke-opacity:0.1; fill:none" points="
  37.3402,360.121 37.3402,11.811 
  "/>
<polyline clip-path="url(#clip1602)" style="stroke:#000000; stroke-width:0.5; stroke-opacity:0.1; fill:none" points="
  145.935,360.121 145.935,11.811 
  "/>
<polyline clip-path="url(#clip1602)" style="stroke:#000000; stroke-width:0.5; stroke-opacity:0.1; fill:none" points="
  254.53,360.121 254.53,11.811 
  "/>
<polyline clip-path="url(#clip1602)" style="stroke:#000000; stroke-width:0.5; stroke-opacity:0.1; fill:none" points="
  363.125,360.121 363.125,11.811 
  "/>
<polyline clip-path="url(#clip1602)" style="stroke:#000000; stroke-width:0.5; stroke-opacity:0.1; fill:none" points="
  471.72,360.121 471.72,11.811 
  "/>
<polyline clip-path="url(#clip1602)" style="stroke:#000000; stroke-width:0.5; stroke-opacity:0.1; fill:none" points="
  580.315,360.121 580.315,11.811 
  "/>
<polyline clip-path="url(#clip1602)" style="stroke:#000000; stroke-width:0.5; stroke-opacity:0.1; fill:none" points="
  37.3402,320.437 580.315,320.437 
  "/>
<polyline clip-path="url(#clip1602)" style="stroke:#000000; stroke-width:0.5; stroke-opacity:0.1; fill:none" points="
  37.3402,274.432 580.315,274.432 
  "/>
<polyline clip-path="url(#clip1602)" style="stroke:#000000; stroke-width:0.5; stroke-opacity:0.1; fill:none" points="
  37.3402,228.428 580.315,228.428 
  "/>
<polyline clip-path="url(#clip1602)" style="stroke:#000000; stroke-width:0.5; stroke-opacity:0.1; fill:none" points="
  37.3402,182.424 580.315,182.424 
  "/>
<polyline clip-path="url(#clip1602)" style="stroke:#000000; stroke-width:0.5; stroke-opacity:0.1; fill:none" points="
  37.3402,136.419 580.315,136.419 
  "/>
<polyline clip-path="url(#clip1602)" style="stroke:#000000; stroke-width:0.5; stroke-opacity:0.1; fill:none" points="
  37.3402,90.4147 580.315,90.4147 
  "/>
<polyline clip-path="url(#clip1602)" style="stroke:#000000; stroke-width:0.5; stroke-opacity:0.1; fill:none" points="
  37.3402,44.4103 580.315,44.4103 
  "/>
<polyline clip-path="url(#clip1600)" style="stroke:#000000; stroke-width:1; stroke-opacity:1; fill:none" points="
  37.3402,360.121 580.315,360.121 
  "/>
<polyline clip-path="url(#clip1600)" style="stroke:#000000; stroke-width:1; stroke-opacity:1; fill:none" points="
  37.3402,360.121 37.3402,11.811 
  "/>
<polyline clip-path="url(#clip1600)" style="stroke:#000000; stroke-width:1; stroke-opacity:1; fill:none" points="
  37.3402,360.121 37.3402,354.896 
  "/>
<polyline clip-path="url(#clip1600)" style="stroke:#000000; stroke-width:1; stroke-opacity:1; fill:none" points="
  145.935,360.121 145.935,354.896 
  "/>
<polyline clip-path="url(#clip1600)" style="stroke:#000000; stroke-width:1; stroke-opacity:1; fill:none" points="
  254.53,360.121 254.53,354.896 
  "/>
<polyline clip-path="url(#clip1600)" style="stroke:#000000; stroke-width:1; stroke-opacity:1; fill:none" points="
  363.125,360.121 363.125,354.896 
  "/>
<polyline clip-path="url(#clip1600)" style="stroke:#000000; stroke-width:1; stroke-opacity:1; fill:none" points="
  471.72,360.121 471.72,354.896 
  "/>
<polyline clip-path="url(#clip1600)" style="stroke:#000000; stroke-width:1; stroke-opacity:1; fill:none" points="
  580.315,360.121 580.315,354.896 
  "/>
<polyline clip-path="url(#clip1600)" style="stroke:#000000; stroke-width:1; stroke-opacity:1; fill:none" points="
  37.3402,320.437 45.4848,320.437 
  "/>
<polyline clip-path="url(#clip1600)" style="stroke:#000000; stroke-width:1; stroke-opacity:1; fill:none" points="
  37.3402,274.432 45.4848,274.432 
  "/>
<polyline clip-path="url(#clip1600)" style="stroke:#000000; stroke-width:1; stroke-opacity:1; fill:none" points="
  37.3402,228.428 45.4848,228.428 
  "/>
<polyline clip-path="url(#clip1600)" style="stroke:#000000; stroke-width:1; stroke-opacity:1; fill:none" points="
  37.3402,182.424 45.4848,182.424 
  "/>
<polyline clip-path="url(#clip1600)" style="stroke:#000000; stroke-width:1; stroke-opacity:1; fill:none" points="
  37.3402,136.419 45.4848,136.419 
  "/>
<polyline clip-path="url(#clip1600)" style="stroke:#000000; stroke-width:1; stroke-opacity:1; fill:none" points="
  37.3402,90.4147 45.4848,90.4147 
  "/>
<polyline clip-path="url(#clip1600)" style="stroke:#000000; stroke-width:1; stroke-opacity:1; fill:none" points="
  37.3402,44.4103 45.4848,44.4103 
  "/>
<g clip-path="url(#clip1600)">
<text style="fill:#000000; fill-opacity:1; font-family:Arial,Helvetica Neue,Helvetica,sans-serif; font-size:12; text-anchor:middle;" transform="rotate(0, 37.3402, 373.921)" x="37.3402" y="373.921">0</text>
</g>
<g clip-path="url(#clip1600)">
<text style="fill:#000000; fill-opacity:1; font-family:Arial,Helvetica Neue,Helvetica,sans-serif; font-size:12; text-anchor:middle;" transform="rotate(0, 145.935, 373.921)" x="145.935" y="373.921">2</text>
</g>
<g clip-path="url(#clip1600)">
<text style="fill:#000000; fill-opacity:1; font-family:Arial,Helvetica Neue,Helvetica,sans-serif; font-size:12; text-anchor:middle;" transform="rotate(0, 254.53, 373.921)" x="254.53" y="373.921">4</text>
</g>
<g clip-path="url(#clip1600)">
<text style="fill:#000000; fill-opacity:1; font-family:Arial,Helvetica Neue,Helvetica,sans-serif; font-size:12; text-anchor:middle;" transform="rotate(0, 363.125, 373.921)" x="363.125" y="373.921">6</text>
</g>
<g clip-path="url(#clip1600)">
<text style="fill:#000000; fill-opacity:1; font-family:Arial,Helvetica Neue,Helvetica,sans-serif; font-size:12; text-anchor:middle;" transform="rotate(0, 471.72, 373.921)" x="471.72" y="373.921">8</text>
</g>
<g clip-path="url(#clip1600)">
<text style="fill:#000000; fill-opacity:1; font-family:Arial,Helvetica Neue,Helvetica,sans-serif; font-size:12; text-anchor:middle;" transform="rotate(0, 580.315, 373.921)" x="580.315" y="373.921">10</text>
</g>
<g clip-path="url(#clip1600)">
<text style="fill:#000000; fill-opacity:1; font-family:Arial,Helvetica Neue,Helvetica,sans-serif; font-size:12; text-anchor:end;" transform="rotate(0, 31.3402, 324.937)" x="31.3402" y="324.937">-4</text>
</g>
<g clip-path="url(#clip1600)">
<text style="fill:#000000; fill-opacity:1; font-family:Arial,Helvetica Neue,Helvetica,sans-serif; font-size:12; text-anchor:end;" transform="rotate(0, 31.3402, 278.932)" x="31.3402" y="278.932">-3</text>
</g>
<g clip-path="url(#clip1600)">
<text style="fill:#000000; fill-opacity:1; font-family:Arial,Helvetica Neue,Helvetica,sans-serif; font-size:12; text-anchor:end;" transform="rotate(0, 31.3402, 232.928)" x="31.3402" y="232.928">-2</text>
</g>
<g clip-path="url(#clip1600)">
<text style="fill:#000000; fill-opacity:1; font-family:Arial,Helvetica Neue,Helvetica,sans-serif; font-size:12; text-anchor:end;" transform="rotate(0, 31.3402, 186.924)" x="31.3402" y="186.924">-1</text>
</g>
<g clip-path="url(#clip1600)">
<text style="fill:#000000; fill-opacity:1; font-family:Arial,Helvetica Neue,Helvetica,sans-serif; font-size:12; text-anchor:end;" transform="rotate(0, 31.3402, 140.919)" x="31.3402" y="140.919">0</text>
</g>
<g clip-path="url(#clip1600)">
<text style="fill:#000000; fill-opacity:1; font-family:Arial,Helvetica Neue,Helvetica,sans-serif; font-size:12; text-anchor:end;" transform="rotate(0, 31.3402, 94.9147)" x="31.3402" y="94.9147">1</text>
</g>
<g clip-path="url(#clip1600)">
<text style="fill:#000000; fill-opacity:1; font-family:Arial,Helvetica Neue,Helvetica,sans-serif; font-size:12; text-anchor:end;" transform="rotate(0, 31.3402, 48.9103)" x="31.3402" y="48.9103">2</text>
</g>
<g clip-path="url(#clip1600)">
<text style="fill:#000000; fill-opacity:1; font-family:Arial,Helvetica Neue,Helvetica,sans-serif; font-size:16; text-anchor:middle;" transform="rotate(0, 308.828, 397.6)" x="308.828" y="397.6">t</text>
</g>
<polyline clip-path="url(#clip1602)" style="stroke:#009af9; stroke-width:3; stroke-opacity:1; fill:none" points="
  37.3402,85.8781 37.3753,86.0485 37.3892,85.293 37.4049,85.2361 37.4225,85.6718 37.4423,85.8293 37.4646,85.909 37.4896,86.7165 37.5178,86.1935 37.5495,86.2557 
  37.5852,86.0651 37.6254,86.2274 37.6705,86.1235 37.7214,85.7563 37.7785,84.8294 37.8428,84.1483 37.9152,84.6907 37.9966,82.621 38.0881,82.989 38.1911,82.6703 
  38.307,81.9942 38.4374,81.4082 38.5841,77.7903 38.7491,77.9798 38.9347,78.5009 39.1435,77.1879 39.3784,78.4521 39.6427,78.0199 39.9401,79.6486 40.2664,80.812 
  40.6257,79.4118 41.0119,79.2391 41.4202,80.1076 41.8469,76.0004 42.2919,70.2933 42.7353,71.946 43.1736,74.5174 43.6246,74.1171 44.0844,75.3717 44.5434,75.2464 
  45.0147,66.1754 45.467,67.3714 45.9003,61.8804 46.3223,67.0088 46.7309,64.7677 47.1414,59.7993 47.5345,61.8134 47.9117,62.9443 48.2862,69.1869 48.6615,71.1361 
  49.0482,61.5692 49.4298,60.934 49.7866,55.3759 50.1313,52.7641 50.4582,47.0829 50.7636,45.7074 51.0491,44.6051 51.3228,40.6891 51.5813,42.796 51.8259,42.5213 
  52.0661,39.182 52.2952,37.9413 52.5106,36.2973 52.7185,34.6807 52.9176,35.43 53.1084,35.3506 53.2979,29.0342 53.4787,30.7933 53.6478,29.8584 53.8164,25.44 
  53.9757,25.7232 54.1292,24.9875 54.2775,26.5851 54.4216,25.2967 54.5646,26.1775 54.7042,25.977 54.8424,21.8533 54.976,21.6688 55.1044,23.1024 55.2312,24.8147 
  55.357,27.1403 55.4838,30.8257 55.6125,30.4049 55.7433,31.9524 55.8749,34.5505 56.0084,30.8452 56.1441,30.299 56.2767,32.3656 56.4101,34.3118 56.5458,34.2898 
  56.6835,33.0614 56.8206,29.333 56.9558,30.7956 57.0899,30.2195 57.2238,32.4162 57.3573,32.835 57.4929,28.4527 57.6273,29.471 57.7578,29.5328 57.8892,29.2695 
  58.0191,28.3776 58.1478,27.679 58.2753,28.8367 58.4027,33.1072 58.531,25.278 58.6609,25.9685 58.7832,29.124 58.9075,28.8023 59.0326,24.8896 59.1554,27.8359 
  59.2765,28.3599 59.399,31.5799 59.5223,33.4671 59.6479,29.2603 59.7747,30.5173 59.8982,32.9965 60.0244,32.5388 60.1523,33.5932 60.2801,31.1957 60.4092,33.068 
  60.5368,32.4082 60.6653,32.5245 60.7946,32.3385 60.9232,34.7514 61.053,34.7695 61.1846,33.6373 61.3154,32.5892 61.4453,30.5238 61.575,32.6471 61.7038,34.8938 
  61.835,37.002 61.9671,35.1255 62.1012,35.9723 62.2346,36.2007 62.3694,38.2647 62.5052,37.3664 62.6423,39.5474 62.7796,37.0962 62.9189,35.644 63.0562,35.5987 
  63.1935,35.9437 63.3308,31.5895 63.4672,34.1167 63.6011,36.6747 63.7373,36.9179 63.8743,36.2733 64.0115,37.6872 64.149,38.5697 64.2879,39.3291 64.4281,40.2039 
  64.5695,39.374 64.7119,39.6451 64.8544,39.4316 64.9978,39.1681 65.1412,36.6877 65.2839,32.399 65.4248,33.1189 65.5627,30.3605 65.7005,33.2879 65.8356,31.0498 
  65.9718,31.9087 66.1062,27.7585 66.2393,28.7313 66.3698,28.6527 66.5002,30.9367 66.6299,35.1606 66.7617,37.1951 66.8964,38.94 67.0328,34.5159 67.1712,36.7655 
  67.3074,36.5319 67.4466,39.7613 67.5859,39.376 67.7286,39.2755 67.871,41.1976 68.0153,44.5855 68.1617,47.4384 68.3124,44.2382 68.4648,41.8569 68.6168,39.3199 
  68.7677,40.4016 68.9187,39.3935 69.07,38.2039 69.2205,38.3713 69.3703,37.8866 69.5208,38.7258 69.6709,36.8537 69.821,36.2054 69.9696,40.5294 70.1194,39.7148 
  70.2718,44.14 70.4247,48.5588 70.5822,40.8886 70.7408,43.2497 70.8976,44.1022 71.0564,43.0234 71.2166,41.5558 71.3768,44.4109 71.5369,43.1981 71.6992,44.7634 
  71.8616,41.7643 72.0253,46.1846 72.188,47.3562 72.3551,48.4235 72.5234,43.315 72.6927,42.6346 72.8599,40.1328 73.0267,39.573 73.1916,41.4889 73.3563,36.5816 
  73.5208,35.8853 73.6811,35.1524 73.8408,36.365 73.9991,36.2154 74.1584,37.6376 74.3167,39.3083 74.4762,41.2793 74.6373,40.6333 74.8,38.3486 74.9619,40.6825 
  75.1242,41.2548 75.2884,40.0662 75.4525,42.0814 75.6173,45.4052 75.7852,46.2375 75.9561,46.5367 76.1284,46.4393 76.3025,48.9865 76.478,51.4578 76.6577,51.1453 
  76.8399,49.8664 77.0228,46.7909 77.207,52.4661 77.3906,49.1096 77.5799,51.4402 77.767,50.3672 77.9579,55.4469 78.1498,55.5152 78.3474,59.0575 78.5472,59.214 
  78.7511,55.4104 78.956,58.5061 79.1613,62.6057 79.3724,61.7081 79.5864,60.4704 79.8027,61.2465 80.02,59.0766 80.2399,62.0327 80.4605,63.3785 80.6853,65.3681 
  80.9132,66.5061 81.1444,71.8333 81.3797,71.9315 81.6207,68.9721 81.8637,67.9655 82.108,72.2375 82.355,77.1268 82.6082,72.7084 82.8656,67.689 83.1223,71.0261 
  83.3803,73.7521 83.6433,74.9504 83.91,75.2301 84.179,75.34 84.4519,76.4627 84.7276,79.01 85.0066,78.7422 85.2895,71.8994 85.5751,72.1934 85.8585,69.1276 
  86.1452,75.3836 86.4321,77.6886 86.7248,79.8607 87.0212,79.2725 87.3213,79.4689 87.6238,85.0759 87.9311,86.8067 88.2435,84.5949 88.5597,87.2983 88.8795,86.7334 
  89.203,87.9795 89.5303,91.0239 89.8611,90.8315 90.1957,85.1742 90.5348,88.8865 90.8749,92.6703 91.2201,99.6602 91.5696,102.358 91.9218,110.33 92.2773,109.85 
  92.6313,109.098 92.9897,107.474 93.3511,106.661 93.7157,108.702 94.0839,108.402 94.4535,108.096 94.8265,107.601 95.2029,111.32 95.5824,123.233 95.9624,124.012 
  96.3306,124.99 96.7005,127.245 97.0677,129.154 97.4316,126.752 97.7968,124.55 98.1656,126.569 98.5348,125.888 98.9036,131.505 99.2741,131.464 99.6349,126.183 
  100.008,123.949 100.385,120.564 100.77,125.332 101.157,120.017 101.55,120.6 101.946,121.777 102.346,121.867 102.747,128.997 103.152,133.868 103.545,130.696 
  103.938,134.098 104.331,141.648 104.722,142.549 105.117,145.566 105.519,141.215 105.923,145.471 106.329,147.462 106.743,145.13 107.16,142.558 107.576,135.503 
  107.989,133.036 108.397,131.564 108.81,135.825 109.223,134.44 109.63,134.372 110.04,136.839 110.449,140.672 110.865,137.354 111.282,139.734 111.7,141.17 
  112.124,143.546 112.556,139.724 112.991,143.761 113.431,148.232 113.887,145.801 114.346,145.316 114.806,142.678 115.27,143.097 115.733,147.831 116.212,147.715 
  116.693,154.172 117.195,157.083 117.707,166.853 118.245,166.871 118.791,158.726 119.35,157.721 119.904,157.894 120.467,167.454 121.053,169.074 121.646,174.222 
  122.258,169.256 122.877,173.67 123.507,172.325 124.146,178.683 124.801,175.285 125.463,178.561 126.135,175.422 126.816,177.973 127.504,183.681 128.207,185.324 
  128.92,186.531 129.642,180.585 130.373,180.853 131.106,185.984 131.854,188.259 132.609,191.43 133.376,193.001 134.152,193.769 134.937,196.959 135.733,200.416 
  136.539,201.385 137.354,206.332 138.181,205.327 139.015,202.725 139.857,206.906 140.708,205.822 141.566,212.406 142.435,211.929 143.31,215.881 144.195,218.929 
  145.088,221.44 145.989,222.775 146.898,223.262 147.813,230.993 148.739,233.16 149.671,233.793 150.609,232.07 151.555,232.361 152.506,225.766 153.464,221.668 
  154.426,224.81 155.394,222.708 156.367,220.193 157.345,219.071 158.327,226.256 159.317,228.233 160.311,216.979 161.311,223.168 162.316,216.218 163.325,204.186 
  164.338,195.349 165.354,190.223 166.371,195.571 167.395,190.236 168.421,183.423 169.451,185.661 170.484,181.974 171.521,175.765 172.56,169.772 173.602,178.99 
  174.653,176.339 175.705,180.313 176.764,186.867 177.83,184.488 178.9,184.902 179.974,180.066 181.054,176.888 182.139,179.471 183.229,181.649 184.325,190.877 
  185.43,201.199 186.541,193.132 187.656,198.724 188.777,189.766 189.904,189.507 191.036,193.934 192.175,200.901 193.32,209.78 194.47,207.448 195.625,211.604 
  196.786,197.715 197.952,198.545 199.125,198.068 200.303,191.796 201.487,186.924 202.679,188.486 203.877,187.232 205.08,188.51 206.291,188.445 207.508,196.948 
  208.733,197.872 209.962,189.403 211.199,192.414 212.442,190.4 213.693,186.342 214.951,185.676 216.218,196.024 217.493,186.483 218.773,194.875 220.065,189.318 
  221.361,197.283 222.667,199.741 223.979,198.204 225.298,193.185 226.627,199.636 227.965,198.426 229.309,203.222 230.664,212.481 232.026,221.316 233.396,223.26 
  234.773,227.938 236.159,239.807 237.554,247.776 238.956,246.14 240.368,243.882 241.79,249.263 243.222,254.38 244.665,252.788 246.118,236.08 247.585,231.11 
  249.065,232.931 250.559,226.252 252.066,218.956 253.59,218.684 255.13,209.536 256.686,229.428 258.26,232.994 259.847,226.169 261.451,232.145 263.073,229.353 
  264.713,223.336 266.373,225.729 268.053,231.424 269.753,233.453 271.473,242.309 273.216,235.737 274.98,244.988 276.77,245.323 278.582,235.467 280.421,222.23 
  282.29,235.492 284.189,243.29 286.116,246.615 288.074,245.947 290.064,255.648 292.089,257.193 294.148,249.063 296.246,239.565 298.386,233.232 300.569,250.231 
  302.8,240.223 305.076,253.042 307.404,242.547 309.785,235.054 312.226,243.277 314.729,231.951 317.295,240.576 319.935,249.555 322.647,241.962 325.439,251.862 
  328.317,276.726 331.285,276.953 334.348,281.25 337.519,265.807 340.808,273.528 344.225,276.676 347.781,293.494 351.489,308.996 355.364,316.185 359.424,302.355 
  363.691,308.619 368.192,299.649 372.953,294.437 378.013,284.709 383.411,295.981 389.198,311.394 395.434,314.4 402.195,316.576 409.582,290.021 417.721,302.053 
  426.783,319.43 436.978,327.184 448.447,344.939 461.35,350.263 475.865,329.763 492.195,322.514 510.567,311.903 531.235,280.44 554.486,290.45 580.315,307.055 
  
  "/>
<polygon clip-path="url(#clip1600)" points="
477.574,62.931 562.315,62.931 562.315,32.691 477.574,32.691 
  " fill="#ffffff" fill-opacity="1"/>
<polyline clip-path="url(#clip1600)" style="stroke:#000000; stroke-width:1; stroke-opacity:1; fill:none" points="
  477.574,62.931 562.315,62.931 562.315,32.691 477.574,32.691 477.574,62.931 
  "/>
<polyline clip-path="url(#clip1600)" style="stroke:#009af9; stroke-width:3; stroke-opacity:1; fill:none" points="
  483.574,47.811 519.574,47.811 
  "/>
<g clip-path="url(#clip1600)">
<text style="fill:#000000; fill-opacity:1; font-family:Arial,Helvetica Neue,Helvetica,sans-serif; font-size:12; text-anchor:start;" transform="rotate(0, 525.574, 52.311)" x="525.574" y="52.311">u4(t)</text>
</g>
</svg>
