<?xml version="1.0" encoding="utf-8"?>
<svg xmlns="http://www.w3.org/2000/svg" xmlns:xlink="http://www.w3.org/1999/xlink" width="600" height="400" viewBox="0 0 600 400">
<defs>
  <clipPath id="clip1400">
    <rect x="0" y="0" width="600" height="400"/>
  </clipPath>
</defs>
<polygon clip-path="url(#clip1400)" points="
0,400 600,400 600,0 0,0 
  " fill="#ffffff" fill-opacity="1"/>
<defs>
  <clipPath id="clip1401">
    <rect x="120" y="0" width="421" height="400"/>
  </clipPath>
</defs>
<polygon clip-path="url(#clip1400)" points="
37.0032,360.121 580.315,360.121 580.315,11.811 37.0032,11.811 
  " fill="#ffffff" fill-opacity="1"/>
<defs>
  <clipPath id="clip1402">
    <rect x="37" y="11" width="544" height="349"/>
  </clipPath>
</defs>
<polyline clip-path="url(#clip1402)" style="stroke:#000000; stroke-width:0.5; stroke-opacity:0.1; fill:none" points="
  37.0032,360.121 37.0032,11.811 
  "/>
<polyline clip-path="url(#clip1402)" style="stroke:#000000; stroke-width:0.5; stroke-opacity:0.1; fill:none" points="
  145.666,360.121 145.666,11.811 
  "/>
<polyline clip-path="url(#clip1402)" style="stroke:#000000; stroke-width:0.5; stroke-opacity:0.1; fill:none" points="
  254.328,360.121 254.328,11.811 
  "/>
<polyline clip-path="url(#clip1402)" style="stroke:#000000; stroke-width:0.5; stroke-opacity:0.1; fill:none" points="
  362.99,360.121 362.99,11.811 
  "/>
<polyline clip-path="url(#clip1402)" style="stroke:#000000; stroke-width:0.5; stroke-opacity:0.1; fill:none" points="
  471.653,360.121 471.653,11.811 
  "/>
<polyline clip-path="url(#clip1402)" style="stroke:#000000; stroke-width:0.5; stroke-opacity:0.1; fill:none" points="
  580.315,360.121 580.315,11.811 
  "/>
<polyline clip-path="url(#clip1402)" style="stroke:#000000; stroke-width:0.5; stroke-opacity:0.1; fill:none" points="
  37.0032,350.312 580.315,350.312 
  "/>
<polyline clip-path="url(#clip1402)" style="stroke:#000000; stroke-width:0.5; stroke-opacity:0.1; fill:none" points="
  37.0032,293.34 580.315,293.34 
  "/>
<polyline clip-path="url(#clip1402)" style="stroke:#000000; stroke-width:0.5; stroke-opacity:0.1; fill:none" points="
  37.0032,236.368 580.315,236.368 
  "/>
<polyline clip-path="url(#clip1402)" style="stroke:#000000; stroke-width:0.5; stroke-opacity:0.1; fill:none" points="
  37.0032,179.397 580.315,179.397 
  "/>
<polyline clip-path="url(#clip1402)" style="stroke:#000000; stroke-width:0.5; stroke-opacity:0.1; fill:none" points="
  37.0032,122.425 580.315,122.425 
  "/>
<polyline clip-path="url(#clip1402)" style="stroke:#000000; stroke-width:0.5; stroke-opacity:0.1; fill:none" points="
  37.0032,65.4534 580.315,65.4534 
  "/>
<polyline clip-path="url(#clip1400)" style="stroke:#000000; stroke-width:1; stroke-opacity:1; fill:none" points="
  37.0032,360.121 580.315,360.121 
  "/>
<polyline clip-path="url(#clip1400)" style="stroke:#000000; stroke-width:1; stroke-opacity:1; fill:none" points="
  37.0032,360.121 37.0032,11.811 
  "/>
<polyline clip-path="url(#clip1400)" style="stroke:#000000; stroke-width:1; stroke-opacity:1; fill:none" points="
  37.0032,360.121 37.0032,354.896 
  "/>
<polyline clip-path="url(#clip1400)" style="stroke:#000000; stroke-width:1; stroke-opacity:1; fill:none" points="
  145.666,360.121 145.666,354.896 
  "/>
<polyline clip-path="url(#clip1400)" style="stroke:#000000; stroke-width:1; stroke-opacity:1; fill:none" points="
  254.328,360.121 254.328,354.896 
  "/>
<polyline clip-path="url(#clip1400)" style="stroke:#000000; stroke-width:1; stroke-opacity:1; fill:none" points="
  362.99,360.121 362.99,354.896 
  "/>
<polyline clip-path="url(#clip1400)" style="stroke:#000000; stroke-width:1; stroke-opacity:1; fill:none" points="
  471.653,360.121 471.653,354.896 
  "/>
<polyline clip-path="url(#clip1400)" style="stroke:#000000; stroke-width:1; stroke-opacity:1; fill:none" points="
  580.315,360.121 580.315,354.896 
  "/>
<polyline clip-path="url(#clip1400)" style="stroke:#000000; stroke-width:1; stroke-opacity:1; fill:none" points="
  37.0032,350.312 45.1529,350.312 
  "/>
<polyline clip-path="url(#clip1400)" style="stroke:#000000; stroke-width:1; stroke-opacity:1; fill:none" points="
  37.0032,293.34 45.1529,293.34 
  "/>
<polyline clip-path="url(#clip1400)" style="stroke:#000000; stroke-width:1; stroke-opacity:1; fill:none" points="
  37.0032,236.368 45.1529,236.368 
  "/>
<polyline clip-path="url(#clip1400)" style="stroke:#000000; stroke-width:1; stroke-opacity:1; fill:none" points="
  37.0032,179.397 45.1529,179.397 
  "/>
<polyline clip-path="url(#clip1400)" style="stroke:#000000; stroke-width:1; stroke-opacity:1; fill:none" points="
  37.0032,122.425 45.1529,122.425 
  "/>
<polyline clip-path="url(#clip1400)" style="stroke:#000000; stroke-width:1; stroke-opacity:1; fill:none" points="
  37.0032,65.4534 45.1529,65.4534 
  "/>
<g clip-path="url(#clip1400)">
<text style="fill:#000000; fill-opacity:1; font-family:Arial,Helvetica Neue,Helvetica,sans-serif; font-size:12; text-anchor:middle;" transform="rotate(0, 37.0032, 373.921)" x="37.0032" y="373.921">0</text>
</g>
<g clip-path="url(#clip1400)">
<text style="fill:#000000; fill-opacity:1; font-family:Arial,Helvetica Neue,Helvetica,sans-serif; font-size:12; text-anchor:middle;" transform="rotate(0, 145.666, 373.921)" x="145.666" y="373.921">2</text>
</g>
<g clip-path="url(#clip1400)">
<text style="fill:#000000; fill-opacity:1; font-family:Arial,Helvetica Neue,Helvetica,sans-serif; font-size:12; text-anchor:middle;" transform="rotate(0, 254.328, 373.921)" x="254.328" y="373.921">4</text>
</g>
<g clip-path="url(#clip1400)">
<text style="fill:#000000; fill-opacity:1; font-family:Arial,Helvetica Neue,Helvetica,sans-serif; font-size:12; text-anchor:middle;" transform="rotate(0, 362.99, 373.921)" x="362.99" y="373.921">6</text>
</g>
<g clip-path="url(#clip1400)">
<text style="fill:#000000; fill-opacity:1; font-family:Arial,Helvetica Neue,Helvetica,sans-serif; font-size:12; text-anchor:middle;" transform="rotate(0, 471.653, 373.921)" x="471.653" y="373.921">8</text>
</g>
<g clip-path="url(#clip1400)">
<text style="fill:#000000; fill-opacity:1; font-family:Arial,Helvetica Neue,Helvetica,sans-serif; font-size:12; text-anchor:middle;" transform="rotate(0, 580.315, 373.921)" x="580.315" y="373.921">10</text>
</g>
<g clip-path="url(#clip1400)">
<text style="fill:#000000; fill-opacity:1; font-family:Arial,Helvetica Neue,Helvetica,sans-serif; font-size:12; text-anchor:end;" transform="rotate(0, 31.0032, 354.812)" x="31.0032" y="354.812">0</text>
</g>
<g clip-path="url(#clip1400)">
<text style="fill:#000000; fill-opacity:1; font-family:Arial,Helvetica Neue,Helvetica,sans-serif; font-size:12; text-anchor:end;" transform="rotate(0, 31.0032, 297.84)" x="31.0032" y="297.84">5</text>
</g>
<g clip-path="url(#clip1400)">
<text style="fill:#000000; fill-opacity:1; font-family:Arial,Helvetica Neue,Helvetica,sans-serif; font-size:12; text-anchor:end;" transform="rotate(0, 31.0032, 240.868)" x="31.0032" y="240.868">10</text>
</g>
<g clip-path="url(#clip1400)">
<text style="fill:#000000; fill-opacity:1; font-family:Arial,Helvetica Neue,Helvetica,sans-serif; font-size:12; text-anchor:end;" transform="rotate(0, 31.0032, 183.897)" x="31.0032" y="183.897">15</text>
</g>
<g clip-path="url(#clip1400)">
<text style="fill:#000000; fill-opacity:1; font-family:Arial,Helvetica Neue,Helvetica,sans-serif; font-size:12; text-anchor:end;" transform="rotate(0, 31.0032, 126.925)" x="31.0032" y="126.925">20</text>
</g>
<g clip-path="url(#clip1400)">
<text style="fill:#000000; fill-opacity:1; font-family:Arial,Helvetica Neue,Helvetica,sans-serif; font-size:12; text-anchor:end;" transform="rotate(0, 31.0032, 69.9534)" x="31.0032" y="69.9534">25</text>
</g>
<g clip-path="url(#clip1400)">
<text style="fill:#000000; fill-opacity:1; font-family:Arial,Helvetica Neue,Helvetica,sans-serif; font-size:16; text-anchor:middle;" transform="rotate(0, 308.659, 397.6)" x="308.659" y="397.6">t</text>
</g>
<polyline clip-path="url(#clip1402)" style="stroke:#009af9; stroke-width:3; stroke-opacity:1; fill:none" points="
  37.0032,338.917 37.0384,338.903 37.0523,338.897 37.068,338.891 37.0856,338.883 37.1054,338.875 37.1277,338.866 37.1528,338.856 37.181,338.845 37.2127,338.832 
  37.2485,338.817 37.2886,338.801 37.3338,338.783 37.3847,338.762 37.4419,338.738 37.5062,338.71 37.5786,338.679 37.66,338.643 37.7517,338.601 37.8547,338.553 
  37.9707,338.498 38.1011,338.435 38.2479,338.357 38.413,338.265 38.5987,338.163 38.8077,338.048 39.0428,337.925 39.3072,337.778 39.6048,337.605 39.9313,337.422 
  40.2908,337.217 40.6772,336.998 41.0858,336.754 41.5128,336.493 41.958,336.182 42.4017,335.84 42.8403,335.512 43.2916,335.182 43.7516,334.826 44.211,334.497 
  44.6825,334.053 45.1351,333.592 45.5687,333.078 45.9909,332.592 46.3998,332.106 46.8106,331.572 47.2039,331.026 47.5813,330.495 47.9561,330.012 48.3316,329.567 
  48.7186,329.071 49.1004,328.495 49.4574,327.854 49.8023,327.195 50.1294,326.434 50.435,325.65 50.7207,324.882 50.9946,324.066 51.2532,323.258 51.4979,322.486 
  51.7383,321.665 51.9676,320.777 52.1831,319.903 52.3911,319.021 52.5903,318.122 52.7812,317.302 52.9709,316.392 53.1518,315.418 53.321,314.521 53.4897,313.515 
  53.6491,312.548 53.8026,311.545 53.9511,310.541 54.0952,309.579 54.2384,308.614 54.378,307.652 54.5164,306.593 54.65,305.506 54.7785,304.452 54.9054,303.408 
  55.0313,302.418 55.1581,301.47 55.2869,300.514 55.4178,299.563 55.5495,298.608 55.683,297.633 55.8188,296.575 55.9515,295.536 56.085,294.524 56.2208,293.51 
  56.3585,292.434 56.4958,291.265 56.631,290.137 56.7652,288.968 56.8992,287.803 57.0328,286.676 57.1685,285.469 57.303,284.18 57.4336,282.925 57.565,281.619 
  57.695,280.277 57.8238,278.922 57.9513,277.614 58.0788,276.336 58.2072,275.021 58.3372,273.477 58.4595,272.073 58.584,270.664 58.7091,269.14 58.832,267.641 
  58.9532,266.17 59.0757,264.752 59.1991,263.36 59.3248,261.928 59.4516,260.364 59.5753,258.9 59.7015,257.454 59.8295,255.965 59.9574,254.464 60.0865,252.901 
  60.2143,251.289 60.3429,249.742 60.4723,248.098 60.6009,246.523 60.7308,244.965 60.8625,243.288 60.9933,241.535 61.1233,239.784 61.2531,238.046 61.382,236.411 
  61.5132,234.748 61.6455,233.103 61.7796,231.408 61.9131,229.721 62.048,228.055 62.1839,226.352 62.3211,224.629 62.4585,222.912 62.5978,221.055 62.7352,219.199 
  62.8726,217.326 63.01,215.347 63.1465,213.323 63.2805,211.426 63.4167,209.535 63.5539,207.597 63.6911,205.688 63.8287,203.803 63.9677,201.953 64.1079,200.129 
  64.2495,198.268 64.392,196.367 64.5346,194.458 64.678,192.496 64.8215,190.405 64.9643,188.202 65.1053,185.89 65.2433,183.585 65.3811,181.232 65.5164,178.915 
  65.6526,176.606 65.7872,174.111 65.9203,171.622 66.0509,169.164 66.1814,166.713 66.3111,164.478 66.443,162.391 66.5778,160.344 66.7143,158.299 66.8528,156.054 
  66.989,153.958 67.1284,151.828 67.2677,149.845 67.4105,147.727 67.553,145.71 67.6974,143.743 67.8439,142.024 67.9947,140.202 68.1472,138.214 68.2993,136.012 
  68.4502,133.877 68.6013,131.682 68.7527,129.417 68.9034,127.091 69.0532,124.865 69.2039,122.618 69.354,120.313 69.5042,117.919 69.653,115.725 69.8028,113.666 
  69.9553,111.675 70.1083,109.927 70.2659,107.972 70.4246,105.966 70.5815,103.955 70.7404,102.015 70.9007,100.024 71.0609,98.0096 71.2212,96.0568 71.3836,94.1138 
  71.5461,92.1588 71.7099,90.1642 71.8727,88.4203 72.0399,86.7117 72.2083,84.8941 72.3777,82.9386 72.545,80.8865 72.7119,78.7419 72.8769,76.6442 73.0417,74.4852 
  73.2064,72.1346 73.3667,69.8425 73.5266,67.5719 73.6849,65.4874 73.8444,63.3695 74.0027,61.3731 74.1623,59.5031 74.3235,57.6912 74.4863,55.7679 74.6483,53.955 
  74.8107,52.208 74.975,50.3956 75.1393,48.6678 75.3042,47.1375 75.4721,45.7035 75.6431,44.2629 75.8155,42.8524 75.9898,41.46 76.1654,40.2568 76.3451,39.0858 
  76.5275,37.8015 76.7105,36.5352 76.8948,35.2434 77.0785,34.1543 77.2679,32.9479 77.4551,31.8385 77.6462,30.8218 77.8382,29.997 78.036,29.2519 78.2358,28.5477 
  78.4399,27.7267 78.6449,26.9071 78.8503,26.3317 79.0615,25.7602 79.2757,25.2114 79.4921,24.6016 79.7095,24.0204 79.9296,23.458 80.1503,22.9975 80.3753,22.642 
  80.6033,22.324 80.8346,22.1432 81.0701,22.0898 81.3112,21.9728 81.5544,21.7923 81.7988,21.6688 82.046,21.754 82.2994,21.8592 82.5569,21.7791 82.8138,21.7428 
  83.072,21.8415 83.3351,22.0396 83.602,22.2033 83.8711,22.4506 84.1442,22.7306 84.4201,23.0376 84.6993,23.3941 84.9823,23.6896 85.2681,23.8848 85.5516,24.0926 
  85.8385,24.3565 86.1256,24.7215 86.4185,25.2013 86.7151,25.7127 87.0153,26.2286 87.318,26.8616 87.6255,27.613 87.9382,28.3628 88.2546,29.1734 88.5745,29.9942 
  88.8983,30.8655 89.2257,31.7595 89.5567,32.7032 89.8915,33.5979 90.2309,34.503 90.5712,35.4993 90.9166,36.6371 91.2664,37.8911 91.6187,39.238 91.9745,40.6133 
  92.3286,42.0138 92.6873,43.3825 93.0489,44.7444 93.4138,46.1698 93.7821,47.5856 94.152,48.9959 94.5253,50.4237 94.9019,51.8734 95.2816,53.4203 95.6619,55.0443 
  96.0303,56.612 96.4004,58.181 96.7678,59.7749 97.132,61.3404 97.4974,62.8915 97.8664,64.4331 98.2359,65.9817 98.6048,67.5408 98.9756,69.1217 99.3366,70.6379 
  99.7104,72.1828 100.087,73.7003 100.472,75.232 100.86,76.7664 101.253,78.2983 101.65,79.8517 102.049,81.42 102.451,83.0043 102.856,84.6517 103.249,86.2452 
  103.643,87.8311 104.035,89.4482 104.427,91.0822 104.822,92.728 105.224,94.3906 105.628,96.0509 106.035,97.7283 106.449,99.4299 106.866,101.103 107.282,102.742 
  107.696,104.333 108.104,105.878 108.517,107.438 108.931,108.993 109.338,110.52 109.748,112.045 110.157,113.589 110.574,115.154 110.991,116.721 111.409,118.278 
  111.833,119.858 112.265,121.455 112.701,123.052 113.142,124.675 113.597,126.353 114.057,128.025 114.517,129.687 114.982,131.338 115.444,132.976 115.924,134.669 
  116.405,136.383 116.907,138.179 117.42,140.013 117.959,141.946 118.505,143.867 119.064,145.799 119.619,147.692 120.182,149.625 120.768,151.638 121.361,153.66 
  121.973,155.726 122.594,157.787 123.224,159.872 123.863,161.968 124.518,164.098 125.181,166.229 125.854,168.372 126.534,170.518 127.223,172.672 127.927,174.846 
  128.639,177.034 129.362,179.216 130.094,181.387 130.827,183.55 131.575,185.726 132.332,187.91 133.099,190.1 133.875,192.285 134.661,194.468 135.457,196.659 
  136.264,198.851 137.079,201.033 137.906,203.221 138.741,205.397 139.583,207.558 140.435,209.716 141.293,211.86 142.163,214.001 143.039,216.129 143.924,218.248 
  144.818,220.358 145.72,222.455 146.629,224.535 147.545,226.598 148.471,228.656 149.403,230.693 150.343,232.711 151.289,234.707 152.241,236.68 153.199,238.625 
  154.162,240.548 155.13,242.45 156.104,244.327 157.082,246.178 158.065,248.008 159.056,249.823 160.051,251.61 161.051,253.375 162.056,255.115 163.066,256.824 
  164.08,258.497 165.096,260.134 166.115,261.743 167.139,263.334 168.166,264.889 169.196,266.414 170.23,267.927 171.267,269.407 172.307,270.852 173.35,272.271 
  174.402,273.687 175.454,275.079 176.514,276.465 177.58,277.835 178.651,279.189 179.726,280.517 180.807,281.823 181.891,283.109 182.982,284.377 184.079,285.64 
  185.184,286.894 186.296,288.134 187.412,289.355 188.534,290.556 189.662,291.734 190.794,292.896 191.934,294.046 193.079,295.186 194.231,296.311 195.386,297.416 
  196.548,298.503 197.715,299.566 198.889,300.618 200.067,301.647 201.252,302.653 202.445,303.645 203.643,304.623 204.848,305.584 206.059,306.532 207.277,307.468 
  208.502,308.393 209.732,309.296 210.97,310.19 212.214,311.065 213.465,311.923 214.725,312.766 215.992,313.599 217.268,314.421 218.549,315.223 219.841,316.017 
  221.138,316.798 222.445,317.569 223.757,318.327 225.078,319.068 226.407,319.797 227.746,320.519 229.091,321.224 230.447,321.923 231.81,322.611 233.181,323.288 
  234.559,323.952 235.946,324.607 237.341,325.25 238.745,325.882 240.157,326.501 241.58,327.11 243.013,327.708 244.456,328.294 245.911,328.869 247.378,329.431 
  248.86,329.985 250.354,330.527 251.863,331.059 253.387,331.581 254.928,332.092 256.486,332.597 258.061,333.095 259.648,333.583 261.253,334.062 262.876,334.532 
  264.517,334.993 266.178,335.446 267.859,335.891 269.56,336.329 271.282,336.759 273.025,337.181 274.791,337.595 276.581,338.002 278.395,338.401 280.235,338.791 
  282.105,339.174 284.006,339.552 285.933,339.923 287.892,340.286 289.884,340.643 291.91,340.994 293.97,341.337 296.069,341.673 298.211,342.002 300.396,342.326 
  302.628,342.644 304.905,342.955 307.235,343.26 309.617,343.559 312.059,343.852 314.564,344.139 317.132,344.42 319.774,344.697 322.487,344.967 325.281,345.232 
  328.161,345.492 331.13,345.747 334.196,345.996 337.369,346.239 340.659,346.477 344.078,346.709 347.637,346.936 351.347,347.158 355.224,347.375 359.287,347.586 
  363.557,347.791 368.061,347.991 372.825,348.185 377.887,348.373 383.289,348.556 389.08,348.732 395.319,348.903 402.085,349.068 409.476,349.225 417.62,349.376 
  426.688,349.519 436.889,349.654 448.365,349.779 461.276,349.891 475.801,349.989 492.141,350.072 510.524,350.14 531.204,350.194 554.47,350.234 580.315,350.263 
  
  "/>
<polygon clip-path="url(#clip1400)" points="
477.574,62.931 562.315,62.931 562.315,32.691 477.574,32.691 
  " fill="#ffffff" fill-opacity="1"/>
<polyline clip-path="url(#clip1400)" style="stroke:#000000; stroke-width:1; stroke-opacity:1; fill:none" points="
  477.574,62.931 562.315,62.931 562.315,32.691 477.574,32.691 477.574,62.931 
  "/>
<polyline clip-path="url(#clip1400)" style="stroke:#009af9; stroke-width:3; stroke-opacity:1; fill:none" points="
  483.574,47.811 519.574,47.811 
  "/>
<g clip-path="url(#clip1400)">
<text style="fill:#000000; fill-opacity:1; font-family:Arial,Helvetica Neue,Helvetica,sans-serif; font-size:12; text-anchor:start;" transform="rotate(0, 525.574, 52.311)" x="525.574" y="52.311">u2(t)</text>
</g>
</svg>
