<?xml version="1.0" encoding="utf-8"?>
<svg xmlns="http://www.w3.org/2000/svg" xmlns:xlink="http://www.w3.org/1999/xlink" width="600" height="400" viewBox="0 0 600 400">
<defs>
  <clipPath id="clip5400">
    <rect x="0" y="0" width="600" height="400"/>
  </clipPath>
</defs>
<polygon clip-path="url(#clip5400)" points="
0,400 600,400 600,0 0,0 
  " fill="#ffffff" fill-opacity="1"/>
<defs>
  <clipPath id="clip5401">
    <rect x="120" y="0" width="421" height="400"/>
  </clipPath>
</defs>
<polygon clip-path="url(#clip5400)" points="
62.7871,360.121 580.315,360.121 580.315,11.811 62.7871,11.811 
  " fill="#ffffff" fill-opacity="1"/>
<defs>
  <clipPath id="clip5402">
    <rect x="62" y="11" width="519" height="349"/>
  </clipPath>
</defs>
<polyline clip-path="url(#clip5402)" style="stroke:#000000; stroke-width:0.5; stroke-opacity:0.1; fill:none" points="
  77.4341,360.121 77.4341,11.811 
  "/>
<polyline clip-path="url(#clip5402)" style="stroke:#000000; stroke-width:0.5; stroke-opacity:0.1; fill:none" points="
  240.179,360.121 240.179,11.811 
  "/>
<polyline clip-path="url(#clip5402)" style="stroke:#000000; stroke-width:0.5; stroke-opacity:0.1; fill:none" points="
  402.923,360.121 402.923,11.811 
  "/>
<polyline clip-path="url(#clip5402)" style="stroke:#000000; stroke-width:0.5; stroke-opacity:0.1; fill:none" points="
  565.668,360.121 565.668,11.811 
  "/>
<polyline clip-path="url(#clip5402)" style="stroke:#000000; stroke-width:0.5; stroke-opacity:0.1; fill:none" points="
  62.7871,350.263 580.315,350.263 
  "/>
<polyline clip-path="url(#clip5402)" style="stroke:#000000; stroke-width:0.5; stroke-opacity:0.1; fill:none" points="
  62.7871,268.114 580.315,268.114 
  "/>
<polyline clip-path="url(#clip5402)" style="stroke:#000000; stroke-width:0.5; stroke-opacity:0.1; fill:none" points="
  62.7871,185.966 580.315,185.966 
  "/>
<polyline clip-path="url(#clip5402)" style="stroke:#000000; stroke-width:0.5; stroke-opacity:0.1; fill:none" points="
  62.7871,103.817 580.315,103.817 
  "/>
<polyline clip-path="url(#clip5402)" style="stroke:#000000; stroke-width:0.5; stroke-opacity:0.1; fill:none" points="
  62.7871,21.6688 580.315,21.6688 
  "/>
<polyline clip-path="url(#clip5400)" style="stroke:#000000; stroke-width:1; stroke-opacity:1; fill:none" points="
  62.7871,360.121 580.315,360.121 
  "/>
<polyline clip-path="url(#clip5400)" style="stroke:#000000; stroke-width:1; stroke-opacity:1; fill:none" points="
  62.7871,360.121 62.7871,11.811 
  "/>
<polyline clip-path="url(#clip5400)" style="stroke:#000000; stroke-width:1; stroke-opacity:1; fill:none" points="
  77.4341,360.121 77.4341,354.896 
  "/>
<polyline clip-path="url(#clip5400)" style="stroke:#000000; stroke-width:1; stroke-opacity:1; fill:none" points="
  240.179,360.121 240.179,354.896 
  "/>
<polyline clip-path="url(#clip5400)" style="stroke:#000000; stroke-width:1; stroke-opacity:1; fill:none" points="
  402.923,360.121 402.923,354.896 
  "/>
<polyline clip-path="url(#clip5400)" style="stroke:#000000; stroke-width:1; stroke-opacity:1; fill:none" points="
  565.668,360.121 565.668,354.896 
  "/>
<polyline clip-path="url(#clip5400)" style="stroke:#000000; stroke-width:1; stroke-opacity:1; fill:none" points="
  62.7871,350.263 70.55,350.263 
  "/>
<polyline clip-path="url(#clip5400)" style="stroke:#000000; stroke-width:1; stroke-opacity:1; fill:none" points="
  62.7871,268.114 70.55,268.114 
  "/>
<polyline clip-path="url(#clip5400)" style="stroke:#000000; stroke-width:1; stroke-opacity:1; fill:none" points="
  62.7871,185.966 70.55,185.966 
  "/>
<polyline clip-path="url(#clip5400)" style="stroke:#000000; stroke-width:1; stroke-opacity:1; fill:none" points="
  62.7871,103.817 70.55,103.817 
  "/>
<polyline clip-path="url(#clip5400)" style="stroke:#000000; stroke-width:1; stroke-opacity:1; fill:none" points="
  62.7871,21.6688 70.55,21.6688 
  "/>
<g clip-path="url(#clip5400)">
<text style="fill:#000000; fill-opacity:1; font-family:Arial,Helvetica Neue,Helvetica,sans-serif; font-size:12; text-anchor:middle;" transform="rotate(0, 77.4341, 373.921)" x="77.4341" y="373.921">0</text>
</g>
<g clip-path="url(#clip5400)">
<text style="fill:#000000; fill-opacity:1; font-family:Arial,Helvetica Neue,Helvetica,sans-serif; font-size:12; text-anchor:middle;" transform="rotate(0, 240.179, 373.921)" x="240.179" y="373.921">10</text>
</g>
<g clip-path="url(#clip5400)">
<text style="fill:#000000; fill-opacity:1; font-family:Arial,Helvetica Neue,Helvetica,sans-serif; font-size:12; text-anchor:middle;" transform="rotate(0, 402.923, 373.921)" x="402.923" y="373.921">20</text>
</g>
<g clip-path="url(#clip5400)">
<text style="fill:#000000; fill-opacity:1; font-family:Arial,Helvetica Neue,Helvetica,sans-serif; font-size:12; text-anchor:middle;" transform="rotate(0, 565.668, 373.921)" x="565.668" y="373.921">30</text>
</g>
<g clip-path="url(#clip5400)">
<text style="fill:#000000; fill-opacity:1; font-family:Arial,Helvetica Neue,Helvetica,sans-serif; font-size:12; text-anchor:end;" transform="rotate(0, 56.7871, 354.763)" x="56.7871" y="354.763">0.00</text>
</g>
<g clip-path="url(#clip5400)">
<text style="fill:#000000; fill-opacity:1; font-family:Arial,Helvetica Neue,Helvetica,sans-serif; font-size:12; text-anchor:end;" transform="rotate(0, 56.7871, 272.614)" x="56.7871" y="272.614">0.25</text>
</g>
<g clip-path="url(#clip5400)">
<text style="fill:#000000; fill-opacity:1; font-family:Arial,Helvetica Neue,Helvetica,sans-serif; font-size:12; text-anchor:end;" transform="rotate(0, 56.7871, 190.466)" x="56.7871" y="190.466">0.50</text>
</g>
<g clip-path="url(#clip5400)">
<text style="fill:#000000; fill-opacity:1; font-family:Arial,Helvetica Neue,Helvetica,sans-serif; font-size:12; text-anchor:end;" transform="rotate(0, 56.7871, 108.317)" x="56.7871" y="108.317">0.75</text>
</g>
<g clip-path="url(#clip5400)">
<text style="fill:#000000; fill-opacity:1; font-family:Arial,Helvetica Neue,Helvetica,sans-serif; font-size:12; text-anchor:end;" transform="rotate(0, 56.7871, 26.1688)" x="56.7871" y="26.1688">1.00</text>
</g>
<g clip-path="url(#clip5400)">
<text style="fill:#000000; fill-opacity:1; font-family:Arial,Helvetica Neue,Helvetica,sans-serif; font-size:16; text-anchor:middle;" transform="rotate(0, 321.551, 397.6)" x="321.551" y="397.6">Time</text>
</g>
<g clip-path="url(#clip5400)">
<text style="fill:#000000; fill-opacity:1; font-family:Arial,Helvetica Neue,Helvetica,sans-serif; font-size:16; text-anchor:middle;" transform="rotate(-90, 14.4, 185.966)" x="14.4" y="185.966">Proportion infectious</text>
</g>
<polyline clip-path="url(#clip5402)" style="stroke:#0000ff; stroke-width:1; stroke-opacity:1; fill:none" points="
  77.4341,350.263 84.9329,350.263 86.4519,350.263 87.8535,350.263 89.4526,350.263 91.3836,350.263 93.6267,350.263 96.1186,350.263 98.8049,350.263 101.717,350.263 
  104.814,350.263 107.539,350.263 109.757,350.263 111.79,350.263 113.859,350.262 118.275,350.262 122.869,350.261 128.525,350.259 134.147,350.251 139.344,350.234 
  144.09,350.196 148.359,350.123 152.187,349.992 155.628,349.773 158.734,349.427 161.554,348.909 164.131,348.163 166.5,347.126 168.692,345.723 170.736,343.872 
  172.655,341.481 174.468,338.445 176.192,334.658 177.839,330.012 179.418,324.415 180.936,317.805 182.394,310.173 183.796,301.566 185.143,292.094 186.44,281.918 
  187.691,271.243 188.901,260.296 190.079,249.296 191.23,238.492 192.36,228.12 193.473,218.404 194.574,209.541 195.665,201.692 196.749,194.966 197.289,192.048 
  199.123,184.35 200.435,180.88 201.987,178.74 203.681,178.422 205.517,179.854 207.363,182.52 209.235,185.916 211.246,189.853 213.582,194.337 215.543,197.8 
  217.338,200.637 219.225,203.245 221.366,205.744 223.81,208.041 226.245,209.808 228.469,211.039 230.603,211.933 232.89,212.636 235.801,213.233 238.23,213.537 
  240.452,213.702 242.511,213.782 244.502,213.812 246.504,213.808 248.575,213.779 250.738,213.732 252.974,213.674 255.223,213.612 257.402,213.553 259.496,213.5 
  263.643,213.411 267.955,213.343 273.208,213.291 279.46,213.262 286.876,213.253 295.681,213.257 305.94,213.263 318.374,213.266 334.664,213.266 356.464,213.266 
  386.223,213.266 430.741,213.266 502.777,213.266 565.668,213.266 
  "/>
<polygon clip-path="url(#clip5400)" points="
424.062,62.931 562.315,62.931 562.315,32.691 424.062,32.691 
  " fill="#ffffff" fill-opacity="1"/>
<polyline clip-path="url(#clip5400)" style="stroke:#000000; stroke-width:1; stroke-opacity:1; fill:none" points="
  424.062,62.931 562.315,62.931 562.315,32.691 424.062,32.691 424.062,62.931 
  "/>
<polyline clip-path="url(#clip5400)" style="stroke:#0000ff; stroke-width:1; stroke-opacity:1; fill:none" points="
  430.062,47.811 466.062,47.811 
  "/>
<g clip-path="url(#clip5400)">
<text style="fill:#000000; fill-opacity:1; font-family:Arial,Helvetica Neue,Helvetica,sans-serif; font-size:12; text-anchor:start;" transform="rotate(0, 472.062, 52.311)" x="472.062" y="52.311">Mean infection</text>
</g>
</svg>
