<?xml version="1.0" encoding="utf-8"?>
<svg xmlns="http://www.w3.org/2000/svg" xmlns:xlink="http://www.w3.org/1999/xlink" width="600" height="400" viewBox="0 0 600 400">
<defs>
  <clipPath id="clip7200">
    <rect x="0" y="0" width="600" height="400"/>
  </clipPath>
</defs>
<polygon clip-path="url(#clip7200)" points="
0,400 600,400 600,0 0,0 
  " fill="#ffffff" fill-opacity="1"/>
<defs>
  <clipPath id="clip7201">
    <rect x="120" y="0" width="421" height="400"/>
  </clipPath>
</defs>
<polygon clip-path="url(#clip7200)" points="
66.1324,360.121 580.315,360.121 580.315,11.811 66.1324,11.811 
  " fill="#ffffff" fill-opacity="1"/>
<defs>
  <clipPath id="clip7202">
    <rect x="66" y="11" width="515" height="349"/>
  </clipPath>
</defs>
<polyline clip-path="url(#clip7202)" style="stroke:#000000; stroke-width:0.5; stroke-opacity:0.1; fill:none" points="
  80.6848,360.121 80.6848,11.811 
  "/>
<polyline clip-path="url(#clip7202)" style="stroke:#000000; stroke-width:0.5; stroke-opacity:0.1; fill:none" points="
  202.044,360.121 202.044,11.811 
  "/>
<polyline clip-path="url(#clip7202)" style="stroke:#000000; stroke-width:0.5; stroke-opacity:0.1; fill:none" points="
  323.403,360.121 323.403,11.811 
  "/>
<polyline clip-path="url(#clip7202)" style="stroke:#000000; stroke-width:0.5; stroke-opacity:0.1; fill:none" points="
  444.762,360.121 444.762,11.811 
  "/>
<polyline clip-path="url(#clip7202)" style="stroke:#000000; stroke-width:0.5; stroke-opacity:0.1; fill:none" points="
  566.121,360.121 566.121,11.811 
  "/>
<polyline clip-path="url(#clip7202)" style="stroke:#000000; stroke-width:0.5; stroke-opacity:0.1; fill:none" points="
  66.1324,350.263 580.315,350.263 
  "/>
<polyline clip-path="url(#clip7202)" style="stroke:#000000; stroke-width:0.5; stroke-opacity:0.1; fill:none" points="
  66.1324,268.032 580.315,268.032 
  "/>
<polyline clip-path="url(#clip7202)" style="stroke:#000000; stroke-width:0.5; stroke-opacity:0.1; fill:none" points="
  66.1324,185.801 580.315,185.801 
  "/>
<polyline clip-path="url(#clip7202)" style="stroke:#000000; stroke-width:0.5; stroke-opacity:0.1; fill:none" points="
  66.1324,103.571 580.315,103.571 
  "/>
<polyline clip-path="url(#clip7202)" style="stroke:#000000; stroke-width:0.5; stroke-opacity:0.1; fill:none" points="
  66.1324,21.3399 580.315,21.3399 
  "/>
<polyline clip-path="url(#clip7200)" style="stroke:#000000; stroke-width:1; stroke-opacity:1; fill:none" points="
  66.1324,360.121 580.315,360.121 
  "/>
<polyline clip-path="url(#clip7200)" style="stroke:#000000; stroke-width:1; stroke-opacity:1; fill:none" points="
  66.1324,360.121 66.1324,11.811 
  "/>
<polyline clip-path="url(#clip7200)" style="stroke:#000000; stroke-width:1; stroke-opacity:1; fill:none" points="
  80.6848,360.121 80.6848,354.896 
  "/>
<polyline clip-path="url(#clip7200)" style="stroke:#000000; stroke-width:1; stroke-opacity:1; fill:none" points="
  202.044,360.121 202.044,354.896 
  "/>
<polyline clip-path="url(#clip7200)" style="stroke:#000000; stroke-width:1; stroke-opacity:1; fill:none" points="
  323.403,360.121 323.403,354.896 
  "/>
<polyline clip-path="url(#clip7200)" style="stroke:#000000; stroke-width:1; stroke-opacity:1; fill:none" points="
  444.762,360.121 444.762,354.896 
  "/>
<polyline clip-path="url(#clip7200)" style="stroke:#000000; stroke-width:1; stroke-opacity:1; fill:none" points="
  566.121,360.121 566.121,354.896 
  "/>
<polyline clip-path="url(#clip7200)" style="stroke:#000000; stroke-width:1; stroke-opacity:1; fill:none" points="
  66.1324,350.263 73.8452,350.263 
  "/>
<polyline clip-path="url(#clip7200)" style="stroke:#000000; stroke-width:1; stroke-opacity:1; fill:none" points="
  66.1324,268.032 73.8452,268.032 
  "/>
<polyline clip-path="url(#clip7200)" style="stroke:#000000; stroke-width:1; stroke-opacity:1; fill:none" points="
  66.1324,185.801 73.8452,185.801 
  "/>
<polyline clip-path="url(#clip7200)" style="stroke:#000000; stroke-width:1; stroke-opacity:1; fill:none" points="
  66.1324,103.571 73.8452,103.571 
  "/>
<polyline clip-path="url(#clip7200)" style="stroke:#000000; stroke-width:1; stroke-opacity:1; fill:none" points="
  66.1324,21.3399 73.8452,21.3399 
  "/>
<g clip-path="url(#clip7200)">
<text style="fill:#000000; fill-opacity:1; font-family:Arial,Helvetica Neue,Helvetica,sans-serif; font-size:12; text-anchor:middle;" transform="rotate(0, 80.6848, 373.921)" x="80.6848" y="373.921">0</text>
</g>
<g clip-path="url(#clip7200)">
<text style="fill:#000000; fill-opacity:1; font-family:Arial,Helvetica Neue,Helvetica,sans-serif; font-size:12; text-anchor:middle;" transform="rotate(0, 202.044, 373.921)" x="202.044" y="373.921">50</text>
</g>
<g clip-path="url(#clip7200)">
<text style="fill:#000000; fill-opacity:1; font-family:Arial,Helvetica Neue,Helvetica,sans-serif; font-size:12; text-anchor:middle;" transform="rotate(0, 323.403, 373.921)" x="323.403" y="373.921">100</text>
</g>
<g clip-path="url(#clip7200)">
<text style="fill:#000000; fill-opacity:1; font-family:Arial,Helvetica Neue,Helvetica,sans-serif; font-size:12; text-anchor:middle;" transform="rotate(0, 444.762, 373.921)" x="444.762" y="373.921">150</text>
</g>
<g clip-path="url(#clip7200)">
<text style="fill:#000000; fill-opacity:1; font-family:Arial,Helvetica Neue,Helvetica,sans-serif; font-size:12; text-anchor:middle;" transform="rotate(0, 566.121, 373.921)" x="566.121" y="373.921">200</text>
</g>
<g clip-path="url(#clip7200)">
<text style="fill:#000000; fill-opacity:1; font-family:Arial,Helvetica Neue,Helvetica,sans-serif; font-size:12; text-anchor:end;" transform="rotate(0, 60.1324, 354.763)" x="60.1324" y="354.763">0</text>
</g>
<g clip-path="url(#clip7200)">
<text style="fill:#000000; fill-opacity:1; font-family:Arial,Helvetica Neue,Helvetica,sans-serif; font-size:12; text-anchor:end;" transform="rotate(0, 60.1324, 272.532)" x="60.1324" y="272.532">250</text>
</g>
<g clip-path="url(#clip7200)">
<text style="fill:#000000; fill-opacity:1; font-family:Arial,Helvetica Neue,Helvetica,sans-serif; font-size:12; text-anchor:end;" transform="rotate(0, 60.1324, 190.301)" x="60.1324" y="190.301">500</text>
</g>
<g clip-path="url(#clip7200)">
<text style="fill:#000000; fill-opacity:1; font-family:Arial,Helvetica Neue,Helvetica,sans-serif; font-size:12; text-anchor:end;" transform="rotate(0, 60.1324, 108.071)" x="60.1324" y="108.071">750</text>
</g>
<g clip-path="url(#clip7200)">
<text style="fill:#000000; fill-opacity:1; font-family:Arial,Helvetica Neue,Helvetica,sans-serif; font-size:12; text-anchor:end;" transform="rotate(0, 60.1324, 25.8399)" x="60.1324" y="25.8399">1000</text>
</g>
<g clip-path="url(#clip7200)">
<text style="fill:#000000; fill-opacity:1; font-family:Arial,Helvetica Neue,Helvetica,sans-serif; font-size:16; text-anchor:middle;" transform="rotate(0, 323.224, 397.6)" x="323.224" y="397.6">Time</text>
</g>
<g clip-path="url(#clip7200)">
<text style="fill:#000000; fill-opacity:1; font-family:Arial,Helvetica Neue,Helvetica,sans-serif; font-size:16; text-anchor:middle;" transform="rotate(-90, 14.4, 185.966)" x="14.4" y="185.966">Number</text>
</g>
<polyline clip-path="url(#clip7202)" style="stroke:#009af9; stroke-width:1; stroke-opacity:1; fill:none" points="
  80.6848,21.6688 93.7424,21.9978 94.9886,22.3267 101.247,22.3267 101.586,22.6556 121.383,22.9845 128.536,23.3135 131.524,23.6424 132.91,23.9713 135.501,23.9713 
  135.681,24.3002 136.865,24.6291 137.731,24.9581 156.195,25.287 157.922,25.287 159.308,25.6159 159.311,25.9448 159.514,26.2738 160.72,26.2738 160.872,26.2738 
  162.709,26.6027 163.753,26.6027 164.068,26.9316 164.159,26.9316 170.267,26.9316 171.636,27.2605 172.032,27.5895 172.949,27.5895 174.525,27.9184 175.87,27.9184 
  176.15,28.2473 178.661,28.5762 181.561,28.9051 181.604,29.2341 181.682,29.563 183.613,29.8919 185.153,29.8919 185.463,30.2208 186.426,30.5498 186.438,30.8787 
  188.142,31.2076 189.176,31.5365 189.527,31.5365 194.145,31.8655 194.667,32.1944 195.565,32.1944 196.436,32.1944 196.617,32.1944 196.894,32.5233 197.259,32.8522 
  197.286,33.1811 197.801,33.5101 198.398,33.839 198.744,34.1679 198.789,34.4968 198.987,34.8258 199.091,35.1547 199.113,35.1547 200.118,35.1547 200.669,35.1547 
  203.164,35.4836 203.246,35.4836 204.004,35.8125 204.043,35.8125 204.681,36.1415 205.091,36.4704 205.45,36.7993 205.535,37.1282 205.536,37.4571 205.715,37.4571 
  205.73,37.7861 206.996,38.115 207.807,38.115 208.055,38.115 208.54,38.115 209.355,38.115 209.525,38.4439 209.611,38.4439 209.988,38.7728 210.063,39.1018 
  210.315,39.4307 211.429,39.7596 213.032,39.7596 213.104,40.0885 213.394,40.4174 214.254,40.4174 214.412,40.7464 214.444,41.0753 214.524,41.4042 216.165,41.4042 
  216.365,41.4042 219.04,41.7331 219.516,41.7331 220.312,42.0621 221.339,42.0621 221.802,42.0621 221.904,42.0621 222.157,42.391 223.37,42.7199 224.403,43.0488 
  224.733,43.0488 225.446,43.3778 226.144,43.7067 227.174,44.0356 227.881,44.3645 228.334,44.3645 228.856,44.6934 229.022,45.0224 229.298,45.3513 229.43,45.6802 
  229.506,46.0091 229.616,46.3381 229.714,46.3381 231.272,46.667 231.274,46.9959 231.523,47.3248 232.022,47.6538 232.074,47.6538 232.233,47.9827 232.934,48.3116 
  233.416,48.3116 233.489,48.6405 233.551,48.9694 234.049,48.9694 235.224,49.2984 236.194,49.2984 236.37,49.6273 237.85,49.9562 238.13,50.2851 238.476,50.2851 
  238.517,50.6141 238.529,50.6141 238.985,50.6141 239.442,50.943 239.508,50.943 239.606,51.2719 240.626,51.2719 242.134,51.2719 242.358,51.2719 243.214,51.2719 
  243.927,51.6008 244.052,51.9298 244.133,52.2587 244.378,52.5876 244.433,52.9165 244.806,53.2454 244.876,53.5744 245.706,53.5744 246.059,53.5744 246.116,53.5744 
  246.394,53.5744 246.619,53.9033 247.115,53.9033 247.545,54.2322 248.813,54.2322 249.41,54.2322 249.514,54.5611 249.566,54.8901 249.917,55.219 250.599,55.219 
  250.677,55.5479 250.773,55.5479 251.57,55.5479 252.055,55.8768 252.247,56.2057 252.437,56.2057 252.577,56.5347 252.589,56.8636 252.794,57.1925 254.114,57.5214 
  255.577,57.8504 255.629,57.8504 255.839,57.8504 256.499,57.8504 256.587,58.1793 256.618,58.5082 257.033,58.5082 257.929,58.5082 258.028,58.8371 258.166,58.8371 
  258.334,59.1661 259.109,59.1661 260.412,59.1661 260.54,59.1661 260.83,59.495 260.954,59.495 261.218,59.8239 261.651,60.1528 262.029,60.1528 262.442,60.4817 
  262.499,60.4817 262.989,60.4817 263.184,60.8107 263.192,60.8107 263.2,61.1396 263.758,61.4685 264.578,61.4685 265.259,61.4685 265.507,61.7974 265.964,61.7974 
  266.266,61.7974 266.293,62.1264 267.672,62.1264 268.152,62.4553 270.114,62.7842 270.243,63.1131 270.3,63.4421 271.436,63.771 271.439,64.0999 271.854,64.4288 
  272.236,64.7577 272.637,65.0867 273.044,65.4156 273.113,65.7445 273.133,65.7445 273.139,66.0734 273.858,66.4024 274.041,66.7313 274.056,67.0602 274.169,67.0602 
  274.31,67.3891 274.317,67.7181 275.334,68.047 275.365,68.3759 275.783,68.7048 275.87,69.0337 275.964,69.3627 276.039,69.6916 276.041,69.6916 276.286,70.0205 
  276.554,70.3494 277.195,70.3494 277.202,70.3494 277.392,70.6784 277.892,70.6784 278.248,70.6784 278.45,70.6784 278.563,71.0073 278.812,71.3362 278.874,71.6651 
  279.279,71.994 279.344,72.323 279.547,72.323 279.582,72.6519 280.388,72.9808 280.788,73.3097 281.015,73.3097 281.174,73.6387 281.631,73.6387 281.871,73.6387 
  282.002,73.9676 282.805,74.2965 282.934,74.2965 283.378,74.2965 283.498,74.6254 283.713,74.6254 284.409,74.6254 284.561,74.9544 284.754,74.9544 285.134,75.2833 
  285.598,75.6122 286.077,75.9411 286.674,75.9411 287.135,76.27 287.226,76.27 287.539,76.27 287.622,76.599 287.794,76.9279 288.348,77.2568 288.414,77.5857 
  288.519,77.9147 289.258,78.2436 289.992,78.2436 290.076,78.2436 290.207,78.5725 290.34,78.9014 290.367,79.2304 290.435,79.5593 290.483,79.8882 290.513,80.2171 
  290.522,80.2171 290.613,80.546 291.245,80.875 291.648,80.875 291.966,81.2039 292.217,81.5328 292.554,81.8617 292.616,82.1907 292.63,82.5196 292.783,82.5196 
  292.96,82.8485 293.415,83.1774 293.504,83.1774 293.795,83.1774 293.872,83.1774 294.042,83.5064 294.285,83.5064 294.393,83.8353 294.487,83.8353 294.544,84.1642 
  295.076,84.1642 295.106,84.1642 295.205,84.4931 295.316,84.4931 295.542,84.822 295.658,85.151 296.13,85.4799 296.153,85.4799 296.422,85.4799 296.528,85.8088 
  296.559,85.8088 296.722,86.1377 296.881,86.4667 296.898,86.7956 297.404,87.1245 297.672,87.1245 298.004,87.1245 298.218,87.4534 298.222,87.7823 298.434,88.1113 
  298.589,88.1113 298.626,88.1113 298.77,88.4402 298.963,88.4402 298.97,88.7691 298.994,88.7691 299.536,88.7691 300.129,89.098 300.249,89.098 300.5,89.427 
  300.822,89.7559 300.992,90.0848 301.163,90.4137 301.272,90.7427 301.323,90.7427 301.489,90.7427 301.555,91.0716 301.762,91.0716 301.86,91.4005 302.057,91.7294 
  302.326,91.7294 302.46,92.0583 302.472,92.3873 302.591,92.3873 302.593,92.7162 302.922,92.7162 303.097,92.7162 303.281,93.0451 303.363,93.374 303.412,93.703 
  303.589,94.0319 303.623,94.0319 304.64,94.0319 304.643,94.0319 304.747,94.3608 305.231,94.3608 305.278,94.3608 305.457,94.6897 305.516,94.6897 306.177,94.6897 
  306.248,95.0187 306.259,95.3476 307.049,95.3476 307.251,95.3476 307.681,95.6765 307.841,96.0054 307.987,96.0054 308.181,96.0054 308.359,96.0054 308.406,96.3343 
  308.574,96.6633 309.437,96.6633 309.481,96.6633 309.56,96.9922 309.576,97.3211 309.693,97.65 310.015,97.65 310.042,97.65 310.547,97.979 310.591,97.979 
  311.1,97.979 311.234,98.3079 311.614,98.3079 311.973,98.6368 312.068,98.6368 312.158,98.6368 312.518,98.9657 313.257,99.2947 313.624,99.6236 313.758,99.6236 
  313.871,99.9525 314.032,99.9525 315.077,100.281 315.436,100.281 315.452,100.61 315.475,100.61 315.544,100.939 315.854,100.939 316.225,100.939 316.262,101.268 
  316.318,101.597 317.141,101.926 317.56,102.255 317.58,102.584 318.136,102.913 318.704,103.242 318.832,103.571 319.632,103.9 320.147,104.228 320.569,104.557 
  320.576,104.557 320.629,104.886 320.795,105.215 321.138,105.544 321.308,105.873 321.6,106.202 322.408,106.531 322.633,106.531 322.841,106.531 322.982,106.86 
  322.983,107.189 323.097,107.189 323.207,107.518 323.273,107.518 323.465,107.847 323.819,108.176 324.381,108.504 324.552,108.833 324.625,108.833 324.639,109.162 
  324.724,109.491 324.959,109.491 325.601,109.82 325.63,110.149 326.161,110.478 326.521,110.807 326.768,111.136 327.119,111.465 327.195,111.794 327.324,111.794 
  327.556,111.794 327.919,112.123 327.953,112.123 327.972,112.123 328.026,112.123 328.046,112.452 328.109,112.452 328.138,112.78 328.282,113.109 328.502,113.109 
  328.545,113.109 328.656,113.438 328.753,113.438 328.843,113.767 328.886,113.767 328.904,114.096 329.178,114.425 329.958,114.754 330.005,115.083 330.094,115.083 
  330.219,115.412 330.617,115.412 330.773,115.741 330.852,115.741 330.947,116.07 331.078,116.399 331.473,116.399 332.212,116.728 332.213,117.056 332.348,117.385 
  332.752,117.714 332.96,117.714 333.07,117.714 333.127,117.714 333.568,118.043 334.257,118.372 334.508,118.701 335.163,119.03 335.712,119.359 335.977,119.359 
  336.324,119.688 336.792,120.017 336.916,120.017 336.941,120.017 337.077,120.017 337.486,120.017 338.087,120.017 338.155,120.017 338.219,120.346 338.401,120.346 
  338.448,120.346 338.456,120.346 338.665,120.346 338.705,120.675 338.868,120.675 338.968,121.004 339.331,121.332 339.463,121.661 339.856,121.661 340.173,121.661 
  340.325,121.661 340.685,121.661 340.852,121.99 341.106,121.99 341.462,121.99 341.614,121.99 341.669,121.99 341.803,122.319 341.825,122.648 341.879,122.977 
  341.89,123.306 341.918,123.306 342.077,123.306 342.117,123.635 342.203,123.635 342.275,123.964 343.211,124.293 343.284,124.622 343.286,124.622 343.57,124.951 
  344.105,124.951 344.135,124.951 344.177,125.28 344.23,125.28 344.417,125.28 344.521,125.608 344.746,125.608 345.103,125.608 345.112,125.937 345.286,125.937 
  345.435,126.266 345.514,126.266 345.55,126.595 345.984,126.595 346.413,126.595 346.883,126.595 346.983,126.924 347.09,126.924 347.125,127.253 347.42,127.582 
  347.472,127.582 347.507,127.911 348.16,128.24 348.541,128.569 348.688,128.569 348.779,128.898 348.915,128.898 348.937,128.898 349.207,129.227 349.705,129.556 
  349.928,129.884 350.145,130.213 350.523,130.542 351.789,130.871 352.108,131.2 352.902,131.2 352.974,131.529 353.275,131.858 353.563,131.858 354.045,131.858 
  354.072,131.858 354.44,132.187 354.745,132.187 355.116,132.187 355.216,132.516 355.692,132.845 356.186,133.174 356.188,133.174 356.263,133.503 356.79,133.503 
  357.012,133.503 357.198,133.503 357.424,133.503 357.705,133.832 357.805,134.16 358.351,134.489 359.554,134.818 359.619,134.818 360.285,134.818 361.692,134.818 
  361.721,135.147 361.956,135.147 362.118,135.476 362.274,135.805 362.747,136.134 362.924,136.463 363.122,136.792 363.198,137.121 363.49,137.121 363.491,137.121 
  363.613,137.45 363.614,137.779 363.744,137.779 363.788,138.108 363.94,138.108 364.025,138.436 364.052,138.436 364.12,138.765 364.363,139.094 364.692,139.423 
  364.836,139.752 364.886,139.752 365.137,140.081 365.256,140.081 365.592,140.41 365.657,140.739 366.187,140.739 366.398,141.068 366.673,141.397 366.704,141.726 
  366.856,142.055 366.885,142.055 367.174,142.384 367.338,142.384 367.397,142.712 367.596,143.041 368.381,143.37 368.533,143.37 368.604,143.699 368.705,144.028 
  368.785,144.028 368.906,144.357 368.906,144.686 369.017,144.686 369.176,145.015 369.204,145.344 369.221,145.344 369.31,145.673 369.356,146.002 369.443,146.002 
  369.809,146.002 369.865,146.331 369.875,146.66 369.965,146.988 370.038,147.317 370.108,147.317 370.124,147.646 370.365,147.646 370.506,147.975 370.543,147.975 
  370.654,147.975 370.715,147.975 370.744,147.975 370.879,147.975 371.039,147.975 371.148,148.304 371.257,148.633 371.313,148.633 371.499,148.962 371.654,149.291 
  371.866,149.291 372.007,149.62 372.387,149.62 372.508,149.949 372.51,149.949 372.521,149.949 372.716,150.278 372.98,150.278 373.002,150.278 373.569,150.607 
  373.986,150.607 374.532,150.607 374.632,150.936 374.866,150.936 374.963,151.264 375.072,151.264 375.604,151.593 375.71,151.922 375.718,152.251 375.768,152.251 
  376.002,152.58 376.315,152.58 376.315,152.58 376.398,152.58 376.645,152.909 376.936,153.238 377.009,153.238 377.081,153.238 377.133,153.567 377.342,153.896 
  377.378,153.896 377.641,153.896 377.647,153.896 377.914,154.225 377.923,154.554 377.994,154.883 378.155,155.212 378.169,155.212 378.244,155.212 378.335,155.54 
  378.509,155.54 378.549,155.54 378.638,155.869 378.776,155.869 378.864,156.198 379.026,156.527 379.147,156.527 379.161,156.856 379.423,157.185 379.433,157.185 
  379.483,157.514 379.747,157.843 379.817,158.172 379.97,158.501 380.055,158.501 380.086,158.501 380.224,158.83 380.399,159.159 380.463,159.488 380.651,159.816 
  380.81,159.816 381.123,160.145 381.169,160.474 381.246,160.803 381.248,161.132 381.414,161.461 381.46,161.79 381.6,161.79 381.616,162.119 381.901,162.448 
  381.97,162.448 381.982,162.448 382.021,162.448 382.17,162.777 382.356,162.777 382.457,162.777 382.517,162.777 382.518,162.777 382.689,163.106 382.753,163.435 
  382.763,163.764 383.194,164.092 383.33,164.092 383.446,164.092 383.514,164.092 383.733,164.092 383.978,164.421 384.134,164.75 384.188,164.75 384.433,165.079 
  384.525,165.079 384.53,165.079 384.682,165.408 384.945,165.737 385.228,165.737 385.788,165.737 385.79,166.066 385.95,166.395 386.09,166.724 386.34,166.724 
  386.342,167.053 386.426,167.053 386.505,167.053 386.559,167.053 386.571,167.382 386.621,167.711 386.646,168.04 386.984,168.368 387.35,168.368 387.768,168.697 
  387.896,168.697 387.994,169.026 388.214,169.026 388.37,169.355 388.416,169.355 388.465,169.684 388.477,170.013 388.96,170.342 388.96,170.671 388.975,170.671 
  389.006,170.671 389.229,170.671 389.372,171 389.376,171 389.506,171.329 389.594,171.658 389.876,171.658 390.1,171.987 390.403,171.987 390.501,172.316 
  390.507,172.316 390.711,172.316 390.724,172.316 390.809,172.644 391.014,172.973 391.032,173.302 391.112,173.631 391.246,173.631 391.477,173.96 391.495,174.289 
  391.54,174.289 391.757,174.618 391.837,174.618 391.886,174.947 391.922,175.276 392.09,175.605 392.15,175.605 392.256,175.934 392.259,176.263 392.39,176.263 
  392.574,176.592 392.691,176.592 392.787,176.92 392.828,176.92 392.861,176.92 393.154,177.249 393.164,177.249 393.264,177.578 393.306,177.578 393.426,177.907 
  393.513,178.236 393.581,178.236 393.587,178.565 393.816,178.894 393.988,179.223 394.461,179.223 394.596,179.552 394.675,179.552 394.844,179.881 394.878,179.881 
  395.029,180.21 395.306,180.539 395.637,180.539 395.801,180.868 395.881,181.196 395.984,181.525 396.004,181.854 396.038,181.854 396.114,181.854 396.194,182.183 
  396.368,182.183 396.93,182.183 397.35,182.183 397.392,182.183 397.402,182.183 397.445,182.512 397.678,182.512 397.728,182.512 398.167,182.841 398.333,183.17 
  398.352,183.499 398.631,183.499 398.776,183.499 398.91,183.499 398.942,183.828 399.139,184.157 399.24,184.486 399.284,184.815 399.338,185.144 399.371,185.144 
  400.336,185.472 400.586,185.801 400.686,185.801 400.773,186.13 401.107,186.13 401.593,186.459 401.624,186.459 401.7,186.788 401.782,186.788 401.872,187.117 
  402.021,187.446 402.485,187.446 402.552,187.775 402.639,188.104 402.778,188.104 402.908,188.104 403.292,188.104 403.75,188.104 403.851,188.104 403.923,188.433 
  404.373,188.762 404.496,188.762 404.71,188.762 404.997,188.762 405.011,188.762 405.036,188.762 405.419,188.762 405.426,188.762 405.444,189.091 405.628,189.091 
  405.683,189.091 405.734,189.091 406.151,189.42 406.184,189.748 406.265,190.077 406.775,190.077 406.779,190.406 407.239,190.406 407.602,190.735 407.792,191.064 
  407.844,191.064 408.011,191.393 408.334,191.393 408.371,191.393 408.533,191.393 409.104,191.722 409.186,191.722 409.407,191.722 409.533,192.051 409.801,192.051 
  409.972,192.051 409.988,192.051 410.051,192.38 410.333,192.38 410.631,192.709 410.672,193.038 410.821,193.367 411.299,193.696 411.466,193.696 411.535,193.696 
  411.906,193.696 412.281,193.696 412.648,193.696 412.672,193.696 412.873,194.024 413.187,194.353 413.232,194.682 413.563,194.682 413.729,194.682 413.754,194.682 
  413.783,195.011 414.113,195.011 414.243,195.34 414.249,195.34 414.252,195.34 414.355,195.34 414.644,195.34 414.772,195.669 414.777,195.669 414.802,195.669 
  415.109,195.669 415.249,195.669 415.536,195.669 415.574,195.669 415.801,195.669 415.956,195.998 416.238,195.998 416.8,195.998 416.846,196.327 417.079,196.327 
  418.186,196.327 418.341,196.327 418.603,196.327 418.647,196.656 418.785,196.656 418.939,196.985 419.257,196.985 419.522,196.985 419.534,196.985 419.814,197.314 
  420.003,197.314 420.252,197.643 420.374,197.643 420.526,197.972 420.598,198.3 421.089,198.3 421.342,198.629 421.48,198.629 422.14,198.958 422.697,199.287 
  422.762,199.616 422.868,199.945 422.894,199.945 422.98,200.274 423.215,200.603 423.511,200.932 423.563,201.261 423.923,201.59 423.987,201.59 424.016,201.59 
  424.095,201.919 424.122,201.919 424.295,201.919 424.83,201.919 424.939,202.248 425.034,202.248 425.311,202.576 425.615,202.576 425.681,202.576 425.762,202.905 
  426.112,203.234 426.171,203.563 426.226,203.892 426.811,203.892 427.197,204.221 427.513,204.221 428.043,204.221 428.186,204.221 428.231,204.221 428.375,204.55 
  428.439,204.55 428.755,204.879 428.849,205.208 428.907,205.208 428.984,205.537 429.005,205.537 429.078,205.866 429.519,205.866 429.752,205.866 429.758,206.195 
  429.78,206.524 429.857,206.524 430.475,206.524 430.813,206.524 430.852,206.852 431.095,206.852 431.381,207.181 431.396,207.51 431.503,207.839 431.554,208.168 
  431.599,208.168 431.708,208.168 431.91,208.168 432.406,208.497 432.468,208.497 432.515,208.497 432.693,208.826 432.704,209.155 433.006,209.155 433.182,209.155 
  434.049,209.484 434.133,209.813 434.772,210.142 434.931,210.142 435.429,210.471 435.809,210.471 435.812,210.471 435.827,210.471 435.867,210.471 435.936,210.471 
  436.505,210.8 436.946,211.128 437.061,211.457 437.148,211.786 437.24,211.786 437.5,212.115 437.937,212.444 438.384,212.773 438.605,213.102 438.848,213.431 
  438.959,213.431 439.049,213.431 439.177,213.76 439.296,213.76 439.296,213.76 439.722,214.089 439.873,214.418 440.141,214.418 440.151,214.418 440.291,214.747 
  440.372,215.076 440.525,215.404 440.887,215.404 440.934,215.733 441.028,216.062 441.49,216.062 441.714,216.062 441.758,216.391 442.015,216.391 442.506,216.391 
  443.133,216.72 443.403,216.72 443.777,217.049 444.092,217.049 444.12,217.378 444.44,217.378 444.784,217.378 444.806,217.707 444.976,218.036 445.187,218.036 
  445.436,218.036 445.774,218.365 445.922,218.694 446.164,218.694 446.43,219.023 447.214,219.023 447.455,219.023 447.491,219.023 447.67,219.352 447.974,219.68 
  448.091,219.68 448.145,220.009 448.633,220.009 448.677,220.009 448.811,220.338 448.998,220.338 449.002,220.338 449.117,220.667 449.303,220.667 449.309,220.996 
  449.789,220.996 449.808,221.325 450.077,221.325 450.188,221.325 450.419,221.654 450.643,221.654 450.709,221.654 450.714,221.983 450.869,222.312 450.876,222.312 
  451.564,222.312 451.589,222.641 451.597,222.97 451.76,223.299 451.812,223.628 451.988,223.956 452.034,223.956 452.047,224.285 452.106,224.285 452.328,224.614 
  452.49,224.614 452.797,224.943 452.804,225.272 452.905,225.601 452.915,225.601 453.014,225.93 453.263,225.93 453.292,225.93 453.304,226.259 453.407,226.259 
  453.46,226.588 454.051,226.917 454.771,227.246 455.237,227.246 455.291,227.575 455.462,227.904 455.611,227.904 455.717,228.232 455.827,228.561 455.977,228.561 
  456.042,228.89 456.514,229.219 456.616,229.219 456.727,229.548 456.756,229.548 457.696,229.877 457.738,230.206 457.792,230.206 458.135,230.535 458.185,230.535 
  458.276,230.535 458.344,230.535 458.372,230.535 458.64,230.535 458.687,230.535 458.951,230.535 458.988,230.864 459.013,231.193 459.09,231.522 459.583,231.522 
  459.748,231.851 459.898,231.851 460.076,231.851 460.313,232.18 460.337,232.508 460.829,232.508 461.171,232.508 461.247,232.837 461.375,233.166 461.749,233.166 
  462.224,233.166 462.282,233.495 462.746,233.824 462.909,233.824 463.896,233.824 464.138,233.824 464.245,233.824 464.648,234.153 464.772,234.153 465.279,234.153 
  465.582,234.153 465.832,234.153 466.191,234.153 466.693,234.482 466.731,234.811 467.097,234.811 467.182,234.811 467.383,234.811 467.623,234.811 467.634,234.811 
  467.934,234.811 468.605,234.811 468.69,235.14 468.964,235.469 469.543,235.798 469.594,235.798 469.956,235.798 470.119,236.127 470.31,236.456 470.585,236.456 
  470.887,236.456 471.205,236.456 471.399,236.784 471.406,237.113 471.66,237.113 471.685,237.113 471.753,237.113 471.858,237.442 472.148,237.442 472.246,237.771 
  472.265,238.1 472.449,238.429 473.125,238.429 473.155,238.758 473.308,239.087 473.705,239.087 474.037,239.416 474.108,239.416 474.312,239.745 474.728,240.074 
  474.775,240.074 474.839,240.403 475.361,240.732 475.603,240.732 475.825,240.732 475.92,240.732 475.999,241.06 476.548,241.389 476.584,241.389 476.727,241.389 
  476.732,241.389 476.754,241.718 477.23,241.718 477.337,242.047 477.391,242.047 478.138,242.376 478.215,242.705 478.256,242.705 479.21,242.705 479.293,242.705 
  479.31,242.705 479.87,242.705 480.047,242.705 480.553,243.034 480.991,243.363 481.005,243.692 481.013,244.021 481.318,244.021 481.408,244.021 481.785,244.35 
  482.031,244.35 482.412,244.679 482.515,245.007 482.915,245.007 483.361,245.336 483.405,245.665 483.418,245.665 483.493,245.665 483.562,245.665 483.776,245.665 
  483.914,245.665 484.299,245.665 484.851,245.994 485.186,245.994 485.23,246.323 485.313,246.323 485.443,246.652 485.862,246.652 486.157,246.652 486.198,246.652 
  487.191,246.652 487.586,246.652 487.813,246.652 488.045,246.981 488.137,246.981 488.163,247.31 488.754,247.31 489.241,247.31 489.442,247.639 489.505,247.968 
  490.466,247.968 490.631,248.297 490.654,248.297 490.782,248.626 491.071,248.955 491.234,248.955 491.616,248.955 492.066,248.955 492.309,249.283 492.43,249.612 
  493.575,249.941 494.078,249.941 494.302,250.27 494.7,250.27 494.769,250.27 495.066,250.599 495.353,250.928 495.497,250.928 495.586,251.257 495.619,251.257 
  495.631,251.586 495.859,251.915 495.952,251.915 496.208,252.244 496.582,252.244 497.22,252.573 497.236,252.902 497.958,252.902 498.103,252.902 498.153,252.902 
  498.343,252.902 498.773,252.902 499.316,253.231 499.742,253.231 499.81,253.231 500.159,253.231 500.323,253.231 500.501,253.231 500.624,253.559 500.806,253.888 
  500.871,253.888 501.17,254.217 501.211,254.217 501.359,254.217 501.414,254.217 501.797,254.217 502.074,254.217 502.306,254.546 502.509,254.546 502.538,254.546 
  502.848,254.546 503.42,254.875 503.598,255.204 504.131,255.533 504.706,255.533 504.827,255.533 505.528,255.533 505.729,255.862 506.26,256.191 506.769,256.191 
  507.227,256.191 507.431,256.52 507.655,256.849 508.117,256.849 508.354,256.849 509.118,256.849 509.255,257.178 509.514,257.507 510.054,257.507 510.115,257.835 
  510.174,258.164 510.375,258.164 510.388,258.493 510.441,258.493 510.455,258.493 510.634,258.822 510.756,258.822 511.018,258.822 511.128,259.151 511.373,259.48 
  511.398,259.48 511.411,259.809 511.546,260.138 512.312,260.138 512.362,260.138 512.453,260.467 512.578,260.467 512.686,260.467 512.85,260.467 513.081,260.467 
  513.211,260.467 513.72,260.796 513.768,260.796 514.117,260.796 514.547,261.125 514.565,261.125 514.59,261.454 514.657,261.454 515.184,261.783 515.744,261.783 
  515.768,261.783 515.908,262.111 515.923,262.111 515.929,262.44 516.014,262.44 516.321,262.44 516.965,262.769 516.972,262.769 517.153,262.769 517.697,263.098 
  517.765,263.427 517.942,263.427 518.141,263.427 518.487,263.427 518.494,263.427 519.133,263.427 520.008,263.427 520.106,263.427 520.117,263.756 520.191,263.756 
  520.409,263.756 520.768,263.756 521.718,263.756 522.589,264.085 522.748,264.085 523.475,264.085 523.664,264.414 523.745,264.743 524.319,264.743 524.785,264.743 
  524.957,264.743 525.121,265.072 525.371,265.072 525.876,265.401 526.121,265.401 526.247,265.401 526.413,265.401 526.949,265.401 527.011,265.401 527.06,265.73 
  527.131,265.73 528.448,265.73 528.463,265.73 529.747,265.73 530.074,265.73 530.194,265.73 530.346,265.73 532.116,266.059 532.551,266.059 533.258,266.387 
  533.865,266.387 533.896,266.387 533.907,266.716 534.273,266.716 534.43,267.045 534.987,267.045 535.2,267.374 535.441,267.374 535.479,267.374 535.634,267.374 
  536.247,267.374 537.076,267.374 537.488,267.374 537.64,267.703 538.161,268.032 538.19,268.361 538.323,268.361 538.457,268.361 538.75,268.69 539.044,268.69 
  539.773,269.019 540.484,269.348 540.897,269.348 543.023,269.348 543.377,269.348 543.515,269.677 544.317,270.006 544.322,270.335 545.011,270.335 545.496,270.335 
  545.54,270.335 545.91,270.335 546.235,270.663 547.249,270.663 548.279,270.992 550,270.992 550.17,270.992 550.64,271.321 550.772,271.321 551.128,271.321 
  551.302,271.65 551.753,271.979 551.765,271.979 552.83,271.979 553.663,272.308 557.559,272.637 558.165,272.637 558.605,272.637 559.002,272.637 559.717,272.637 
  560.324,272.966 560.636,273.295 561.093,273.295 563.819,273.624 565.038,273.624 565.763,273.624 
  "/>
<polyline clip-path="url(#clip7202)" style="stroke:#e26f46; stroke-width:1; stroke-opacity:1; fill:none" points="
  80.6848,349.934 93.7424,349.605 94.9886,349.276 101.247,349.605 101.586,349.276 121.383,348.947 128.536,348.618 131.524,348.289 132.91,347.96 135.501,348.289 
  135.681,347.96 136.865,347.631 137.731,347.303 156.195,346.974 157.922,347.303 159.308,346.974 159.311,346.645 159.514,346.316 160.72,346.645 160.872,346.974 
  162.709,346.645 163.753,346.974 164.068,346.645 164.159,346.974 170.267,347.303 171.636,346.974 172.032,346.645 172.949,346.974 174.525,346.645 175.87,346.974 
  176.15,346.645 178.661,346.316 181.561,345.987 181.604,345.658 181.682,345.329 183.613,345 185.153,345.329 185.463,345 186.426,344.671 186.438,344.342 
  188.142,344.013 189.176,343.684 189.527,344.013 194.145,343.684 194.667,343.355 195.565,343.684 196.436,344.013 196.617,344.342 196.894,344.013 197.259,343.684 
  197.286,343.355 197.801,343.027 198.398,342.698 198.744,342.369 198.789,342.04 198.987,341.711 199.091,341.382 199.113,341.711 200.118,342.04 200.669,342.369 
  203.164,342.04 203.246,342.369 204.004,342.04 204.043,342.369 204.681,342.04 205.091,341.711 205.45,341.382 205.535,341.053 205.536,340.724 205.715,341.053 
  205.73,340.724 206.996,340.395 207.807,340.724 208.055,341.053 208.54,341.382 209.355,341.711 209.525,341.382 209.611,341.711 209.988,341.382 210.063,341.053 
  210.315,340.724 211.429,340.395 213.032,340.724 213.104,340.395 213.394,340.066 214.254,340.395 214.412,340.066 214.444,339.737 214.524,339.408 216.165,339.737 
  216.365,340.066 219.04,339.737 219.516,340.066 220.312,339.737 221.339,340.066 221.802,340.395 221.904,340.724 222.157,340.395 223.37,340.066 224.403,339.737 
  224.733,340.066 225.446,339.737 226.144,339.408 227.174,339.079 227.881,338.751 228.334,339.079 228.856,338.751 229.022,338.422 229.298,338.093 229.43,337.764 
  229.506,337.435 229.616,337.106 229.714,337.435 231.272,337.106 231.274,336.777 231.523,336.448 232.022,336.119 232.074,336.448 232.233,336.119 232.934,335.79 
  233.416,336.119 233.489,335.79 233.551,335.461 234.049,335.79 235.224,335.461 236.194,335.79 236.37,335.461 237.85,335.132 238.13,334.803 238.476,335.132 
  238.517,334.803 238.529,335.132 238.985,335.461 239.442,335.132 239.508,335.461 239.606,335.132 240.626,335.461 242.134,335.79 242.358,336.119 243.214,336.448 
  243.927,336.119 244.052,335.79 244.133,335.461 244.378,335.132 244.433,334.803 244.806,334.475 244.876,334.146 245.706,334.475 246.059,334.803 246.116,335.132 
  246.394,335.461 246.619,335.132 247.115,335.461 247.545,335.132 248.813,335.461 249.41,335.79 249.514,335.461 249.566,335.132 249.917,334.803 250.599,335.132 
  250.677,334.803 250.773,335.132 251.57,335.461 252.055,335.132 252.247,334.803 252.437,335.132 252.577,334.803 252.589,334.475 252.794,334.146 254.114,333.817 
  255.577,333.488 255.629,333.817 255.839,334.146 256.499,334.475 256.587,334.146 256.618,333.817 257.033,334.146 257.929,334.475 258.028,334.146 258.166,334.475 
  258.334,334.146 259.109,334.475 260.412,334.803 260.54,335.132 260.83,334.803 260.954,335.132 261.218,334.803 261.651,334.475 262.029,334.803 262.442,334.475 
  262.499,334.803 262.989,335.132 263.184,334.803 263.192,335.132 263.2,334.803 263.758,334.475 264.578,334.803 265.259,335.132 265.507,334.803 265.964,335.132 
  266.266,335.461 266.293,335.132 267.672,335.461 268.152,335.132 270.114,334.803 270.243,334.475 270.3,334.146 271.436,333.817 271.439,333.488 271.854,333.159 
  272.236,332.83 272.637,332.501 273.044,332.172 273.113,331.843 273.133,332.172 273.139,331.843 273.858,331.514 274.041,331.185 274.056,330.856 274.169,331.185 
  274.31,330.856 274.317,330.527 275.334,330.199 275.365,329.87 275.783,329.541 275.87,329.212 275.964,328.883 276.039,328.554 276.041,328.883 276.286,328.554 
  276.554,328.225 277.195,328.554 277.202,328.883 277.392,328.554 277.892,328.883 278.248,329.212 278.45,329.541 278.563,329.212 278.812,328.883 278.874,328.554 
  279.279,328.225 279.344,327.896 279.547,328.225 279.582,327.896 280.388,327.567 280.788,327.238 281.015,327.567 281.174,327.238 281.631,327.567 281.871,327.896 
  282.002,327.567 282.805,327.238 282.934,327.567 283.378,327.896 283.498,327.567 283.713,327.896 284.409,328.225 284.561,327.896 284.754,328.225 285.134,327.896 
  285.598,327.567 286.077,327.238 286.674,327.567 287.135,327.238 287.226,327.567 287.539,327.896 287.622,327.567 287.794,327.238 288.348,326.909 288.414,326.58 
  288.519,326.251 289.258,325.923 289.992,326.251 290.076,326.58 290.207,326.251 290.34,325.923 290.367,325.594 290.435,325.265 290.483,324.936 290.513,324.607 
  290.522,324.936 290.613,324.607 291.245,324.278 291.648,324.607 291.966,324.278 292.217,323.949 292.554,323.62 292.616,323.291 292.63,322.962 292.783,323.291 
  292.96,322.962 293.415,322.633 293.504,322.962 293.795,323.291 293.872,323.62 294.042,323.291 294.285,323.62 294.393,323.291 294.487,323.62 294.544,323.291 
  295.076,323.62 295.106,323.949 295.205,323.62 295.316,323.949 295.542,323.62 295.658,323.291 296.13,322.962 296.153,323.291 296.422,323.62 296.528,323.291 
  296.559,323.62 296.722,323.291 296.881,322.962 296.898,322.633 297.404,322.304 297.672,322.633 298.004,322.962 298.218,322.633 298.222,322.304 298.434,321.975 
  298.589,322.304 298.626,322.633 298.77,322.304 298.963,322.633 298.97,322.304 298.994,322.633 299.536,322.962 300.129,322.633 300.249,322.962 300.5,322.633 
  300.822,322.304 300.992,321.975 301.163,321.647 301.272,321.318 301.323,321.647 301.489,321.975 301.555,321.647 301.762,321.975 301.86,321.647 302.057,321.318 
  302.326,321.647 302.46,321.318 302.472,320.989 302.591,321.318 302.593,320.989 302.922,321.318 303.097,321.647 303.281,321.318 303.363,320.989 303.412,320.66 
  303.589,320.331 303.623,320.66 304.64,320.989 304.643,321.318 304.747,320.989 305.231,321.318 305.278,321.647 305.457,321.318 305.516,321.647 306.177,321.975 
  306.248,321.647 306.259,321.318 307.049,321.647 307.251,321.975 307.681,321.647 307.841,321.318 307.987,321.647 308.181,321.975 308.359,322.304 308.406,321.975 
  308.574,321.647 309.437,321.975 309.481,322.304 309.56,321.975 309.576,321.647 309.693,321.318 310.015,321.647 310.042,321.975 310.547,321.647 310.591,321.975 
  311.1,322.304 311.234,321.975 311.614,322.304 311.973,321.975 312.068,322.304 312.158,322.633 312.518,322.304 313.257,321.975 313.624,321.647 313.758,321.975 
  313.871,321.647 314.032,321.975 315.077,321.647 315.436,321.975 315.452,321.647 315.475,321.975 315.544,321.647 315.854,321.975 316.225,322.304 316.262,321.975 
  316.318,321.647 317.141,321.318 317.56,320.989 317.58,320.66 318.136,320.331 318.704,320.002 318.832,319.673 319.632,319.344 320.147,319.015 320.569,318.686 
  320.576,319.015 320.629,318.686 320.795,318.357 321.138,318.028 321.308,317.699 321.6,317.371 322.408,317.042 322.633,317.371 322.841,317.699 322.982,317.371 
  322.983,317.042 323.097,317.371 323.207,317.042 323.273,317.371 323.465,317.042 323.819,316.713 324.381,316.384 324.552,316.055 324.625,316.384 324.639,316.055 
  324.724,315.726 324.959,316.055 325.601,315.726 325.63,315.397 326.161,315.068 326.521,314.739 326.768,314.41 327.119,314.081 327.195,313.752 327.324,314.081 
  327.556,314.41 327.919,314.081 327.953,314.41 327.972,314.739 328.026,315.068 328.046,314.739 328.109,315.068 328.138,314.739 328.282,314.41 328.502,314.739 
  328.545,315.068 328.656,314.739 328.753,315.068 328.843,314.739 328.886,315.068 328.904,314.739 329.178,314.41 329.958,314.081 330.005,313.752 330.094,314.081 
  330.219,313.752 330.617,314.081 330.773,313.752 330.852,314.081 330.947,313.752 331.078,313.423 331.473,313.752 332.212,313.423 332.213,313.095 332.348,312.766 
  332.752,312.437 332.96,312.766 333.07,313.095 333.127,313.423 333.568,313.095 334.257,312.766 334.508,312.437 335.163,312.108 335.712,311.779 335.977,312.108 
  336.324,311.779 336.792,311.45 336.916,311.779 336.941,312.108 337.077,312.437 337.486,312.766 338.087,313.095 338.155,313.423 338.219,313.095 338.401,313.423 
  338.448,313.752 338.456,314.081 338.665,314.41 338.705,314.081 338.868,314.41 338.968,314.081 339.331,313.752 339.463,313.423 339.856,313.752 340.173,314.081 
  340.325,314.41 340.685,314.739 340.852,314.41 341.106,314.739 341.462,315.068 341.614,315.397 341.669,315.726 341.803,315.397 341.825,315.068 341.879,314.739 
  341.89,314.41 341.918,314.739 342.077,315.068 342.117,314.739 342.203,315.068 342.275,314.739 343.211,314.41 343.284,314.081 343.286,314.41 343.57,314.081 
  344.105,314.41 344.135,314.739 344.177,314.41 344.23,314.739 344.417,315.068 344.521,314.739 344.746,315.068 345.103,315.397 345.112,315.068 345.286,315.397 
  345.435,315.068 345.514,315.397 345.55,315.068 345.984,315.397 346.413,315.726 346.883,316.055 346.983,315.726 347.09,316.055 347.125,315.726 347.42,315.397 
  347.472,315.726 347.507,315.397 348.16,315.068 348.541,314.739 348.688,315.068 348.779,314.739 348.915,315.068 348.937,315.397 349.207,315.068 349.705,314.739 
  349.928,314.41 350.145,314.081 350.523,313.752 351.789,313.423 352.108,313.095 352.902,313.423 352.974,313.095 353.275,312.766 353.563,313.095 354.045,313.423 
  354.072,313.752 354.44,313.423 354.745,313.752 355.116,314.081 355.216,313.752 355.692,313.423 356.186,313.095 356.188,313.423 356.263,313.095 356.79,313.423 
  357.012,313.752 357.198,314.081 357.424,314.41 357.705,314.081 357.805,313.752 358.351,313.423 359.554,313.095 359.619,313.423 360.285,313.752 361.692,314.081 
  361.721,313.752 361.956,314.081 362.118,313.752 362.274,313.423 362.747,313.095 362.924,312.766 363.122,312.437 363.198,312.108 363.49,312.437 363.491,312.766 
  363.613,312.437 363.614,312.108 363.744,312.437 363.788,312.108 363.94,312.437 364.025,312.108 364.052,312.437 364.12,312.108 364.363,311.779 364.692,311.45 
  364.836,311.121 364.886,311.45 365.137,311.121 365.256,311.45 365.592,311.121 365.657,310.792 366.187,311.121 366.398,310.792 366.673,310.463 366.704,310.134 
  366.856,309.805 366.885,310.134 367.174,309.805 367.338,310.134 367.397,309.805 367.596,309.476 368.381,309.147 368.533,309.476 368.604,309.147 368.705,308.819 
  368.785,309.147 368.906,308.819 368.906,308.49 369.017,308.819 369.176,308.49 369.204,308.161 369.221,308.49 369.31,308.161 369.356,307.832 369.443,308.161 
  369.809,308.49 369.865,308.161 369.875,307.832 369.965,307.503 370.038,307.174 370.108,307.503 370.124,307.174 370.365,307.503 370.506,307.174 370.543,307.503 
  370.654,307.832 370.715,308.161 370.744,308.49 370.879,308.819 371.039,309.147 371.148,308.819 371.257,308.49 371.313,308.819 371.499,308.49 371.654,308.161 
  371.866,308.49 372.007,308.161 372.387,308.49 372.508,308.161 372.51,308.49 372.521,308.819 372.716,308.49 372.98,308.819 373.002,309.147 373.569,308.819 
  373.986,309.147 374.532,309.476 374.632,309.147 374.866,309.476 374.963,309.147 375.072,309.476 375.604,309.147 375.71,308.819 375.718,308.49 375.768,308.819 
  376.002,308.49 376.315,308.819 376.315,309.147 376.398,309.476 376.645,309.147 376.936,308.819 377.009,309.147 377.081,309.476 377.133,309.147 377.342,308.819 
  377.378,309.147 377.641,309.476 377.647,309.805 377.914,309.476 377.923,309.147 377.994,308.819 378.155,308.49 378.169,308.819 378.244,309.147 378.335,308.819 
  378.509,309.147 378.549,309.476 378.638,309.147 378.776,309.476 378.864,309.147 379.026,308.819 379.147,309.147 379.161,308.819 379.423,308.49 379.433,308.819 
  379.483,308.49 379.747,308.161 379.817,307.832 379.97,307.503 380.055,307.832 380.086,308.161 380.224,307.832 380.399,307.503 380.463,307.174 380.651,306.845 
  380.81,307.174 381.123,306.845 381.169,306.516 381.246,306.187 381.248,305.858 381.414,305.529 381.46,305.2 381.6,305.529 381.616,305.2 381.901,304.871 
  381.97,305.2 381.982,305.529 382.021,305.858 382.17,305.529 382.356,305.858 382.457,306.187 382.517,306.516 382.518,306.845 382.689,306.516 382.753,306.187 
  382.763,305.858 383.194,305.529 383.33,305.858 383.446,306.187 383.514,306.516 383.733,306.845 383.978,306.516 384.134,306.187 384.188,306.516 384.433,306.187 
  384.525,306.516 384.53,306.845 384.682,306.516 384.945,306.187 385.228,306.516 385.788,306.845 385.79,306.516 385.95,306.187 386.09,305.858 386.34,306.187 
  386.342,305.858 386.426,306.187 386.505,306.516 386.559,306.845 386.571,306.516 386.621,306.187 386.646,305.858 386.984,305.529 387.35,305.858 387.768,305.529 
  387.896,305.858 387.994,305.529 388.214,305.858 388.37,305.529 388.416,305.858 388.465,305.529 388.477,305.2 388.96,304.871 388.96,304.543 388.975,304.871 
  389.006,305.2 389.229,305.529 389.372,305.2 389.376,305.529 389.506,305.2 389.594,304.871 389.876,305.2 390.1,304.871 390.403,305.2 390.501,304.871 
  390.507,305.2 390.711,305.529 390.724,305.858 390.809,305.529 391.014,305.2 391.032,304.871 391.112,304.543 391.246,304.871 391.477,304.543 391.495,304.214 
  391.54,304.543 391.757,304.214 391.837,304.543 391.886,304.214 391.922,303.885 392.09,303.556 392.15,303.885 392.256,303.556 392.259,303.227 392.39,303.556 
  392.574,303.227 392.691,303.556 392.787,303.227 392.828,303.556 392.861,303.885 393.154,303.556 393.164,303.885 393.264,303.556 393.306,303.885 393.426,303.556 
  393.513,303.227 393.581,303.556 393.587,303.227 393.816,302.898 393.988,302.569 394.461,302.898 394.596,302.569 394.675,302.898 394.844,302.569 394.878,302.898 
  395.029,302.569 395.306,302.24 395.637,302.569 395.801,302.24 395.881,301.911 395.984,301.582 396.004,301.253 396.038,301.582 396.114,301.911 396.194,301.582 
  396.368,301.911 396.93,302.24 397.35,302.569 397.392,302.898 397.402,303.227 397.445,302.898 397.678,303.227 397.728,303.556 398.167,303.227 398.333,302.898 
  398.352,302.569 398.631,302.898 398.776,303.227 398.91,303.556 398.942,303.227 399.139,302.898 399.24,302.569 399.284,302.24 399.338,301.911 399.371,302.24 
  400.336,301.911 400.586,301.582 400.686,301.911 400.773,301.582 401.107,301.911 401.593,301.582 401.624,301.911 401.7,301.582 401.782,301.911 401.872,301.582 
  402.021,301.253 402.485,301.582 402.552,301.253 402.639,300.924 402.778,301.253 402.908,301.582 403.292,301.911 403.75,302.24 403.851,302.569 403.923,302.24 
  404.373,301.911 404.496,302.24 404.71,302.569 404.997,302.898 405.011,303.227 405.036,303.556 405.419,303.885 405.426,304.214 405.444,303.885 405.628,304.214 
  405.683,304.543 405.734,304.871 406.151,304.543 406.184,304.214 406.265,303.885 406.775,304.214 406.779,303.885 407.239,304.214 407.602,303.885 407.792,303.556 
  407.844,303.885 408.011,303.556 408.334,303.885 408.371,304.214 408.533,304.543 409.104,304.214 409.186,304.543 409.407,304.871 409.533,304.543 409.801,304.871 
  409.972,305.2 409.988,305.529 410.051,305.2 410.333,305.529 410.631,305.2 410.672,304.871 410.821,304.543 411.299,304.214 411.466,304.543 411.535,304.871 
  411.906,305.2 412.281,305.529 412.648,305.858 412.672,306.187 412.873,305.858 413.187,305.529 413.232,305.2 413.563,305.529 413.729,305.858 413.754,306.187 
  413.783,305.858 414.113,306.187 414.243,305.858 414.249,306.187 414.252,306.516 414.355,306.845 414.644,307.174 414.772,306.845 414.777,307.174 414.802,307.503 
  415.109,307.832 415.249,308.161 415.536,308.49 415.574,308.819 415.801,309.147 415.956,308.819 416.238,309.147 416.8,309.476 416.846,309.147 417.079,309.476 
  418.186,309.805 418.341,310.134 418.603,310.463 418.647,310.134 418.785,310.463 418.939,310.134 419.257,310.463 419.522,310.792 419.534,311.121 419.814,310.792 
  420.003,311.121 420.252,310.792 420.374,311.121 420.526,310.792 420.598,310.463 421.089,310.792 421.342,310.463 421.48,310.792 422.14,310.463 422.697,310.134 
  422.762,309.805 422.868,309.476 422.894,309.805 422.98,309.476 423.215,309.147 423.511,308.819 423.563,308.49 423.923,308.161 423.987,308.49 424.016,308.819 
  424.095,308.49 424.122,308.819 424.295,309.147 424.83,309.476 424.939,309.147 425.034,309.476 425.311,309.147 425.615,309.476 425.681,309.805 425.762,309.476 
  426.112,309.147 426.171,308.819 426.226,308.49 426.811,308.819 427.197,308.49 427.513,308.819 428.043,309.147 428.186,309.476 428.231,309.805 428.375,309.476 
  428.439,309.805 428.755,309.476 428.849,309.147 428.907,309.476 428.984,309.147 429.005,309.476 429.078,309.147 429.519,309.476 429.752,309.805 429.758,309.476 
  429.78,309.147 429.857,309.476 430.475,309.805 430.813,310.134 430.852,309.805 431.095,310.134 431.381,309.805 431.396,309.476 431.503,309.147 431.554,308.819 
  431.599,309.147 431.708,309.476 431.91,309.805 432.406,309.476 432.468,309.805 432.515,310.134 432.693,309.805 432.704,309.476 433.006,309.805 433.182,310.134 
  434.049,309.805 434.133,309.476 434.772,309.147 434.931,309.476 435.429,309.147 435.809,309.476 435.812,309.805 435.827,310.134 435.867,310.463 435.936,310.792 
  436.505,310.463 436.946,310.134 437.061,309.805 437.148,309.476 437.24,309.805 437.5,309.476 437.937,309.147 438.384,308.819 438.605,308.49 438.848,308.161 
  438.959,308.49 439.049,308.819 439.177,308.49 439.296,308.819 439.296,309.147 439.722,308.819 439.873,308.49 440.141,308.819 440.151,309.147 440.291,308.819 
  440.372,308.49 440.525,308.161 440.887,308.49 440.934,308.161 441.028,307.832 441.49,308.161 441.714,308.49 441.758,308.161 442.015,308.49 442.506,308.819 
  443.133,308.49 443.403,308.819 443.777,308.49 444.092,308.819 444.12,308.49 444.44,308.819 444.784,309.147 444.806,308.819 444.976,308.49 445.187,308.819 
  445.436,309.147 445.774,308.819 445.922,308.49 446.164,308.819 446.43,308.49 447.214,308.819 447.455,309.147 447.491,309.476 447.67,309.147 447.974,308.819 
  448.091,309.147 448.145,308.819 448.633,309.147 448.677,309.476 448.811,309.147 448.998,309.476 449.002,309.805 449.117,309.476 449.303,309.805 449.309,309.476 
  449.789,309.805 449.808,309.476 450.077,309.805 450.188,310.134 450.419,309.805 450.643,310.134 450.709,310.463 450.714,310.134 450.869,309.805 450.876,310.134 
  451.564,310.463 451.589,310.134 451.597,309.805 451.76,309.476 451.812,309.147 451.988,308.819 452.034,309.147 452.047,308.819 452.106,309.147 452.328,308.819 
  452.49,309.147 452.797,308.819 452.804,308.49 452.905,308.161 452.915,308.49 453.014,308.161 453.263,308.49 453.292,308.819 453.304,308.49 453.407,308.819 
  453.46,308.49 454.051,308.161 454.771,307.832 455.237,308.161 455.291,307.832 455.462,307.503 455.611,307.832 455.717,307.503 455.827,307.174 455.977,307.503 
  456.042,307.174 456.514,306.845 456.616,307.174 456.727,306.845 456.756,307.174 457.696,306.845 457.738,306.516 457.792,306.845 458.135,306.516 458.185,306.845 
  458.276,307.174 458.344,307.503 458.372,307.832 458.64,308.161 458.687,308.49 458.951,308.819 458.988,308.49 459.013,308.161 459.09,307.832 459.583,308.161 
  459.748,307.832 459.898,308.161 460.076,308.49 460.313,308.161 460.337,307.832 460.829,308.161 461.171,308.49 461.247,308.161 461.375,307.832 461.749,308.161 
  462.224,308.49 462.282,308.161 462.746,307.832 462.909,308.161 463.896,308.49 464.138,308.819 464.245,309.147 464.648,308.819 464.772,309.147 465.279,309.476 
  465.582,309.805 465.832,310.134 466.191,310.463 466.693,310.134 466.731,309.805 467.097,310.134 467.182,310.463 467.383,310.792 467.623,311.121 467.634,311.45 
  467.934,311.779 468.605,312.108 468.69,311.779 468.964,311.45 469.543,311.121 469.594,311.45 469.956,311.779 470.119,311.45 470.31,311.121 470.585,311.45 
  470.887,311.779 471.205,312.108 471.399,311.779 471.406,311.45 471.66,311.779 471.685,312.108 471.753,312.437 471.858,312.108 472.148,312.437 472.246,312.108 
  472.265,311.779 472.449,311.45 473.125,311.779 473.155,311.45 473.308,311.121 473.705,311.45 474.037,311.121 474.108,311.45 474.312,311.121 474.728,310.792 
  474.775,311.121 474.839,310.792 475.361,310.463 475.603,310.792 475.825,311.121 475.92,311.45 475.999,311.121 476.548,310.792 476.584,311.121 476.727,311.45 
  476.732,311.779 476.754,311.45 477.23,311.779 477.337,311.45 477.391,311.779 478.138,311.45 478.215,311.121 478.256,311.45 479.21,311.779 479.293,312.108 
  479.31,312.437 479.87,312.766 480.047,313.095 480.553,312.766 480.991,312.437 481.005,312.108 481.013,311.779 481.318,312.108 481.408,312.437 481.785,312.108 
  482.031,312.437 482.412,312.108 482.515,311.779 482.915,312.108 483.361,311.779 483.405,311.45 483.418,311.779 483.493,312.108 483.562,312.437 483.776,312.766 
  483.914,313.095 484.299,313.423 484.851,313.095 485.186,313.423 485.23,313.095 485.313,313.423 485.443,313.095 485.862,313.423 486.157,313.752 486.198,314.081 
  487.191,314.41 487.586,314.739 487.813,315.068 488.045,314.739 488.137,315.068 488.163,314.739 488.754,315.068 489.241,315.397 489.442,315.068 489.505,314.739 
  490.466,315.068 490.631,314.739 490.654,315.068 490.782,314.739 491.071,314.41 491.234,314.739 491.616,315.068 492.066,315.397 492.309,315.068 492.43,314.739 
  493.575,314.41 494.078,314.739 494.302,314.41 494.7,314.739 494.769,315.068 495.066,314.739 495.353,314.41 495.497,314.739 495.586,314.41 495.619,314.739 
  495.631,314.41 495.859,314.081 495.952,314.41 496.208,314.081 496.582,314.41 497.22,314.081 497.236,313.752 497.958,314.081 498.103,314.41 498.153,314.739 
  498.343,315.068 498.773,315.397 499.316,315.068 499.742,315.397 499.81,315.726 500.159,316.055 500.323,316.384 500.501,316.713 500.624,316.384 500.806,316.055 
  500.871,316.384 501.17,316.055 501.211,316.384 501.359,316.713 501.414,317.042 501.797,317.371 502.074,317.699 502.306,317.371 502.509,317.699 502.538,318.028 
  502.848,318.357 503.42,318.028 503.598,317.699 504.131,317.371 504.706,317.699 504.827,318.028 505.528,318.357 505.729,318.028 506.26,317.699 506.769,318.028 
  507.227,318.357 507.431,318.028 507.655,317.699 508.117,318.028 508.354,318.357 509.118,318.686 509.255,318.357 509.514,318.028 510.054,318.357 510.115,318.028 
  510.174,317.699 510.375,318.028 510.388,317.699 510.441,318.028 510.455,318.357 510.634,318.028 510.756,318.357 511.018,318.686 511.128,318.357 511.373,318.028 
  511.398,318.357 511.411,318.028 511.546,317.699 512.312,318.028 512.362,318.357 512.453,318.028 512.578,318.357 512.686,318.686 512.85,319.015 513.081,319.344 
  513.211,319.673 513.72,319.344 513.768,319.673 514.117,320.002 514.547,319.673 514.565,320.002 514.59,319.673 514.657,320.002 515.184,319.673 515.744,320.002 
  515.768,320.331 515.908,320.002 515.923,320.331 515.929,320.002 516.014,320.331 516.321,320.66 516.965,320.331 516.972,320.66 517.153,320.989 517.697,320.66 
  517.765,320.331 517.942,320.66 518.141,320.989 518.487,321.318 518.494,321.647 519.133,321.975 520.008,322.304 520.106,322.633 520.117,322.304 520.191,322.633 
  520.409,322.962 520.768,323.291 521.718,323.62 522.589,323.291 522.748,323.62 523.475,323.949 523.664,323.62 523.745,323.291 524.319,323.62 524.785,323.949 
  524.957,324.278 525.121,323.949 525.371,324.278 525.876,323.949 526.121,324.278 526.247,324.607 526.413,324.936 526.949,325.265 527.011,325.594 527.06,325.265 
  527.131,325.594 528.448,325.923 528.463,326.251 529.747,326.58 530.074,326.909 530.194,327.238 530.346,327.567 532.116,327.238 532.551,327.567 533.258,327.238 
  533.865,327.567 533.896,327.896 533.907,327.567 534.273,327.896 534.43,327.567 534.987,327.896 535.2,327.567 535.441,327.896 535.479,328.225 535.634,328.554 
  536.247,328.883 537.076,329.212 537.488,329.541 537.64,329.212 538.161,328.883 538.19,328.554 538.323,328.883 538.457,329.212 538.75,328.883 539.044,329.212 
  539.773,328.883 540.484,328.554 540.897,328.883 543.023,329.212 543.377,329.541 543.515,329.212 544.317,328.883 544.322,328.554 545.011,328.883 545.496,329.212 
  545.54,329.541 545.91,329.87 546.235,329.541 547.249,329.87 548.279,329.541 550,329.87 550.17,330.199 550.64,329.87 550.772,330.199 551.128,330.527 
  551.302,330.199 551.753,329.87 551.765,330.199 552.83,330.527 553.663,330.199 557.559,329.87 558.165,330.199 558.605,330.527 559.002,330.856 559.717,331.185 
  560.324,330.856 560.636,330.527 561.093,330.856 563.819,330.527 565.038,330.856 565.763,331.185 
  "/>
<polyline clip-path="url(#clip7202)" style="stroke:#3da44d; stroke-width:1; stroke-opacity:1; fill:none" points="
  80.6848,350.263 93.7424,350.263 94.9886,350.263 101.247,349.934 101.586,349.934 121.383,349.934 128.536,349.934 131.524,349.934 132.91,349.934 135.501,349.605 
  135.681,349.605 136.865,349.605 137.731,349.605 156.195,349.605 157.922,349.276 159.308,349.276 159.311,349.276 159.514,349.276 160.72,348.947 160.872,348.618 
  162.709,348.618 163.753,348.289 164.068,348.289 164.159,347.96 170.267,347.631 171.636,347.631 172.032,347.631 172.949,347.303 174.525,347.303 175.87,346.974 
  176.15,346.974 178.661,346.974 181.561,346.974 181.604,346.974 181.682,346.974 183.613,346.974 185.153,346.645 185.463,346.645 186.426,346.645 186.438,346.645 
  188.142,346.645 189.176,346.645 189.527,346.316 194.145,346.316 194.667,346.316 195.565,345.987 196.436,345.658 196.617,345.329 196.894,345.329 197.259,345.329 
  197.286,345.329 197.801,345.329 198.398,345.329 198.744,345.329 198.789,345.329 198.987,345.329 199.091,345.329 199.113,345 200.118,344.671 200.669,344.342 
  203.164,344.342 203.246,344.013 204.004,344.013 204.043,343.684 204.681,343.684 205.091,343.684 205.45,343.684 205.535,343.684 205.536,343.684 205.715,343.355 
  205.73,343.355 206.996,343.355 207.807,343.027 208.055,342.698 208.54,342.369 209.355,342.04 209.525,342.04 209.611,341.711 209.988,341.711 210.063,341.711 
  210.315,341.711 211.429,341.711 213.032,341.382 213.104,341.382 213.394,341.382 214.254,341.053 214.412,341.053 214.444,341.053 214.524,341.053 216.165,340.724 
  216.365,340.395 219.04,340.395 219.516,340.066 220.312,340.066 221.339,339.737 221.802,339.408 221.904,339.079 222.157,339.079 223.37,339.079 224.403,339.079 
  224.733,338.751 225.446,338.751 226.144,338.751 227.174,338.751 227.881,338.751 228.334,338.422 228.856,338.422 229.022,338.422 229.298,338.422 229.43,338.422 
  229.506,338.422 229.616,338.422 229.714,338.093 231.272,338.093 231.274,338.093 231.523,338.093 232.022,338.093 232.074,337.764 232.233,337.764 232.934,337.764 
  233.416,337.435 233.489,337.435 233.551,337.435 234.049,337.106 235.224,337.106 236.194,336.777 236.37,336.777 237.85,336.777 238.13,336.777 238.476,336.448 
  238.517,336.448 238.529,336.119 238.985,335.79 239.442,335.79 239.508,335.461 239.606,335.461 240.626,335.132 242.134,334.803 242.358,334.475 243.214,334.146 
  243.927,334.146 244.052,334.146 244.133,334.146 244.378,334.146 244.433,334.146 244.806,334.146 244.876,334.146 245.706,333.817 246.059,333.488 246.116,333.159 
  246.394,332.83 246.619,332.83 247.115,332.501 247.545,332.501 248.813,332.172 249.41,331.843 249.514,331.843 249.566,331.843 249.917,331.843 250.599,331.514 
  250.677,331.514 250.773,331.185 251.57,330.856 252.055,330.856 252.247,330.856 252.437,330.527 252.577,330.527 252.589,330.527 252.794,330.527 254.114,330.527 
  255.577,330.527 255.629,330.199 255.839,329.87 256.499,329.541 256.587,329.541 256.618,329.541 257.033,329.212 257.929,328.883 258.028,328.883 258.166,328.554 
  258.334,328.554 259.109,328.225 260.412,327.896 260.54,327.567 260.83,327.567 260.954,327.238 261.218,327.238 261.651,327.238 262.029,326.909 262.442,326.909 
  262.499,326.58 262.989,326.251 263.184,326.251 263.192,325.923 263.2,325.923 263.758,325.923 264.578,325.594 265.259,325.265 265.507,325.265 265.964,324.936 
  266.266,324.607 266.293,324.607 267.672,324.278 268.152,324.278 270.114,324.278 270.243,324.278 270.3,324.278 271.436,324.278 271.439,324.278 271.854,324.278 
  272.236,324.278 272.637,324.278 273.044,324.278 273.113,324.278 273.133,323.949 273.139,323.949 273.858,323.949 274.041,323.949 274.056,323.949 274.169,323.62 
  274.31,323.62 274.317,323.62 275.334,323.62 275.365,323.62 275.783,323.62 275.87,323.62 275.964,323.62 276.039,323.62 276.041,323.291 276.286,323.291 
  276.554,323.291 277.195,322.962 277.202,322.633 277.392,322.633 277.892,322.304 278.248,321.975 278.45,321.647 278.563,321.647 278.812,321.647 278.874,321.647 
  279.279,321.647 279.344,321.647 279.547,321.318 279.582,321.318 280.388,321.318 280.788,321.318 281.015,320.989 281.174,320.989 281.631,320.66 281.871,320.331 
  282.002,320.331 282.805,320.331 282.934,320.002 283.378,319.673 283.498,319.673 283.713,319.344 284.409,319.015 284.561,319.015 284.754,318.686 285.134,318.686 
  285.598,318.686 286.077,318.686 286.674,318.357 287.135,318.357 287.226,318.028 287.539,317.699 287.622,317.699 287.794,317.699 288.348,317.699 288.414,317.699 
  288.519,317.699 289.258,317.699 289.992,317.371 290.076,317.042 290.207,317.042 290.34,317.042 290.367,317.042 290.435,317.042 290.483,317.042 290.513,317.042 
  290.522,316.713 290.613,316.713 291.245,316.713 291.648,316.384 291.966,316.384 292.217,316.384 292.554,316.384 292.616,316.384 292.63,316.384 292.783,316.055 
  292.96,316.055 293.415,316.055 293.504,315.726 293.795,315.397 293.872,315.068 294.042,315.068 294.285,314.739 294.393,314.739 294.487,314.41 294.544,314.41 
  295.076,314.081 295.106,313.752 295.205,313.752 295.316,313.423 295.542,313.423 295.658,313.423 296.13,313.423 296.153,313.095 296.422,312.766 296.528,312.766 
  296.559,312.437 296.722,312.437 296.881,312.437 296.898,312.437 297.404,312.437 297.672,312.108 298.004,311.779 298.218,311.779 298.222,311.779 298.434,311.779 
  298.589,311.45 298.626,311.121 298.77,311.121 298.963,310.792 298.97,310.792 298.994,310.463 299.536,310.134 300.129,310.134 300.249,309.805 300.5,309.805 
  300.822,309.805 300.992,309.805 301.163,309.805 301.272,309.805 301.323,309.476 301.489,309.147 301.555,309.147 301.762,308.819 301.86,308.819 302.057,308.819 
  302.326,308.49 302.46,308.49 302.472,308.49 302.591,308.161 302.593,308.161 302.922,307.832 303.097,307.503 303.281,307.503 303.363,307.503 303.412,307.503 
  303.589,307.503 303.623,307.174 304.64,306.845 304.643,306.516 304.747,306.516 305.231,306.187 305.278,305.858 305.457,305.858 305.516,305.529 306.177,305.2 
  306.248,305.2 306.259,305.2 307.049,304.871 307.251,304.543 307.681,304.543 307.841,304.543 307.987,304.214 308.181,303.885 308.359,303.556 308.406,303.556 
  308.574,303.556 309.437,303.227 309.481,302.898 309.56,302.898 309.576,302.898 309.693,302.898 310.015,302.569 310.042,302.24 310.547,302.24 310.591,301.911 
  311.1,301.582 311.234,301.582 311.614,301.253 311.973,301.253 312.068,300.924 312.158,300.595 312.518,300.595 313.257,300.595 313.624,300.595 313.758,300.267 
  313.871,300.267 314.032,299.938 315.077,299.938 315.436,299.609 315.452,299.609 315.475,299.28 315.544,299.28 315.854,298.951 316.225,298.622 316.262,298.622 
  316.318,298.622 317.141,298.622 317.56,298.622 317.58,298.622 318.136,298.622 318.704,298.622 318.832,298.622 319.632,298.622 320.147,298.622 320.569,298.622 
  320.576,298.293 320.629,298.293 320.795,298.293 321.138,298.293 321.308,298.293 321.6,298.293 322.408,298.293 322.633,297.964 322.841,297.635 322.982,297.635 
  322.983,297.635 323.097,297.306 323.207,297.306 323.273,296.977 323.465,296.977 323.819,296.977 324.381,296.977 324.552,296.977 324.625,296.648 324.639,296.648 
  324.724,296.648 324.959,296.319 325.601,296.319 325.63,296.319 326.161,296.319 326.521,296.319 326.768,296.319 327.119,296.319 327.195,296.319 327.324,295.991 
  327.556,295.662 327.919,295.662 327.953,295.333 327.972,295.004 328.026,294.675 328.046,294.675 328.109,294.346 328.138,294.346 328.282,294.346 328.502,294.017 
  328.545,293.688 328.656,293.688 328.753,293.359 328.843,293.359 328.886,293.03 328.904,293.03 329.178,293.03 329.958,293.03 330.005,293.03 330.094,292.701 
  330.219,292.701 330.617,292.372 330.773,292.372 330.852,292.043 330.947,292.043 331.078,292.043 331.473,291.715 332.212,291.715 332.213,291.715 332.348,291.715 
  332.752,291.715 332.96,291.386 333.07,291.057 333.127,290.728 333.568,290.728 334.257,290.728 334.508,290.728 335.163,290.728 335.712,290.728 335.977,290.399 
  336.324,290.399 336.792,290.399 336.916,290.07 336.941,289.741 337.077,289.412 337.486,289.083 338.087,288.754 338.155,288.425 338.219,288.425 338.401,288.096 
  338.448,287.767 338.456,287.439 338.665,287.11 338.705,287.11 338.868,286.781 338.968,286.781 339.331,286.781 339.463,286.781 339.856,286.452 340.173,286.123 
  340.325,285.794 340.685,285.465 340.852,285.465 341.106,285.136 341.462,284.807 341.614,284.478 341.669,284.149 341.803,284.149 341.825,284.149 341.879,284.149 
  341.89,284.149 341.918,283.82 342.077,283.491 342.117,283.491 342.203,283.163 342.275,283.163 343.211,283.163 343.284,283.163 343.286,282.834 343.57,282.834 
  344.105,282.505 344.135,282.176 344.177,282.176 344.23,281.847 344.417,281.518 344.521,281.518 344.746,281.189 345.103,280.86 345.112,280.86 345.286,280.531 
  345.435,280.531 345.514,280.202 345.55,280.202 345.984,279.873 346.413,279.544 346.883,279.215 346.983,279.215 347.09,278.887 347.125,278.887 347.42,278.887 
  347.472,278.558 347.507,278.558 348.16,278.558 348.541,278.558 348.688,278.229 348.779,278.229 348.915,277.9 348.937,277.571 349.207,277.571 349.705,277.571 
  349.928,277.571 350.145,277.571 350.523,277.571 351.789,277.571 352.108,277.571 352.902,277.242 352.974,277.242 353.275,277.242 353.563,276.913 354.045,276.584 
  354.072,276.255 354.44,276.255 354.745,275.926 355.116,275.597 355.216,275.597 355.692,275.597 356.186,275.597 356.188,275.268 356.263,275.268 356.79,274.939 
  357.012,274.611 357.198,274.282 357.424,273.953 357.705,273.953 357.805,273.953 358.351,273.953 359.554,273.953 359.619,273.624 360.285,273.295 361.692,272.966 
  361.721,272.966 361.956,272.637 362.118,272.637 362.274,272.637 362.747,272.637 362.924,272.637 363.122,272.637 363.198,272.637 363.49,272.308 363.491,271.979 
  363.613,271.979 363.614,271.979 363.744,271.65 363.788,271.65 363.94,271.321 364.025,271.321 364.052,270.992 364.12,270.992 364.363,270.992 364.692,270.992 
  364.836,270.992 364.886,270.663 365.137,270.663 365.256,270.335 365.592,270.335 365.657,270.335 366.187,270.006 366.398,270.006 366.673,270.006 366.704,270.006 
  366.856,270.006 366.885,269.677 367.174,269.677 367.338,269.348 367.397,269.348 367.596,269.348 368.381,269.348 368.533,269.019 368.604,269.019 368.705,269.019 
  368.785,268.69 368.906,268.69 368.906,268.69 369.017,268.361 369.176,268.361 369.204,268.361 369.221,268.032 369.31,268.032 369.356,268.032 369.443,267.703 
  369.809,267.374 369.865,267.374 369.875,267.374 369.965,267.374 370.038,267.374 370.108,267.045 370.124,267.045 370.365,266.716 370.506,266.716 370.543,266.387 
  370.654,266.059 370.715,265.73 370.744,265.401 370.879,265.072 371.039,264.743 371.148,264.743 371.257,264.743 371.313,264.414 371.499,264.414 371.654,264.414 
  371.866,264.085 372.007,264.085 372.387,263.756 372.508,263.756 372.51,263.427 372.521,263.098 372.716,263.098 372.98,262.769 373.002,262.44 373.569,262.44 
  373.986,262.111 374.532,261.783 374.632,261.783 374.866,261.454 374.963,261.454 375.072,261.125 375.604,261.125 375.71,261.125 375.718,261.125 375.768,260.796 
  376.002,260.796 376.315,260.467 376.315,260.138 376.398,259.809 376.645,259.809 376.936,259.809 377.009,259.48 377.081,259.151 377.133,259.151 377.342,259.151 
  377.378,258.822 377.641,258.493 377.647,258.164 377.914,258.164 377.923,258.164 377.994,258.164 378.155,258.164 378.169,257.835 378.244,257.507 378.335,257.507 
  378.509,257.178 378.549,256.849 378.638,256.849 378.776,256.52 378.864,256.52 379.026,256.52 379.147,256.191 379.161,256.191 379.423,256.191 379.433,255.862 
  379.483,255.862 379.747,255.862 379.817,255.862 379.97,255.862 380.055,255.533 380.086,255.204 380.224,255.204 380.399,255.204 380.463,255.204 380.651,255.204 
  380.81,254.875 381.123,254.875 381.169,254.875 381.246,254.875 381.248,254.875 381.414,254.875 381.46,254.875 381.6,254.546 381.616,254.546 381.901,254.546 
  381.97,254.217 381.982,253.888 382.021,253.559 382.17,253.559 382.356,253.231 382.457,252.902 382.517,252.573 382.518,252.244 382.689,252.244 382.753,252.244 
  382.763,252.244 383.194,252.244 383.33,251.915 383.446,251.586 383.514,251.257 383.733,250.928 383.978,250.928 384.134,250.928 384.188,250.599 384.433,250.599 
  384.525,250.27 384.53,249.941 384.682,249.941 384.945,249.941 385.228,249.612 385.788,249.283 385.79,249.283 385.95,249.283 386.09,249.283 386.34,248.955 
  386.342,248.955 386.426,248.626 386.505,248.297 386.559,247.968 386.571,247.968 386.621,247.968 386.646,247.968 386.984,247.968 387.35,247.639 387.768,247.639 
  387.896,247.31 387.994,247.31 388.214,246.981 388.37,246.981 388.416,246.652 388.465,246.652 388.477,246.652 388.96,246.652 388.96,246.652 388.975,246.323 
  389.006,245.994 389.229,245.665 389.372,245.665 389.376,245.336 389.506,245.336 389.594,245.336 389.876,245.007 390.1,245.007 390.403,244.679 390.501,244.679 
  390.507,244.35 390.711,244.021 390.724,243.692 390.809,243.692 391.014,243.692 391.032,243.692 391.112,243.692 391.246,243.363 391.477,243.363 391.495,243.363 
  391.54,243.034 391.757,243.034 391.837,242.705 391.886,242.705 391.922,242.705 392.09,242.705 392.15,242.376 392.256,242.376 392.259,242.376 392.39,242.047 
  392.574,242.047 392.691,241.718 392.787,241.718 392.828,241.389 392.861,241.06 393.154,241.06 393.164,240.732 393.264,240.732 393.306,240.403 393.426,240.403 
  393.513,240.403 393.581,240.074 393.587,240.074 393.816,240.074 393.988,240.074 394.461,239.745 394.596,239.745 394.675,239.416 394.844,239.416 394.878,239.087 
  395.029,239.087 395.306,239.087 395.637,238.758 395.801,238.758 395.881,238.758 395.984,238.758 396.004,238.758 396.038,238.429 396.114,238.1 396.194,238.1 
  396.368,237.771 396.93,237.442 397.35,237.113 397.392,236.784 397.402,236.456 397.445,236.456 397.678,236.127 397.728,235.798 398.167,235.798 398.333,235.798 
  398.352,235.798 398.631,235.469 398.776,235.14 398.91,234.811 398.942,234.811 399.139,234.811 399.24,234.811 399.284,234.811 399.338,234.811 399.371,234.482 
  400.336,234.482 400.586,234.482 400.686,234.153 400.773,234.153 401.107,233.824 401.593,233.824 401.624,233.495 401.7,233.495 401.782,233.166 401.872,233.166 
  402.021,233.166 402.485,232.837 402.552,232.837 402.639,232.837 402.778,232.508 402.908,232.18 403.292,231.851 403.75,231.522 403.851,231.193 403.923,231.193 
  404.373,231.193 404.496,230.864 404.71,230.535 404.997,230.206 405.011,229.877 405.036,229.548 405.419,229.219 405.426,228.89 405.444,228.89 405.628,228.561 
  405.683,228.232 405.734,227.904 406.151,227.904 406.184,227.904 406.265,227.904 406.775,227.575 406.779,227.575 407.239,227.246 407.602,227.246 407.792,227.246 
  407.844,226.917 408.011,226.917 408.334,226.588 408.371,226.259 408.533,225.93 409.104,225.93 409.186,225.601 409.407,225.272 409.533,225.272 409.801,224.943 
  409.972,224.614 409.988,224.285 410.051,224.285 410.333,223.956 410.631,223.956 410.672,223.956 410.821,223.956 411.299,223.956 411.466,223.628 411.535,223.299 
  411.906,222.97 412.281,222.641 412.648,222.312 412.672,221.983 412.873,221.983 413.187,221.983 413.232,221.983 413.563,221.654 413.729,221.325 413.754,220.996 
  413.783,220.996 414.113,220.667 414.243,220.667 414.249,220.338 414.252,220.009 414.355,219.68 414.644,219.352 414.772,219.352 414.777,219.023 414.802,218.694 
  415.109,218.365 415.249,218.036 415.536,217.707 415.574,217.378 415.801,217.049 415.956,217.049 416.238,216.72 416.8,216.391 416.846,216.391 417.079,216.062 
  418.186,215.733 418.341,215.404 418.603,215.076 418.647,215.076 418.785,214.747 418.939,214.747 419.257,214.418 419.522,214.089 419.534,213.76 419.814,213.76 
  420.003,213.431 420.252,213.431 420.374,213.102 420.526,213.102 420.598,213.102 421.089,212.773 421.342,212.773 421.48,212.444 422.14,212.444 422.697,212.444 
  422.762,212.444 422.868,212.444 422.894,212.115 422.98,212.115 423.215,212.115 423.511,212.115 423.563,212.115 423.923,212.115 423.987,211.786 424.016,211.457 
  424.095,211.457 424.122,211.128 424.295,210.8 424.83,210.471 424.939,210.471 425.034,210.142 425.311,210.142 425.615,209.813 425.681,209.484 425.762,209.484 
  426.112,209.484 426.171,209.484 426.226,209.484 426.811,209.155 427.197,209.155 427.513,208.826 428.043,208.497 428.186,208.168 428.231,207.839 428.375,207.839 
  428.439,207.51 428.755,207.51 428.849,207.51 428.907,207.181 428.984,207.181 429.005,206.852 429.078,206.852 429.519,206.524 429.752,206.195 429.758,206.195 
  429.78,206.195 429.857,205.866 430.475,205.537 430.813,205.208 430.852,205.208 431.095,204.879 431.381,204.879 431.396,204.879 431.503,204.879 431.554,204.879 
  431.599,204.55 431.708,204.221 431.91,203.892 432.406,203.892 432.468,203.563 432.515,203.234 432.693,203.234 432.704,203.234 433.006,202.905 433.182,202.576 
  434.049,202.576 434.133,202.576 434.772,202.576 434.931,202.248 435.429,202.248 435.809,201.919 435.812,201.59 435.827,201.261 435.867,200.932 435.936,200.603 
  436.505,200.603 436.946,200.603 437.061,200.603 437.148,200.603 437.24,200.274 437.5,200.274 437.937,200.274 438.384,200.274 438.605,200.274 438.848,200.274 
  438.959,199.945 439.049,199.616 439.177,199.616 439.296,199.287 439.296,198.958 439.722,198.958 439.873,198.958 440.141,198.629 440.151,198.3 440.291,198.3 
  440.372,198.3 440.525,198.3 440.887,197.972 440.934,197.972 441.028,197.972 441.49,197.643 441.714,197.314 441.758,197.314 442.015,196.985 442.506,196.656 
  443.133,196.656 443.403,196.327 443.777,196.327 444.092,195.998 444.12,195.998 444.44,195.669 444.784,195.34 444.806,195.34 444.976,195.34 445.187,195.011 
  445.436,194.682 445.774,194.682 445.922,194.682 446.164,194.353 446.43,194.353 447.214,194.024 447.455,193.696 447.491,193.367 447.67,193.367 447.974,193.367 
  448.091,193.038 448.145,193.038 448.633,192.709 448.677,192.38 448.811,192.38 448.998,192.051 449.002,191.722 449.117,191.722 449.303,191.393 449.309,191.393 
  449.789,191.064 449.808,191.064 450.077,190.735 450.188,190.406 450.419,190.406 450.643,190.077 450.709,189.748 450.714,189.748 450.869,189.748 450.876,189.42 
  451.564,189.091 451.589,189.091 451.597,189.091 451.76,189.091 451.812,189.091 451.988,189.091 452.034,188.762 452.047,188.762 452.106,188.433 452.328,188.433 
  452.49,188.104 452.797,188.104 452.804,188.104 452.905,188.104 452.915,187.775 453.014,187.775 453.263,187.446 453.292,187.117 453.304,187.117 453.407,186.788 
  453.46,186.788 454.051,186.788 454.771,186.788 455.237,186.459 455.291,186.459 455.462,186.459 455.611,186.13 455.717,186.13 455.827,186.13 455.977,185.801 
  456.042,185.801 456.514,185.801 456.616,185.472 456.727,185.472 456.756,185.144 457.696,185.144 457.738,185.144 457.792,184.815 458.135,184.815 458.185,184.486 
  458.276,184.157 458.344,183.828 458.372,183.499 458.64,183.17 458.687,182.841 458.951,182.512 458.988,182.512 459.013,182.512 459.09,182.512 459.583,182.183 
  459.748,182.183 459.898,181.854 460.076,181.525 460.313,181.525 460.337,181.525 460.829,181.196 461.171,180.868 461.247,180.868 461.375,180.868 461.749,180.539 
  462.224,180.21 462.282,180.21 462.746,180.21 462.909,179.881 463.896,179.552 464.138,179.223 464.245,178.894 464.648,178.894 464.772,178.565 465.279,178.236 
  465.582,177.907 465.832,177.578 466.191,177.249 466.693,177.249 466.731,177.249 467.097,176.92 467.182,176.592 467.383,176.263 467.623,175.934 467.634,175.605 
  467.934,175.276 468.605,174.947 468.69,174.947 468.964,174.947 469.543,174.947 469.594,174.618 469.956,174.289 470.119,174.289 470.31,174.289 470.585,173.96 
  470.887,173.631 471.205,173.302 471.399,173.302 471.406,173.302 471.66,172.973 471.685,172.644 471.753,172.316 471.858,172.316 472.148,171.987 472.246,171.987 
  472.265,171.987 472.449,171.987 473.125,171.658 473.155,171.658 473.308,171.658 473.705,171.329 474.037,171.329 474.108,171 474.312,171 474.728,171 
  474.775,170.671 474.839,170.671 475.361,170.671 475.603,170.342 475.825,170.013 475.92,169.684 475.999,169.684 476.548,169.684 476.584,169.355 476.727,169.026 
  476.732,168.697 476.754,168.697 477.23,168.368 477.337,168.368 477.391,168.04 478.138,168.04 478.215,168.04 478.256,167.711 479.21,167.382 479.293,167.053 
  479.31,166.724 479.87,166.395 480.047,166.066 480.553,166.066 480.991,166.066 481.005,166.066 481.013,166.066 481.318,165.737 481.408,165.408 481.785,165.408 
  482.031,165.079 482.412,165.079 482.515,165.079 482.915,164.75 483.361,164.75 483.405,164.75 483.418,164.421 483.493,164.092 483.562,163.764 483.776,163.435 
  483.914,163.106 484.299,162.777 484.851,162.777 485.186,162.448 485.23,162.448 485.313,162.119 485.443,162.119 485.862,161.79 486.157,161.461 486.198,161.132 
  487.191,160.803 487.586,160.474 487.813,160.145 488.045,160.145 488.137,159.816 488.163,159.816 488.754,159.488 489.241,159.159 489.442,159.159 489.505,159.159 
  490.466,158.83 490.631,158.83 490.654,158.501 490.782,158.501 491.071,158.501 491.234,158.172 491.616,157.843 492.066,157.514 492.309,157.514 492.43,157.514 
  493.575,157.514 494.078,157.185 494.302,157.185 494.7,156.856 494.769,156.527 495.066,156.527 495.353,156.527 495.497,156.198 495.586,156.198 495.619,155.869 
  495.631,155.869 495.859,155.869 495.952,155.54 496.208,155.54 496.582,155.212 497.22,155.212 497.236,155.212 497.958,154.883 498.103,154.554 498.153,154.225 
  498.343,153.896 498.773,153.567 499.316,153.567 499.742,153.238 499.81,152.909 500.159,152.58 500.323,152.251 500.501,151.922 500.624,151.922 500.806,151.922 
  500.871,151.593 501.17,151.593 501.211,151.264 501.359,150.936 501.414,150.607 501.797,150.278 502.074,149.949 502.306,149.949 502.509,149.62 502.538,149.291 
  502.848,148.962 503.42,148.962 503.598,148.962 504.131,148.962 504.706,148.633 504.827,148.304 505.528,147.975 505.729,147.975 506.26,147.975 506.769,147.646 
  507.227,147.317 507.431,147.317 507.655,147.317 508.117,146.988 508.354,146.66 509.118,146.331 509.255,146.331 509.514,146.331 510.054,146.002 510.115,146.002 
  510.174,146.002 510.375,145.673 510.388,145.673 510.441,145.344 510.455,145.015 510.634,145.015 510.756,144.686 511.018,144.357 511.128,144.357 511.373,144.357 
  511.398,144.028 511.411,144.028 511.546,144.028 512.312,143.699 512.362,143.37 512.453,143.37 512.578,143.041 512.686,142.712 512.85,142.384 513.081,142.055 
  513.211,141.726 513.72,141.726 513.768,141.397 514.117,141.068 514.547,141.068 514.565,140.739 514.59,140.739 514.657,140.41 515.184,140.41 515.744,140.081 
  515.768,139.752 515.908,139.752 515.923,139.423 515.929,139.423 516.014,139.094 516.321,138.765 516.965,138.765 516.972,138.436 517.153,138.108 517.697,138.108 
  517.765,138.108 517.942,137.779 518.141,137.45 518.487,137.121 518.494,136.792 519.133,136.463 520.008,136.134 520.106,135.805 520.117,135.805 520.191,135.476 
  520.409,135.147 520.768,134.818 521.718,134.489 522.589,134.489 522.748,134.16 523.475,133.832 523.664,133.832 523.745,133.832 524.319,133.503 524.785,133.174 
  524.957,132.845 525.121,132.845 525.371,132.516 525.876,132.516 526.121,132.187 526.247,131.858 526.413,131.529 526.949,131.2 527.011,130.871 527.06,130.871 
  527.131,130.542 528.448,130.213 528.463,129.884 529.747,129.556 530.074,129.227 530.194,128.898 530.346,128.569 532.116,128.569 532.551,128.24 533.258,128.24 
  533.865,127.911 533.896,127.582 533.907,127.582 534.273,127.253 534.43,127.253 534.987,126.924 535.2,126.924 535.441,126.595 535.479,126.266 535.634,125.937 
  536.247,125.608 537.076,125.28 537.488,124.951 537.64,124.951 538.161,124.951 538.19,124.951 538.323,124.622 538.457,124.293 538.75,124.293 539.044,123.964 
  539.773,123.964 540.484,123.964 540.897,123.635 543.023,123.306 543.377,122.977 543.515,122.977 544.317,122.977 544.322,122.977 545.011,122.648 545.496,122.319 
  545.54,121.99 545.91,121.661 546.235,121.661 547.249,121.332 548.279,121.332 550,121.004 550.17,120.675 550.64,120.675 550.772,120.346 551.128,120.017 
  551.302,120.017 551.753,120.017 551.765,119.688 552.83,119.359 553.663,119.359 557.559,119.359 558.165,119.03 558.605,118.701 559.002,118.372 559.717,118.043 
  560.324,118.043 560.636,118.043 561.093,117.714 563.819,117.714 565.038,117.385 565.763,117.056 
  "/>
<polygon clip-path="url(#clip7200)" points="
493.627,93.171 562.315,93.171 562.315,32.691 493.627,32.691 
  " fill="#ffffff" fill-opacity="1"/>
<polyline clip-path="url(#clip7200)" style="stroke:#000000; stroke-width:1; stroke-opacity:1; fill:none" points="
  493.627,93.171 562.315,93.171 562.315,32.691 493.627,32.691 493.627,93.171 
  "/>
<polyline clip-path="url(#clip7200)" style="stroke:#009af9; stroke-width:1; stroke-opacity:1; fill:none" points="
  499.627,47.811 535.627,47.811 
  "/>
<g clip-path="url(#clip7200)">
<text style="fill:#000000; fill-opacity:1; font-family:Arial,Helvetica Neue,Helvetica,sans-serif; font-size:12; text-anchor:start;" transform="rotate(0, 541.627, 52.311)" x="541.627" y="52.311">S</text>
</g>
<polyline clip-path="url(#clip7200)" style="stroke:#e26f46; stroke-width:1; stroke-opacity:1; fill:none" points="
  499.627,62.931 535.627,62.931 
  "/>
<g clip-path="url(#clip7200)">
<text style="fill:#000000; fill-opacity:1; font-family:Arial,Helvetica Neue,Helvetica,sans-serif; font-size:12; text-anchor:start;" transform="rotate(0, 541.627, 67.431)" x="541.627" y="67.431">I</text>
</g>
<polyline clip-path="url(#clip7200)" style="stroke:#3da44d; stroke-width:1; stroke-opacity:1; fill:none" points="
  499.627,78.051 535.627,78.051 
  "/>
<g clip-path="url(#clip7200)">
<text style="fill:#000000; fill-opacity:1; font-family:Arial,Helvetica Neue,Helvetica,sans-serif; font-size:12; text-anchor:start;" transform="rotate(0, 541.627, 82.551)" x="541.627" y="82.551">R</text>
</g>
</svg>
