<?xml version="1.0" encoding="utf-8"?>
<svg xmlns="http://www.w3.org/2000/svg" xmlns:xlink="http://www.w3.org/1999/xlink" width="600" height="400" viewBox="0 0 2400 1600">
<defs>
  <clipPath id="clip5900">
    <rect x="0" y="0" width="2000" height="2000"/>
  </clipPath>
</defs>
<defs>
  <clipPath id="clip5901">
    <rect x="0" y="0" width="2400" height="1600"/>
  </clipPath>
</defs>
<polygon clip-path="url(#clip5901)" points="
0,1600 2400,1600 2400,0 0,0 
  " fill="#ffffff" fill-opacity="1"/>
<defs>
  <clipPath id="clip5902">
    <rect x="480" y="0" width="1681" height="1600"/>
  </clipPath>
</defs>
<polygon clip-path="url(#clip5901)" points="
237.767,1440.48 2321.26,1440.48 2321.26,47.2441 237.767,47.2441 
  " fill="#ffffff" fill-opacity="1"/>
<defs>
  <clipPath id="clip5903">
    <rect x="237" y="47" width="2084" height="1394"/>
  </clipPath>
</defs>
<polyline clip-path="url(#clip5903)" style="stroke:#000000; stroke-width:2; stroke-opacity:0.1; fill:none" points="
  292.317,1440.48 292.317,47.2441 
  "/>
<polyline clip-path="url(#clip5903)" style="stroke:#000000; stroke-width:2; stroke-opacity:0.1; fill:none" points="
  751.684,1440.48 751.684,47.2441 
  "/>
<polyline clip-path="url(#clip5903)" style="stroke:#000000; stroke-width:2; stroke-opacity:0.1; fill:none" points="
  1211.05,1440.48 1211.05,47.2441 
  "/>
<polyline clip-path="url(#clip5903)" style="stroke:#000000; stroke-width:2; stroke-opacity:0.1; fill:none" points="
  1670.42,1440.48 1670.42,47.2441 
  "/>
<polyline clip-path="url(#clip5903)" style="stroke:#000000; stroke-width:2; stroke-opacity:0.1; fill:none" points="
  2129.78,1440.48 2129.78,47.2441 
  "/>
<polyline clip-path="url(#clip5903)" style="stroke:#000000; stroke-width:2; stroke-opacity:0.1; fill:none" points="
  237.767,1421.75 2321.26,1421.75 
  "/>
<polyline clip-path="url(#clip5903)" style="stroke:#000000; stroke-width:2; stroke-opacity:0.1; fill:none" points="
  237.767,1214.76 2321.26,1214.76 
  "/>
<polyline clip-path="url(#clip5903)" style="stroke:#000000; stroke-width:2; stroke-opacity:0.1; fill:none" points="
  237.767,1007.77 2321.26,1007.77 
  "/>
<polyline clip-path="url(#clip5903)" style="stroke:#000000; stroke-width:2; stroke-opacity:0.1; fill:none" points="
  237.767,800.785 2321.26,800.785 
  "/>
<polyline clip-path="url(#clip5903)" style="stroke:#000000; stroke-width:2; stroke-opacity:0.1; fill:none" points="
  237.767,593.797 2321.26,593.797 
  "/>
<polyline clip-path="url(#clip5903)" style="stroke:#000000; stroke-width:2; stroke-opacity:0.1; fill:none" points="
  237.767,386.808 2321.26,386.808 
  "/>
<polyline clip-path="url(#clip5903)" style="stroke:#000000; stroke-width:2; stroke-opacity:0.1; fill:none" points="
  237.767,179.82 2321.26,179.82 
  "/>
<polyline clip-path="url(#clip5901)" style="stroke:#000000; stroke-width:4; stroke-opacity:1; fill:none" points="
  237.767,1440.48 2321.26,1440.48 
  "/>
<polyline clip-path="url(#clip5901)" style="stroke:#000000; stroke-width:4; stroke-opacity:1; fill:none" points="
  237.767,1440.48 237.767,47.2441 
  "/>
<polyline clip-path="url(#clip5901)" style="stroke:#000000; stroke-width:4; stroke-opacity:1; fill:none" points="
  292.317,1440.48 292.317,1419.58 
  "/>
<polyline clip-path="url(#clip5901)" style="stroke:#000000; stroke-width:4; stroke-opacity:1; fill:none" points="
  751.684,1440.48 751.684,1419.58 
  "/>
<polyline clip-path="url(#clip5901)" style="stroke:#000000; stroke-width:4; stroke-opacity:1; fill:none" points="
  1211.05,1440.48 1211.05,1419.58 
  "/>
<polyline clip-path="url(#clip5901)" style="stroke:#000000; stroke-width:4; stroke-opacity:1; fill:none" points="
  1670.42,1440.48 1670.42,1419.58 
  "/>
<polyline clip-path="url(#clip5901)" style="stroke:#000000; stroke-width:4; stroke-opacity:1; fill:none" points="
  2129.78,1440.48 2129.78,1419.58 
  "/>
<polyline clip-path="url(#clip5901)" style="stroke:#000000; stroke-width:4; stroke-opacity:1; fill:none" points="
  237.767,1421.75 269.02,1421.75 
  "/>
<polyline clip-path="url(#clip5901)" style="stroke:#000000; stroke-width:4; stroke-opacity:1; fill:none" points="
  237.767,1214.76 269.02,1214.76 
  "/>
<polyline clip-path="url(#clip5901)" style="stroke:#000000; stroke-width:4; stroke-opacity:1; fill:none" points="
  237.767,1007.77 269.02,1007.77 
  "/>
<polyline clip-path="url(#clip5901)" style="stroke:#000000; stroke-width:4; stroke-opacity:1; fill:none" points="
  237.767,800.785 269.02,800.785 
  "/>
<polyline clip-path="url(#clip5901)" style="stroke:#000000; stroke-width:4; stroke-opacity:1; fill:none" points="
  237.767,593.797 269.02,593.797 
  "/>
<polyline clip-path="url(#clip5901)" style="stroke:#000000; stroke-width:4; stroke-opacity:1; fill:none" points="
  237.767,386.808 269.02,386.808 
  "/>
<polyline clip-path="url(#clip5901)" style="stroke:#000000; stroke-width:4; stroke-opacity:1; fill:none" points="
  237.767,179.82 269.02,179.82 
  "/>
<g clip-path="url(#clip5901)">
<text style="fill:#000000; fill-opacity:1; font-family:Arial,Helvetica Neue,Helvetica,sans-serif; font-size:48px; text-anchor:middle;" transform="rotate(0, 292.317, 1494.48)" x="292.317" y="1494.48">2006</text>
</g>
<g clip-path="url(#clip5901)">
<text style="fill:#000000; fill-opacity:1; font-family:Arial,Helvetica Neue,Helvetica,sans-serif; font-size:48px; text-anchor:middle;" transform="rotate(0, 751.684, 1494.48)" x="751.684" y="1494.48">2008</text>
</g>
<g clip-path="url(#clip5901)">
<text style="fill:#000000; fill-opacity:1; font-family:Arial,Helvetica Neue,Helvetica,sans-serif; font-size:48px; text-anchor:middle;" transform="rotate(0, 1211.05, 1494.48)" x="1211.05" y="1494.48">2010</text>
</g>
<g clip-path="url(#clip5901)">
<text style="fill:#000000; fill-opacity:1; font-family:Arial,Helvetica Neue,Helvetica,sans-serif; font-size:48px; text-anchor:middle;" transform="rotate(0, 1670.42, 1494.48)" x="1670.42" y="1494.48">2012</text>
</g>
<g clip-path="url(#clip5901)">
<text style="fill:#000000; fill-opacity:1; font-family:Arial,Helvetica Neue,Helvetica,sans-serif; font-size:48px; text-anchor:middle;" transform="rotate(0, 2129.78, 1494.48)" x="2129.78" y="1494.48">2014</text>
</g>
<g clip-path="url(#clip5901)">
<text style="fill:#000000; fill-opacity:1; font-family:Arial,Helvetica Neue,Helvetica,sans-serif; font-size:48px; text-anchor:end;" transform="rotate(0, 213.767, 1439.25)" x="213.767" y="1439.25">0</text>
</g>
<g clip-path="url(#clip5901)">
<text style="fill:#000000; fill-opacity:1; font-family:Arial,Helvetica Neue,Helvetica,sans-serif; font-size:48px; text-anchor:end;" transform="rotate(0, 213.767, 1232.26)" x="213.767" y="1232.26">20</text>
</g>
<g clip-path="url(#clip5901)">
<text style="fill:#000000; fill-opacity:1; font-family:Arial,Helvetica Neue,Helvetica,sans-serif; font-size:48px; text-anchor:end;" transform="rotate(0, 213.767, 1025.27)" x="213.767" y="1025.27">40</text>
</g>
<g clip-path="url(#clip5901)">
<text style="fill:#000000; fill-opacity:1; font-family:Arial,Helvetica Neue,Helvetica,sans-serif; font-size:48px; text-anchor:end;" transform="rotate(0, 213.767, 818.285)" x="213.767" y="818.285">60</text>
</g>
<g clip-path="url(#clip5901)">
<text style="fill:#000000; fill-opacity:1; font-family:Arial,Helvetica Neue,Helvetica,sans-serif; font-size:48px; text-anchor:end;" transform="rotate(0, 213.767, 611.297)" x="213.767" y="611.297">80</text>
</g>
<g clip-path="url(#clip5901)">
<text style="fill:#000000; fill-opacity:1; font-family:Arial,Helvetica Neue,Helvetica,sans-serif; font-size:48px; text-anchor:end;" transform="rotate(0, 213.767, 404.308)" x="213.767" y="404.308">100</text>
</g>
<g clip-path="url(#clip5901)">
<text style="fill:#000000; fill-opacity:1; font-family:Arial,Helvetica Neue,Helvetica,sans-serif; font-size:48px; text-anchor:end;" transform="rotate(0, 213.767, 197.32)" x="213.767" y="197.32">120</text>
</g>
<g clip-path="url(#clip5901)">
<text style="fill:#000000; fill-opacity:1; font-family:Arial,Helvetica Neue,Helvetica,sans-serif; font-size:66px; text-anchor:middle;" transform="rotate(0, 1279.51, 1590.4)" x="1279.51" y="1590.4">Year</text>
</g>
<g clip-path="url(#clip5901)">
<text style="fill:#000000; fill-opacity:1; font-family:Arial,Helvetica Neue,Helvetica,sans-serif; font-size:66px; text-anchor:middle;" transform="rotate(-90, 57.6, 743.863)" x="57.6" y="743.863">Cases</text>
</g>
<polyline clip-path="url(#clip5903)" style="stroke:#009af9; stroke-width:4; stroke-opacity:1; fill:none" points="
  296.734,976.725 301.151,842.183 305.568,1028.47 309.985,987.075 314.402,707.64 318.819,811.135 323.236,945.677 327.653,1152.67 332.07,521.351 336.487,945.677 
  340.904,1204.41 345.321,987.075 349.738,945.677 354.155,873.231 358.572,904.279 362.989,1080.22 367.406,635.194 371.823,883.58 376.24,924.978 380.657,717.99 
  385.074,945.677 389.491,914.629 393.908,1007.77 398.325,966.376 402.742,904.279 407.159,1142.32 411.576,1297.56 415.993,904.279 420.41,1142.32 424.827,500.652 
  429.244,1059.52 433.661,666.243 438.078,924.978 442.495,1007.77 451.329,1069.87 455.746,904.279 460.163,1007.77 464.58,1142.32 468.997,821.484 473.414,573.098 
  477.831,1018.12 482.248,852.532 486.665,1038.82 491.082,790.436 495.498,407.507 499.915,1276.86 504.332,883.58 508.749,904.279 513.166,976.725 517.583,738.689 
  522,956.026 526.417,821.484 530.834,883.58 535.251,997.424 539.668,883.58 544.085,252.266 548.502,780.086 552.919,956.026 557.336,924.978 561.753,738.689 
  566.17,987.075 570.587,873.231 575.004,935.328 579.421,935.328 588.255,800.785 592.672,1018.12 597.089,987.075 601.506,852.532 605.923,997.424 610.34,717.99 
  614.757,790.436 619.174,749.038 623.591,893.93 628.008,924.978 632.425,883.58 636.842,624.845 641.259,1080.22 645.676,873.231 650.093,831.833 654.51,831.833 
  658.927,738.689 667.761,583.447 672.178,1080.22 676.595,904.279 681.012,1245.81 685.429,914.629 689.846,562.749 694.263,842.183 698.68,717.99 703.097,873.231 
  707.514,749.038 720.765,1018.12 725.182,86.6754 729.599,1152.67 734.016,686.942 738.433,428.206 742.85,707.64 747.267,1163.01 756.101,924.978 760.518,738.689 
  764.935,790.436 769.352,552.399 773.769,862.882 782.603,1131.97 787.02,1038.82 791.437,842.183 795.854,1111.27 800.271,780.086 804.688,1028.47 809.105,966.376 
  813.522,1049.17 817.939,1049.17 822.355,945.677 826.772,914.629 831.189,1018.12 840.023,1183.71 844.44,914.629 848.857,1028.47 853.274,1142.32 857.691,1163.01 
  862.108,1028.47 866.525,924.978 870.942,1100.92 875.359,717.99 884.193,966.376 888.61,1049.17 893.027,1204.41 897.444,749.038 901.861,1028.47 906.278,945.677 
  910.695,966.376 915.112,976.725 919.529,987.075 923.946,1018.12 928.363,1307.91 932.78,1142.32 937.197,1100.92 941.614,1235.46 946.031,728.339 950.448,842.183 
  954.865,1007.77 959.282,924.978 963.699,852.532 968.116,1018.12 972.533,1225.11 976.95,852.532 981.367,1007.77 985.784,1100.92 990.201,976.725 994.618,1069.87 
  999.035,1007.77 1003.45,117.724 1007.87,883.58 1012.29,1214.76 1016.7,997.424 1021.12,1059.52 1025.54,1204.41 1029.95,1142.32 1034.37,883.58 1038.79,987.075 
  1043.2,831.833 1047.62,1069.87 1052.04,1142.32 1056.46,1121.62 1065.29,1204.41 1069.71,883.58 1074.12,1100.92 1078.54,831.833 1082.96,1152.67 1087.37,573.098 
  1091.79,1276.86 1096.21,1297.56 1100.63,790.436 1105.04,1194.06 1109.46,893.93 1113.88,956.026 1118.29,976.725 1122.71,956.026 1127.13,1131.97 1131.54,1018.12 
  1135.96,987.075 1140.38,1121.62 1144.8,987.075 1149.21,1256.16 1153.63,759.387 1158.05,1183.71 1162.46,1131.97 1166.88,1059.52 1171.3,1256.16 1175.71,821.484 
  1180.13,573.098 1184.55,956.026 1188.97,1142.32 1193.38,893.93 1197.8,945.677 1202.22,1038.82 1206.63,1142.32 1211.05,811.135 1215.47,966.376 1219.88,1080.22 
  1224.3,1152.67 1228.72,862.882 1233.14,749.038 1237.55,1328.61 1241.97,852.532 1246.39,1018.12 1250.8,976.725 1255.22,997.424 1259.64,1194.06 1268.47,1142.32 
  1272.89,945.677 1277.31,1131.97 1281.72,1028.47 1286.14,842.183 1290.56,1194.06 1294.97,924.978 1299.39,624.845 1303.81,997.424 1308.22,873.231 1312.64,749.038 
  1317.06,1049.17 1321.47,904.279 1325.89,956.026 1330.31,800.785 1334.73,759.387 1339.14,914.629 1343.56,904.279 1347.98,790.436 1352.39,904.279 1356.81,976.725 
  1361.23,852.532 1365.64,707.64 1370.06,831.833 1374.48,552.399 1378.9,624.845 1383.31,728.339 1387.73,893.93 1392.15,1018.12 1396.56,821.484 1400.98,1007.77 
  1409.81,759.387 1414.23,759.387 1423.07,780.086 1427.48,831.833 1431.9,956.026 1436.32,511.001 1445.15,987.075 1449.57,987.075 1453.98,862.882 1458.4,1059.52 
  1462.82,1142.32 1467.24,883.58 1471.65,821.484 1476.07,1142.32 1480.49,1204.41 1484.9,593.797 1489.32,956.026 1493.74,914.629 1498.15,717.99 1502.57,676.592 
  1506.99,852.532 1511.41,1059.52 1515.82,1111.27 1520.24,1090.57 1529.07,686.942 1533.49,976.725 1537.91,883.58 1542.32,1038.82 1546.74,1018.12 1551.16,935.328 
  1555.58,821.484 1559.99,1225.11 1564.41,852.532 1568.83,966.376 1573.24,862.882 1577.66,883.58 1582.08,945.677 1586.49,956.026 1590.91,904.279 1595.33,811.135 
  1599.75,904.279 1604.16,935.328 1608.58,1100.92 1613,935.328 1617.41,935.328 1621.83,635.194 1626.25,749.038 1630.66,873.231 1635.08,717.99 1639.5,1069.87 
  1648.33,945.677 1652.75,976.725 1657.17,552.399 1661.58,1152.67 1666,707.64 1670.42,976.725 1683.67,997.424 1688.08,883.58 1692.5,883.58 1696.92,904.279 
  1701.34,904.279 1705.75,811.135 1710.17,1183.71 1714.59,1007.77 1719,914.629 1723.42,1007.77 1727.84,1225.11 1732.25,790.436 1736.67,852.532 1741.09,893.93 
  1745.51,686.942 1749.92,717.99 1754.34,935.328 1758.76,935.328 1763.17,1100.92 1767.59,1018.12 1772.01,759.387 1776.42,1018.12 1780.84,935.328 1785.26,790.436 
  1789.68,987.075 1794.09,914.629 1798.51,862.882 1802.93,769.737 1807.34,707.64 1811.76,1163.01 1816.18,686.942 1820.59,666.243 1825.01,614.496 1829.43,1131.97 
  1833.85,469.604 1838.26,914.629 1842.68,759.387 1847.1,728.339 1851.51,1111.27 1855.93,459.254 1860.35,366.11 1864.76,935.328 1869.18,945.677 1873.6,417.857 
  1878.02,811.135 1882.43,883.58 1886.85,842.183 1891.27,976.725 1895.68,852.532 1900.1,852.532 1904.52,997.424 1908.93,842.183 1913.35,800.785 1917.77,924.978 
  1922.19,490.303 1926.6,966.376 1931.02,728.339 1935.44,1018.12 1939.85,976.725 1944.27,780.086 1948.69,852.532 1953.1,821.484 1957.52,873.231 1961.94,749.038 
  1966.35,842.183 1975.19,811.135 1979.61,873.231 1984.02,873.231 1988.44,728.339 1992.86,749.038 1997.27,976.725 2001.69,893.93 2006.11,593.797 2010.52,790.436 
  2014.94,987.075 2019.36,862.882 2028.19,521.351 2032.61,790.436 2037.03,728.339 2041.44,821.484 2045.86,252.266 2050.28,635.194 2054.69,717.99 2059.11,852.532 
  2063.53,707.64 2067.95,697.291 2072.36,593.797 2076.78,635.194 2081.2,345.411 2085.61,759.387 2090.03,717.99 2094.45,707.64 2098.86,542.05 2107.7,552.399 
  2112.12,738.689 2116.53,873.231 2120.95,511.001 2125.37,707.64 2129.78,749.038 2134.2,924.978 2138.62,717.99 2143.03,511.001 2151.87,686.942 2156.29,604.146 
  2160.7,635.194 2165.12,842.183 2169.54,728.339 2173.95,852.532 2178.37,904.279 2182.79,780.086 2191.62,862.882 2200.46,914.629 2204.87,811.135 2209.29,635.194 
  2213.71,728.339 2218.12,686.942 2222.54,769.737 2226.96,935.328 2231.37,842.183 2235.79,1401.05 2240.21,252.266 2244.63,1038.82 2249.04,873.231 2253.46,676.592 
  2257.88,904.279 2262.29,1390.7 
  "/>
<polyline clip-path="url(#clip5903)" style="stroke:#e26f46; stroke-width:4; stroke-opacity:1; fill:none" points="
  296.734,919.401 301.151,919.256 305.568,919.111 309.985,918.966 314.402,918.821 318.819,918.695 323.236,918.568 327.653,918.442 332.07,918.316 336.487,918.21 
  340.904,918.104 345.321,917.998 349.738,917.892 354.155,917.809 358.572,917.725 362.989,917.642 367.406,917.558 371.823,917.498 376.24,917.439 380.657,917.379 
  385.074,917.319 389.491,917.285 393.908,917.25 398.325,917.216 402.742,917.182 407.159,917.175 411.576,917.168 415.993,917.161 420.41,917.154 424.827,917.176 
  429.244,917.198 433.661,917.22 438.078,917.242 442.495,917.293 451.329,917.395 455.746,917.446 460.163,917.526 464.58,917.607 468.997,917.688 473.414,917.768 
  477.831,917.878 482.248,917.987 486.665,918.097 491.082,918.206 495.498,918.343 499.915,918.481 504.332,918.618 508.749,918.755 513.166,918.919 517.583,919.082 
  522,919.246 526.417,919.409 530.834,919.596 535.251,919.784 539.668,919.971 544.085,920.158 548.502,920.366 552.919,920.574 557.336,920.782 561.753,920.99 
  566.17,921.214 570.587,921.438 575.004,921.663 579.421,921.887 588.255,922.357 592.672,922.592 597.089,922.826 601.506,923.064 605.923,923.301 610.34,923.538 
  614.757,923.776 619.174,924.004 623.591,924.233 628.008,924.462 632.425,924.69 636.842,924.9 641.259,925.109 645.676,925.318 650.093,925.528 654.51,925.717 
  658.927,925.905 667.761,926.283 672.178,926.482 676.595,926.681 681.012,926.88 685.429,927.08 689.846,927.86 694.263,928.64 698.68,929.419 703.097,930.199 
  707.514,931.049 720.765,933.597 725.182,934.524 729.599,935.451 734.016,936.378 738.433,937.305 742.85,938.307 747.267,939.309 756.101,941.313 760.518,942.392 
  764.935,943.47 769.352,944.549 773.769,945.628 782.603,947.939 787.02,949.094 791.437,950.25 795.854,951.474 800.271,952.698 804.688,953.922 809.105,955.146 
  813.522,956.424 817.939,957.702 822.355,958.98 826.772,960.258 831.189,961.591 840.023,964.259 844.44,965.592 848.857,966.949 853.274,968.306 857.691,969.663 
  862.108,971.02 866.525,972.295 870.942,973.57 875.359,974.845 884.193,977.466 888.61,978.776 893.027,980.086 897.444,981.359 901.861,982.632 906.278,983.905 
  910.695,985.178 915.112,986.39 919.529,987.603 923.946,988.816 928.363,990.028 932.78,991.146 937.197,992.264 941.614,993.382 946.031,994.5 950.448,995.479 
  954.865,996.459 959.282,997.438 963.699,998.417 968.116,999.358 972.533,1000.3 976.95,1001.24 981.367,1002.18 985.784,1002.75 990.201,1003.33 994.618,1003.9 
  999.035,1004.48 1003.45,1004.64 1007.87,1004.81 1012.29,1004.97 1016.7,1005.14 1021.12,1005.2 1025.54,1005.27 1029.95,1005.33 1034.37,1005.4 1038.79,1005.04 
  1043.2,1004.69 1047.62,1004.34 1052.04,1003.99 1056.46,1003.74 1065.29,1003.25 1069.71,1003 1074.12,1002.38 1078.54,1001.76 1082.96,1001.13 1087.37,1000.51 
  1091.79,999.714 1096.21,998.923 1100.63,998.131 1105.04,997.34 1109.46,996.554 1113.88,995.767 1118.29,994.981 1122.71,994.194 1127.13,993.031 1131.54,991.868 
  1135.96,990.705 1140.38,989.541 1144.8,988.542 1149.21,987.543 1153.63,986.544 1158.05,985.545 1162.46,984.392 1166.88,983.24 1171.3,982.087 1175.71,980.935 
  1180.13,979.773 1184.55,978.61 1188.97,977.448 1193.38,976.285 1197.8,975.135 1202.22,973.985 1206.63,972.834 1211.05,971.684 1215.47,970.567 1219.88,969.45 
  1224.3,968.333 1228.72,967.216 1233.14,966.094 1237.55,964.971 1241.97,963.849 1246.39,962.727 1250.8,961.674 1255.22,960.62 1259.64,959.566 1268.47,957.344 
  1272.89,956.233 1277.31,955.122 1281.72,954.119 1286.14,953.115 1290.56,952.112 1294.97,951.109 1299.39,950.057 1303.81,949.006 1308.22,947.954 1312.64,946.902 
  1317.06,945.845 1321.47,944.787 1325.89,943.729 1330.31,942.672 1334.73,941.616 1339.14,940.56 1343.56,939.504 1347.98,938.448 1352.39,937.418 1356.81,936.389 
  1361.23,935.359 1365.64,934.329 1370.06,933.336 1374.48,932.343 1378.9,931.35 1383.31,930.357 1387.73,929.408 1392.15,928.459 1396.56,927.511 1400.98,926.562 
  1409.81,924.761 1414.23,923.86 1423.07,922.169 1427.48,921.323 1431.9,920.477 1436.32,919.696 1445.15,918.134 1449.57,917.353 1453.98,916.63 1458.4,915.907 
  1462.82,915.184 1467.24,914.461 1471.65,913.791 1476.07,913.122 1480.49,912.452 1484.9,911.783 1489.32,911.165 1493.74,910.547 1498.15,909.93 1502.57,909.312 
  1506.99,908.747 1511.41,908.183 1515.82,907.619 1520.24,907.054 1529.07,906.033 1533.49,905.522 1537.91,905.011 1542.32,904.552 1546.74,904.092 1551.16,903.632 
  1555.58,903.173 1559.99,902.761 1564.41,902.35 1568.83,901.939 1573.24,901.527 1577.66,901.162 1582.08,900.797 1586.49,900.431 1590.91,900.066 1595.33,899.733 
  1599.75,899.399 1604.16,899.066 1608.58,898.733 1613,898.411 1617.41,898.09 1621.83,897.768 1626.25,897.446 1630.66,896.998 1635.08,896.55 1639.5,896.101 
  1648.33,895.533 1652.75,895.249 1657.17,894.964 1661.58,894.527 1666,894.09 1670.42,893.653 1683.67,892.063 1688.08,891.533 1692.5,890.876 1696.92,890.219 
  1701.34,889.562 1705.75,888.905 1710.17,888.032 1714.59,887.158 1719,886.284 1723.42,885.41 1727.84,884.453 1732.25,883.496 1736.67,882.54 1741.09,881.583 
  1745.51,880.471 1749.92,879.358 1754.34,878.246 1758.76,877.134 1763.17,875.882 1767.59,874.631 1772.01,873.38 1776.42,872.128 1780.84,870.673 1785.26,869.218 
  1789.68,867.763 1794.09,866.308 1798.51,864.834 1802.93,863.359 1807.34,861.884 1811.76,860.409 1816.18,858.943 1820.59,857.478 1825.01,856.012 1829.43,854.546 
  1833.85,852.957 1838.26,851.368 1842.68,849.779 1847.1,848.19 1851.51,846.58 1855.93,844.97 1860.35,843.359 1864.76,841.749 1869.18,840.091 1873.6,838.433 
  1878.02,836.775 1882.43,835.117 1886.85,833.566 1891.27,832.016 1895.68,830.465 1900.1,828.914 1904.52,827.51 1908.93,826.105 1913.35,824.7 1917.77,823.296 
  1922.19,821.976 1926.6,820.656 1931.02,819.337 1935.44,818.017 1939.85,816.745 1944.27,815.473 1948.69,814.201 1953.1,812.929 1957.52,811.68 1961.94,810.432 
  1966.35,809.183 1975.19,806.71 1979.61,805.474 1984.02,804.237 1988.44,803.006 1992.86,801.774 1997.27,800.543 2001.69,799.311 2006.11,798.078 2010.52,796.845 
  2014.94,795.612 2019.36,794.379 2028.19,791.901 2032.61,790.662 2037.03,789.423 2041.44,788.175 2045.86,786.927 2050.28,785.679 2054.69,784.431 2059.11,783.173 
  2063.53,781.915 2067.95,780.657 2072.36,779.399 2076.78,778.131 2081.2,776.863 2085.61,775.595 2090.03,774.327 2094.45,773.05 2098.86,771.774 2107.7,769.221 
  2112.12,767.939 2116.53,766.657 2120.95,765.374 2125.37,764.092 2129.78,762.808 2134.2,761.524 2138.62,760.24 2143.03,758.955 2151.87,756.39 2156.29,755.107 
  2160.7,753.825 2165.12,752.548 2169.54,751.271 2173.95,749.995 2178.37,748.718 2182.79,747.45 2191.62,744.913 2200.46,742.4 2204.87,741.143 2209.29,739.886 
  2213.71,738.644 2218.12,737.402 2222.54,736.161 2226.96,734.919 2231.37,733.694 2235.79,732.469 2240.21,731.245 2244.63,730.02 2249.04,728.814 2253.46,727.607 
  2257.88,726.401 2262.29,725.194 
  "/>
<polygon clip-path="url(#clip5901)" points="
1958.43,312.204 2249.26,312.204 2249.26,130.764 1958.43,130.764 
  " fill="#ffffff" fill-opacity="1"/>
<polyline clip-path="url(#clip5901)" style="stroke:#000000; stroke-width:4; stroke-opacity:1; fill:none" points="
  1958.43,312.204 2249.26,312.204 2249.26,130.764 1958.43,130.764 1958.43,312.204 
  "/>
<polyline clip-path="url(#clip5901)" style="stroke:#009af9; stroke-width:4; stroke-opacity:1; fill:none" points="
  1982.43,191.244 2126.43,191.244 
  "/>
<g clip-path="url(#clip5901)">
<text style="fill:#000000; fill-opacity:1; font-family:Arial,Helvetica Neue,Helvetica,sans-serif; font-size:48px; text-anchor:start;" transform="rotate(0, 2150.43, 208.744)" x="2150.43" y="208.744">y1</text>
</g>
<polyline clip-path="url(#clip5901)" style="stroke:#e26f46; stroke-width:4; stroke-opacity:1; fill:none" points="
  1982.43,251.724 2126.43,251.724 
  "/>
<g clip-path="url(#clip5901)">
<text style="fill:#000000; fill-opacity:1; font-family:Arial,Helvetica Neue,Helvetica,sans-serif; font-size:48px; text-anchor:start;" transform="rotate(0, 2150.43, 269.224)" x="2150.43" y="269.224">y2</text>
</g>
</svg>
