<?xml version="1.0" encoding="utf-8"?>
<svg xmlns="http://www.w3.org/2000/svg" xmlns:xlink="http://www.w3.org/1999/xlink" width="600" height="400" viewBox="0 0 2400 1600">
<defs>
  <clipPath id="clip6100">
    <rect x="0" y="0" width="2000" height="2000"/>
  </clipPath>
</defs>
<defs>
  <clipPath id="clip6101">
    <rect x="0" y="0" width="2400" height="1600"/>
  </clipPath>
</defs>
<polygon clip-path="url(#clip6101)" points="
0,1600 2400,1600 2400,0 0,0 
  " fill="#ffffff" fill-opacity="1"/>
<defs>
  <clipPath id="clip6102">
    <rect x="480" y="0" width="1681" height="1600"/>
  </clipPath>
</defs>
<polygon clip-path="url(#clip6101)" points="
264.53,1440.48 2321.26,1440.48 2321.26,47.2441 264.53,47.2441 
  " fill="#ffffff" fill-opacity="1"/>
<defs>
  <clipPath id="clip6103">
    <rect x="264" y="47" width="2058" height="1394"/>
  </clipPath>
</defs>
<polyline clip-path="url(#clip6103)" style="stroke:#000000; stroke-width:2; stroke-opacity:0.1; fill:none" points="
  322.739,1440.48 322.739,47.2441 
  "/>
<polyline clip-path="url(#clip6103)" style="stroke:#000000; stroke-width:2; stroke-opacity:0.1; fill:none" points="
  499.131,1440.48 499.131,47.2441 
  "/>
<polyline clip-path="url(#clip6103)" style="stroke:#000000; stroke-width:2; stroke-opacity:0.1; fill:none" points="
  675.523,1440.48 675.523,47.2441 
  "/>
<polyline clip-path="url(#clip6103)" style="stroke:#000000; stroke-width:2; stroke-opacity:0.1; fill:none" points="
  851.915,1440.48 851.915,47.2441 
  "/>
<polyline clip-path="url(#clip6103)" style="stroke:#000000; stroke-width:2; stroke-opacity:0.1; fill:none" points="
  1028.31,1440.48 1028.31,47.2441 
  "/>
<polyline clip-path="url(#clip6103)" style="stroke:#000000; stroke-width:2; stroke-opacity:0.1; fill:none" points="
  1204.7,1440.48 1204.7,47.2441 
  "/>
<polyline clip-path="url(#clip6103)" style="stroke:#000000; stroke-width:2; stroke-opacity:0.1; fill:none" points="
  1381.09,1440.48 1381.09,47.2441 
  "/>
<polyline clip-path="url(#clip6103)" style="stroke:#000000; stroke-width:2; stroke-opacity:0.1; fill:none" points="
  1557.48,1440.48 1557.48,47.2441 
  "/>
<polyline clip-path="url(#clip6103)" style="stroke:#000000; stroke-width:2; stroke-opacity:0.1; fill:none" points="
  1733.87,1440.48 1733.87,47.2441 
  "/>
<polyline clip-path="url(#clip6103)" style="stroke:#000000; stroke-width:2; stroke-opacity:0.1; fill:none" points="
  1910.27,1440.48 1910.27,47.2441 
  "/>
<polyline clip-path="url(#clip6103)" style="stroke:#000000; stroke-width:2; stroke-opacity:0.1; fill:none" points="
  2086.66,1440.48 2086.66,47.2441 
  "/>
<polyline clip-path="url(#clip6103)" style="stroke:#000000; stroke-width:2; stroke-opacity:0.1; fill:none" points="
  2263.05,1440.48 2263.05,47.2441 
  "/>
<polyline clip-path="url(#clip6103)" style="stroke:#000000; stroke-width:2; stroke-opacity:0.1; fill:none" points="
  264.53,1417.17 2321.26,1417.17 
  "/>
<polyline clip-path="url(#clip6103)" style="stroke:#000000; stroke-width:2; stroke-opacity:0.1; fill:none" points="
  264.53,1051.58 2321.26,1051.58 
  "/>
<polyline clip-path="url(#clip6103)" style="stroke:#000000; stroke-width:2; stroke-opacity:0.1; fill:none" points="
  264.53,685.984 2321.26,685.984 
  "/>
<polyline clip-path="url(#clip6103)" style="stroke:#000000; stroke-width:2; stroke-opacity:0.1; fill:none" points="
  264.53,320.392 2321.26,320.392 
  "/>
<polyline clip-path="url(#clip6101)" style="stroke:#000000; stroke-width:4; stroke-opacity:1; fill:none" points="
  264.53,1440.48 2321.26,1440.48 
  "/>
<polyline clip-path="url(#clip6101)" style="stroke:#000000; stroke-width:4; stroke-opacity:1; fill:none" points="
  264.53,1440.48 264.53,47.2441 
  "/>
<polyline clip-path="url(#clip6101)" style="stroke:#000000; stroke-width:4; stroke-opacity:1; fill:none" points="
  322.739,1440.48 322.739,1419.58 
  "/>
<polyline clip-path="url(#clip6101)" style="stroke:#000000; stroke-width:4; stroke-opacity:1; fill:none" points="
  499.131,1440.48 499.131,1419.58 
  "/>
<polyline clip-path="url(#clip6101)" style="stroke:#000000; stroke-width:4; stroke-opacity:1; fill:none" points="
  675.523,1440.48 675.523,1419.58 
  "/>
<polyline clip-path="url(#clip6101)" style="stroke:#000000; stroke-width:4; stroke-opacity:1; fill:none" points="
  851.915,1440.48 851.915,1419.58 
  "/>
<polyline clip-path="url(#clip6101)" style="stroke:#000000; stroke-width:4; stroke-opacity:1; fill:none" points="
  1028.31,1440.48 1028.31,1419.58 
  "/>
<polyline clip-path="url(#clip6101)" style="stroke:#000000; stroke-width:4; stroke-opacity:1; fill:none" points="
  1204.7,1440.48 1204.7,1419.58 
  "/>
<polyline clip-path="url(#clip6101)" style="stroke:#000000; stroke-width:4; stroke-opacity:1; fill:none" points="
  1381.09,1440.48 1381.09,1419.58 
  "/>
<polyline clip-path="url(#clip6101)" style="stroke:#000000; stroke-width:4; stroke-opacity:1; fill:none" points="
  1557.48,1440.48 1557.48,1419.58 
  "/>
<polyline clip-path="url(#clip6101)" style="stroke:#000000; stroke-width:4; stroke-opacity:1; fill:none" points="
  1733.87,1440.48 1733.87,1419.58 
  "/>
<polyline clip-path="url(#clip6101)" style="stroke:#000000; stroke-width:4; stroke-opacity:1; fill:none" points="
  1910.27,1440.48 1910.27,1419.58 
  "/>
<polyline clip-path="url(#clip6101)" style="stroke:#000000; stroke-width:4; stroke-opacity:1; fill:none" points="
  2086.66,1440.48 2086.66,1419.58 
  "/>
<polyline clip-path="url(#clip6101)" style="stroke:#000000; stroke-width:4; stroke-opacity:1; fill:none" points="
  2263.05,1440.48 2263.05,1419.58 
  "/>
<polyline clip-path="url(#clip6101)" style="stroke:#000000; stroke-width:4; stroke-opacity:1; fill:none" points="
  264.53,1417.17 295.381,1417.17 
  "/>
<polyline clip-path="url(#clip6101)" style="stroke:#000000; stroke-width:4; stroke-opacity:1; fill:none" points="
  264.53,1051.58 295.381,1051.58 
  "/>
<polyline clip-path="url(#clip6101)" style="stroke:#000000; stroke-width:4; stroke-opacity:1; fill:none" points="
  264.53,685.984 295.381,685.984 
  "/>
<polyline clip-path="url(#clip6101)" style="stroke:#000000; stroke-width:4; stroke-opacity:1; fill:none" points="
  264.53,320.392 295.381,320.392 
  "/>
<g clip-path="url(#clip6101)">
<text style="fill:#000000; fill-opacity:1; font-family:Arial,Helvetica Neue,Helvetica,sans-serif; font-size:48px; text-anchor:middle;" transform="rotate(0, 322.739, 1494.48)" x="322.739" y="1494.48">1</text>
</g>
<g clip-path="url(#clip6101)">
<text style="fill:#000000; fill-opacity:1; font-family:Arial,Helvetica Neue,Helvetica,sans-serif; font-size:48px; text-anchor:middle;" transform="rotate(0, 499.131, 1494.48)" x="499.131" y="1494.48">2</text>
</g>
<g clip-path="url(#clip6101)">
<text style="fill:#000000; fill-opacity:1; font-family:Arial,Helvetica Neue,Helvetica,sans-serif; font-size:48px; text-anchor:middle;" transform="rotate(0, 675.523, 1494.48)" x="675.523" y="1494.48">3</text>
</g>
<g clip-path="url(#clip6101)">
<text style="fill:#000000; fill-opacity:1; font-family:Arial,Helvetica Neue,Helvetica,sans-serif; font-size:48px; text-anchor:middle;" transform="rotate(0, 851.915, 1494.48)" x="851.915" y="1494.48">4</text>
</g>
<g clip-path="url(#clip6101)">
<text style="fill:#000000; fill-opacity:1; font-family:Arial,Helvetica Neue,Helvetica,sans-serif; font-size:48px; text-anchor:middle;" transform="rotate(0, 1028.31, 1494.48)" x="1028.31" y="1494.48">5</text>
</g>
<g clip-path="url(#clip6101)">
<text style="fill:#000000; fill-opacity:1; font-family:Arial,Helvetica Neue,Helvetica,sans-serif; font-size:48px; text-anchor:middle;" transform="rotate(0, 1204.7, 1494.48)" x="1204.7" y="1494.48">6</text>
</g>
<g clip-path="url(#clip6101)">
<text style="fill:#000000; fill-opacity:1; font-family:Arial,Helvetica Neue,Helvetica,sans-serif; font-size:48px; text-anchor:middle;" transform="rotate(0, 1381.09, 1494.48)" x="1381.09" y="1494.48">7</text>
</g>
<g clip-path="url(#clip6101)">
<text style="fill:#000000; fill-opacity:1; font-family:Arial,Helvetica Neue,Helvetica,sans-serif; font-size:48px; text-anchor:middle;" transform="rotate(0, 1557.48, 1494.48)" x="1557.48" y="1494.48">8</text>
</g>
<g clip-path="url(#clip6101)">
<text style="fill:#000000; fill-opacity:1; font-family:Arial,Helvetica Neue,Helvetica,sans-serif; font-size:48px; text-anchor:middle;" transform="rotate(0, 1733.87, 1494.48)" x="1733.87" y="1494.48">9</text>
</g>
<g clip-path="url(#clip6101)">
<text style="fill:#000000; fill-opacity:1; font-family:Arial,Helvetica Neue,Helvetica,sans-serif; font-size:48px; text-anchor:middle;" transform="rotate(0, 1910.27, 1494.48)" x="1910.27" y="1494.48">10</text>
</g>
<g clip-path="url(#clip6101)">
<text style="fill:#000000; fill-opacity:1; font-family:Arial,Helvetica Neue,Helvetica,sans-serif; font-size:48px; text-anchor:middle;" transform="rotate(0, 2086.66, 1494.48)" x="2086.66" y="1494.48">11</text>
</g>
<g clip-path="url(#clip6101)">
<text style="fill:#000000; fill-opacity:1; font-family:Arial,Helvetica Neue,Helvetica,sans-serif; font-size:48px; text-anchor:middle;" transform="rotate(0, 2263.05, 1494.48)" x="2263.05" y="1494.48">12</text>
</g>
<g clip-path="url(#clip6101)">
<text style="fill:#000000; fill-opacity:1; font-family:Arial,Helvetica Neue,Helvetica,sans-serif; font-size:48px; text-anchor:end;" transform="rotate(0, 240.53, 1434.67)" x="240.53" y="1434.67">0</text>
</g>
<g clip-path="url(#clip6101)">
<text style="fill:#000000; fill-opacity:1; font-family:Arial,Helvetica Neue,Helvetica,sans-serif; font-size:48px; text-anchor:end;" transform="rotate(0, 240.53, 1069.08)" x="240.53" y="1069.08">500</text>
</g>
<g clip-path="url(#clip6101)">
<text style="fill:#000000; fill-opacity:1; font-family:Arial,Helvetica Neue,Helvetica,sans-serif; font-size:48px; text-anchor:end;" transform="rotate(0, 240.53, 703.484)" x="240.53" y="703.484">1000</text>
</g>
<g clip-path="url(#clip6101)">
<text style="fill:#000000; fill-opacity:1; font-family:Arial,Helvetica Neue,Helvetica,sans-serif; font-size:48px; text-anchor:end;" transform="rotate(0, 240.53, 337.892)" x="240.53" y="337.892">1500</text>
</g>
<g clip-path="url(#clip6101)">
<text style="fill:#000000; fill-opacity:1; font-family:Arial,Helvetica Neue,Helvetica,sans-serif; font-size:66px; text-anchor:middle;" transform="rotate(0, 1292.89, 1590.4)" x="1292.89" y="1590.4">Month</text>
</g>
<g clip-path="url(#clip6101)">
<text style="fill:#000000; fill-opacity:1; font-family:Arial,Helvetica Neue,Helvetica,sans-serif; font-size:66px; text-anchor:middle;" transform="rotate(-90, 57.6, 743.863)" x="57.6" y="743.863">Deaths</text>
</g>
<polyline clip-path="url(#clip6103)" style="stroke:#009af9; stroke-width:4; stroke-opacity:1; fill:none" points="
  322.739,1391.44 499.131,1396.34 675.523,1347.28 851.915,1097.67 1028.31,640.226 1204.7,379.34 1381.09,833.141 1557.48,1167.37 1733.87,826.341 1910.27,315.245 
  2086.66,1072.76 2263.05,1358.04 
  "/>
<polyline clip-path="url(#clip6103)" style="stroke:#009af9; stroke-width:4; stroke-opacity:1; fill:none" points="
  322.739,1397.43 322.739,1385.46 
  "/>
<polyline clip-path="url(#clip6103)" style="stroke:#009af9; stroke-width:4; stroke-opacity:1; fill:none" points="
  499.131,1401.05 499.131,1391.63 
  "/>
<polyline clip-path="url(#clip6103)" style="stroke:#009af9; stroke-width:4; stroke-opacity:1; fill:none" points="
  675.523,1374.63 675.523,1319.93 
  "/>
<polyline clip-path="url(#clip6103)" style="stroke:#009af9; stroke-width:4; stroke-opacity:1; fill:none" points="
  851.915,1246.96 851.915,948.375 
  "/>
<polyline clip-path="url(#clip6103)" style="stroke:#009af9; stroke-width:4; stroke-opacity:1; fill:none" points="
  1028.31,871.516 1028.31,408.936 
  "/>
<polyline clip-path="url(#clip6103)" style="stroke:#009af9; stroke-width:4; stroke-opacity:1; fill:none" points="
  1204.7,596.166 1204.7,162.514 
  "/>
<polyline clip-path="url(#clip6103)" style="stroke:#009af9; stroke-width:4; stroke-opacity:1; fill:none" points="
  1381.09,955.104 1381.09,711.179 
  "/>
<polyline clip-path="url(#clip6103)" style="stroke:#009af9; stroke-width:4; stroke-opacity:1; fill:none" points="
  1557.48,1216.69 1557.48,1118.04 
  "/>
<polyline clip-path="url(#clip6103)" style="stroke:#009af9; stroke-width:4; stroke-opacity:1; fill:none" points="
  1733.87,958.385 1733.87,694.298 
  "/>
<polyline clip-path="url(#clip6103)" style="stroke:#009af9; stroke-width:4; stroke-opacity:1; fill:none" points="
  1910.27,543.814 1910.27,86.6754 
  "/>
<polyline clip-path="url(#clip6103)" style="stroke:#009af9; stroke-width:4; stroke-opacity:1; fill:none" points="
  2086.66,1137.2 2086.66,1008.33 
  "/>
<polyline clip-path="url(#clip6103)" style="stroke:#009af9; stroke-width:4; stroke-opacity:1; fill:none" points="
  2263.05,1370.97 2263.05,1345.11 
  "/>
<line clip-path="url(#clip6103)" x1="342.739" y1="1397.43" x2="302.739" y2="1397.43" style="stroke:#000000; stroke-width:4; stroke-opacity:1"/>
<line clip-path="url(#clip6103)" x1="342.739" y1="1385.46" x2="302.739" y2="1385.46" style="stroke:#000000; stroke-width:4; stroke-opacity:1"/>
<line clip-path="url(#clip6103)" x1="519.131" y1="1401.05" x2="479.131" y2="1401.05" style="stroke:#000000; stroke-width:4; stroke-opacity:1"/>
<line clip-path="url(#clip6103)" x1="519.131" y1="1391.63" x2="479.131" y2="1391.63" style="stroke:#000000; stroke-width:4; stroke-opacity:1"/>
<line clip-path="url(#clip6103)" x1="695.523" y1="1374.63" x2="655.523" y2="1374.63" style="stroke:#000000; stroke-width:4; stroke-opacity:1"/>
<line clip-path="url(#clip6103)" x1="695.523" y1="1319.93" x2="655.523" y2="1319.93" style="stroke:#000000; stroke-width:4; stroke-opacity:1"/>
<line clip-path="url(#clip6103)" x1="871.915" y1="1246.96" x2="831.915" y2="1246.96" style="stroke:#000000; stroke-width:4; stroke-opacity:1"/>
<line clip-path="url(#clip6103)" x1="871.915" y1="948.375" x2="831.915" y2="948.375" style="stroke:#000000; stroke-width:4; stroke-opacity:1"/>
<line clip-path="url(#clip6103)" x1="1048.31" y1="871.516" x2="1008.31" y2="871.516" style="stroke:#000000; stroke-width:4; stroke-opacity:1"/>
<line clip-path="url(#clip6103)" x1="1048.31" y1="408.936" x2="1008.31" y2="408.936" style="stroke:#000000; stroke-width:4; stroke-opacity:1"/>
<line clip-path="url(#clip6103)" x1="1224.7" y1="596.166" x2="1184.7" y2="596.166" style="stroke:#000000; stroke-width:4; stroke-opacity:1"/>
<line clip-path="url(#clip6103)" x1="1224.7" y1="162.514" x2="1184.7" y2="162.514" style="stroke:#000000; stroke-width:4; stroke-opacity:1"/>
<line clip-path="url(#clip6103)" x1="1401.09" y1="955.104" x2="1361.09" y2="955.104" style="stroke:#000000; stroke-width:4; stroke-opacity:1"/>
<line clip-path="url(#clip6103)" x1="1401.09" y1="711.179" x2="1361.09" y2="711.179" style="stroke:#000000; stroke-width:4; stroke-opacity:1"/>
<line clip-path="url(#clip6103)" x1="1577.48" y1="1216.69" x2="1537.48" y2="1216.69" style="stroke:#000000; stroke-width:4; stroke-opacity:1"/>
<line clip-path="url(#clip6103)" x1="1577.48" y1="1118.04" x2="1537.48" y2="1118.04" style="stroke:#000000; stroke-width:4; stroke-opacity:1"/>
<line clip-path="url(#clip6103)" x1="1753.87" y1="958.385" x2="1713.87" y2="958.385" style="stroke:#000000; stroke-width:4; stroke-opacity:1"/>
<line clip-path="url(#clip6103)" x1="1753.87" y1="694.298" x2="1713.87" y2="694.298" style="stroke:#000000; stroke-width:4; stroke-opacity:1"/>
<line clip-path="url(#clip6103)" x1="1930.27" y1="543.814" x2="1890.27" y2="543.814" style="stroke:#000000; stroke-width:4; stroke-opacity:1"/>
<line clip-path="url(#clip6103)" x1="1930.27" y1="86.6754" x2="1890.27" y2="86.6754" style="stroke:#000000; stroke-width:4; stroke-opacity:1"/>
<line clip-path="url(#clip6103)" x1="2106.66" y1="1137.2" x2="2066.66" y2="1137.2" style="stroke:#000000; stroke-width:4; stroke-opacity:1"/>
<line clip-path="url(#clip6103)" x1="2106.66" y1="1008.33" x2="2066.66" y2="1008.33" style="stroke:#000000; stroke-width:4; stroke-opacity:1"/>
<line clip-path="url(#clip6103)" x1="2283.05" y1="1370.97" x2="2243.05" y2="1370.97" style="stroke:#000000; stroke-width:4; stroke-opacity:1"/>
<line clip-path="url(#clip6103)" x1="2283.05" y1="1345.11" x2="2243.05" y2="1345.11" style="stroke:#000000; stroke-width:4; stroke-opacity:1"/>
<polygon clip-path="url(#clip6101)" points="
1958.43,251.724 2249.26,251.724 2249.26,130.764 1958.43,130.764 
  " fill="#ffffff" fill-opacity="1"/>
<polyline clip-path="url(#clip6101)" style="stroke:#000000; stroke-width:4; stroke-opacity:1; fill:none" points="
  1958.43,251.724 2249.26,251.724 2249.26,130.764 1958.43,130.764 1958.43,251.724 
  "/>
<polyline clip-path="url(#clip6101)" style="stroke:#009af9; stroke-width:4; stroke-opacity:1; fill:none" points="
  1982.43,191.244 2126.43,191.244 
  "/>
<g clip-path="url(#clip6101)">
<text style="fill:#000000; fill-opacity:1; font-family:Arial,Helvetica Neue,Helvetica,sans-serif; font-size:48px; text-anchor:start;" transform="rotate(0, 2150.43, 208.744)" x="2150.43" y="208.744">y1</text>
</g>
</svg>
