<?xml version="1.0" encoding="utf-8"?>
<svg xmlns="http://www.w3.org/2000/svg" xmlns:xlink="http://www.w3.org/1999/xlink" width="600" height="400" viewBox="0 0 600 400">
<defs>
  <clipPath id="clip3900">
    <rect x="0" y="0" width="600" height="400"/>
  </clipPath>
</defs>
<polygon clip-path="url(#clip3900)" points="
0,400 600,400 600,0 0,0 
  " fill="#ffffff" fill-opacity="1"/>
<defs>
  <clipPath id="clip3901">
    <rect x="120" y="0" width="421" height="400"/>
  </clipPath>
</defs>
<polygon clip-path="url(#clip3900)" points="
52.7512,360.121 580.315,360.121 580.315,11.811 52.7512,11.811 
  " fill="#ffffff" fill-opacity="1"/>
<defs>
  <clipPath id="clip3902">
    <rect x="52" y="11" width="529" height="349"/>
  </clipPath>
</defs>
<polyline clip-path="url(#clip3902)" style="stroke:#000000; stroke-width:0.5; stroke-opacity:0.1; fill:none" points="
  52.7512,360.121 52.7512,11.811 
  "/>
<polyline clip-path="url(#clip3902)" style="stroke:#000000; stroke-width:0.5; stroke-opacity:0.1; fill:none" points="
  158.264,360.121 158.264,11.811 
  "/>
<polyline clip-path="url(#clip3902)" style="stroke:#000000; stroke-width:0.5; stroke-opacity:0.1; fill:none" points="
  263.777,360.121 263.777,11.811 
  "/>
<polyline clip-path="url(#clip3902)" style="stroke:#000000; stroke-width:0.5; stroke-opacity:0.1; fill:none" points="
  369.289,360.121 369.289,11.811 
  "/>
<polyline clip-path="url(#clip3902)" style="stroke:#000000; stroke-width:0.5; stroke-opacity:0.1; fill:none" points="
  474.802,360.121 474.802,11.811 
  "/>
<polyline clip-path="url(#clip3902)" style="stroke:#000000; stroke-width:0.5; stroke-opacity:0.1; fill:none" points="
  580.315,360.121 580.315,11.811 
  "/>
<polyline clip-path="url(#clip3902)" style="stroke:#000000; stroke-width:0.5; stroke-opacity:0.1; fill:none" points="
  52.7512,350.965 580.315,350.965 
  "/>
<polyline clip-path="url(#clip3902)" style="stroke:#000000; stroke-width:0.5; stroke-opacity:0.1; fill:none" points="
  52.7512,249.331 580.315,249.331 
  "/>
<polyline clip-path="url(#clip3902)" style="stroke:#000000; stroke-width:0.5; stroke-opacity:0.1; fill:none" points="
  52.7512,147.696 580.315,147.696 
  "/>
<polyline clip-path="url(#clip3902)" style="stroke:#000000; stroke-width:0.5; stroke-opacity:0.1; fill:none" points="
  52.7512,46.0612 580.315,46.0612 
  "/>
<polyline clip-path="url(#clip3900)" style="stroke:#000000; stroke-width:1; stroke-opacity:1; fill:none" points="
  52.7512,360.121 580.315,360.121 
  "/>
<polyline clip-path="url(#clip3900)" style="stroke:#000000; stroke-width:1; stroke-opacity:1; fill:none" points="
  52.7512,360.121 52.7512,11.811 
  "/>
<polyline clip-path="url(#clip3900)" style="stroke:#000000; stroke-width:1; stroke-opacity:1; fill:none" points="
  52.7512,360.121 52.7512,354.896 
  "/>
<polyline clip-path="url(#clip3900)" style="stroke:#000000; stroke-width:1; stroke-opacity:1; fill:none" points="
  158.264,360.121 158.264,354.896 
  "/>
<polyline clip-path="url(#clip3900)" style="stroke:#000000; stroke-width:1; stroke-opacity:1; fill:none" points="
  263.777,360.121 263.777,354.896 
  "/>
<polyline clip-path="url(#clip3900)" style="stroke:#000000; stroke-width:1; stroke-opacity:1; fill:none" points="
  369.289,360.121 369.289,354.896 
  "/>
<polyline clip-path="url(#clip3900)" style="stroke:#000000; stroke-width:1; stroke-opacity:1; fill:none" points="
  474.802,360.121 474.802,354.896 
  "/>
<polyline clip-path="url(#clip3900)" style="stroke:#000000; stroke-width:1; stroke-opacity:1; fill:none" points="
  580.315,360.121 580.315,354.896 
  "/>
<polyline clip-path="url(#clip3900)" style="stroke:#000000; stroke-width:1; stroke-opacity:1; fill:none" points="
  52.7512,350.965 60.6647,350.965 
  "/>
<polyline clip-path="url(#clip3900)" style="stroke:#000000; stroke-width:1; stroke-opacity:1; fill:none" points="
  52.7512,249.331 60.6647,249.331 
  "/>
<polyline clip-path="url(#clip3900)" style="stroke:#000000; stroke-width:1; stroke-opacity:1; fill:none" points="
  52.7512,147.696 60.6647,147.696 
  "/>
<polyline clip-path="url(#clip3900)" style="stroke:#000000; stroke-width:1; stroke-opacity:1; fill:none" points="
  52.7512,46.0612 60.6647,46.0612 
  "/>
<g clip-path="url(#clip3900)">
<text style="fill:#000000; fill-opacity:1; font-family:Arial,Helvetica Neue,Helvetica,sans-serif; font-size:12; text-anchor:middle;" transform="rotate(0, 52.7512, 373.921)" x="52.7512" y="373.921">0</text>
</g>
<g clip-path="url(#clip3900)">
<text style="fill:#000000; fill-opacity:1; font-family:Arial,Helvetica Neue,Helvetica,sans-serif; font-size:12; text-anchor:middle;" transform="rotate(0, 158.264, 373.921)" x="158.264" y="373.921">2</text>
</g>
<g clip-path="url(#clip3900)">
<text style="fill:#000000; fill-opacity:1; font-family:Arial,Helvetica Neue,Helvetica,sans-serif; font-size:12; text-anchor:middle;" transform="rotate(0, 263.777, 373.921)" x="263.777" y="373.921">4</text>
</g>
<g clip-path="url(#clip3900)">
<text style="fill:#000000; fill-opacity:1; font-family:Arial,Helvetica Neue,Helvetica,sans-serif; font-size:12; text-anchor:middle;" transform="rotate(0, 369.289, 373.921)" x="369.289" y="373.921">6</text>
</g>
<g clip-path="url(#clip3900)">
<text style="fill:#000000; fill-opacity:1; font-family:Arial,Helvetica Neue,Helvetica,sans-serif; font-size:12; text-anchor:middle;" transform="rotate(0, 474.802, 373.921)" x="474.802" y="373.921">8</text>
</g>
<g clip-path="url(#clip3900)">
<text style="fill:#000000; fill-opacity:1; font-family:Arial,Helvetica Neue,Helvetica,sans-serif; font-size:12; text-anchor:middle;" transform="rotate(0, 580.315, 373.921)" x="580.315" y="373.921">10</text>
</g>
<g clip-path="url(#clip3900)">
<text style="fill:#000000; fill-opacity:1; font-family:Arial,Helvetica Neue,Helvetica,sans-serif; font-size:12; text-anchor:end;" transform="rotate(0, 46.7512, 355.465)" x="46.7512" y="355.465">0</text>
</g>
<g clip-path="url(#clip3900)">
<text style="fill:#000000; fill-opacity:1; font-family:Arial,Helvetica Neue,Helvetica,sans-serif; font-size:12; text-anchor:end;" transform="rotate(0, 46.7512, 253.831)" x="46.7512" y="253.831">5</text>
</g>
<g clip-path="url(#clip3900)">
<text style="fill:#000000; fill-opacity:1; font-family:Arial,Helvetica Neue,Helvetica,sans-serif; font-size:12; text-anchor:end;" transform="rotate(0, 46.7512, 152.196)" x="46.7512" y="152.196">10</text>
</g>
<g clip-path="url(#clip3900)">
<text style="fill:#000000; fill-opacity:1; font-family:Arial,Helvetica Neue,Helvetica,sans-serif; font-size:12; text-anchor:end;" transform="rotate(0, 46.7512, 50.5612)" x="46.7512" y="50.5612">15</text>
</g>
<g clip-path="url(#clip3900)">
<text style="fill:#000000; fill-opacity:1; font-family:Arial,Helvetica Neue,Helvetica,sans-serif; font-size:16; text-anchor:middle;" transform="rotate(0, 316.533, 397.6)" x="316.533" y="397.6">Time</text>
</g>
<g clip-path="url(#clip3900)">
<text style="fill:#000000; fill-opacity:1; font-family:Arial,Helvetica Neue,Helvetica,sans-serif; font-size:16; text-anchor:middle;" transform="rotate(-90, 14.4, 185.966)" x="14.4" y="185.966">Number</text>
</g>
<polyline clip-path="url(#clip3902)" style="stroke:#009af9; stroke-width:3; stroke-opacity:1; fill:none" points="
  52.7512,21.6688 53.2793,22.4796 53.8074,23.2834 54.3355,24.0804 54.8636,24.8704 55.3917,25.6536 55.9198,26.43 56.4479,27.1994 56.976,27.962 57.5041,28.7177 
  58.0322,29.4666 58.5603,30.2087 59.0884,30.9439 59.6164,31.6723 60.1445,32.3939 60.6726,33.1087 61.2007,33.8167 61.7288,34.5179 62.2569,35.2123 62.785,35.9 
  63.3131,36.581 63.8412,37.2553 64.3693,37.9228 64.8974,38.5837 65.4255,39.2379 65.9535,39.8855 66.4816,40.5264 67.0097,41.1607 67.5378,41.7884 68.0659,42.4095 
  68.594,43.0241 69.1221,43.6321 69.6502,44.2336 70.1783,44.8286 70.7064,45.4172 71.2345,45.9993 71.7626,46.575 72.2906,47.1442 72.8187,47.7072 73.3468,48.2637 
  73.8749,48.8139 74.403,49.3579 74.9311,49.8955 75.4592,50.4269 75.9873,50.9521 76.5154,51.4712 77.0435,51.984 77.5716,52.4908 78.0997,52.9914 78.6277,53.486 
  79.1558,53.9745 79.6839,54.457 80.212,54.9335 80.7401,55.4041 81.2682,55.8688 81.7963,56.3276 82.3244,56.7806 82.8525,57.2277 83.3806,57.6691 83.9087,58.1047 
  84.4368,58.5345 84.9648,58.9587 85.4929,59.3772 86.021,59.7901 86.5491,60.1974 87.0772,60.5992 87.6053,60.9954 88.1334,61.3862 88.6615,61.7715 89.1896,62.1514 
  89.7177,62.5259 90.2458,62.8951 90.7739,63.2589 91.302,63.6175 91.83,63.9708 92.3581,64.319 92.8862,64.6619 93.4143,64.9998 93.9424,65.3325 94.4705,65.6602 
  94.9986,65.9829 95.5267,66.3006 96.0548,66.6133 96.5829,66.9211 97.111,67.2241 97.6391,67.5222 98.1671,67.8155 98.6952,68.1041 99.2233,68.3879 99.7514,68.667 
  100.28,68.9415 100.808,69.2114 101.336,69.4767 101.864,69.7374 102.392,69.9937 102.92,70.2454 103.448,70.4928 103.976,70.7357 104.504,70.9743 105.032,71.2085 
  105.56,71.4385 106.089,71.6642 106.617,71.8857 107.145,72.103 107.673,72.3161 108.201,72.5252 108.729,72.7301 109.257,72.9311 109.785,73.128 110.313,73.3209 
  110.841,73.5099 111.369,73.695 111.898,73.8762 112.426,74.0537 112.954,74.2273 113.482,74.3971 114.01,74.5632 114.538,74.7256 115.066,74.8844 115.594,75.0395 
  116.122,75.1911 116.65,75.3391 117.178,75.4835 117.707,75.6245 118.235,75.762 118.763,75.8961 119.291,76.0268 119.819,76.1542 120.347,76.2782 120.875,76.3989 
  121.403,76.5164 121.931,76.6306 122.459,76.7417 122.987,76.8496 123.516,76.9543 124.044,77.056 124.572,77.1546 125.1,77.2501 125.628,77.3427 126.156,77.4322 
  126.684,77.5188 127.212,77.6025 127.74,77.6834 128.268,77.7613 128.796,77.8365 129.325,77.9088 129.853,77.9784 130.381,78.0452 130.909,78.1093 131.437,78.1708 
  131.965,78.2295 132.493,78.2857 133.021,78.3393 133.549,78.3903 134.077,78.4387 134.605,78.4847 135.134,78.5282 135.662,78.5692 136.19,78.6077 136.718,78.6439 
  137.246,78.6777 137.774,78.7091 138.302,78.7383 138.83,78.7651 139.358,78.7896 139.886,78.8119 140.414,78.832 140.943,78.8499 141.471,78.8656 141.999,78.8791 
  142.527,78.8906 143.055,78.8999 143.583,78.9072 144.111,78.9124 144.639,78.9157 145.167,78.9169 145.695,78.9161 146.223,78.9134 146.752,78.9087 147.28,78.9022 
  147.808,78.8938 148.336,78.8835 148.864,78.8713 149.392,78.8574 149.92,78.8416 150.448,78.8241 150.976,78.8049 151.504,78.7838 152.033,78.7611 152.561,78.7367 
  153.089,78.7107 153.617,78.683 154.145,78.6536 154.673,78.6227 155.201,78.5902 155.729,78.5561 156.257,78.5204 156.785,78.4833 157.313,78.4446 157.842,78.4045 
  158.37,78.3629 158.898,78.3198 159.426,78.2753 159.954,78.2294 160.482,78.1821 161.01,78.1335 161.538,78.0835 162.066,78.0321 162.594,77.9795 163.122,77.9255 
  163.651,77.8703 164.179,77.8138 164.707,77.756 165.235,77.6971 165.763,77.6369 166.291,77.5755 166.819,77.513 167.347,77.4493 167.875,77.3844 168.403,77.3184 
  168.931,77.2513 169.46,77.1832 169.988,77.1139 170.516,77.0436 171.044,76.9722 171.572,76.8998 172.1,76.8264 172.628,76.752 173.156,76.6766 173.684,76.6002 
  174.212,76.5229 174.74,76.4446 175.269,76.3654 175.797,76.2853 176.325,76.2043 176.853,76.1224 177.381,76.0396 177.909,75.956 178.437,75.8715 178.965,75.7862 
  179.493,75.7001 180.021,75.6132 180.549,75.5256 181.078,75.4371 181.606,75.3479 182.134,75.258 182.662,75.1673 183.19,75.0759 183.718,74.9837 184.246,74.8909 
  184.774,74.7974 185.302,74.7032 185.83,74.6083 186.358,74.5128 186.887,74.4166 187.415,74.3198 187.943,74.2224 188.471,74.1243 188.999,74.0257 189.527,73.9265 
  190.055,73.8267 190.583,73.7263 191.111,73.6254 191.639,73.5239 192.167,73.4219 192.696,73.3193 193.224,73.2162 193.752,73.1127 194.28,73.0086 194.808,72.9041 
  195.336,72.799 195.864,72.6935 196.392,72.5876 196.92,72.4812 197.448,72.3743 197.976,72.2671 198.505,72.1594 199.033,72.0513 199.561,71.9428 200.089,71.8339 
  200.617,71.7246 201.145,71.615 201.673,71.505 202.201,71.3946 202.729,71.2839 203.257,71.1729 203.786,71.0615 204.314,70.9498 204.842,70.8378 205.37,70.7255 
  205.898,70.6128 206.426,70.4999 206.954,70.3868 207.482,70.2733 208.01,70.1596 208.538,70.0456 209.066,69.9314 209.595,69.8169 210.123,69.7022 210.651,69.5873 
  211.179,69.4722 211.707,69.3568 212.235,69.2413 212.763,69.1255 213.291,69.0096 213.819,68.8935 214.347,68.7772 214.875,68.6607 215.404,68.5441 215.932,68.4273 
  216.46,68.3104 216.988,68.1933 217.516,68.0761 218.044,67.9588 218.572,67.8413 219.1,67.7238 219.628,67.6061 220.156,67.4883 220.684,67.3704 221.213,67.2524 
  221.741,67.1343 222.269,67.0162 222.797,66.898 223.325,66.7797 223.853,66.6613 224.381,66.5429 224.909,66.4244 225.437,66.3059 225.965,66.1874 226.493,66.0688 
  227.022,65.9501 227.55,65.8315 228.078,65.7128 228.606,65.5941 229.134,65.4754 229.662,65.3566 230.19,65.2379 230.718,65.1192 231.246,65.0004 231.774,64.8817 
  232.302,64.763 232.831,64.6443 233.359,64.5256 233.887,64.4069 234.415,64.2883 234.943,64.1697 235.471,64.0511 235.999,63.9326 236.527,63.8141 237.055,63.6956 
  237.583,63.5773 238.111,63.4589 238.64,63.3407 239.168,63.2224 239.696,63.1043 240.224,62.9862 240.752,62.8682 241.28,62.7503 241.808,62.6325 242.336,62.5147 
  242.864,62.397 243.392,62.2795 243.92,62.162 244.449,62.0446 244.977,61.9273 245.505,61.8101 246.033,61.6931 246.561,61.5761 247.089,61.4593 247.617,61.3425 
  248.145,61.2259 248.673,61.1094 249.201,60.9931 249.729,60.8769 250.258,60.7608 250.786,60.6448 251.314,60.529 251.842,60.4133 252.37,60.2978 252.898,60.1824 
  253.426,60.0672 253.954,59.9521 254.482,59.8371 255.01,59.7224 255.539,59.6078 256.067,59.4933 256.595,59.379 257.123,59.2649 257.651,59.151 258.179,59.0372 
  258.707,58.9236 259.235,58.8102 259.763,58.697 260.291,58.5839 260.819,58.471 261.348,58.3583 261.876,58.2458 262.404,58.1335 262.932,58.0214 263.46,57.9095 
  263.988,57.7978 264.516,57.6862 265.044,57.5749 265.572,57.4638 266.1,57.3529 266.628,57.2421 267.157,57.1316 267.685,57.0213 268.213,56.9112 268.741,56.8014 
  269.269,56.6917 269.797,56.5822 270.325,56.473 270.853,56.364 271.381,56.2552 271.909,56.1466 272.437,56.0383 272.966,55.9302 273.494,55.8223 274.022,55.7146 
  274.55,55.6072 275.078,55.5 275.606,55.3931 276.134,55.2863 276.662,55.1799 277.19,55.0736 277.718,54.9676 278.246,54.8618 278.775,54.7563 279.303,54.651 
  279.831,54.5459 280.359,54.4411 280.887,54.3365 281.415,54.2322 281.943,54.1281 282.471,54.0242 282.999,53.9206 283.527,53.8173 284.055,53.7142 284.584,53.6113 
  285.112,53.5087 285.64,53.4063 286.168,53.3042 286.696,53.2023 287.224,53.1007 287.752,52.9994 288.28,52.8982 288.808,52.7974 289.336,52.6968 289.864,52.5964 
  290.393,52.4963 290.921,52.3965 291.449,52.2969 291.977,52.1976 292.505,52.0985 293.033,51.9997 293.561,51.9011 294.089,51.8028 294.617,51.7048 295.145,51.607 
  295.673,51.5095 296.202,51.4122 296.73,51.3152 297.258,51.2185 297.786,51.122 298.314,51.0258 298.842,50.9299 299.37,50.8342 299.898,50.7388 300.426,50.6436 
  300.954,50.5487 301.482,50.4541 302.011,50.3597 302.539,50.2657 303.067,50.1718 303.595,50.0783 304.123,49.985 304.651,49.8919 305.179,49.7992 305.707,49.7067 
  306.235,49.6145 306.763,49.5225 307.291,49.4308 307.82,49.3394 308.348,49.2482 308.876,49.1574 309.404,49.0668 309.932,48.9764 310.46,48.8863 310.988,48.7965 
  311.516,48.707 312.044,48.6177 312.572,48.5287 313.101,48.44 313.629,48.3516 314.157,48.2634 314.685,48.1755 315.213,48.0878 315.741,48.0005 316.269,47.9134 
  316.797,47.8265 317.325,47.74 317.853,47.6537 318.381,47.5677 318.91,47.4819 319.438,47.3965 319.966,47.3113 320.494,47.2263 321.022,47.1417 321.55,47.0573 
  322.078,46.9732 322.606,46.8893 323.134,46.8057 323.662,46.7224 324.19,46.6394 324.719,46.5566 325.247,46.4741 325.775,46.3919 326.303,46.3099 326.831,46.2283 
  327.359,46.1468 327.887,46.0657 328.415,45.9848 328.943,45.9042 329.471,45.8238 329.999,45.7438 330.528,45.664 331.056,45.5844 331.584,45.5052 332.112,45.4261 
  332.64,45.3474 333.168,45.2689 333.696,45.1907 334.224,45.1128 334.752,45.0351 335.28,44.9577 335.808,44.8806 336.337,44.8037 336.865,44.7271 337.393,44.6507 
  337.921,44.5746 338.449,44.4988 338.977,44.4232 339.505,44.3479 340.033,44.2729 340.561,44.1981 341.089,44.1236 341.617,44.0493 342.146,43.9753 342.674,43.9016 
  343.202,43.8281 343.73,43.7548 344.258,43.6819 344.786,43.6092 345.314,43.5367 345.842,43.4645 346.37,43.3925 346.898,43.3208 347.426,43.2494 347.955,43.1782 
  348.483,43.1073 349.011,43.0366 349.539,42.9662 350.067,42.896 350.595,42.8261 351.123,42.7564 351.651,42.687 352.179,42.6178 352.707,42.5489 353.235,42.4802 
  353.764,42.4117 354.292,42.3436 354.82,42.2756 355.348,42.2079 355.876,42.1405 356.404,42.0733 356.932,42.0063 357.46,41.9396 357.988,41.8732 358.516,41.8069 
  359.044,41.7409 359.573,41.6752 360.101,41.6097 360.629,41.5445 361.157,41.4794 361.685,41.4147 362.213,41.3501 362.741,41.2858 363.269,41.2218 363.797,41.1579 
  364.325,41.0944 364.854,41.031 365.382,40.9679 365.91,40.905 366.438,40.8424 366.966,40.78 367.494,40.7178 368.022,40.6558 368.55,40.5941 369.078,40.5327 
  369.606,40.4714 370.134,40.4104 370.663,40.3496 371.191,40.289 371.719,40.2287 372.247,40.1686 372.775,40.1088 373.303,40.0491 373.831,39.9897 374.359,39.9305 
  374.887,39.8715 375.415,39.8128 375.943,39.7543 376.472,39.696 377,39.6379 377.528,39.5801 378.056,39.5225 378.584,39.4651 379.112,39.4079 379.64,39.3509 
  380.168,39.2942 380.696,39.2377 381.224,39.1814 381.752,39.1253 382.281,39.0694 382.809,39.0137 383.337,38.9583 383.865,38.9031 384.393,38.8481 384.921,38.7933 
  385.449,38.7387 385.977,38.6843 386.505,38.6302 387.033,38.5762 387.561,38.5225 388.09,38.469 388.618,38.4157 389.146,38.3626 389.674,38.3097 390.202,38.257 
  390.73,38.2045 391.258,38.1523 391.786,38.1002 392.314,38.0483 392.842,37.9967 393.37,37.9452 393.899,37.894 394.427,37.8429 394.955,37.7921 395.483,37.7414 
  396.011,37.691 396.539,37.6407 397.067,37.5907 397.595,37.5409 398.123,37.4912 398.651,37.4418 399.179,37.3925 399.708,37.3434 400.236,37.2946 400.764,37.2459 
  401.292,37.1974 401.82,37.1492 402.348,37.1011 402.876,37.0532 403.404,37.0055 403.932,36.958 404.46,36.9106 404.988,36.8635 405.517,36.8166 406.045,36.7698 
  406.573,36.7232 407.101,36.6769 407.629,36.6307 408.157,36.5846 408.685,36.5388 409.213,36.4932 409.741,36.4477 410.269,36.4024 410.797,36.3574 411.326,36.3124 
  411.854,36.2677 412.382,36.2232 412.91,36.1788 413.438,36.1346 413.966,36.0906 414.494,36.0468 415.022,36.0031 415.55,35.9596 416.078,35.9163 416.607,35.8732 
  417.135,35.8303 417.663,35.7875 418.191,35.7449 418.719,35.7025 419.247,35.6602 419.775,35.6181 420.303,35.5762 420.831,35.5345 421.359,35.4929 421.887,35.4515 
  422.416,35.4103 422.944,35.3692 423.472,35.3283 424,35.2876 424.528,35.247 425.056,35.2066 425.584,35.1664 426.112,35.1263 426.64,35.0864 427.168,35.0467 
  427.696,35.0071 428.225,34.9677 428.753,34.9285 429.281,34.8894 429.809,34.8504 430.337,34.8117 430.865,34.7731 431.393,34.7346 431.921,34.6963 432.449,34.6582 
  432.977,34.6202 433.505,34.5824 434.034,34.5448 434.562,34.5072 435.09,34.4699 435.618,34.4327 436.146,34.3957 436.674,34.3588 437.202,34.322 437.73,34.2855 
  438.258,34.249 438.786,34.2127 439.314,34.1766 439.843,34.1406 440.371,34.1048 440.899,34.0691 441.427,34.0336 441.955,33.9982 442.483,33.963 443.011,33.9279 
  443.539,33.8929 444.067,33.8581 444.595,33.8235 445.123,33.7889 445.652,33.7546 446.18,33.7203 446.708,33.6863 447.236,33.6523 447.764,33.6185 448.292,33.5849 
  448.82,33.5513 449.348,33.518 449.876,33.4847 450.404,33.4516 450.932,33.4187 451.461,33.3858 451.989,33.3531 452.517,33.3206 453.045,33.2882 453.573,33.2559 
  454.101,33.2238 454.629,33.1918 455.157,33.1599 455.685,33.1281 456.213,33.0965 456.741,33.065 457.27,33.0337 457.798,33.0025 458.326,32.9714 458.854,32.9404 
  459.382,32.9096 459.91,32.8789 460.438,32.8484 460.966,32.8179 461.494,32.7876 462.022,32.7574 462.55,32.7274 463.079,32.6974 463.607,32.6676 464.135,32.638 
  464.663,32.6084 465.191,32.579 465.719,32.5497 466.247,32.5205 466.775,32.4914 467.303,32.4625 467.831,32.4336 468.359,32.4049 468.888,32.3764 469.416,32.3479 
  469.944,32.3196 470.472,32.2913 471,32.2632 471.528,32.2352 472.056,32.2074 472.584,32.1796 473.112,32.152 473.64,32.1245 474.169,32.0971 474.697,32.0698 
  475.225,32.0426 475.753,32.0155 476.281,31.9886 476.809,31.9617 477.337,31.935 477.865,31.9084 478.393,31.8819 478.921,31.8555 479.449,31.8292 479.978,31.8031 
  480.506,31.777 481.034,31.751 481.562,31.7252 482.09,31.6995 482.618,31.6738 483.146,31.6483 483.674,31.6229 484.202,31.5976 484.73,31.5724 485.258,31.5473 
  485.787,31.5223 486.315,31.4974 486.843,31.4726 487.371,31.4479 487.899,31.4233 488.427,31.3988 488.955,31.3744 489.483,31.3501 490.011,31.326 490.539,31.3019 
  491.067,31.2779 491.596,31.254 492.124,31.2302 492.652,31.2066 493.18,31.183 493.708,31.1595 494.236,31.1361 494.764,31.1128 495.292,31.0896 495.82,31.0665 
  496.348,31.0435 496.876,31.0206 497.405,30.9978 497.933,30.9751 498.461,30.9525 498.989,30.93 499.517,30.9075 500.045,30.8852 500.573,30.863 501.101,30.8408 
  501.629,30.8188 502.157,30.7968 502.685,30.7749 503.214,30.7532 503.742,30.7315 504.27,30.7099 504.798,30.6884 505.326,30.667 505.854,30.6456 506.382,30.6244 
  506.91,30.6032 507.438,30.5822 507.966,30.5612 508.494,30.5403 509.023,30.5195 509.551,30.4988 510.079,30.4782 510.607,30.4577 511.135,30.4372 511.663,30.4169 
  512.191,30.3966 512.719,30.3764 513.247,30.3563 513.775,30.3363 514.303,30.3163 514.832,30.2965 515.36,30.2767 515.888,30.257 516.416,30.2374 516.944,30.2179 
  517.472,30.1984 518,30.1791 518.528,30.1598 519.056,30.1406 519.584,30.1215 520.112,30.1025 520.641,30.0835 521.169,30.0646 521.697,30.0458 522.225,30.0271 
  522.753,30.0085 523.281,29.9899 523.809,29.9714 524.337,29.953 524.865,29.9347 525.393,29.9164 525.922,29.8983 526.45,29.8802 526.978,29.8621 527.506,29.8442 
  528.034,29.8263 528.562,29.8085 529.09,29.7908 529.618,29.7732 530.146,29.7556 530.674,29.7381 531.202,29.7207 531.731,29.7033 532.259,29.686 532.787,29.6688 
  533.315,29.6517 533.843,29.6346 534.371,29.6176 534.899,29.6007 535.427,29.5838 535.955,29.5671 536.483,29.5503 537.011,29.5337 537.54,29.5171 538.068,29.5006 
  538.596,29.4842 539.124,29.4678 539.652,29.4515 540.18,29.4353 540.708,29.4191 541.236,29.403 541.764,29.387 542.292,29.3711 542.82,29.3552 543.349,29.3393 
  543.877,29.3236 544.405,29.3079 544.933,29.2922 545.461,29.2767 545.989,29.2612 546.517,29.2457 547.045,29.2303 547.573,29.215 548.101,29.1998 548.629,29.1846 
  549.158,29.1695 549.686,29.1544 550.214,29.1394 550.742,29.1245 551.27,29.1096 551.798,29.0948 552.326,29.08 552.854,29.0653 553.382,29.0507 553.91,29.0361 
  554.438,29.0216 554.967,29.0072 555.495,28.9928 556.023,28.9784 556.551,28.9642 557.079,28.9499 557.607,28.9358 558.135,28.9217 558.663,28.9076 559.191,28.8936 
  559.719,28.8797 560.247,28.8658 560.776,28.852 561.304,28.8382 561.832,28.8245 562.36,28.8109 562.888,28.7973 563.416,28.7837 563.944,28.7703 564.472,28.7568 
  565,28.7434 565.528,28.7301 566.056,28.7168 566.585,28.7036 567.113,28.6905 567.641,28.6774 568.169,28.6643 568.697,28.6513 569.225,28.6383 569.753,28.6254 
  570.281,28.6126 570.809,28.5998 571.337,28.587 571.865,28.5743 572.394,28.5617 572.922,28.5491 573.45,28.5365 573.978,28.524 574.506,28.5115 575.034,28.4991 
  575.562,28.4868 576.09,28.4745 576.618,28.4622 577.146,28.45 577.675,28.4378 578.203,28.4257 578.731,28.4137 579.259,28.4016 579.787,28.3897 580.315,28.3777 
  
  "/>
<polyline clip-path="url(#clip3902)" style="stroke:#e26f46; stroke-width:3; stroke-opacity:1; fill:none" points="
  52.7512,330.638 53.2793,330.639 53.8074,330.642 54.3355,330.647 54.8636,330.653 55.3917,330.662 55.9198,330.672 56.4479,330.685 56.976,330.699 57.5041,330.715 
  58.0322,330.733 58.5603,330.753 59.0884,330.775 59.6164,330.798 60.1445,330.823 60.6726,330.85 61.2007,330.879 61.7288,330.909 62.2569,330.941 62.785,330.974 
  63.3131,331.009 63.8412,331.046 64.3693,331.084 64.8974,331.124 65.4255,331.165 65.9535,331.208 66.4816,331.252 67.0097,331.298 67.5378,331.345 68.0659,331.393 
  68.594,331.443 69.1221,331.494 69.6502,331.547 70.1783,331.6 70.7064,331.655 71.2345,331.711 71.7626,331.769 72.2906,331.827 72.8187,331.887 73.3468,331.947 
  73.8749,332.009 74.403,332.072 74.9311,332.136 75.4592,332.201 75.9873,332.267 76.5154,332.334 77.0435,332.401 77.5716,332.47 78.0997,332.539 78.6277,332.61 
  79.1558,332.681 79.6839,332.753 80.212,332.826 80.7401,332.899 81.2682,332.973 81.7963,333.048 82.3244,333.124 82.8525,333.2 83.3806,333.277 83.9087,333.355 
  84.4368,333.433 84.9648,333.511 85.4929,333.591 86.021,333.67 86.5491,333.75 87.0772,333.831 87.6053,333.912 88.1334,333.994 88.6615,334.076 89.1896,334.158 
  89.7177,334.241 90.2458,334.324 90.7739,334.407 91.302,334.491 91.83,334.575 92.3581,334.659 92.8862,334.744 93.4143,334.828 93.9424,334.913 94.4705,334.998 
  94.9986,335.084 95.5267,335.169 96.0548,335.255 96.5829,335.34 97.111,335.426 97.6391,335.512 98.1671,335.598 98.6952,335.684 99.2233,335.77 99.7514,335.857 
  100.28,335.943 100.808,336.029 101.336,336.115 101.864,336.201 102.392,336.287 102.92,336.373 103.448,336.459 103.976,336.545 104.504,336.631 105.032,336.717 
  105.56,336.802 106.089,336.888 106.617,336.973 107.145,337.058 107.673,337.143 108.201,337.228 108.729,337.313 109.257,337.397 109.785,337.482 110.313,337.566 
  110.841,337.65 111.369,337.733 111.898,337.817 112.426,337.9 112.954,337.983 113.482,338.066 114.01,338.148 114.538,338.23 115.066,338.312 115.594,338.394 
  116.122,338.475 116.65,338.556 117.178,338.637 117.707,338.717 118.235,338.797 118.763,338.877 119.291,338.956 119.819,339.035 120.347,339.114 120.875,339.192 
  121.403,339.27 121.931,339.348 122.459,339.425 122.987,339.502 123.516,339.579 124.044,339.655 124.572,339.731 125.1,339.806 125.628,339.882 126.156,339.956 
  126.684,340.031 127.212,340.105 127.74,340.178 128.268,340.251 128.796,340.324 129.325,340.396 129.853,340.468 130.381,340.54 130.909,340.611 131.437,340.682 
  131.965,340.752 132.493,340.822 133.021,340.892 133.549,340.961 134.077,341.029 134.605,341.098 135.134,341.165 135.662,341.233 136.19,341.3 136.718,341.366 
  137.246,341.433 137.774,341.498 138.302,341.564 138.83,341.629 139.358,341.693 139.886,341.757 140.414,341.821 140.943,341.884 141.471,341.947 141.999,342.009 
  142.527,342.071 143.055,342.133 143.583,342.194 144.111,342.255 144.639,342.315 145.167,342.375 145.695,342.434 146.223,342.493 146.752,342.552 147.28,342.61 
  147.808,342.668 148.336,342.726 148.864,342.783 149.392,342.839 149.92,342.895 150.448,342.951 150.976,343.007 151.504,343.062 152.033,343.116 152.561,343.17 
  153.089,343.224 153.617,343.278 154.145,343.331 154.673,343.383 155.201,343.435 155.729,343.487 156.257,343.539 156.785,343.59 157.313,343.641 157.842,343.691 
  158.37,343.741 158.898,343.79 159.426,343.839 159.954,343.888 160.482,343.937 161.01,343.985 161.538,344.032 162.066,344.08 162.594,344.127 163.122,344.173 
  163.651,344.219 164.179,344.265 164.707,344.311 165.235,344.356 165.763,344.401 166.291,344.445 166.819,344.489 167.347,344.533 167.875,344.576 168.403,344.619 
  168.931,344.662 169.46,344.704 169.988,344.746 170.516,344.788 171.044,344.829 171.572,344.87 172.1,344.911 172.628,344.952 173.156,344.992 173.684,345.031 
  174.212,345.071 174.74,345.11 175.269,345.149 175.797,345.187 176.325,345.225 176.853,345.263 177.381,345.301 177.909,345.338 178.437,345.375 178.965,345.411 
  179.493,345.448 180.021,345.484 180.549,345.519 181.078,345.555 181.606,345.59 182.134,345.625 182.662,345.66 183.19,345.694 183.718,345.728 184.246,345.762 
  184.774,345.795 185.302,345.828 185.83,345.861 186.358,345.894 186.887,345.926 187.415,345.958 187.943,345.99 188.471,346.022 188.999,346.053 189.527,346.084 
  190.055,346.115 190.583,346.146 191.111,346.176 191.639,346.206 192.167,346.236 192.696,346.265 193.224,346.295 193.752,346.324 194.28,346.353 194.808,346.381 
  195.336,346.41 195.864,346.438 196.392,346.466 196.92,346.494 197.448,346.521 197.976,346.548 198.505,346.575 199.033,346.602 199.561,346.629 200.089,346.655 
  200.617,346.681 201.145,346.707 201.673,346.733 202.201,346.758 202.729,346.784 203.257,346.809 203.786,346.834 204.314,346.858 204.842,346.883 205.37,346.907 
  205.898,346.931 206.426,346.955 206.954,346.979 207.482,347.002 208.01,347.025 208.538,347.048 209.066,347.071 209.595,347.094 210.123,347.117 210.651,347.139 
  211.179,347.161 211.707,347.183 212.235,347.205 212.763,347.227 213.291,347.248 213.819,347.269 214.347,347.29 214.875,347.311 215.404,347.332 215.932,347.353 
  216.46,347.373 216.988,347.393 217.516,347.413 218.044,347.433 218.572,347.453 219.1,347.473 219.628,347.492 220.156,347.511 220.684,347.531 221.213,347.55 
  221.741,347.568 222.269,347.587 222.797,347.606 223.325,347.624 223.853,347.642 224.381,347.66 224.909,347.678 225.437,347.696 225.965,347.714 226.493,347.731 
  227.022,347.748 227.55,347.766 228.078,347.783 228.606,347.8 229.134,347.816 229.662,347.833 230.19,347.85 230.718,347.866 231.246,347.882 231.774,347.898 
  232.302,347.914 232.831,347.93 233.359,347.946 233.887,347.962 234.415,347.977 234.943,347.993 235.471,348.008 235.999,348.023 236.527,348.038 237.055,348.053 
  237.583,348.068 238.111,348.082 238.64,348.097 239.168,348.111 239.696,348.126 240.224,348.14 240.752,348.154 241.28,348.168 241.808,348.182 242.336,348.196 
  242.864,348.209 243.392,348.223 243.92,348.236 244.449,348.25 244.977,348.263 245.505,348.276 246.033,348.289 246.561,348.302 247.089,348.315 247.617,348.328 
  248.145,348.34 248.673,348.353 249.201,348.365 249.729,348.378 250.258,348.39 250.786,348.402 251.314,348.414 251.842,348.426 252.37,348.438 252.898,348.45 
  253.426,348.462 253.954,348.473 254.482,348.485 255.01,348.496 255.539,348.507 256.067,348.519 256.595,348.53 257.123,348.541 257.651,348.552 258.179,348.563 
  258.707,348.574 259.235,348.585 259.763,348.595 260.291,348.606 260.819,348.616 261.348,348.627 261.876,348.637 262.404,348.647 262.932,348.658 263.46,348.668 
  263.988,348.678 264.516,348.688 265.044,348.698 265.572,348.708 266.1,348.717 266.628,348.727 267.157,348.737 267.685,348.746 268.213,348.756 268.741,348.765 
  269.269,348.774 269.797,348.784 270.325,348.793 270.853,348.802 271.381,348.811 271.909,348.82 272.437,348.829 272.966,348.838 273.494,348.847 274.022,348.856 
  274.55,348.864 275.078,348.873 275.606,348.881 276.134,348.89 276.662,348.898 277.19,348.907 277.718,348.915 278.246,348.923 278.775,348.931 279.303,348.94 
  279.831,348.948 280.359,348.956 280.887,348.964 281.415,348.971 281.943,348.979 282.471,348.987 282.999,348.995 283.527,349.003 284.055,349.01 284.584,349.018 
  285.112,349.025 285.64,349.033 286.168,349.04 286.696,349.047 287.224,349.055 287.752,349.062 288.28,349.069 288.808,349.076 289.336,349.083 289.864,349.091 
  290.393,349.098 290.921,349.104 291.449,349.111 291.977,349.118 292.505,349.125 293.033,349.132 293.561,349.139 294.089,349.145 294.617,349.152 295.145,349.158 
  295.673,349.165 296.202,349.171 296.73,349.178 297.258,349.184 297.786,349.191 298.314,349.197 298.842,349.203 299.37,349.209 299.898,349.216 300.426,349.222 
  300.954,349.228 301.482,349.234 302.011,349.24 302.539,349.246 303.067,349.252 303.595,349.258 304.123,349.264 304.651,349.269 305.179,349.275 305.707,349.281 
  306.235,349.287 306.763,349.292 307.291,349.298 307.82,349.303 308.348,349.309 308.876,349.314 309.404,349.32 309.932,349.325 310.46,349.331 310.988,349.336 
  311.516,349.342 312.044,349.347 312.572,349.352 313.101,349.357 313.629,349.363 314.157,349.368 314.685,349.373 315.213,349.378 315.741,349.383 316.269,349.388 
  316.797,349.393 317.325,349.398 317.853,349.403 318.381,349.408 318.91,349.413 319.438,349.417 319.966,349.422 320.494,349.427 321.022,349.432 321.55,349.437 
  322.078,349.441 322.606,349.446 323.134,349.451 323.662,349.455 324.19,349.46 324.719,349.464 325.247,349.469 325.775,349.473 326.303,349.478 326.831,349.482 
  327.359,349.487 327.887,349.491 328.415,349.495 328.943,349.5 329.471,349.504 329.999,349.508 330.528,349.512 331.056,349.517 331.584,349.521 332.112,349.525 
  332.64,349.529 333.168,349.533 333.696,349.537 334.224,349.541 334.752,349.545 335.28,349.549 335.808,349.553 336.337,349.557 336.865,349.561 337.393,349.565 
  337.921,349.569 338.449,349.573 338.977,349.577 339.505,349.58 340.033,349.584 340.561,349.588 341.089,349.592 341.617,349.595 342.146,349.599 342.674,349.603 
  343.202,349.607 343.73,349.61 344.258,349.614 344.786,349.617 345.314,349.621 345.842,349.624 346.37,349.628 346.898,349.632 347.426,349.635 347.955,349.638 
  348.483,349.642 349.011,349.645 349.539,349.649 350.067,349.652 350.595,349.655 351.123,349.659 351.651,349.662 352.179,349.665 352.707,349.669 353.235,349.672 
  353.764,349.675 354.292,349.678 354.82,349.682 355.348,349.685 355.876,349.688 356.404,349.691 356.932,349.694 357.46,349.697 357.988,349.701 358.516,349.704 
  359.044,349.707 359.573,349.71 360.101,349.713 360.629,349.716 361.157,349.719 361.685,349.722 362.213,349.725 362.741,349.728 363.269,349.731 363.797,349.733 
  364.325,349.736 364.854,349.739 365.382,349.742 365.91,349.745 366.438,349.748 366.966,349.751 367.494,349.753 368.022,349.756 368.55,349.759 369.078,349.762 
  369.606,349.764 370.134,349.767 370.663,349.77 371.191,349.773 371.719,349.775 372.247,349.778 372.775,349.781 373.303,349.783 373.831,349.786 374.359,349.788 
  374.887,349.791 375.415,349.794 375.943,349.796 376.472,349.799 377,349.801 377.528,349.804 378.056,349.806 378.584,349.809 379.112,349.811 379.64,349.814 
  380.168,349.816 380.696,349.819 381.224,349.821 381.752,349.823 382.281,349.826 382.809,349.828 383.337,349.831 383.865,349.833 384.393,349.835 384.921,349.838 
  385.449,349.84 385.977,349.842 386.505,349.845 387.033,349.847 387.561,349.849 388.09,349.851 388.618,349.854 389.146,349.856 389.674,349.858 390.202,349.86 
  390.73,349.863 391.258,349.865 391.786,349.867 392.314,349.869 392.842,349.871 393.37,349.873 393.899,349.876 394.427,349.878 394.955,349.88 395.483,349.882 
  396.011,349.884 396.539,349.886 397.067,349.888 397.595,349.89 398.123,349.892 398.651,349.894 399.179,349.896 399.708,349.898 400.236,349.9 400.764,349.902 
  401.292,349.904 401.82,349.906 402.348,349.908 402.876,349.91 403.404,349.912 403.932,349.914 404.46,349.916 404.988,349.918 405.517,349.92 406.045,349.922 
  406.573,349.924 407.101,349.926 407.629,349.928 408.157,349.929 408.685,349.931 409.213,349.933 409.741,349.935 410.269,349.937 410.797,349.939 411.326,349.941 
  411.854,349.942 412.382,349.944 412.91,349.946 413.438,349.948 413.966,349.949 414.494,349.951 415.022,349.953 415.55,349.955 416.078,349.956 416.607,349.958 
  417.135,349.96 417.663,349.962 418.191,349.963 418.719,349.965 419.247,349.967 419.775,349.968 420.303,349.97 420.831,349.972 421.359,349.973 421.887,349.975 
  422.416,349.977 422.944,349.978 423.472,349.98 424,349.982 424.528,349.983 425.056,349.985 425.584,349.986 426.112,349.988 426.64,349.99 427.168,349.991 
  427.696,349.993 428.225,349.994 428.753,349.996 429.281,349.997 429.809,349.999 430.337,350 430.865,350.002 431.393,350.003 431.921,350.005 432.449,350.007 
  432.977,350.008 433.505,350.009 434.034,350.011 434.562,350.012 435.09,350.014 435.618,350.015 436.146,350.017 436.674,350.018 437.202,350.02 437.73,350.021 
  438.258,350.023 438.786,350.024 439.314,350.025 439.843,350.027 440.371,350.028 440.899,350.03 441.427,350.031 441.955,350.032 442.483,350.034 443.011,350.035 
  443.539,350.037 444.067,350.038 444.595,350.039 445.123,350.041 445.652,350.042 446.18,350.043 446.708,350.045 447.236,350.046 447.764,350.047 448.292,350.049 
  448.82,350.05 449.348,350.051 449.876,350.053 450.404,350.054 450.932,350.055 451.461,350.056 451.989,350.058 452.517,350.059 453.045,350.06 453.573,350.062 
  454.101,350.063 454.629,350.064 455.157,350.065 455.685,350.067 456.213,350.068 456.741,350.069 457.27,350.07 457.798,350.071 458.326,350.073 458.854,350.074 
  459.382,350.075 459.91,350.076 460.438,350.077 460.966,350.079 461.494,350.08 462.022,350.081 462.55,350.082 463.079,350.083 463.607,350.085 464.135,350.086 
  464.663,350.087 465.191,350.088 465.719,350.089 466.247,350.09 466.775,350.091 467.303,350.093 467.831,350.094 468.359,350.095 468.888,350.096 469.416,350.097 
  469.944,350.098 470.472,350.099 471,350.1 471.528,350.102 472.056,350.103 472.584,350.104 473.112,350.105 473.64,350.106 474.169,350.107 474.697,350.108 
  475.225,350.109 475.753,350.11 476.281,350.111 476.809,350.112 477.337,350.113 477.865,350.114 478.393,350.115 478.921,350.116 479.449,350.118 479.978,350.119 
  480.506,350.12 481.034,350.121 481.562,350.122 482.09,350.123 482.618,350.124 483.146,350.125 483.674,350.126 484.202,350.127 484.73,350.128 485.258,350.129 
  485.787,350.13 486.315,350.131 486.843,350.132 487.371,350.133 487.899,350.134 488.427,350.135 488.955,350.136 489.483,350.137 490.011,350.137 490.539,350.138 
  491.067,350.139 491.596,350.14 492.124,350.141 492.652,350.142 493.18,350.143 493.708,350.144 494.236,350.145 494.764,350.146 495.292,350.147 495.82,350.148 
  496.348,350.149 496.876,350.15 497.405,350.151 497.933,350.152 498.461,350.152 498.989,350.153 499.517,350.154 500.045,350.155 500.573,350.156 501.101,350.157 
  501.629,350.158 502.157,350.159 502.685,350.16 503.214,350.16 503.742,350.161 504.27,350.162 504.798,350.163 505.326,350.164 505.854,350.165 506.382,350.166 
  506.91,350.167 507.438,350.167 507.966,350.168 508.494,350.169 509.023,350.17 509.551,350.171 510.079,350.172 510.607,350.172 511.135,350.173 511.663,350.174 
  512.191,350.175 512.719,350.176 513.247,350.177 513.775,350.177 514.303,350.178 514.832,350.179 515.36,350.18 515.888,350.181 516.416,350.182 516.944,350.182 
  517.472,350.183 518,350.184 518.528,350.185 519.056,350.186 519.584,350.186 520.112,350.187 520.641,350.188 521.169,350.189 521.697,350.189 522.225,350.19 
  522.753,350.191 523.281,350.192 523.809,350.193 524.337,350.193 524.865,350.194 525.393,350.195 525.922,350.196 526.45,350.196 526.978,350.197 527.506,350.198 
  528.034,350.199 528.562,350.199 529.09,350.2 529.618,350.201 530.146,350.202 530.674,350.202 531.202,350.203 531.731,350.204 532.259,350.205 532.787,350.205 
  533.315,350.206 533.843,350.207 534.371,350.207 534.899,350.208 535.427,350.209 535.955,350.21 536.483,350.21 537.011,350.211 537.54,350.212 538.068,350.212 
  538.596,350.213 539.124,350.214 539.652,350.215 540.18,350.215 540.708,350.216 541.236,350.217 541.764,350.217 542.292,350.218 542.82,350.219 543.349,350.219 
  543.877,350.22 544.405,350.221 544.933,350.221 545.461,350.222 545.989,350.223 546.517,350.223 547.045,350.224 547.573,350.225 548.101,350.225 548.629,350.226 
  549.158,350.227 549.686,350.227 550.214,350.228 550.742,350.229 551.27,350.229 551.798,350.23 552.326,350.231 552.854,350.231 553.382,350.232 553.91,350.233 
  554.438,350.233 554.967,350.234 555.495,350.235 556.023,350.235 556.551,350.236 557.079,350.237 557.607,350.237 558.135,350.238 558.663,350.238 559.191,350.239 
  559.719,350.24 560.247,350.24 560.776,350.241 561.304,350.242 561.832,350.242 562.36,350.243 562.888,350.243 563.416,350.244 563.944,350.245 564.472,350.245 
  565,350.246 565.528,350.246 566.056,350.247 566.585,350.248 567.113,350.248 567.641,350.249 568.169,350.249 568.697,350.25 569.225,350.251 569.753,350.251 
  570.281,350.252 570.809,350.252 571.337,350.253 571.865,350.254 572.394,350.254 572.922,350.255 573.45,350.255 573.978,350.256 574.506,350.257 575.034,350.257 
  575.562,350.258 576.09,350.258 576.618,350.259 577.146,350.259 577.675,350.26 578.203,350.261 578.731,350.261 579.259,350.262 579.787,350.262 580.315,350.263 
  
  "/>
<polygon clip-path="url(#clip3900)" points="
482.929,78.051 562.315,78.051 562.315,32.691 482.929,32.691 
  " fill="#ffffff" fill-opacity="1"/>
<polyline clip-path="url(#clip3900)" style="stroke:#000000; stroke-width:1; stroke-opacity:1; fill:none" points="
  482.929,78.051 562.315,78.051 562.315,32.691 482.929,32.691 482.929,78.051 
  "/>
<polyline clip-path="url(#clip3900)" style="stroke:#009af9; stroke-width:3; stroke-opacity:1; fill:none" points="
  488.929,47.811 524.929,47.811 
  "/>
<g clip-path="url(#clip3900)">
<text style="fill:#000000; fill-opacity:1; font-family:Arial,Helvetica Neue,Helvetica,sans-serif; font-size:12; text-anchor:start;" transform="rotate(0, 530.929, 52.311)" x="530.929" y="52.311">S(t)</text>
</g>
<polyline clip-path="url(#clip3900)" style="stroke:#e26f46; stroke-width:3; stroke-opacity:1; fill:none" points="
  488.929,62.931 524.929,62.931 
  "/>
<g clip-path="url(#clip3900)">
<text style="fill:#000000; fill-opacity:1; font-family:Arial,Helvetica Neue,Helvetica,sans-serif; font-size:12; text-anchor:start;" transform="rotate(0, 530.929, 67.431)" x="530.929" y="67.431">I(t)</text>
</g>
</svg>
