<?xml version="1.0" encoding="utf-8"?>
<svg xmlns="http://www.w3.org/2000/svg" xmlns:xlink="http://www.w3.org/1999/xlink" width="600" height="400" viewBox="0 0 600 400">
<defs>
  <clipPath id="clip4100">
    <rect x="0" y="0" width="600" height="400"/>
  </clipPath>
</defs>
<polygon clip-path="url(#clip4100)" points="
0,400 600,400 600,0 0,0 
  " fill="#ffffff" fill-opacity="1"/>
<defs>
  <clipPath id="clip4101">
    <rect x="120" y="0" width="421" height="400"/>
  </clipPath>
</defs>
<polygon clip-path="url(#clip4100)" points="
72.113,360.121 580.315,360.121 580.315,11.811 72.113,11.811 
  " fill="#ffffff" fill-opacity="1"/>
<defs>
  <clipPath id="clip4102">
    <rect x="72" y="11" width="509" height="349"/>
  </clipPath>
</defs>
<polyline clip-path="url(#clip4102)" style="stroke:#000000; stroke-width:0.5; stroke-opacity:0.1; fill:none" points="
  86.4961,360.121 86.4961,11.811 
  "/>
<polyline clip-path="url(#clip4102)" style="stroke:#000000; stroke-width:0.5; stroke-opacity:0.1; fill:none" points="
  166.402,360.121 166.402,11.811 
  "/>
<polyline clip-path="url(#clip4102)" style="stroke:#000000; stroke-width:0.5; stroke-opacity:0.1; fill:none" points="
  246.308,360.121 246.308,11.811 
  "/>
<polyline clip-path="url(#clip4102)" style="stroke:#000000; stroke-width:0.5; stroke-opacity:0.1; fill:none" points="
  326.214,360.121 326.214,11.811 
  "/>
<polyline clip-path="url(#clip4102)" style="stroke:#000000; stroke-width:0.5; stroke-opacity:0.1; fill:none" points="
  406.12,360.121 406.12,11.811 
  "/>
<polyline clip-path="url(#clip4102)" style="stroke:#000000; stroke-width:0.5; stroke-opacity:0.1; fill:none" points="
  486.026,360.121 486.026,11.811 
  "/>
<polyline clip-path="url(#clip4102)" style="stroke:#000000; stroke-width:0.5; stroke-opacity:0.1; fill:none" points="
  565.932,360.121 565.932,11.811 
  "/>
<polyline clip-path="url(#clip4102)" style="stroke:#000000; stroke-width:0.5; stroke-opacity:0.1; fill:none" points="
  72.113,329.087 580.315,329.087 
  "/>
<polyline clip-path="url(#clip4102)" style="stroke:#000000; stroke-width:0.5; stroke-opacity:0.1; fill:none" points="
  72.113,236.345 580.315,236.345 
  "/>
<polyline clip-path="url(#clip4102)" style="stroke:#000000; stroke-width:0.5; stroke-opacity:0.1; fill:none" points="
  72.113,143.602 580.315,143.602 
  "/>
<polyline clip-path="url(#clip4102)" style="stroke:#000000; stroke-width:0.5; stroke-opacity:0.1; fill:none" points="
  72.113,50.8601 580.315,50.8601 
  "/>
<polyline clip-path="url(#clip4100)" style="stroke:#000000; stroke-width:1; stroke-opacity:1; fill:none" points="
  72.113,360.121 580.315,360.121 
  "/>
<polyline clip-path="url(#clip4100)" style="stroke:#000000; stroke-width:1; stroke-opacity:1; fill:none" points="
  72.113,360.121 72.113,11.811 
  "/>
<polyline clip-path="url(#clip4100)" style="stroke:#000000; stroke-width:1; stroke-opacity:1; fill:none" points="
  86.4961,360.121 86.4961,354.896 
  "/>
<polyline clip-path="url(#clip4100)" style="stroke:#000000; stroke-width:1; stroke-opacity:1; fill:none" points="
  166.402,360.121 166.402,354.896 
  "/>
<polyline clip-path="url(#clip4100)" style="stroke:#000000; stroke-width:1; stroke-opacity:1; fill:none" points="
  246.308,360.121 246.308,354.896 
  "/>
<polyline clip-path="url(#clip4100)" style="stroke:#000000; stroke-width:1; stroke-opacity:1; fill:none" points="
  326.214,360.121 326.214,354.896 
  "/>
<polyline clip-path="url(#clip4100)" style="stroke:#000000; stroke-width:1; stroke-opacity:1; fill:none" points="
  406.12,360.121 406.12,354.896 
  "/>
<polyline clip-path="url(#clip4100)" style="stroke:#000000; stroke-width:1; stroke-opacity:1; fill:none" points="
  486.026,360.121 486.026,354.896 
  "/>
<polyline clip-path="url(#clip4100)" style="stroke:#000000; stroke-width:1; stroke-opacity:1; fill:none" points="
  565.932,360.121 565.932,354.896 
  "/>
<polyline clip-path="url(#clip4100)" style="stroke:#000000; stroke-width:1; stroke-opacity:1; fill:none" points="
  72.113,329.087 79.7361,329.087 
  "/>
<polyline clip-path="url(#clip4100)" style="stroke:#000000; stroke-width:1; stroke-opacity:1; fill:none" points="
  72.113,236.345 79.7361,236.345 
  "/>
<polyline clip-path="url(#clip4100)" style="stroke:#000000; stroke-width:1; stroke-opacity:1; fill:none" points="
  72.113,143.602 79.7361,143.602 
  "/>
<polyline clip-path="url(#clip4100)" style="stroke:#000000; stroke-width:1; stroke-opacity:1; fill:none" points="
  72.113,50.8601 79.7361,50.8601 
  "/>
<g clip-path="url(#clip4100)">
<text style="fill:#000000; fill-opacity:1; font-family:Arial,Helvetica Neue,Helvetica,sans-serif; font-size:12; text-anchor:start;" transform="rotate(0, 72.8735, 378.872)" x="72.8735" y="378.872">10</text>
</g>
<g clip-path="url(#clip4100)">
<text style="fill:#000000; fill-opacity:1; font-family:Arial,Helvetica Neue,Helvetica,sans-serif; font-size:10; text-anchor:start;" transform="rotate(0, 86.2547, 372.02)" x="86.2547" y="372.02">-</text>
</g>
<g clip-path="url(#clip4100)">
<text style="fill:#000000; fill-opacity:1; font-family:Arial,Helvetica Neue,Helvetica,sans-serif; font-size:10; text-anchor:start;" transform="rotate(0, 91.9645, 372.02)" x="91.9645" y="372.02">3 </text>
</g>
<g clip-path="url(#clip4100)">
<text style="fill:#000000; fill-opacity:1; font-family:Arial,Helvetica Neue,Helvetica,sans-serif; font-size:12; text-anchor:start;" transform="rotate(0, 152.779, 378.872)" x="152.779" y="378.872">10</text>
</g>
<g clip-path="url(#clip4100)">
<text style="fill:#000000; fill-opacity:1; font-family:Arial,Helvetica Neue,Helvetica,sans-serif; font-size:10; text-anchor:start;" transform="rotate(0, 166.161, 372.02)" x="166.161" y="372.02">-</text>
</g>
<g clip-path="url(#clip4100)">
<text style="fill:#000000; fill-opacity:1; font-family:Arial,Helvetica Neue,Helvetica,sans-serif; font-size:10; text-anchor:start;" transform="rotate(0, 171.871, 372.02)" x="171.871" y="372.02">2 </text>
</g>
<g clip-path="url(#clip4100)">
<text style="fill:#000000; fill-opacity:1; font-family:Arial,Helvetica Neue,Helvetica,sans-serif; font-size:12; text-anchor:start;" transform="rotate(0, 232.685, 378.872)" x="232.685" y="378.872">10</text>
</g>
<g clip-path="url(#clip4100)">
<text style="fill:#000000; fill-opacity:1; font-family:Arial,Helvetica Neue,Helvetica,sans-serif; font-size:10; text-anchor:start;" transform="rotate(0, 246.067, 372.02)" x="246.067" y="372.02">-</text>
</g>
<g clip-path="url(#clip4100)">
<text style="fill:#000000; fill-opacity:1; font-family:Arial,Helvetica Neue,Helvetica,sans-serif; font-size:10; text-anchor:start;" transform="rotate(0, 251.776, 372.02)" x="251.776" y="372.02">1 </text>
</g>
<g clip-path="url(#clip4100)">
<text style="fill:#000000; fill-opacity:1; font-family:Arial,Helvetica Neue,Helvetica,sans-serif; font-size:12; text-anchor:start;" transform="rotate(0, 315.446, 378.872)" x="315.446" y="378.872">10</text>
</g>
<g clip-path="url(#clip4100)">
<text style="fill:#000000; fill-opacity:1; font-family:Arial,Helvetica Neue,Helvetica,sans-serif; font-size:10; text-anchor:start;" transform="rotate(0, 328.828, 372.02)" x="328.828" y="372.02">0 </text>
</g>
<g clip-path="url(#clip4100)">
<text style="fill:#000000; fill-opacity:1; font-family:Arial,Helvetica Neue,Helvetica,sans-serif; font-size:12; text-anchor:start;" transform="rotate(0, 395.352, 378.872)" x="395.352" y="378.872">10</text>
</g>
<g clip-path="url(#clip4100)">
<text style="fill:#000000; fill-opacity:1; font-family:Arial,Helvetica Neue,Helvetica,sans-serif; font-size:10; text-anchor:start;" transform="rotate(0, 408.733, 372.02)" x="408.733" y="372.02">1 </text>
</g>
<g clip-path="url(#clip4100)">
<text style="fill:#000000; fill-opacity:1; font-family:Arial,Helvetica Neue,Helvetica,sans-serif; font-size:12; text-anchor:start;" transform="rotate(0, 475.258, 378.872)" x="475.258" y="378.872">10</text>
</g>
<g clip-path="url(#clip4100)">
<text style="fill:#000000; fill-opacity:1; font-family:Arial,Helvetica Neue,Helvetica,sans-serif; font-size:10; text-anchor:start;" transform="rotate(0, 488.639, 372.02)" x="488.639" y="372.02">2 </text>
</g>
<g clip-path="url(#clip4100)">
<text style="fill:#000000; fill-opacity:1; font-family:Arial,Helvetica Neue,Helvetica,sans-serif; font-size:12; text-anchor:start;" transform="rotate(0, 555.164, 378.872)" x="555.164" y="378.872">10</text>
</g>
<g clip-path="url(#clip4100)">
<text style="fill:#000000; fill-opacity:1; font-family:Arial,Helvetica Neue,Helvetica,sans-serif; font-size:10; text-anchor:start;" transform="rotate(0, 568.545, 372.02)" x="568.545" y="372.02">3 </text>
</g>
<g clip-path="url(#clip4100)">
<text style="fill:#000000; fill-opacity:1; font-family:Arial,Helvetica Neue,Helvetica,sans-serif; font-size:12; text-anchor:start;" transform="rotate(0, 38.8679, 335.019)" x="38.8679" y="335.019">10</text>
</g>
<g clip-path="url(#clip4100)">
<text style="fill:#000000; fill-opacity:1; font-family:Arial,Helvetica Neue,Helvetica,sans-serif; font-size:10; text-anchor:start;" transform="rotate(0, 52.249, 328.166)" x="52.249" y="328.166">-</text>
</g>
<g clip-path="url(#clip4100)">
<text style="fill:#000000; fill-opacity:1; font-family:Arial,Helvetica Neue,Helvetica,sans-serif; font-size:10; text-anchor:start;" transform="rotate(0, 57.9589, 328.166)" x="57.9589" y="328.166">2 </text>
</g>
<g clip-path="url(#clip4100)">
<text style="fill:#000000; fill-opacity:1; font-family:Arial,Helvetica Neue,Helvetica,sans-serif; font-size:12; text-anchor:start;" transform="rotate(0, 38.8679, 242.276)" x="38.8679" y="242.276">10</text>
</g>
<g clip-path="url(#clip4100)">
<text style="fill:#000000; fill-opacity:1; font-family:Arial,Helvetica Neue,Helvetica,sans-serif; font-size:10; text-anchor:start;" transform="rotate(0, 52.249, 235.424)" x="52.249" y="235.424">-</text>
</g>
<g clip-path="url(#clip4100)">
<text style="fill:#000000; fill-opacity:1; font-family:Arial,Helvetica Neue,Helvetica,sans-serif; font-size:10; text-anchor:start;" transform="rotate(0, 57.9589, 235.424)" x="57.9589" y="235.424">1 </text>
</g>
<g clip-path="url(#clip4100)">
<text style="fill:#000000; fill-opacity:1; font-family:Arial,Helvetica Neue,Helvetica,sans-serif; font-size:12; text-anchor:start;" transform="rotate(0, 44.5777, 149.534)" x="44.5777" y="149.534">10</text>
</g>
<g clip-path="url(#clip4100)">
<text style="fill:#000000; fill-opacity:1; font-family:Arial,Helvetica Neue,Helvetica,sans-serif; font-size:10; text-anchor:start;" transform="rotate(0, 57.9589, 142.682)" x="57.9589" y="142.682">0 </text>
</g>
<g clip-path="url(#clip4100)">
<text style="fill:#000000; fill-opacity:1; font-family:Arial,Helvetica Neue,Helvetica,sans-serif; font-size:12; text-anchor:start;" transform="rotate(0, 44.5777, 56.792)" x="44.5777" y="56.792">10</text>
</g>
<g clip-path="url(#clip4100)">
<text style="fill:#000000; fill-opacity:1; font-family:Arial,Helvetica Neue,Helvetica,sans-serif; font-size:10; text-anchor:start;" transform="rotate(0, 57.9589, 49.9394)" x="57.9589" y="49.9394">1 </text>
</g>
<g clip-path="url(#clip4100)">
<text style="fill:#000000; fill-opacity:1; font-family:Arial,Helvetica Neue,Helvetica,sans-serif; font-size:16; text-anchor:middle;" transform="rotate(0, 326.214, 397.6)" x="326.214" y="397.6">Weight</text>
</g>
<g clip-path="url(#clip4100)">
<text style="fill:#000000; fill-opacity:1; font-family:Symbol; font-size:18; text-anchor:start;" transform="rotate(-90, 14.7312, 201.684)" x="14.7312" y="201.684">β</text>
</g>
<g clip-path="url(#clip4100)">
<text style="fill:#000000; fill-opacity:1; font-family:Arial,Helvetica Neue,Helvetica,sans-serif; font-size:14; text-anchor:start;" transform="rotate(-90, 19.4164, 191.906)" x="19.4164" y="191.906">min</text>
</g>
<polyline clip-path="url(#clip4102)" style="stroke:#009af9; stroke-width:3; stroke-opacity:1; fill:none" points="
  86.4961,350.263 87.2952,349.855 88.0942,349.447 88.8933,349.039 89.6923,348.631 90.4914,348.223 91.2905,347.814 92.0895,347.406 92.8886,346.998 93.6876,346.59 
  94.4867,346.182 95.2858,345.774 96.0848,345.366 96.8839,344.958 97.6829,344.55 98.482,344.142 99.2811,343.734 100.08,343.326 100.879,342.918 101.678,342.51 
  102.477,342.102 103.276,341.693 104.075,341.285 104.874,340.877 105.674,340.469 106.473,340.061 107.272,339.653 108.071,339.245 108.87,338.837 109.669,338.429 
  110.468,338.021 111.267,337.613 112.066,337.205 112.865,336.797 113.664,336.389 114.463,335.981 115.262,335.572 116.061,335.164 116.86,334.756 117.659,334.348 
  118.458,333.94 119.258,333.532 120.057,333.124 120.856,332.716 121.655,332.308 122.454,331.9 123.253,331.492 124.052,331.084 124.851,330.676 125.65,330.268 
  126.449,329.86 127.248,329.451 128.047,329.043 128.846,328.635 129.645,328.227 130.444,327.819 131.243,327.411 132.043,327.003 132.842,326.595 133.641,326.187 
  134.44,325.779 135.239,325.371 136.038,324.963 136.837,324.555 137.636,324.147 138.435,323.739 139.234,323.33 140.033,322.922 140.832,322.514 141.631,322.106 
  142.43,321.698 143.229,321.29 144.028,320.882 144.827,320.474 145.627,320.066 146.426,319.658 147.225,319.25 148.024,318.842 148.823,318.434 149.622,318.026 
  150.421,317.618 151.22,317.21 152.019,316.801 152.818,316.393 153.617,315.985 154.416,315.577 155.215,315.169 156.014,314.761 156.813,314.353 157.612,313.945 
  158.411,313.537 159.211,313.129 160.01,312.721 160.809,312.313 161.608,311.905 162.407,311.497 163.206,311.089 164.005,310.68 164.804,310.272 165.603,309.864 
  166.402,309.456 167.201,309.048 168,308.64 168.799,308.232 169.598,307.824 170.397,307.416 171.196,307.008 171.995,306.6 172.795,306.192 173.594,305.784 
  174.393,305.376 175.192,304.968 175.991,304.559 176.79,304.151 177.589,303.743 178.388,303.335 179.187,302.927 179.986,302.519 180.785,302.111 181.584,301.703 
  182.383,301.295 183.182,300.887 183.981,300.479 184.78,300.071 185.579,299.663 186.379,299.255 187.178,298.847 187.977,298.438 188.776,298.03 189.575,297.622 
  190.374,297.214 191.173,296.806 191.972,296.398 192.771,295.99 193.57,295.582 194.369,295.174 195.168,294.766 195.967,294.358 196.766,293.95 197.565,293.542 
  198.364,293.134 199.164,292.726 199.963,292.317 200.762,291.909 201.561,291.501 202.36,291.093 203.159,290.685 203.958,290.277 204.757,289.869 205.556,289.461 
  206.355,289.053 207.154,288.645 207.953,288.237 208.752,287.829 209.551,287.421 210.35,287.013 211.149,286.605 211.948,286.197 212.748,285.788 213.547,285.38 
  214.346,284.972 215.145,284.564 215.944,284.156 216.743,283.748 217.542,283.34 218.341,282.932 219.14,282.524 219.939,282.116 220.738,281.708 221.537,281.3 
  222.336,280.892 223.135,280.484 223.934,280.076 224.733,279.667 225.532,279.259 226.332,278.851 227.131,278.443 227.93,278.035 228.729,277.627 229.528,277.219 
  230.327,276.811 231.126,276.403 231.925,275.995 232.724,275.587 233.523,275.179 234.322,274.771 235.121,274.363 235.92,273.955 236.719,273.546 237.518,273.138 
  238.317,272.73 239.116,272.322 239.916,271.914 240.715,271.506 241.514,271.098 242.313,270.69 243.112,270.282 243.911,269.874 244.71,269.466 245.509,269.058 
  246.308,268.65 247.107,268.242 247.906,267.834 248.705,267.425 249.504,267.017 250.303,266.609 251.102,266.201 251.901,265.793 252.701,265.385 253.5,264.977 
  254.299,264.569 255.098,264.161 255.897,263.753 256.696,263.345 257.495,262.937 258.294,262.529 259.093,262.121 259.892,261.713 260.691,261.305 261.49,260.896 
  262.289,260.488 263.088,260.08 263.887,259.672 264.686,259.264 265.485,258.856 266.285,258.448 267.084,258.04 267.883,257.632 268.682,257.224 269.481,256.816 
  270.28,256.408 271.079,256 271.878,255.592 272.677,255.184 273.476,254.775 274.275,254.367 275.074,253.959 275.873,253.551 276.672,253.143 277.471,252.735 
  278.27,252.327 279.069,251.919 279.869,251.511 280.668,251.103 281.467,250.695 282.266,250.287 283.065,249.879 283.864,249.471 284.663,249.063 285.462,248.654 
  286.261,248.246 287.06,247.838 287.859,247.43 288.658,247.022 289.457,246.614 290.256,246.206 291.055,245.798 291.854,245.39 292.653,244.982 293.453,244.574 
  294.252,244.166 295.051,243.758 295.85,243.35 296.649,242.942 297.448,242.533 298.247,242.125 299.046,241.717 299.845,241.309 300.644,240.901 301.443,240.493 
  302.242,240.085 303.041,239.677 303.84,239.269 304.639,238.861 305.438,238.453 306.238,238.045 307.037,237.637 307.836,237.229 308.635,236.821 309.434,236.412 
  310.233,236.004 311.032,235.596 311.831,235.188 312.63,234.78 313.429,234.372 314.228,233.964 315.027,233.556 315.826,233.148 316.625,232.74 317.424,232.332 
  318.223,231.924 319.022,231.516 319.822,231.108 320.621,230.7 321.42,230.292 322.219,229.883 323.018,229.475 323.817,229.067 324.616,228.659 325.415,228.251 
  326.214,227.843 327.013,227.435 327.812,227.027 328.611,226.619 329.41,226.211 330.209,225.803 331.008,225.395 331.807,224.987 332.606,224.579 333.406,224.171 
  334.205,223.762 335.004,223.354 335.803,222.946 336.602,222.538 337.401,222.13 338.2,221.722 338.999,221.314 339.798,220.906 340.597,220.498 341.396,220.09 
  342.195,219.682 342.994,219.274 343.793,218.866 344.592,218.458 345.391,218.05 346.19,217.641 346.99,217.233 347.789,216.825 348.588,216.417 349.387,216.009 
  350.186,215.601 350.985,215.193 351.784,214.785 352.583,214.377 353.382,213.969 354.181,213.561 354.98,213.153 355.779,212.745 356.578,212.337 357.377,211.929 
  358.176,211.52 358.975,211.112 359.775,210.704 360.574,210.296 361.373,209.888 362.172,209.48 362.971,209.072 363.77,208.664 364.569,208.256 365.368,207.848 
  366.167,207.44 366.966,207.032 367.765,206.624 368.564,206.216 369.363,205.808 370.162,205.4 370.961,204.991 371.76,204.583 372.559,204.175 373.359,203.767 
  374.158,203.359 374.957,202.951 375.756,202.543 376.555,202.135 377.354,201.727 378.153,201.319 378.952,200.911 379.751,200.503 380.55,200.095 381.349,199.687 
  382.148,199.279 382.947,198.87 383.746,198.462 384.545,198.054 385.344,197.646 386.143,197.238 386.943,196.83 387.742,196.422 388.541,196.014 389.34,195.606 
  390.139,195.198 390.938,194.79 391.737,194.382 392.536,193.974 393.335,193.566 394.134,193.158 394.933,192.749 395.732,192.341 396.531,191.933 397.33,191.525 
  398.129,191.117 398.928,190.709 399.727,190.301 400.527,189.893 401.326,189.485 402.125,189.077 402.924,188.669 403.723,188.261 404.522,187.853 405.321,187.445 
  406.12,187.037 406.919,186.628 407.718,186.22 408.517,185.812 409.316,185.404 410.115,184.996 410.914,184.588 411.713,184.18 412.512,183.772 413.311,183.364 
  414.111,182.956 414.91,182.548 415.709,182.14 416.508,181.732 417.307,181.324 418.106,180.916 418.905,180.507 419.704,180.099 420.503,179.691 421.302,179.283 
  422.101,178.875 422.9,178.467 423.699,178.059 424.498,177.651 425.297,177.243 426.096,176.835 426.896,176.427 427.695,176.019 428.494,175.611 429.293,175.203 
  430.092,174.795 430.891,174.387 431.69,173.978 432.489,173.57 433.288,173.162 434.087,172.754 434.886,172.346 435.685,171.938 436.484,171.53 437.283,171.122 
  438.082,170.714 438.881,170.306 439.68,169.898 440.48,169.49 441.279,169.082 442.078,168.674 442.877,168.266 443.676,167.857 444.475,167.449 445.274,167.041 
  446.073,166.633 446.872,166.225 447.671,165.817 448.47,165.409 449.269,165.001 450.068,164.593 450.867,164.185 451.666,163.777 452.465,163.369 453.264,162.961 
  454.064,162.553 454.863,162.145 455.662,161.736 456.461,161.328 457.26,160.92 458.059,160.512 458.858,160.104 459.657,159.696 460.456,159.288 461.255,158.88 
  462.054,158.472 462.853,158.064 463.652,157.656 464.451,157.248 465.25,156.84 466.049,156.432 466.848,156.024 467.648,155.615 468.447,155.207 469.246,154.799 
  470.045,154.391 470.844,153.983 471.643,153.575 472.442,153.167 473.241,152.759 474.04,152.351 474.839,151.943 475.638,151.535 476.437,151.127 477.236,150.719 
  478.035,150.311 478.834,149.903 479.633,149.494 480.433,149.086 481.232,148.678 482.031,148.27 482.83,147.862 483.629,147.454 484.428,147.046 485.227,146.638 
  486.026,146.23 486.825,145.822 487.624,145.414 488.423,145.006 489.222,144.598 490.021,144.19 490.82,143.782 491.619,143.374 492.418,142.965 493.217,142.557 
  494.017,142.149 494.816,141.741 495.615,141.333 496.414,140.925 497.213,140.517 498.012,140.109 498.811,139.701 499.61,139.293 500.409,138.885 501.208,138.477 
  502.007,138.069 502.806,137.661 503.605,137.253 504.404,136.844 505.203,136.436 506.002,136.028 506.801,135.62 507.601,135.212 508.4,134.804 509.199,134.396 
  509.998,133.988 510.797,133.58 511.596,133.172 512.395,132.764 513.194,132.356 513.993,131.948 514.792,131.54 515.591,131.132 516.39,130.723 517.189,130.315 
  517.988,129.907 518.787,129.499 519.586,129.091 520.385,128.683 521.185,128.275 521.984,127.867 522.783,127.459 523.582,127.051 524.381,126.643 525.18,126.235 
  525.979,125.827 526.778,125.419 527.577,125.011 528.376,124.602 529.175,124.194 529.974,123.786 530.773,123.378 531.572,122.97 532.371,122.562 533.17,122.154 
  533.97,121.746 534.769,121.338 535.568,120.93 536.367,120.522 537.166,120.114 537.965,119.706 538.764,119.298 539.563,118.89 540.362,118.482 541.161,118.073 
  541.96,117.665 542.759,117.257 543.558,116.849 544.357,116.441 545.156,116.033 545.955,115.625 546.754,115.217 547.554,114.809 548.353,114.401 549.152,113.993 
  549.951,113.585 550.75,113.177 551.549,112.769 552.348,112.361 553.147,111.952 553.946,111.544 554.745,111.136 555.544,110.728 556.343,110.32 557.142,109.912 
  557.941,109.504 558.74,109.096 559.539,108.688 560.338,108.28 561.138,107.872 561.937,107.464 562.736,107.056 563.535,106.648 564.334,106.24 565.133,105.831 
  565.932,105.423 
  "/>
<polyline clip-path="url(#clip4102)" style="stroke:#e26f46; stroke-width:3; stroke-opacity:1; fill:none" points="
  86.4961,322.345 87.2952,321.937 88.0942,321.529 88.8933,321.12 89.6923,320.712 90.4914,320.304 91.2905,319.896 92.0895,319.488 92.8886,319.08 93.6876,318.672 
  94.4867,318.264 95.2858,317.856 96.0848,317.448 96.8839,317.04 97.6829,316.632 98.482,316.224 99.2811,315.816 100.08,315.408 100.879,314.999 101.678,314.591 
  102.477,314.183 103.276,313.775 104.075,313.367 104.874,312.959 105.674,312.551 106.473,312.143 107.272,311.735 108.071,311.327 108.87,310.919 109.669,310.511 
  110.468,310.103 111.267,309.695 112.066,309.287 112.865,308.878 113.664,308.47 114.463,308.062 115.262,307.654 116.061,307.246 116.86,306.838 117.659,306.43 
  118.458,306.022 119.258,305.614 120.057,305.206 120.856,304.798 121.655,304.39 122.454,303.982 123.253,303.574 124.052,303.166 124.851,302.757 125.65,302.349 
  126.449,301.941 127.248,301.533 128.047,301.125 128.846,300.717 129.645,300.309 130.444,299.901 131.243,299.493 132.043,299.085 132.842,298.677 133.641,298.269 
  134.44,297.861 135.239,297.453 136.038,297.045 136.837,296.637 137.636,296.228 138.435,295.82 139.234,295.412 140.033,295.004 140.832,294.596 141.631,294.188 
  142.43,293.78 143.229,293.372 144.028,292.964 144.827,292.556 145.627,292.148 146.426,291.74 147.225,291.332 148.024,290.924 148.823,290.516 149.622,290.107 
  150.421,289.699 151.22,289.291 152.019,288.883 152.818,288.475 153.617,288.067 154.416,287.659 155.215,287.251 156.014,286.843 156.813,286.435 157.612,286.027 
  158.411,285.619 159.211,285.211 160.01,284.803 160.809,284.395 161.608,283.986 162.407,283.578 163.206,283.17 164.005,282.762 164.804,282.354 165.603,281.946 
  166.402,281.538 167.201,281.13 168,280.722 168.799,280.314 169.598,279.906 170.397,279.498 171.196,279.09 171.995,278.682 172.795,278.274 173.594,277.865 
  174.393,277.457 175.192,277.049 175.991,276.641 176.79,276.233 177.589,275.825 178.388,275.417 179.187,275.009 179.986,274.601 180.785,274.193 181.584,273.785 
  182.383,273.377 183.182,272.969 183.981,272.561 184.78,272.153 185.579,271.744 186.379,271.336 187.178,270.928 187.977,270.52 188.776,270.112 189.575,269.704 
  190.374,269.296 191.173,268.888 191.972,268.48 192.771,268.072 193.57,267.664 194.369,267.256 195.168,266.848 195.967,266.44 196.766,266.032 197.565,265.624 
  198.364,265.215 199.164,264.807 199.963,264.399 200.762,263.991 201.561,263.583 202.36,263.175 203.159,262.767 203.958,262.359 204.757,261.951 205.556,261.543 
  206.355,261.135 207.154,260.727 207.953,260.319 208.752,259.911 209.551,259.503 210.35,259.094 211.149,258.686 211.948,258.278 212.748,257.87 213.547,257.462 
  214.346,257.054 215.145,256.646 215.944,256.238 216.743,255.83 217.542,255.422 218.341,255.014 219.14,254.606 219.939,254.198 220.738,253.79 221.537,253.382 
  222.336,252.973 223.135,252.565 223.934,252.157 224.733,251.749 225.532,251.341 226.332,250.933 227.131,250.525 227.93,250.117 228.729,249.709 229.528,249.301 
  230.327,248.893 231.126,248.485 231.925,248.077 232.724,247.669 233.523,247.261 234.322,246.852 235.121,246.444 235.92,246.036 236.719,245.628 237.518,245.22 
  238.317,244.812 239.116,244.404 239.916,243.996 240.715,243.588 241.514,243.18 242.313,242.772 243.112,242.364 243.911,241.956 244.71,241.548 245.509,241.14 
  246.308,240.732 247.107,240.323 247.906,239.915 248.705,239.507 249.504,239.099 250.303,238.691 251.102,238.283 251.901,237.875 252.701,237.467 253.5,237.059 
  254.299,236.651 255.098,236.243 255.897,235.835 256.696,235.427 257.495,235.019 258.294,234.611 259.093,234.202 259.892,233.794 260.691,233.386 261.49,232.978 
  262.289,232.57 263.088,232.162 263.887,231.754 264.686,231.346 265.485,230.938 266.285,230.53 267.084,230.122 267.883,229.714 268.682,229.306 269.481,228.898 
  270.28,228.49 271.079,228.081 271.878,227.673 272.677,227.265 273.476,226.857 274.275,226.449 275.074,226.041 275.873,225.633 276.672,225.225 277.471,224.817 
  278.27,224.409 279.069,224.001 279.869,223.593 280.668,223.185 281.467,222.777 282.266,222.369 283.065,221.96 283.864,221.552 284.663,221.144 285.462,220.736 
  286.261,220.328 287.06,219.92 287.859,219.512 288.658,219.104 289.457,218.696 290.256,218.288 291.055,217.88 291.854,217.472 292.653,217.064 293.453,216.656 
  294.252,216.248 295.051,215.839 295.85,215.431 296.649,215.023 297.448,214.615 298.247,214.207 299.046,213.799 299.845,213.391 300.644,212.983 301.443,212.575 
  302.242,212.167 303.041,211.759 303.84,211.351 304.639,210.943 305.438,210.535 306.238,210.127 307.037,209.719 307.836,209.31 308.635,208.902 309.434,208.494 
  310.233,208.086 311.032,207.678 311.831,207.27 312.63,206.862 313.429,206.454 314.228,206.046 315.027,205.638 315.826,205.23 316.625,204.822 317.424,204.414 
  318.223,204.006 319.022,203.598 319.822,203.189 320.621,202.781 321.42,202.373 322.219,201.965 323.018,201.557 323.817,201.149 324.616,200.741 325.415,200.333 
  326.214,199.925 327.013,199.517 327.812,199.109 328.611,198.701 329.41,198.293 330.209,197.885 331.008,197.477 331.807,197.068 332.606,196.66 333.406,196.252 
  334.205,195.844 335.004,195.436 335.803,195.028 336.602,194.62 337.401,194.212 338.2,193.804 338.999,193.396 339.798,192.988 340.597,192.58 341.396,192.172 
  342.195,191.764 342.994,191.356 343.793,190.947 344.592,190.539 345.391,190.131 346.19,189.723 346.99,189.315 347.789,188.907 348.588,188.499 349.387,188.091 
  350.186,187.683 350.985,187.275 351.784,186.867 352.583,186.459 353.382,186.051 354.181,185.643 354.98,185.235 355.779,184.826 356.578,184.418 357.377,184.01 
  358.176,183.602 358.975,183.194 359.775,182.786 360.574,182.378 361.373,181.97 362.172,181.562 362.971,181.154 363.77,180.746 364.569,180.338 365.368,179.93 
  366.167,179.522 366.966,179.114 367.765,178.706 368.564,178.297 369.363,177.889 370.162,177.481 370.961,177.073 371.76,176.665 372.559,176.257 373.359,175.849 
  374.158,175.441 374.957,175.033 375.756,174.625 376.555,174.217 377.354,173.809 378.153,173.401 378.952,172.993 379.751,172.585 380.55,172.176 381.349,171.768 
  382.148,171.36 382.947,170.952 383.746,170.544 384.545,170.136 385.344,169.728 386.143,169.32 386.943,168.912 387.742,168.504 388.541,168.096 389.34,167.688 
  390.139,167.28 390.938,166.872 391.737,166.464 392.536,166.055 393.335,165.647 394.134,165.239 394.933,164.831 395.732,164.423 396.531,164.015 397.33,163.607 
  398.129,163.199 398.928,162.791 399.727,162.383 400.527,161.975 401.326,161.567 402.125,161.159 402.924,160.751 403.723,160.343 404.522,159.934 405.321,159.526 
  406.12,159.118 406.919,158.71 407.718,158.302 408.517,157.894 409.316,157.486 410.115,157.078 410.914,156.67 411.713,156.262 412.512,155.854 413.311,155.446 
  414.111,155.038 414.91,154.63 415.709,154.222 416.508,153.814 417.307,153.405 418.106,152.997 418.905,152.589 419.704,152.181 420.503,151.773 421.302,151.365 
  422.101,150.957 422.9,150.549 423.699,150.141 424.498,149.733 425.297,149.325 426.096,148.917 426.896,148.509 427.695,148.101 428.494,147.693 429.293,147.284 
  430.092,146.876 430.891,146.468 431.69,146.06 432.489,145.652 433.288,145.244 434.087,144.836 434.886,144.428 435.685,144.02 436.484,143.612 437.283,143.204 
  438.082,142.796 438.881,142.388 439.68,141.98 440.48,141.572 441.279,141.163 442.078,140.755 442.877,140.347 443.676,139.939 444.475,139.531 445.274,139.123 
  446.073,138.715 446.872,138.307 447.671,137.899 448.47,137.491 449.269,137.083 450.068,136.675 450.867,136.267 451.666,135.859 452.465,135.451 453.264,135.042 
  454.064,134.634 454.863,134.226 455.662,133.818 456.461,133.41 457.26,133.002 458.059,132.594 458.858,132.186 459.657,131.778 460.456,131.37 461.255,130.962 
  462.054,130.554 462.853,130.146 463.652,129.738 464.451,129.33 465.25,128.921 466.049,128.513 466.848,128.105 467.648,127.697 468.447,127.289 469.246,126.881 
  470.045,126.473 470.844,126.065 471.643,125.657 472.442,125.249 473.241,124.841 474.04,124.433 474.839,124.025 475.638,123.617 476.437,123.209 477.236,122.801 
  478.035,122.392 478.834,121.984 479.633,121.576 480.433,121.168 481.232,120.76 482.031,120.352 482.83,119.944 483.629,119.536 484.428,119.128 485.227,118.72 
  486.026,118.312 486.825,117.904 487.624,117.496 488.423,117.088 489.222,116.68 490.021,116.271 490.82,115.863 491.619,115.455 492.418,115.047 493.217,114.639 
  494.017,114.231 494.816,113.823 495.615,113.415 496.414,113.007 497.213,112.599 498.012,112.191 498.811,111.783 499.61,111.375 500.409,110.967 501.208,110.559 
  502.007,110.15 502.806,109.742 503.605,109.334 504.404,108.926 505.203,108.518 506.002,108.11 506.801,107.702 507.601,107.294 508.4,106.886 509.199,106.478 
  509.998,106.07 510.797,105.662 511.596,105.254 512.395,104.846 513.194,104.438 513.993,104.029 514.792,103.621 515.591,103.213 516.39,102.805 517.189,102.397 
  517.988,101.989 518.787,101.581 519.586,101.173 520.385,100.765 521.185,100.357 521.984,99.9488 522.783,99.5408 523.582,99.1327 524.381,98.7246 525.18,98.3166 
  525.979,97.9085 526.778,97.5004 527.577,97.0924 528.376,96.6843 529.175,96.2762 529.974,95.8682 530.773,95.4601 531.572,95.052 532.371,94.644 533.17,94.2359 
  533.97,93.8278 534.769,93.4198 535.568,93.0117 536.367,92.6036 537.166,92.1956 537.965,91.7875 538.764,91.3795 539.563,90.9714 540.362,90.5633 541.161,90.1553 
  541.96,89.7472 542.759,89.3391 543.558,88.9311 544.357,88.523 545.156,88.1149 545.955,87.7069 546.754,87.2988 547.554,86.8907 548.353,86.4827 549.152,86.0746 
  549.951,85.6665 550.75,85.2585 551.549,84.8504 552.348,84.4423 553.147,84.0343 553.946,83.6262 554.745,83.2181 555.544,82.8101 556.343,82.402 557.142,81.9939 
  557.941,81.5859 558.74,81.1778 559.539,80.7697 560.338,80.3617 561.138,79.9536 561.937,79.5455 562.736,79.1375 563.535,78.7294 564.334,78.3213 565.133,77.9133 
  565.932,77.5052 
  "/>
<polyline clip-path="url(#clip4102)" style="stroke:#3da44d; stroke-width:3; stroke-opacity:1; fill:none" points="
  86.4961,294.426 87.2952,294.018 88.0942,293.61 88.8933,293.202 89.6923,292.794 90.4914,292.386 91.2905,291.978 92.0895,291.57 92.8886,291.162 93.6876,290.754 
  94.4867,290.346 95.2858,289.938 96.0848,289.53 96.8839,289.122 97.6829,288.714 98.482,288.305 99.2811,287.897 100.08,287.489 100.879,287.081 101.678,286.673 
  102.477,286.265 103.276,285.857 104.075,285.449 104.874,285.041 105.674,284.633 106.473,284.225 107.272,283.817 108.071,283.409 108.87,283.001 109.669,282.593 
  110.468,282.184 111.267,281.776 112.066,281.368 112.865,280.96 113.664,280.552 114.463,280.144 115.262,279.736 116.061,279.328 116.86,278.92 117.659,278.512 
  118.458,278.104 119.258,277.696 120.057,277.288 120.856,276.88 121.655,276.472 122.454,276.064 123.253,275.655 124.052,275.247 124.851,274.839 125.65,274.431 
  126.449,274.023 127.248,273.615 128.047,273.207 128.846,272.799 129.645,272.391 130.444,271.983 131.243,271.575 132.043,271.167 132.842,270.759 133.641,270.351 
  134.44,269.943 135.239,269.534 136.038,269.126 136.837,268.718 137.636,268.31 138.435,267.902 139.234,267.494 140.033,267.086 140.832,266.678 141.631,266.27 
  142.43,265.862 143.229,265.454 144.028,265.046 144.827,264.638 145.627,264.23 146.426,263.822 147.225,263.413 148.024,263.005 148.823,262.597 149.622,262.189 
  150.421,261.781 151.22,261.373 152.019,260.965 152.818,260.557 153.617,260.149 154.416,259.741 155.215,259.333 156.014,258.925 156.813,258.517 157.612,258.109 
  158.411,257.701 159.211,257.292 160.01,256.884 160.809,256.476 161.608,256.068 162.407,255.66 163.206,255.252 164.005,254.844 164.804,254.436 165.603,254.028 
  166.402,253.62 167.201,253.212 168,252.804 168.799,252.396 169.598,251.988 170.397,251.58 171.196,251.171 171.995,250.763 172.795,250.355 173.594,249.947 
  174.393,249.539 175.192,249.131 175.991,248.723 176.79,248.315 177.589,247.907 178.388,247.499 179.187,247.091 179.986,246.683 180.785,246.275 181.584,245.867 
  182.383,245.459 183.182,245.051 183.981,244.642 184.78,244.234 185.579,243.826 186.379,243.418 187.178,243.01 187.977,242.602 188.776,242.194 189.575,241.786 
  190.374,241.378 191.173,240.97 191.972,240.562 192.771,240.154 193.57,239.746 194.369,239.338 195.168,238.93 195.967,238.521 196.766,238.113 197.565,237.705 
  198.364,237.297 199.164,236.889 199.963,236.481 200.762,236.073 201.561,235.665 202.36,235.257 203.159,234.849 203.958,234.441 204.757,234.033 205.556,233.625 
  206.355,233.217 207.154,232.809 207.953,232.4 208.752,231.992 209.551,231.584 210.35,231.176 211.149,230.768 211.948,230.36 212.748,229.952 213.547,229.544 
  214.346,229.136 215.145,228.728 215.944,228.32 216.743,227.912 217.542,227.504 218.341,227.096 219.14,226.688 219.939,226.279 220.738,225.871 221.537,225.463 
  222.336,225.055 223.135,224.647 223.934,224.239 224.733,223.831 225.532,223.423 226.332,223.015 227.131,222.607 227.93,222.199 228.729,221.791 229.528,221.383 
  230.327,220.975 231.126,220.567 231.925,220.158 232.724,219.75 233.523,219.342 234.322,218.934 235.121,218.526 235.92,218.118 236.719,217.71 237.518,217.302 
  238.317,216.894 239.116,216.486 239.916,216.078 240.715,215.67 241.514,215.262 242.313,214.854 243.112,214.446 243.911,214.038 244.71,213.629 245.509,213.221 
  246.308,212.813 247.107,212.405 247.906,211.997 248.705,211.589 249.504,211.181 250.303,210.773 251.102,210.365 251.901,209.957 252.701,209.549 253.5,209.141 
  254.299,208.733 255.098,208.325 255.897,207.917 256.696,207.508 257.495,207.1 258.294,206.692 259.093,206.284 259.892,205.876 260.691,205.468 261.49,205.06 
  262.289,204.652 263.088,204.244 263.887,203.836 264.686,203.428 265.485,203.02 266.285,202.612 267.084,202.204 267.883,201.796 268.682,201.387 269.481,200.979 
  270.28,200.571 271.079,200.163 271.878,199.755 272.677,199.347 273.476,198.939 274.275,198.531 275.074,198.123 275.873,197.715 276.672,197.307 277.471,196.899 
  278.27,196.491 279.069,196.083 279.869,195.675 280.668,195.266 281.467,194.858 282.266,194.45 283.065,194.042 283.864,193.634 284.663,193.226 285.462,192.818 
  286.261,192.41 287.06,192.002 287.859,191.594 288.658,191.186 289.457,190.778 290.256,190.37 291.055,189.962 291.854,189.554 292.653,189.146 293.453,188.737 
  294.252,188.329 295.051,187.921 295.85,187.513 296.649,187.105 297.448,186.697 298.247,186.289 299.046,185.881 299.845,185.473 300.644,185.065 301.443,184.657 
  302.242,184.249 303.041,183.841 303.84,183.433 304.639,183.025 305.438,182.616 306.238,182.208 307.037,181.8 307.836,181.392 308.635,180.984 309.434,180.576 
  310.233,180.168 311.032,179.76 311.831,179.352 312.63,178.944 313.429,178.536 314.228,178.128 315.027,177.72 315.826,177.312 316.625,176.904 317.424,176.495 
  318.223,176.087 319.022,175.679 319.822,175.271 320.621,174.863 321.42,174.455 322.219,174.047 323.018,173.639 323.817,173.231 324.616,172.823 325.415,172.415 
  326.214,172.007 327.013,171.599 327.812,171.191 328.611,170.783 329.41,170.374 330.209,169.966 331.008,169.558 331.807,169.15 332.606,168.742 333.406,168.334 
  334.205,167.926 335.004,167.518 335.803,167.11 336.602,166.702 337.401,166.294 338.2,165.886 338.999,165.478 339.798,165.07 340.597,164.662 341.396,164.253 
  342.195,163.845 342.994,163.437 343.793,163.029 344.592,162.621 345.391,162.213 346.19,161.805 346.99,161.397 347.789,160.989 348.588,160.581 349.387,160.173 
  350.186,159.765 350.985,159.357 351.784,158.949 352.583,158.541 353.382,158.133 354.181,157.724 354.98,157.316 355.779,156.908 356.578,156.5 357.377,156.092 
  358.176,155.684 358.975,155.276 359.775,154.868 360.574,154.46 361.373,154.052 362.172,153.644 362.971,153.236 363.77,152.828 364.569,152.42 365.368,152.012 
  366.167,151.603 366.966,151.195 367.765,150.787 368.564,150.379 369.363,149.971 370.162,149.563 370.961,149.155 371.76,148.747 372.559,148.339 373.359,147.931 
  374.158,147.523 374.957,147.115 375.756,146.707 376.555,146.299 377.354,145.891 378.153,145.482 378.952,145.074 379.751,144.666 380.55,144.258 381.349,143.85 
  382.148,143.442 382.947,143.034 383.746,142.626 384.545,142.218 385.344,141.81 386.143,141.402 386.943,140.994 387.742,140.586 388.541,140.178 389.34,139.77 
  390.139,139.361 390.938,138.953 391.737,138.545 392.536,138.137 393.335,137.729 394.134,137.321 394.933,136.913 395.732,136.505 396.531,136.097 397.33,135.689 
  398.129,135.281 398.928,134.873 399.727,134.465 400.527,134.057 401.326,133.649 402.125,133.241 402.924,132.832 403.723,132.424 404.522,132.016 405.321,131.608 
  406.12,131.2 406.919,130.792 407.718,130.384 408.517,129.976 409.316,129.568 410.115,129.16 410.914,128.752 411.713,128.344 412.512,127.936 413.311,127.528 
  414.111,127.12 414.91,126.711 415.709,126.303 416.508,125.895 417.307,125.487 418.106,125.079 418.905,124.671 419.704,124.263 420.503,123.855 421.302,123.447 
  422.101,123.039 422.9,122.631 423.699,122.223 424.498,121.815 425.297,121.407 426.096,120.999 426.896,120.59 427.695,120.182 428.494,119.774 429.293,119.366 
  430.092,118.958 430.891,118.55 431.69,118.142 432.489,117.734 433.288,117.326 434.087,116.918 434.886,116.51 435.685,116.102 436.484,115.694 437.283,115.286 
  438.082,114.878 438.881,114.469 439.68,114.061 440.48,113.653 441.279,113.245 442.078,112.837 442.877,112.429 443.676,112.021 444.475,111.613 445.274,111.205 
  446.073,110.797 446.872,110.389 447.671,109.981 448.47,109.573 449.269,109.165 450.068,108.757 450.867,108.348 451.666,107.94 452.465,107.532 453.264,107.124 
  454.064,106.716 454.863,106.308 455.662,105.9 456.461,105.492 457.26,105.084 458.059,104.676 458.858,104.268 459.657,103.86 460.456,103.452 461.255,103.044 
  462.054,102.636 462.853,102.228 463.652,101.819 464.451,101.411 465.25,101.003 466.049,100.595 466.848,100.187 467.648,99.7791 468.447,99.371 469.246,98.963 
  470.045,98.5549 470.844,98.1468 471.643,97.7388 472.442,97.3307 473.241,96.9227 474.04,96.5146 474.839,96.1065 475.638,95.6985 476.437,95.2904 477.236,94.8823 
  478.035,94.4743 478.834,94.0662 479.633,93.6581 480.433,93.2501 481.232,92.842 482.031,92.4339 482.83,92.0259 483.629,91.6178 484.428,91.2097 485.227,90.8017 
  486.026,90.3936 486.825,89.9855 487.624,89.5775 488.423,89.1694 489.222,88.7613 490.021,88.3533 490.82,87.9452 491.619,87.5371 492.418,87.1291 493.217,86.721 
  494.017,86.3129 494.816,85.9049 495.615,85.4968 496.414,85.0887 497.213,84.6807 498.012,84.2726 498.811,83.8645 499.61,83.4565 500.409,83.0484 501.208,82.6404 
  502.007,82.2323 502.806,81.8242 503.605,81.4162 504.404,81.0081 505.203,80.6 506.002,80.192 506.801,79.7839 507.601,79.3758 508.4,78.9678 509.199,78.5597 
  509.998,78.1516 510.797,77.7436 511.596,77.3355 512.395,76.9274 513.194,76.5194 513.993,76.1113 514.792,75.7032 515.591,75.2952 516.39,74.8871 517.189,74.479 
  517.988,74.071 518.787,73.6629 519.586,73.2548 520.385,72.8468 521.185,72.4387 521.984,72.0306 522.783,71.6226 523.582,71.2145 524.381,70.8064 525.18,70.3984 
  525.979,69.9903 526.778,69.5822 527.577,69.1742 528.376,68.7661 529.175,68.3581 529.974,67.95 530.773,67.5419 531.572,67.1339 532.371,66.7258 533.17,66.3177 
  533.97,65.9097 534.769,65.5016 535.568,65.0935 536.367,64.6855 537.166,64.2774 537.965,63.8693 538.764,63.4613 539.563,63.0532 540.362,62.6451 541.161,62.2371 
  541.96,61.829 542.759,61.4209 543.558,61.0129 544.357,60.6048 545.156,60.1967 545.955,59.7887 546.754,59.3806 547.554,58.9725 548.353,58.5645 549.152,58.1564 
  549.951,57.7483 550.75,57.3403 551.549,56.9322 552.348,56.5241 553.147,56.1161 553.946,55.708 554.745,55.2999 555.544,54.8919 556.343,54.4838 557.142,54.0758 
  557.941,53.6677 558.74,53.2596 559.539,52.8516 560.338,52.4435 561.138,52.0354 561.937,51.6274 562.736,51.2193 563.535,50.8112 564.334,50.4032 565.133,49.9951 
  565.932,49.587 
  "/>
<polyline clip-path="url(#clip4102)" style="stroke:#c271d2; stroke-width:3; stroke-opacity:1; fill:none" points="
  86.4961,266.508 87.2952,266.1 88.0942,265.692 88.8933,265.284 89.6923,264.876 90.4914,264.468 91.2905,264.06 92.0895,263.652 92.8886,263.244 93.6876,262.836 
  94.4867,262.428 95.2858,262.02 96.0848,261.611 96.8839,261.203 97.6829,260.795 98.482,260.387 99.2811,259.979 100.08,259.571 100.879,259.163 101.678,258.755 
  102.477,258.347 103.276,257.939 104.075,257.531 104.874,257.123 105.674,256.715 106.473,256.307 107.272,255.899 108.071,255.49 108.87,255.082 109.669,254.674 
  110.468,254.266 111.267,253.858 112.066,253.45 112.865,253.042 113.664,252.634 114.463,252.226 115.262,251.818 116.061,251.41 116.86,251.002 117.659,250.594 
  118.458,250.186 119.258,249.778 120.057,249.37 120.856,248.961 121.655,248.553 122.454,248.145 123.253,247.737 124.052,247.329 124.851,246.921 125.65,246.513 
  126.449,246.105 127.248,245.697 128.047,245.289 128.846,244.881 129.645,244.473 130.444,244.065 131.243,243.657 132.043,243.249 132.842,242.84 133.641,242.432 
  134.44,242.024 135.239,241.616 136.038,241.208 136.837,240.8 137.636,240.392 138.435,239.984 139.234,239.576 140.033,239.168 140.832,238.76 141.631,238.352 
  142.43,237.944 143.229,237.536 144.028,237.128 144.827,236.719 145.627,236.311 146.426,235.903 147.225,235.495 148.024,235.087 148.823,234.679 149.622,234.271 
  150.421,233.863 151.22,233.455 152.019,233.047 152.818,232.639 153.617,232.231 154.416,231.823 155.215,231.415 156.014,231.007 156.813,230.598 157.612,230.19 
  158.411,229.782 159.211,229.374 160.01,228.966 160.809,228.558 161.608,228.15 162.407,227.742 163.206,227.334 164.005,226.926 164.804,226.518 165.603,226.11 
  166.402,225.702 167.201,225.294 168,224.886 168.799,224.478 169.598,224.069 170.397,223.661 171.196,223.253 171.995,222.845 172.795,222.437 173.594,222.029 
  174.393,221.621 175.192,221.213 175.991,220.805 176.79,220.397 177.589,219.989 178.388,219.581 179.187,219.173 179.986,218.765 180.785,218.357 181.584,217.948 
  182.383,217.54 183.182,217.132 183.981,216.724 184.78,216.316 185.579,215.908 186.379,215.5 187.178,215.092 187.977,214.684 188.776,214.276 189.575,213.868 
  190.374,213.46 191.173,213.052 191.972,212.644 192.771,212.236 193.57,211.827 194.369,211.419 195.168,211.011 195.967,210.603 196.766,210.195 197.565,209.787 
  198.364,209.379 199.164,208.971 199.963,208.563 200.762,208.155 201.561,207.747 202.36,207.339 203.159,206.931 203.958,206.523 204.757,206.115 205.556,205.706 
  206.355,205.298 207.154,204.89 207.953,204.482 208.752,204.074 209.551,203.666 210.35,203.258 211.149,202.85 211.948,202.442 212.748,202.034 213.547,201.626 
  214.346,201.218 215.145,200.81 215.944,200.402 216.743,199.994 217.542,199.585 218.341,199.177 219.14,198.769 219.939,198.361 220.738,197.953 221.537,197.545 
  222.336,197.137 223.135,196.729 223.934,196.321 224.733,195.913 225.532,195.505 226.332,195.097 227.131,194.689 227.93,194.281 228.729,193.873 229.528,193.465 
  230.327,193.056 231.126,192.648 231.925,192.24 232.724,191.832 233.523,191.424 234.322,191.016 235.121,190.608 235.92,190.2 236.719,189.792 237.518,189.384 
  238.317,188.976 239.116,188.568 239.916,188.16 240.715,187.752 241.514,187.344 242.313,186.935 243.112,186.527 243.911,186.119 244.71,185.711 245.509,185.303 
  246.308,184.895 247.107,184.487 247.906,184.079 248.705,183.671 249.504,183.263 250.303,182.855 251.102,182.447 251.901,182.039 252.701,181.631 253.5,181.223 
  254.299,180.814 255.098,180.406 255.897,179.998 256.696,179.59 257.495,179.182 258.294,178.774 259.093,178.366 259.892,177.958 260.691,177.55 261.49,177.142 
  262.289,176.734 263.088,176.326 263.887,175.918 264.686,175.51 265.485,175.102 266.285,174.693 267.084,174.285 267.883,173.877 268.682,173.469 269.481,173.061 
  270.28,172.653 271.079,172.245 271.878,171.837 272.677,171.429 273.476,171.021 274.275,170.613 275.074,170.205 275.873,169.797 276.672,169.389 277.471,168.981 
  278.27,168.573 279.069,168.164 279.869,167.756 280.668,167.348 281.467,166.94 282.266,166.532 283.065,166.124 283.864,165.716 284.663,165.308 285.462,164.9 
  286.261,164.492 287.06,164.084 287.859,163.676 288.658,163.268 289.457,162.86 290.256,162.452 291.055,162.043 291.854,161.635 292.653,161.227 293.453,160.819 
  294.252,160.411 295.051,160.003 295.85,159.595 296.649,159.187 297.448,158.779 298.247,158.371 299.046,157.963 299.845,157.555 300.644,157.147 301.443,156.739 
  302.242,156.331 303.041,155.922 303.84,155.514 304.639,155.106 305.438,154.698 306.238,154.29 307.037,153.882 307.836,153.474 308.635,153.066 309.434,152.658 
  310.233,152.25 311.032,151.842 311.831,151.434 312.63,151.026 313.429,150.618 314.228,150.21 315.027,149.801 315.826,149.393 316.625,148.985 317.424,148.577 
  318.223,148.169 319.022,147.761 319.822,147.353 320.621,146.945 321.42,146.537 322.219,146.129 323.018,145.721 323.817,145.313 324.616,144.905 325.415,144.497 
  326.214,144.089 327.013,143.68 327.812,143.272 328.611,142.864 329.41,142.456 330.209,142.048 331.008,141.64 331.807,141.232 332.606,140.824 333.406,140.416 
  334.205,140.008 335.004,139.6 335.803,139.192 336.602,138.784 337.401,138.376 338.2,137.968 338.999,137.56 339.798,137.151 340.597,136.743 341.396,136.335 
  342.195,135.927 342.994,135.519 343.793,135.111 344.592,134.703 345.391,134.295 346.19,133.887 346.99,133.479 347.789,133.071 348.588,132.663 349.387,132.255 
  350.186,131.847 350.985,131.439 351.784,131.03 352.583,130.622 353.382,130.214 354.181,129.806 354.98,129.398 355.779,128.99 356.578,128.582 357.377,128.174 
  358.176,127.766 358.975,127.358 359.775,126.95 360.574,126.542 361.373,126.134 362.172,125.726 362.971,125.318 363.77,124.909 364.569,124.501 365.368,124.093 
  366.167,123.685 366.966,123.277 367.765,122.869 368.564,122.461 369.363,122.053 370.162,121.645 370.961,121.237 371.76,120.829 372.559,120.421 373.359,120.013 
  374.158,119.605 374.957,119.197 375.756,118.788 376.555,118.38 377.354,117.972 378.153,117.564 378.952,117.156 379.751,116.748 380.55,116.34 381.349,115.932 
  382.148,115.524 382.947,115.116 383.746,114.708 384.545,114.3 385.344,113.892 386.143,113.484 386.943,113.076 387.742,112.667 388.541,112.259 389.34,111.851 
  390.139,111.443 390.938,111.035 391.737,110.627 392.536,110.219 393.335,109.811 394.134,109.403 394.933,108.995 395.732,108.587 396.531,108.179 397.33,107.771 
  398.129,107.363 398.928,106.955 399.727,106.547 400.527,106.138 401.326,105.73 402.125,105.322 402.924,104.914 403.723,104.506 404.522,104.098 405.321,103.69 
  406.12,103.282 406.919,102.874 407.718,102.466 408.517,102.058 409.316,101.65 410.115,101.242 410.914,100.834 411.713,100.426 412.512,100.017 413.311,99.6094 
  414.111,99.2013 414.91,98.7933 415.709,98.3852 416.508,97.9771 417.307,97.5691 418.106,97.161 418.905,96.7529 419.704,96.3449 420.503,95.9368 421.302,95.5287 
  422.101,95.1207 422.9,94.7126 423.699,94.3045 424.498,93.8965 425.297,93.4884 426.096,93.0803 426.896,92.6723 427.695,92.2642 428.494,91.8561 429.293,91.4481 
  430.092,91.04 430.891,90.6319 431.69,90.2239 432.489,89.8158 433.288,89.4078 434.087,88.9997 434.886,88.5916 435.685,88.1836 436.484,87.7755 437.283,87.3674 
  438.082,86.9594 438.881,86.5513 439.68,86.1432 440.48,85.7352 441.279,85.3271 442.078,84.919 442.877,84.511 443.676,84.1029 444.475,83.6948 445.274,83.2868 
  446.073,82.8787 446.872,82.4706 447.671,82.0626 448.47,81.6545 449.269,81.2464 450.068,80.8384 450.867,80.4303 451.666,80.0222 452.465,79.6142 453.264,79.2061 
  454.064,78.798 454.863,78.39 455.662,77.9819 456.461,77.5738 457.26,77.1658 458.059,76.7577 458.858,76.3496 459.657,75.9416 460.456,75.5335 461.255,75.1255 
  462.054,74.7174 462.853,74.3093 463.652,73.9013 464.451,73.4932 465.25,73.0851 466.049,72.6771 466.848,72.269 467.648,71.8609 468.447,71.4529 469.246,71.0448 
  470.045,70.6367 470.844,70.2287 471.643,69.8206 472.442,69.4125 473.241,69.0045 474.04,68.5964 474.839,68.1883 475.638,67.7803 476.437,67.3722 477.236,66.9641 
  478.035,66.5561 478.834,66.148 479.633,65.7399 480.433,65.3319 481.232,64.9238 482.031,64.5157 482.83,64.1077 483.629,63.6996 484.428,63.2915 485.227,62.8835 
  486.026,62.4754 486.825,62.0673 487.624,61.6593 488.423,61.2512 489.222,60.8432 490.021,60.4351 490.82,60.027 491.619,59.619 492.418,59.2109 493.217,58.8028 
  494.017,58.3948 494.816,57.9867 495.615,57.5786 496.414,57.1706 497.213,56.7625 498.012,56.3544 498.811,55.9464 499.61,55.5383 500.409,55.1302 501.208,54.7222 
  502.007,54.3141 502.806,53.906 503.605,53.498 504.404,53.0899 505.203,52.6818 506.002,52.2738 506.801,51.8657 507.601,51.4576 508.4,51.0496 509.199,50.6415 
  509.998,50.2334 510.797,49.8254 511.596,49.4173 512.395,49.0092 513.194,48.6012 513.993,48.1931 514.792,47.785 515.591,47.377 516.39,46.9689 517.189,46.5609 
  517.988,46.1528 518.787,45.7447 519.586,45.3367 520.385,44.9286 521.185,44.5205 521.984,44.1125 522.783,43.7044 523.582,43.2963 524.381,42.8883 525.18,42.4802 
  525.979,42.0721 526.778,41.6641 527.577,41.256 528.376,40.8479 529.175,40.4399 529.974,40.0318 530.773,39.6237 531.572,39.2157 532.371,38.8076 533.17,38.3995 
  533.97,37.9915 534.769,37.5834 535.568,37.1753 536.367,36.7673 537.166,36.3592 537.965,35.9511 538.764,35.5431 539.563,35.135 540.362,34.7269 541.161,34.3189 
  541.96,33.9108 542.759,33.5027 543.558,33.0947 544.357,32.6866 545.156,32.2786 545.955,31.8705 546.754,31.4624 547.554,31.0544 548.353,30.6463 549.152,30.2382 
  549.951,29.8302 550.75,29.4221 551.549,29.014 552.348,28.606 553.147,28.1979 553.946,27.7898 554.745,27.3818 555.544,26.9737 556.343,26.5656 557.142,26.1576 
  557.941,25.7495 558.74,25.3414 559.539,24.9334 560.338,24.5253 561.138,24.1172 561.937,23.7092 562.736,23.3011 563.535,22.893 564.334,22.485 565.133,22.0769 
  565.932,21.6688 
  "/>
<polygon clip-path="url(#clip4100)" points="
465.192,108.291 562.315,108.291 562.315,32.691 465.192,32.691 
  " fill="#ffffff" fill-opacity="1"/>
<polyline clip-path="url(#clip4100)" style="stroke:#000000; stroke-width:1; stroke-opacity:1; fill:none" points="
  465.192,108.291 562.315,108.291 562.315,32.691 465.192,32.691 465.192,108.291 
  "/>
<polyline clip-path="url(#clip4100)" style="stroke:#009af9; stroke-width:3; stroke-opacity:1; fill:none" points="
  471.192,47.811 507.192,47.811 
  "/>
<g clip-path="url(#clip4100)">
<text style="fill:#000000; fill-opacity:1; font-family:Arial,Helvetica Neue,Helvetica,sans-serif; font-size:12; text-anchor:start;" transform="rotate(0, 513.192, 52.311)" x="513.192" y="52.311">m = 5</text>
</g>
<polyline clip-path="url(#clip4100)" style="stroke:#e26f46; stroke-width:3; stroke-opacity:1; fill:none" points="
  471.192,62.931 507.192,62.931 
  "/>
<g clip-path="url(#clip4100)">
<text style="fill:#000000; fill-opacity:1; font-family:Arial,Helvetica Neue,Helvetica,sans-serif; font-size:12; text-anchor:start;" transform="rotate(0, 513.192, 67.431)" x="513.192" y="67.431">m = 10</text>
</g>
<polyline clip-path="url(#clip4100)" style="stroke:#3da44d; stroke-width:3; stroke-opacity:1; fill:none" points="
  471.192,78.051 507.192,78.051 
  "/>
<g clip-path="url(#clip4100)">
<text style="fill:#000000; fill-opacity:1; font-family:Arial,Helvetica Neue,Helvetica,sans-serif; font-size:12; text-anchor:start;" transform="rotate(0, 513.192, 82.551)" x="513.192" y="82.551">m = 20</text>
</g>
<polyline clip-path="url(#clip4100)" style="stroke:#c271d2; stroke-width:3; stroke-opacity:1; fill:none" points="
  471.192,93.171 507.192,93.171 
  "/>
<g clip-path="url(#clip4100)">
<text style="fill:#000000; fill-opacity:1; font-family:Arial,Helvetica Neue,Helvetica,sans-serif; font-size:12; text-anchor:start;" transform="rotate(0, 513.192, 97.671)" x="513.192" y="97.671">m = 40</text>
</g>
</svg>
